/* XPM */
static char *Ground_Tile_01_A[] = {
/* columns rows colors chars-per-pixel */
"64 64 85 1 ",
"  c #695135",
". c #735A3B",
"X c #78593C",
"o c #74623E",
"O c #635342",
"+ c #6A5540",
"@ c #6B5944",
"# c #61574D",
"$ c #665A4C",
"% c #6A5C48",
"& c #735E42",
"* c #705F49",
"= c #625A53",
"- c #635D5A",
"; c #6F604C",
": c #746245",
"> c #7C6543",
", c #7D6A43",
"< c #71624A",
"1 c #786749",
"2 c #7F6B4A",
"3 c #6B6051",
"4 c #66615D",
"5 c #6B655C",
"6 c #756A55",
"7 c #7B6C51",
"8 c #71655A",
"9 c #71695F",
"0 c #666160",
"q c #6C6562",
"w c #6E6965",
"e c #706760",
"r c #726A66",
"t c #736B6A",
"y c #796E6B",
"u c #7C716F",
"i c #7A6E70",
"p c #7B7171",
"a c #896744",
"s c #826E46",
"d c #8A6A45",
"f c #816B48",
"g c #8B6D48",
"h c #847147",
"j c #8D7147",
"k c #867349",
"l c #8B754B",
"z c #8F7A4F",
"x c #957646",
"c c #997744",
"v c #967847",
"b c #997845",
"n c #937749",
"m c #91794C",
"M c #987A48",
"N c #837353",
"B c #8B7652",
"V c #8E7A50",
"C c #8E7A5C",
"Z c #907B50",
"A c #927D5B",
"S c #8D7961",
"D c #8E7E6E",
"F c #937F64",
"G c #837575",
"H c #867970",
"J c #8A7B76",
"K c #84797B",
"L c #8C7D7E",
"P c #94816D",
"I c #8E807E",
"U c #948273",
"Y c #97857C",
"T c #9A877A",
"R c #8C7F82",
"E c #907F81",
"W c #8F8083",
"Q c #938384",
"! c #988783",
"~ c #928389",
"^ c #98878A",
"/ c #95888C",
"( c #9B8B8D",
") c #9C8D91",
"_ c #A19097",
/* pixels */
"zzzzhvPvlPPhvzzPPhvzzzzzzzzzzzzzzzvhvhvlPvzzzzzzzzzzzzzzzzzzzzzz",
"zZzlPmhvhvvvvvvvvlvzzzzzzzzzzzzzzvjovPhPzzzzzzzzzzzzzzzzzzkvvMzz",
"zzhkvlzzvvvvvvccvvvmzvzzzzzzzzzzzhhPPkvmzzzzzzzzzvzzzzzzzPvvvvvv",
"zlslPzzzvvlvvvvhvvvbPhzzzzzzzzzzzPP(TPmmzzzzzzzzzzzzzzzzzzvvvvvv",
"zzzhlzzzvvvcvvvvhbvvzzkvzzzzzzzzNI)/TYPlzzzzzzzzzzzzzzzzzzzvzvvz",
"zVPUYPVvvvkckvkvvvvvzlvPzzzzzzzhwI()(YkPzzzzzzzzzzzzzzzzzzzvvvvl",
"kH))))PnPhPhkvvvvvvzzlzkzzzzzvho5HKIDHlvzzzzzzzzzzzzZzzhzzZvlvvz",
"1wW((QSnvcvvvvvvvvvzzzvhhvzzPhhh=44446zzzzzzzzzzzzzzhhhzzkzkkvzz",
"o3wyu6kvkvvvvccvvvzzhzzzvzkzPovhoo%%oPhzzzzzzzzzzzPkhzzzzhhzvlvP",
"l%---oPlvvlvPhvkPzzzhzzzzzzv,kvPPlPkvhhvzzzzzzzzzvkhzzzzzzkvzvhv",
"PhoohPmmPvvvvvvPzzzkhzzzzzPhvmlvccccMPkvzzzzzzzzzzkzzzzzzzhzvlvv",
"zzzmvhmmhvkvkvvhzzzhzzzzzzkhvmcccchcbMkhZzzzzzzzzzzzzzzzzzkzzzvz",
"zzzzzmmmlmlvvvPhzzhkMzzzzzhzkccvcccxxccozzzzzzzzzzzzzzzzzvhPzzvP",
"zzzmzmmmvmvmvllvzzhhzZzzzlzzcvcvvvcjxccPkvzzzzzzzzzzzzzzzkkzzvvh",
"zzzzlzvPvzvmkvzhzzhzkzzzzzzvcvvvvccvxxcklhvzzzzzzzzzzzzzZvlzzzvl",
"zzzzmvhvlvmmvPvklzkzzhZzzzzvchvcvhcxxxccPhzzzzzzzzzzzzzzzzlzzzvz",
"zzzzzvPhvzzzzzzlkPklzkzzzPbvvvvvxxxxcbvczzzzzzzzzzzzzzzzzzVVVVzz",
"zzzzzzvvzzzzzzzvhvzhhlhzzzbvvvcvxxxxchvvMkzzzklzzzzzZzzzzzNVVVzz",
"zzzzzzzzzzzzzzzhlzzllhlzlzvvhchvxxvxvvvvvlkMvhkzzzzzzzZvZhIIDVzz",
"zzzzzzzzzzzzzzzhzzzkkkzzhzvvcvvvvlvvjvvkvzhvPkzzzzzzzzzZz6I/)TPz",
"zzzzzzzzzzzzzZkhzhhklzzzokzMvvvvxxxnvvvvvzzzzzzzzzzzzZzZ6wI//((F",
"zzzzzzzzzzzZzzZhkhzzzzzzhkzhhmvbxxnxlvvvvvzzzzzzzzzzzzzZ1wI/(()P",
"zh,hvPzzzzzzzzZ,ozzzzzzkzzvhllkvbxnxlvmvvvzkzzPzzzzzzzzZo4HI(/(F",
"zlvkhkklzzzzzzZhzZzzzzzhkzvPzzmvbmxnvvvvvvzlvvkzzzzzzzzzo=wKI/IV",
"zzzzzhkvkzzzzzzkzzzzvzzzhkzzlPhcvxmxnnnmvvvzkPzzzzzzzzzv,o%5546P",
"zzzzzzPvzzzzzzzhzzzzhPzzzzlzvbcvxmvlnnnxlvzzvhzzzzzzzzzzPkoo<,vl",
"zzzzzzPvzzzzvzkkzzzzzvvvvvvvcvvvnxnnxmnnmvvlhzvzzzzzzzzzPvvvPmPh",
"zzzzmvhvzzzzkPzkzzzzvvkvzvvvvhPlnmnnxnnnmzvvkkzzzzzzzzzzhkPhvzkv",
"zzzzzzhhkzzzzzzlzzzZvvzzmvvlvvvvnnnnlnnnzvvmZkhzzlvzvzzzzzzzkzzz",
"PzzzzzhhhzzzzzzzzzzzzvvvvmvlPvvlnnmnmvznkvvzZzkzPvzzkPzzzzzzvzzz",
"vzzzzzvhvkvzzzzzzzzvvPPPPkvmhvvvlmmxmnnnvzzvvzzkzzzzzzzzzzzzzzzz",
"lzzzzzzzPvzzzzzzzzzvk/((TPmvvvvkmvmxmmnmzvvvZzzkkzzzzzzzzzzzzzzz",
"zZzzzzzzzzzzzzzzzzPv9)(//)PhPvzvmmznnmnmchvlvvzPhhvzzzzzzzzzzzzz",
"zzzzzzzzzzzzzzzvzzvou)()(TUPvlvvmnnmznznPvvvhPvzvkzzzzzzzzzzzZzz",
"zzzzzzzzzzzzzzzPzzlo9!T!IK9PhvvlnnznnnvlkvvlvlvzzvzzzzzzzzZzzzzz",
"zzzzzzzzzzzzzzzzzzP,=wy943hvvvvvznnmzznnkvmmvvlzlkvPzzzzzzzzzZzz",
"zzzzzzzzzzzzzzzzzzzzo%%o,vvPzvlhznznnznzvzzmzvvzklPkvzzzzzzzzzzZ",
"zZzzzzzzzzzzzzzzzzzzvlPhPvvhzzvPnznzznznmzmmlzzzkkzzzzzzzzzzzzzz",
"zzzzzzzzzzzzzzzzvPzzllPvvhvkzvmmznznnznnzlzzvzzzkzzzzzzzzzzzzzzz",
"zzZzzzzzzzzzzzzzkzzzvhhvkPvvvkmmnznzzzYPvzvvzzzzlzzzzzzzzzzzzzzz",
"zzzzZzzzzzzzzzzzmvzzzkPvvzzmmhmmzzznn;p_TznmmPvkkZzzzzzklhlhzzhz",
"ZzzzzzzzzzhzzzzzzzzzzkvkzzlzPvzzznzzm:4pJzzzzzvohzzzzzzzzzZzz,hz",
"zzzzzzzZzzkhzzzzzzzzzzlzzzzvhmlzznznzn>:kmzzvzh,,zzzzzzzzzzzzzzz",
"zzzzlzzzzzzzkzzzzzzzzhzzvlzzvvvzzzzzmzmmmzmlk,hvhkzzzzvPzzzzzzzz",
"zzzzzzl,hzlhzzzzPzzzzlzzvkvzzzvzznzmzmzzVVllkllPhzzZzzzzzzzzzzzz",
"zzzzzzzzzzohklzzvzzzzhzzPvzzzzzzzzzmmzmzVzhlhPvvhzzzzzzzzzzzzzzz",
"zzzzzzzzzzhzvzzzlzzzzkzzzzzzzzzzzmzmzmzzVhl,,PvPlzzzzzzzzzzzzzzz",
"zzzzzzzzzzzhzzzzzzzzhkzzzzzzzzhzzzzzzzzzzllzjkvozzzzzzzzzzzzzzzz",
"zzzzzzzzzzzzzzzzzzzkvhzzzvzzvhzzzzzzzzzzzzhzzkZhlzzzzzzzzzzzzzzz",
"zzzzzzvzzzzzzzzzvlzPkhhzzPzzhkzzzzzzzzzzzzzhzlzzhzzzzzzzzzzzzzzz",
"zzzzPzPPvvzzkPzzPkzkkzzzzh,,ovzlzzzzzzkzzzzzkkZzvzzkzzZzzzzzzzzz",
"zzzZkUT/PzvvvMvMvvzhzMzkkhzzPvvvzzzzzhzzzzzzzkZzPvhhzzzzzzzzzzzz",
"zZzvorY))TzvvlzvccbvmhvhkzMvvvccMzzzkzzzzzzzhlzzhvzzzzzzzzZzzzzz",
"zzzl%wp/(TPkvvzvhPvbvcPvvMvkvvvhMzzzkzzzzzzzlzzzzzzzzzzzzzzzzzzz",
"zzzz =5rY/PvzvzvvvvvvvccMvvvvvvczzzkzzzzzzzhZzzzzzzzzzzkzzzzzzzz",
"zzZZh O=-5lvzvkzlvlvlvchvvvvvvcvzzhkzzzzzzzkzzzzzzzzzzPvzzzzzkmz",
"zzzzPzoookmmlvlvvvvvvvvPvvvvvvvzzhkZzzzzzzlzzzzzzlVVP((/Pvzzzhhv",
"zzzzvmzvvPmmvzhPhcvlvlvvvvvkvvzZkkzzzZzzzzzlzzzzzkPhI))/Pkzzhkov",
"zzzzvkzzkvzmzvvvvPvvvvvlvhvvvzzlkPvzzzzzzzzzzzzzzzlowIIHhzzk,vPv",
"zzzzzzzvmzmmvlvvlvlvvlvvvvvvzzkkzzlzzZzzzzzzzzzzzzPo4w5<vvzzhPvk",
"zmlzzzzzzvzvlhvvmvzlvvvvvvvmzlzzzZzzzzzZzzzzzzzzzzPho=3hzzPmhhvz",
"zhomzzzzzzzlvPlvvzmvzllvlmzlzzzzzzzzzzzzzzzzzzzzzzvvlhkPzvkZkhzl",
"csvvzzzkzzvzvvvzzzzzzzzzzzzzzzzzzzzzzzzzlzzzzzzzzzlzzMzzzzzzkzzz",
"vhhPzzzvPzzzzhPzzzzzzzzzzkvPzzZzzzzzZzzzlvPzzzzzzzzzzzzzzzzzzzzz"
};
