/* XPM */
static char *Circle_explosion9[] = {
/* columns rows colors chars-per-pixel */
"64 64 51 1 ",
"  c #241312",
". c #2A1616",
"X c #2A1817",
"o c #2C1B19",
"O c #331D1C",
"+ c #381F1D",
"@ c #36201F",
"# c #3A211F",
"$ c #362421",
"% c #3A2522",
"& c #372924",
"* c #3C2A26",
"= c #3E2D28",
"- c #402725",
"; c #422A27",
": c #442D29",
"> c #45322D",
", c #4A312D",
"< c #4C3631",
"1 c #4D3A33",
"2 c #503632",
"3 c #533B35",
"4 c #563E38",
"5 c #583F39",
"6 c #524036",
"7 c #564139",
"8 c #5B433C",
"9 c #60463F",
"0 c #604A3F",
"q c #604740",
"w c #644B43",
"e c #684F46",
"r c #645243",
"t c #695247",
"y c #6D534A",
"u c #6E584A",
"i c #71574D",
"p c #725A4D",
"a c #765C51",
"s c #785F52",
"d c #72614D",
"f c #776351",
"g c #7B6353",
"h c #7D6855",
"j c #806857",
"k c #846C5A",
"l c #886F5C",
"z c #8B725E",
"x c #8E7760",
"c c #937B64",
"v c None",
/* pixels */
"vvvvvvvvvvvvvvvvvvvvvvvvvvvvvvvvvvvvvvvvvvvvvvvvvvvvvvvvvvvvvvvv",
"vvvvvvvvvvvvvvvvvvvvvvvvvvvvvvvvvvvvvvvvvvvvvvvvvvvvvvvvvvvvvvvv",
"vvvvvvvvvvvvvvvvvvvvvvvvvvvvvvvvvvvvvvvvvvvvvvvvvvvvvvvvvvvvvvvv",
"vvvvvvvvvvvvvvvvvvvvvvvvvvvvvvvvvvvvvvvvvvvvvvvvvvvvvvvvvvvvvvvv",
"vvvvvvvvvvvvvvvvvvvvvvvvvvvvvvvvvvvvvvvvvvvvvvvvvvvvvvvvvvvvvvvv",
"vvvvvvvvvvvvvvvvvvvvvvvvvvvvvvvvvvvvvvvvvvvvvvvvvvvvvvvvvvvvvvvv",
"vvvvvvvvvvvvvvvvvvvvvvvvvvvvvvvvvvvvvvvvvvvvvvvvvvvvvvvvvvvvvvvv",
"vvvvvvvvvvvvvvvvvvvvvvvvvvvvvvvvvvvvvvvvvvvvvvvvvvvvvvvvvvvvvvvv",
"vvvvvvvvvvvvvvvvvvvvvvvvvvvvvvvvvvvvvvvvvvvvvvvvvvvvvvvvvvvvvvvv",
"vvvvvvvvvvvvvvvvvvvvvvvvvvvvvvvvvvvvvvvvvvvvvvvvvvvvvvvvvvvvvvvv",
"vvvvvvvvvvvvvvvvvvvvvvvvvvvvvvvvvvvvvvvvvvvvvvvvvvvvvvvvvvvvvvvv",
"vvvvvvvvvvvvvvvvvvvvvvvvvvvvvvvvvvvvvvvvvvvvvvvvvvvvvvvvvvvvvvvv",
"vvvvvvvvvvvvvvvvvvvvvvvvvvvvvvvvvvvvvvvvvvvvvvvvvvvvvvvvvvvvvvvv",
"vvvvvvvvvvvvvvvvvvvvvvvvvvvvvvvvvvvvvvvvvvvvvvvvvvvvvvvvvvvvvvvv",
"vvvvvvvvvvvvvvvvv=vvv78vvvvvvvvvvvvvvvvvvvvvvvvvvvvvvvvvvvvvvvvv",
"vvvvvvvvvvvvvvvvvvvv>7<vvvvvvvvv=vvvvvvvvv>8vvvvvvvvvvvvvvvvvvvv",
"vvvvvvvvvvvvvvvvvvvvvvvvvvvvvvvvvvvvvvvvvv>521vvvvvvvvvvvvvvvvvv",
"vvvvvvvvvvvvvvvvvvvvvvvvvvvvvvvvvvvvvvvvvv<4<>vvvvvvvvvvvvvvvvvv",
"vvvvvvvvvvvvvvv&w8vvvvvvvvvvvvv6w>vvvvvvvvX-44vvvvvvvvvvvvvvvvvv",
"vvvvvvvvvvvvvvvO43v187vvvvvvvhw3at7tvvvvvvvvX@vvvvvvvvvvvvvvvvvv",
"vvvvvvvvvvvvvvvvvvv>*vvvvv6>wkwwaesky:7fdvvvvvvvvvvvvvvvvvvvvvvv",
"vvvvvvvvvvvvvvvvvvvvvvvvvhay8tww3<ae2:wzz6vvvvvvvvvvvvvvvvvvvvvv",
"vvvvvvvvvvvvvvvvvvvvv&vv:wp5:;%#O2e;#527tuvvvvvvvvvvvvvvvvvvvvvv",
"vvvvvvvvvvvvvvvvvvvvvvv>iie5>vvvv$-;tp988xtvvvvvvvvv&1vvvvvvvvvv",
"vvvvvvvvvvvvvvvvvvvvvvvusy,:vvvvvvXpg8yy9lpvvvv=vvvvv&vvvvvvvvvv",
"vvvvvvvvvvvvvvvvvvvvvv3gek8vvv:<vvvi8,p5:yitvvvvvvvvvvvvvvvvvvvv",
"vvvvvvvvvvvvvvvvvvvvv3ye8a6vvvvvvvv$,,8;+2ppvvvvvvvvvvvvvvvvvvvv",
"vvvvvvvvvvvvvvvvvvvvvwy2;:vvvvvvvvv#jp5+-4y91vvvvvvvvvvvvvvvvvvv",
"vvvvvvvvvvvvvv>=vvvvvtjp&vvvvvvvvvvOij8O2yygx0vvvvvvvv>vvvvvvvvv",
"vvvvvvvvvvvvvvvvvvvv1yy,vvvvvvvvvvvvX%. *-,8kyvvvvvvvv vvvvvvvvv",
"vvvvvvvvvvvvvvvvvvvvwp8$vvvvvvvvvv&vvvvvv #-7yfvvvvvvvvvvvvvvvvv",
"vvvvvvvvvvvvvvvvvvvuy34ovvvvvvvvvvv71vvvv>8,,1yvvvovvvvvvvvvvvvv",
"vvvvvvvvvvvvvvvv=vvwe4# vvvvvvvvvv%8*vvvv<2,e33vvvvvvvvvvvvvvvvv",
"vvvvvvvvvvvvvvvvvvvdcp-.vvvvvvvvvvvvvvvvO99+,2<vvvvvvvvvvvvvvvvv",
"vvvvvvvvvvvvvvvvvvvrjq;.vvvvvvvvvvvvvvvv $-;3;5vvvvvvvvvvvvvvvvv",
"vvvvvvvvvvvvvvvvvvvvws2*ovv48vvvvvvvvvvvv,wts*vvvv<vvvvvvvvvvvvv",
"vvvvvvvvvvvvvvvvvvvv3t8w<vv7=vvvvvvvvvvvvuh<=vvvvv$vvvvvvvvvvvvv",
"vvvvvvvvvvvvvvvvvvvvv*:94vvvvvvvvvvvvvvvv:;Xvvvvvvvvvvvvvvvvvvvv",
"vvvvvvvvvvvvvvvvvvvvvvv14vvvvvvvvvvvvvvvvvvvvvvvvvvvvvvvvvvvvvvv",
"vvvvvvvvvvvvvvvvvv>evvvvvvvvv<*vvvvvvvvvvvvvvvvvvvvvvvvvvvvvvvvv",
"vvvvvvvvvvvvvvvvvv$88vvv*38vvvvvvvvvvvvvvvvvvvvv*vvvvvvvvvvvvvvv",
"vvvvvvvvvvvvvvvvvvv<8vv<8e84t3vvv>3vvvvvvvvvvvvvvvvvvvvvvvvvvvvv",
"vvvvvvvvvvvvvvvvvv%e8vv>1eq8uw8e4wt8vvvvvvvvvvvvvvvvvvvvvvvvvvvv",
"vvvvvvvvvvvvvvvvvvv&vvvv%pl84wuyaw8031v=vvvvvvvvvvvvvvvvvvvvvvvv",
"vvvvvvvvvvvvvvvvvvvvvvvvv>8>,ee8t54w3&vvvvvv=7vvvvvvvvvvvvvvvvvv",
"vvvvvvvvvvvvvvvvvvvvvvvvvvvv&2ppyy88:vvvvvo9tk8vvvvvvvvvvvvvvvvv",
"vvvvvvvvvvvvvvvvvvvvvvvvvvvvv%t8sk>vvvvvvv39<8<vvvvvvvvvvvvvvvvv",
"vvvvvvvvvvvvvvvvvvvvvvv:1vvvvvvv88vvvvvvv8933<3vvvvvvvvvvvvvvvvv",
"vvvvvvvvvvvvvvvvvvvvvvv$1vvvvvvvvvvvvvvvv,wwg=vvvvvvvvvvvvvvvvvv",
"vvvvvvvvvvvvvvvvvvvvvvvvvvvvvvvvvvvvvvvvO,477vvvvvvvvvvvvvvvvvvv",
"vvvvvvvvvvvvvvvvvvvvvvvvvvvvvvvvvvvvvvvvv.vvvvvvvvvvvvvvvvvvvvvv",
"vvvvvvvvvvvvvvvvvvvvvvvvvvvvvvvvvvvvvvvvvvvvvvvvvvvvvvvvvvvvvvvv",
"vvvvvvvvvvvvvvvvvvvvvvvvvvvvvvvvvvvvvvvvvvvvvvvvvvvvvvvvvvvvvvvv",
"vvvvvvvvvvvvvvvvvvvvvvvvvvvvvvvvvvvvvvvvvvvvvvvvvvvvvvvvvvvvvvvv",
"vvvvvvvvvvvvvvvvvvvvvvvvvvvvvvvvvvvvvvvvvvvvvvvvvvvvvvvvvvvvvvvv",
"vvvvvvvvvvvvvvvvvvvvvvvvvvvvvvvvvvvvvvvvvvvvvvvvvvvvvvvvvvvvvvvv",
"vvvvvvvvvvvvvvvvvvvvvvvvvvvvvvvvvvvvvvvvvvvvvvvvvvvvvvvvvvvvvvvv",
"vvvvvvvvvvvvvvvvvvvvvvvvvvvvvvvvvvvvvvvvvvvvvvvvvvvvvvvvvvvvvvvv",
"vvvvvvvvvvvvvvvvvvvvvvvvvvvvvvvvvvvvvvvvvvvvvvvvvvvvvvvvvvvvvvvv",
"vvvvvvvvvvvvvvvvvvvvvvvvvvvvvvvvvvvvvvvvvvvvvvvvvvvvvvvvvvvvvvvv",
"vvvvvvvvvvvvvvvvvvvvvvvvvvvvvvvvvvvvvvvvvvvvvvvvvvvvvvvvvvvvvvvv",
"vvvvvvvvvvvvvvvvvvvvvvvvvvvvvvvvvvvvvvvvvvvvvvvvvvvvvvvvvvvvvvvv",
"vvvvvvvvvvvvvvvvvvvvvvvvvvvvvvvvvvvvvvvvvvvvvvvvvvvvvvvvvvvvvvvv",
"vvvvvvvvvvvvvvvvvvvvvvvvvvvvvvvvvvvvvvvvvvvvvvvvvvvvvvvvvvvvvvvv"
};
