/* XPM */
static char *Explosion_gas_circle8[] = {
/* columns rows colors chars-per-pixel */
"64 64 135 2 ",
"   c #0C553F",
".  c #0F5E47",
"X  c #0F614B",
"o  c #15644C",
"O  c #186549",
"+  c #136B4F",
"@  c #1C6C4E",
"#  c #1B6F51",
"$  c #167154",
"%  c #1B7455",
"&  c #1C7559",
"*  c #1E7C5B",
"=  c #206248",
"-  c #266E4F",
";  c #27704E",
":  c #217556",
">  c #227956",
",  c #2B7B57",
"<  c #237C59",
"1  c #357C57",
"2  c #187C60",
"3  c #24845E",
"4  c #2C835D",
"5  c #29885F",
"6  c #31845C",
"7  c #35895D",
"8  c #39885C",
"9  c #1C8464",
"0  c #268562",
"q  c #2A8661",
"w  c #258B65",
"e  c #2A8A63",
"r  c #308660",
"t  c #338D63",
"y  c #3B8B61",
"u  c #2D9266",
"i  c #24936D",
"p  c #2D946B",
"a  c #2F9B6F",
"s  c #349367",
"d  c #399265",
"f  c #33956A",
"g  c #3C956A",
"h  c #359B6D",
"j  c #3B9B6C",
"k  c #2D9A72",
"l  c #349C71",
"z  c #3B9E72",
"x  c #3CA26D",
"c  c #35A274",
"v  c #3CA374",
"b  c #3CA977",
"n  c #33A479",
"m  c #3DA77A",
"M  c #35AA79",
"N  c #3DAC7B",
"B  c #439669",
"V  c #4B966C",
"C  c #449A6B",
"Z  c #489D6D",
"A  c #419B70",
"S  c #4B9E70",
"D  c #41A26F",
"F  c #49A56F",
"G  c #57A16F",
"H  c #59A36D",
"J  c #44A373",
"K  c #4AA572",
"L  c #43AB76",
"P  c #4AAB75",
"I  c #44AC7B",
"U  c #49AD78",
"Y  c #5EA773",
"T  c #52AA73",
"R  c #5DAB73",
"E  c #51AB79",
"W  c #44B17C",
"Q  c #4BB47D",
"!  c #51B37B",
"~  c #5BB47D",
"^  c #53B97E",
"/  c #64AB79",
"(  c #62B17B",
")  c #64B87D",
"_  c #6BB97D",
"`  c #3CB582",
"'  c #49B680",
"]  c #45B880",
"[  c #4BBB83",
"{  c #5AB680",
"}  c #52BC83",
"|  c #5ABC83",
" . c #64BC81",
".. c #6DBB83",
"X. c #4DC085",
"o. c #54C185",
"O. c #5DC386",
"+. c #57C987",
"@. c #54C189",
"#. c #5BC589",
"$. c #55C98C",
"%. c #5CC98B",
"&. c #5FCE92",
"*. c #66C383",
"=. c #6BC182",
"-. c #6ACB87",
";. c #64C388",
":. c #63CC8C",
">. c #6CCB8C",
",. c #74C286",
"<. c #71CD8B",
"1. c #7ECF8F",
"2. c #63D38C",
"3. c #6CD18F",
"4. c #72D28F",
"5. c #64D390",
"6. c #6DD491",
"7. c #6CDB94",
"8. c #74D493",
"9. c #7CD493",
"0. c #72DC95",
"q. c #7AD894",
"w. c #77DC99",
"e. c #7BDE99",
"r. c #7AE298",
"t. c #82DD99",
"y. c #82E49B",
"u. c #8BE99D",
"i. c #90EC9F",
"p. c #8FE3A1",
"a. c #90E7A2",
"s. c #9EE9A4",
"d. c #9CF1A5",
"f. c #A5F2A9",
"g. c None",
/* pixels */
"g.g.g.g.g.g.g.g.g.g.g.g.g.g.g.g.g.g.g.g.g.g.g.g.g.g.g.g.g.g.g.g.g.g.g.g.g.g.g.g.g.g.g.g.g.g.g.g.g.g.g.g.g.g.g.g.g.g.g.g.g.g.g.g.",
"g.g.g.g.g.g.g.g.g.g.g.g.g.g.g.g.g.g.g.g.g.g.g.g.g.g.g.g.g.g.g.g.g.g.g.g.g.g.g.g.g.g.g.g.g.g.g.g.g.g.g.g.g.g.g.g.g.g.g.g.g.g.g.g.",
"g.g.g.g.g.g.g.g.g.g.g.g.g.g.g.g.g.g.g.g.g.g.g.g.g.g.g.g.g.g.g.g.g.g.g.g.g.g.g.g.g.g.g.g.g.g.g.g.g.g.g.g.g.g.g.g.g.g.g.g.g.g.g.g.",
"g.g.g.g.g.g.g.g.g.g.g.g.g.g.g.g.g.g.g.g.g.g.g.g.g.g.g.g.g.g.g.g.g.g.g.g.g.g.g.g.g.g.g.g.g.g.g.g.g.g.g.g.g.g.g.g.g.g.g.g.g.g.g.g.",
"g.g.g.g.g.g.g.g.g.g.g.g.g.g.g.g.g.g.g.g.g.g.g.g.g.g.g.g.g.g.g.g.g.g.g.g.g.g.g.g.g.g.g.g.g.g.g.g.g.g.g.g.g.g.g.g.g.g.g.g.g.g.g.g.",
"g.g.g.g.g.g.g.g.g.g.g.g.g.g.g.g.g.g.g.g.g.g.g.g.g.g.g.g.g.g.g.g.g.g.g.g.g.g.g.g.g.g.g.g.g.g.g.g.g.g.g.g.g.g.g.g.g.g.g.g.g.g.g.g.",
"g.g.g.g.g.g.g.g.g.g.g.g.g.g.g.g.g.g.g.g.g.g.g.g.g.g.g.g.g.g.g.g.g.g.g.g.g.g.g.g.g.g.g.g.g.g.g.g.g.g.g.g.g.g.g.g.g.g.g.g.g.g.g.g.",
"g.g.g.g.g.g.g.g.g.g.g.g.g.g.g.g.g.g.g.g.g.g.g.g.g.g.g.g.g.g.g.g.g.g.g.g.g.g.g.g.g.g.g.g.g.g.g.g.g.g.g.g.g.g.g.g.g.g.g.g.g.g.g.g.",
"g.g.g.g.g.g.g.g.g.g.g.g.g.g.g.g.g.g.g.g.g.g.g.g.g.g.g.g.g.g.g.g.g.g.g.g.g.g.g.g.g.g.g.g.g.g.g.g.g.g.g.g.g.g.g.g.g.g.g.g.g.g.g.g.",
"g.g.g.g.g.g.g.g.g.g.g.g.g.g.g.g.g.g.g.g.g.g.g.g.g.g.g.g.g.g.g.g.g.g.g.g.g.g.g.g.g.g.g.g.g.g.g.g.g.g.g.g.g.g.g.g.g.g.g.g.g.g.g.g.",
"g.g.g.g.g.g.g.g.g.g.g.g.g.g.g.g.g.g.g.g.g.g.g.g.g.g.g.g.g.g.g.g.g.g.g.g.g.g.g.g.g.g.g.g.g.g.g.g.g.g.g.g.g.g.g.g.g.g.g.g.g.g.g.g.",
"g.g.g.g.g.g.g.g.g.g.g.g.g.g.g.g.g.g.g.g.g.g.g.g.g.g.g.g.g.g.g.g.g.g.g.g.g.g.g.g.g.g.g.g.g.g.g.g.g.g.g.g.g.g.g.g.g.g.g.g.g.g.g.g.",
"g.g.g.g.g.g.g.g.g.g.g.g.g.g.g.g.g.g.g.g.g.g.g.g.g.g.g.g.g.g.g.g.g.g.g.g.g.g.g.g.g.g.g.g.g.g.g.g.g.g.g.g.g.g.g.g.g.g.g.g.g.g.g.g.",
"g.g.g.g.g.g.g.g.g.g.g.g.g.g.g.g.g.g.g.g.g.g.g.g.g.g.g.g.g.g.g.g.g.g.g.g.g.g.g.g.g.g.g.g.g.g.g.g.g.g.g.g.g.g.g.g.g.g.g.g.g.g.g.g.",
"g.g.g.g.g.g.g.g.g.g.g.g.g.g.g.g.g.g.g.g.g.g.g.g.g.g.g.g.g.g.g.g.g.g.g.g.g.g.g.g.g.g.g.g.g.g.g.g.g.g.g.g.g.g.g.g.g.g.g.g.g.g.g.g.",
"g.g.g.g.g.g.g.g.g.g.g.g.g.g.g.g.g.g.g.g.g.g.g.g.g.g.g.g.g.g.g.g.g.g.g.g.g.g.g.g.g.g.g.g.g.g.g.g.g.g.g.g.g.g.g.g.g.g.g.g.g.g.g.g.",
"g.g.g.g.g.g.g.g.g.g.g.g.g.g.g.g.g.g.g.g.g.g.g.g.g.g.g.g.g.g.g.g.g.g.g.g.g.g.g.g.g.g.g.g.g.g.g.g.g.g.g.g.g.g.g.g.g.g.g.g.g.g.g.g.",
"g.g.g.g.g.g.g.g.g.g.g.g.g.g.g.g.g.g.g.g.g.g.g.g.g.g.g.J U g.g.g.g.g.g.g.g.g.g.g.g.g.g.g.g.g.g.g.g.g.g.g.g.g.g.g.g.g.g.g.g.g.g.g.",
"g.g.g.g.g.g.g.g.g.g.g.g.g.g.g.g.g.g.g.g.g.g.g.g.g.g.0 [ U j / g.g.4 K d C C ..g.g.g.g.g.g.g.g.g.g.g.g.g.g.g.g.g.g.g.g.g.g.g.g.g.",
"g.g.g.g.g.g.g.g.g.g.g.g.g.g.g.g.g.g.g.g.g.Y B t z , # [ W 9 t g.g.> [ b [ X.7.{ { ! g.g.g.g.g.g.g.g.g.g.g.g.g.g.g.g.g.g.g.g.g.g.",
"g.g.g.g.g.g.g.g.g.g.g.g.g.g.g.g.g.g.g.g.y 3.%.Q } , # w g.g.g.g.g.g.o.3.} Q %.u.W e g.< j g.g.g.g.g.g.g.g.g.g.g.g.g.g.g.g.g.g.g.",
"g.g.g.g.g.g.g.g.g.g.g.g.g.g.g.g.g.g.g.g.^ [ n a L g.g.g.g.g.g.g.g.g.g.f g.. P :.9 f t O g.g.g.g.g.g.g.g.g.g.g.g.g.g.g.g.g.g.g.g.",
"g.g.g.g.g.g.g.g.g.g.g.g.g.g.g.g.g.g.g.6 O.' q.E g.g.g.g.g.g.g.g.g.g.g.g.y V O g.g.g., 9.L g.g.g.g.g.g.g.g.g.g.g.g.g.g.g.g.g.g.g.",
"g.g.g.g.g.g.g.g.g.g.g.g.g.g.g.g.g.g.j W Q W N q g.g.g.G g.z Z g.g.g.g.g.g U g.g.g.g.q o.l J g.g.g.g.g.g.g.g.g.g.g.g.g.g.g.g.g.g.",
"g.g.g.g.g.g.g.g.g.g.g.g.g.g.g.g.g.g.J E - + f w q g.g.' o.$.:./ T T g.g.g.j g.g.g g.4 j I t g.g.g.g.g.g.g.g.g.g.g.g.g.g.g.g.g.g.",
"g.g.g.g.g.g.g.g.g.g.g.g.g.g.g.g.g.< $.y.B g.g.g.g.g.K z b M 6.u.2.W Q - g.g.g.g.e K g.g.e g g.g.g.g.g.g.g.g.g.g.g.g.g.g.g.g.g.g.",
"g.g.g.g.g.g.g.g.g.g.g.g.g.g.g.g.g.p ] k | g.g.g.g.,.d.o.h 5 J W N 3 g.g.g.g.g.g.g.g.g.g.g., g.g.g.g.g.g.g.g.g.g.g.g.g.g.g.g.g.g.",
"g.g.g.g.g.g.g.g.g.g.g.g.g.g.g.g.g.* g o z : g.g.g.v 2.%.h g.g.g.g.g.g.g.g.4 ~ g.g.g.g.e 6 g.g.g.g.g.g.g.g.g.g.g.g.g.g.g.g.g.g.g.",
"g.g.g.g.g.g.g.g.g.g.g.g.g.g.g.g.g.0 P g.g.g.g.4 O.a.v O.E g.g.g.F -.g.g.g.g.o.Q g.g.g.g.g.g.8 g.g.g.g.g.g.g.g.g.g.g.g.g.g.g.g.g.",
"g.g.g.g.g.g.g.g.g.g.g.g.g.g.g.g.g.g.g.g.g.f 9.@.$.w.h < g.g.g.g.x r.Q g.g.P f.w.% s g.g.g.g.j d g.g.g.g.g.g.g.g.g.g.g.g.g.g.g.g.",
"g.g.g.g.g.g.g.g.g.g.g.g.g.g.g.g.g.g.s d g.* I n n i f h t g.g.g.g.L 3 g.g.^ 0.} U U < g.g.g.W [ s g.g.g.g.g.g.g.g.g.g.g.g.g.g.g.",
"g.g.g.g.g.g.g.g.g.g.g.g.g.g.g.g.g.4 4 g.g.g.l h f m & g.g., g.g.g.j g.t g.& k k y.%.v g.g.g.K e.g.g.g.g.g.g.g.g.g.g.g.g.g.g.g.g.",
"g.g.g.g.g.g.g.g.g.g.g.g.g.g.g.g.g.L C g.g.P d.X.9 m 4 g.B s g.g.g.g.g.g.g.g.t.:.2.u % g.g.g.g.5 g.g.g.g.g.g.g.g.g.g.g.g.g.g.g.g.",
"g.g.g.g.g.g.g.g.g.g.g.g.g.g.g.g.g.g.g.g.g.h :.&.n y.~ : 8.} g.g.g.g.g.g.g.g.! I w g.g.g.g.g.g.g.g.g.g.g.g.g.g.g.g.g.g.g.g.g.g.g.",
"g.g.g.g.g.g.g.g.g.g.g.g.g.g.g.g.g.@ g.g.g.g.h n 2 ' C g.t s g.g.g.g.g.g.g.g.v @.* g.g.g.g.!  .E g.g.g.g.g.g.g.g.g.g.g.g.g.g.g.g.",
"g.g.g.g.g.g.g.g.g.g.g.g.g.g.g.g.g.g.g.g.g.g.q.&.k [ g.g.g.g.g.g.g.g.V A g.g.4.a.q g.g.g.H u.0.2.g.g.g.g.g.g.g.g.g.g.g.g.g.g.g.g.",
"g.g.g.g.g.g.g.g.g.g.g.g.g.g.g.g.g.g.P g.g.g. .o.I u.h g.g.g.% g.g.g.@ 3 g.y k u g.g.g.g.J 5.o.* g.g.g.g.g.g.g.g.g.g.g.g.g.g.g.g.",
"g.g.g.g.g.g.g.g.g.g.g.g.g.g.g.g.g.< >.g.g.g.W ` e.y.w g.g.f h 4 g.g.7 g.Y | + g.g.g.g.G l c p g.g.g.g.g.g.g.g.g.g.g.g.g.g.g.g.g.",
"g.g.g.g.g.g.g.g.g.g.g.g.g.g.g.g.g.g.g.g.g.g.4 b } [ % g.g.h c d g.) o...8.0 g.g.g.g.g.-.] k w g.g.g.g.g.g.g.g.g.g.g.g.g.g.g.g.g.",
"g.g.g.g.g.g.g.g.g.g.g.g.g.g.g.g.*.K ( C g.g.g.g.g.f L g.g.% 5 6 g.d c I Q ^ g g.g.g.g.& i 8.:.g.g.g.g.g.g.g.g.g.g.g.g.g.g.g.g.g.",
"g.g.g.g.g.g.g.g.g.g.g.g.g.g.g.j 6.I [ g g.g.g.g.g.+ o.9.4 g.g.g.J %.6.{ . f J g.g.g.g.g.x u.[ g.g.g.g.g.g.g.g.g.g.g.g.g.g.g.g.g.",
"g.g.g.g.g.g.g.g.g.g.g.g.g.g.g.0 a 6.t g.g.g.g.g.g.g.v L # g.g.g.& l p s g.g.g.g.K s.| g.g.3 g.g.g.g.g.g.g.g.g.g.g.g.g.g.g.g.g.g.",
"g.g.g.g.g.g.g.g.g.g.g.g.g.g.g.g.& ] # ..R g.g.1 g.g.g.g.g.g.g.g.g.g.g.g.g.g.g.g.e w.2.j g.g.g.g.g.g.g.g.g.g.g.g.g.g.g.g.g.g.g.g.",
"g.g.g.g.g.g.g.g.g.g.g.g.g.g.g.g.P r.' 5.K g.C  .g.g.g.g.g.g.g.g.g.g.g.g.g.6 1.<.} } ! 6 g.g.g.g.g.g.g.g.g.g.g.g.g.g.g.g.g.g.g.g.",
"g.g.g.g.g.g.g.g.g.g.g.g.g.g.g.g.L p f :.} ;.' l Z g.g.g.g.O 6 g.g.g.g.g.7 W @.[ U z   g I g g.g.g.g.g.g.g.g.g.g.g.g.g.g.g.g.g.g.",
"g.g.g.g.g.g.g.g.g.g.g.g.g.g.g.g.X o g.* [ %.l } 0.! g.g.g.g.< q < g.3 Q e * ;.J g.g.g.g.& g.g.g.g.g.g.g.g.g.g.g.g.g.g.g.g.g.g.g.",
"g.g.g.g.g.g.g.g.g.g.g.g.g.g.g.g.g.g.g.g.v 8.U $ w y.8.U y.{ g.g.g.g.g.% g.g.g.g.g.g.g.g.g.g.g.g.g.g.g.g.g.g.g.g.g.g.g.g.g.g.g.g.",
"g.g.g.g.g.g.g.g.g.g.g.g.g.g.g.g.g.g.g.g.g.y v g.o W f w v l g.g.g.g.g.g.g.g.g.g.g.g.g.g.g.g.g.g.g.g.g.g.g.g.g.g.g.g.g.g.g.g.g.g.",
"g.g.g.g.g.g.g.g.g.g.g.g.g.g.g.g.g.g.g.g.g.g.g.g.g.g.g.g.g.g.g.g.g.g.g.g.g.g.g.g.g.g.g.g.g.g.g.g.g.g.g.g.g.g.g.g.g.g.g.g.g.g.g.g.",
"g.g.g.g.g.g.g.g.g.g.g.g.g.g.g.g.g.g.g.g.g.g.g.g.g.g.g.g.g.g.g.g.g.g.g.g.g.g.g.g.g.g.g.g.g.g.g.g.g.g.g.g.g.g.g.g.g.g.g.g.g.g.g.g.",
"g.g.g.g.g.g.g.g.g.g.g.g.g.g.g.g.g.g.g.g.g.g.g.g.g.g.g.g.g.g.g.g.g.g.g.g.g.g.g.g.g.g.g.g.g.g.g.g.g.g.g.g.g.g.g.g.g.g.g.g.g.g.g.g.",
"g.g.g.g.g.g.g.g.g.g.g.g.g.g.g.g.g.g.g.g.g.g.g.g.g.g.g.g.g.g.g.g.g.g.g.g.g.g.g.g.g.g.g.g.g.g.g.g.g.g.g.g.g.g.g.g.g.g.g.g.g.g.g.g.",
"g.g.g.g.g.g.g.g.g.g.g.g.g.g.g.g.g.g.g.g.g.g.g.g.g.g.g.g.g.g.g.g.g.g.g.g.g.g.g.g.g.g.g.g.g.g.g.g.g.g.g.g.g.g.g.g.g.g.g.g.g.g.g.g.",
"g.g.g.g.g.g.g.g.g.g.g.g.g.g.g.g.g.g.g.g.g.g.g.g.g.g.g.g.g.g.g.g.g.g.g.g.g.g.g.g.g.g.g.g.g.g.g.g.g.g.g.g.g.g.g.g.g.g.g.g.g.g.g.g.",
"g.g.g.g.g.g.g.g.g.g.g.g.g.g.g.g.g.g.g.g.g.g.g.g.g.g.g.g.g.g.g.g.g.g.g.g.g.g.g.g.g.g.g.g.g.g.g.g.g.g.g.g.g.g.g.g.g.g.g.g.g.g.g.g.",
"g.g.g.g.g.g.g.g.g.g.g.g.g.g.g.g.g.g.g.g.g.g.g.g.g.g.g.g.g.g.g.g.g.g.g.g.g.g.g.g.g.g.g.g.g.g.g.g.g.g.g.g.g.g.g.g.g.g.g.g.g.g.g.g.",
"g.g.g.g.g.g.g.g.g.g.g.g.g.g.g.g.g.g.g.g.g.g.g.g.g.g.g.g.g.g.g.g.g.g.g.g.g.g.g.g.g.g.g.g.g.g.g.g.g.g.g.g.g.g.g.g.g.g.g.g.g.g.g.g.",
"g.g.g.g.g.g.g.g.g.g.g.g.g.g.g.g.g.g.g.g.g.g.g.g.g.g.g.g.g.g.g.g.g.g.g.g.g.g.g.g.g.g.g.g.g.g.g.g.g.g.g.g.g.g.g.g.g.g.g.g.g.g.g.g.",
"g.g.g.g.g.g.g.g.g.g.g.g.g.g.g.g.g.g.g.g.g.g.g.g.g.g.g.g.g.g.g.g.g.g.g.g.g.g.g.g.g.g.g.g.g.g.g.g.g.g.g.g.g.g.g.g.g.g.g.g.g.g.g.g.",
"g.g.g.g.g.g.g.g.g.g.g.g.g.g.g.g.g.g.g.g.g.g.g.g.g.g.g.g.g.g.g.g.g.g.g.g.g.g.g.g.g.g.g.g.g.g.g.g.g.g.g.g.g.g.g.g.g.g.g.g.g.g.g.g.",
"g.g.g.g.g.g.g.g.g.g.g.g.g.g.g.g.g.g.g.g.g.g.g.g.g.g.g.g.g.g.g.g.g.g.g.g.g.g.g.g.g.g.g.g.g.g.g.g.g.g.g.g.g.g.g.g.g.g.g.g.g.g.g.g.",
"g.g.g.g.g.g.g.g.g.g.g.g.g.g.g.g.g.g.g.g.g.g.g.g.g.g.g.g.g.g.g.g.g.g.g.g.g.g.g.g.g.g.g.g.g.g.g.g.g.g.g.g.g.g.g.g.g.g.g.g.g.g.g.g.",
"g.g.g.g.g.g.g.g.g.g.g.g.g.g.g.g.g.g.g.g.g.g.g.g.g.g.g.g.g.g.g.g.g.g.g.g.g.g.g.g.g.g.g.g.g.g.g.g.g.g.g.g.g.g.g.g.g.g.g.g.g.g.g.g.",
"g.g.g.g.g.g.g.g.g.g.g.g.g.g.g.g.g.g.g.g.g.g.g.g.g.g.g.g.g.g.g.g.g.g.g.g.g.g.g.g.g.g.g.g.g.g.g.g.g.g.g.g.g.g.g.g.g.g.g.g.g.g.g.g."
};
