/* XPM */
static char *Circle_explosion8[] = {
/* columns rows colors chars-per-pixel */
"64 64 89 1 ",
"  c #3E110E",
". c #441411",
"X c #431B15",
"o c #4C1E17",
"O c #481C18",
"+ c #511C17",
"@ c #521E18",
"# c #4C2316",
"$ c #4C231A",
"% c #52241B",
"& c #5C251D",
"* c #542B1D",
"= c #5C2A1F",
"- c #57301E",
"; c #5F2720",
": c #562D20",
"> c #5C2E22",
", c #5D3322",
"< c #5F3824",
"1 c #632C22",
"2 c #653425",
"3 c #6B3325",
"4 c #643A25",
"5 c #6D3C26",
"6 c #6D3629",
"7 c #6D3B2A",
"8 c #753E27",
"9 c #723C2C",
"0 c #753F30",
"q c #674125",
"w c #6A4226",
"e c #6D4329",
"r c #734A27",
"t c #74432C",
"y c #79432C",
"u c #754B2C",
"i c #7B4C2E",
"p c #745125",
"a c #7B512B",
"s c #7F5A2A",
"d c #774130",
"f c #7B4531",
"g c #7F4932",
"h c #824D2B",
"j c #83542E",
"k c #835B2C",
"l c #8A5D2E",
"z c #834D34",
"x c #855233",
"c c #8A5436",
"v c #865930",
"b c #8E5B35",
"n c #8B5539",
"m c #8E5939",
"M c #915C35",
"N c #925C3A",
"B c #846327",
"V c #8C682C",
"C c #8E6431",
"Z c #946335",
"A c #996537",
"S c #966933",
"D c #9B6B36",
"F c #96613B",
"G c #9A653C",
"H c #976838",
"J c #9E693C",
"K c #A06E36",
"L c #A16E3C",
"P c #A67A37",
"I c #A4723B",
"U c #A8743D",
"Y c #A7783A",
"T c #AC7B3C",
"R c #B07E3D",
"E c #A16B40",
"W c #AB7740",
"Q c #AE7A40",
"! c #AF8538",
"~ c #B4833E",
"^ c #B68D39",
"/ c #BB8C3E",
"( c #BF923E",
") c #C3963F",
"_ c #C69A3F",
"` c #B58340",
"' c #BB8C40",
"] c #BF9040",
"[ c None",
/* pixels */
"[[[[[[[[[[[[[[[[[[[[[[[[[[[[[[[[[[[[[[[[[[[[[[[[[[[[[[[[[[[[[[[[",
"[[[[[[[[[[[[[[[[[[[[[[[[[[[[[[[[[[[[[[[[[[[[[[[[[[[[[[[[[[[[[[[[",
"[[[[[[[[[[[[[[[[[[[[[[[[[[[[[[[[[[[[[[[[[[[[[[[[[[[[[[[[[[[[[[[[",
"[[[[[[[[[[[[[[[[[[[[[[[[[[[[[[[[[[[[[[[[[[[[[[[[[[[[[[[[[[[[[[[[",
"[[[[[[[[[[[[[[[[[[[[[[[[[[[[[[[[[[[[[[[[[[[[[[[[[[[[[[[[[[[[[[[[",
"[[[[[[[[[[[[[[[[[[[[[[[[[[[[[[[[[[[[[[[[[[[[[[[[[[[[[[[[[[[[[[[[",
"[[[[[[[[[[[[[[[[[[[[[[[[[[[[[[[[[[[[[[[[[[[[[[[[[[[[[[[[[[[[[[[[",
"[[[[[[[[[[[[[[[[[[[[[[[[[[[[[[[[[[[[[[[[[[[[[[[[[[[[[[[[[[[[[[[[",
"[[[[[[[[[[[[[[[[[[[[[[[[[[[[[[[[[[[[[[[[[[[[[[[[[[[[[[[[[[[[[[[[",
"[[[[[[[[[[[[[[[[[[[[[[[[[[[[[[[[[[[[[[[[[[[[[[[[[[[[[[[[[[[[[[[[",
"[[[[[[[[[[[[[[[[[[[[[[[[[[[[[[[[[[[[[[[[[[[[[[[[[[[[[[[[[[[[[[[[",
"[[[[[[[[[[[[[[[[[[[[[[[[[[[[[[[[[[[[[[[[[[[[[[[[[[[[[[[[[[[[[[[[",
"[[[[[[[[[[[[[[[[[[[[[[[[[[[[[[[[[[[[[[[[[[[[[[[[[[[[[[[[[[[[[[[[",
"[[[[[[[[[[[[[[[[[[[[[[[[[[[[[[[[[[[[[[[[[[[[[[[[[[[[[[[[[[[[[[[[",
"[[[[[[[[[[[[[[[[[[[[[[[[[[[[[[[[[[[[[[[[[[[[[[[[[[[[[[[[[[[[[[[[",
"[[[[[[[[[[[[[[[[[[[[[[[[[[[[[[[[[[[[[[[[[[[[[[[[[[[[[[[[[[[[[[[[",
"[[[[[[[[[[[[[[[[[[[[[s[[[[[[[[[[[[[[[[[[[[[[[[[[[[[[[[[[[[[[[[[[",
"[[[[[[[[[[[[[[[[[[[,I)v[[[[[[[[[[[[[[[[[[[[[[[[[[[[[[[[[[[[[[[[[",
"[[[[[[[[[[[[[[[[[[SnnTx[[[[[[[[[[[[[[[[[[[[PC[[[[[[[[[[[[[[[[[[[",
"[[[[[[[[[[[[[[[[eb!z7>[[[[[[[[[[[[[[[[[[[[tRIe[[[[[[[[[[[[[[[[[[",
"[[[[[[[[[[[[[[[[3Nxfg@[[[[[[[[[[[u[[[[[[[[tmIa[[[[[[[[[[[[[[[[[[",
"[[[[[[[[[[[[[[[[X,@:>X[[[[[[[[ZzNQZau[[[[[7J(a[[[[[[[[[[[[[[[[[[",
"[[[[[[[[[[[[[[[[[[[[[[[[[[[[[eEmcDW'T!Tu[[*4u[[[[[[[[[[[[[[[[[[[",
"[[[[[[[[[[[[[[[[[[[[[[[:[[[[IANmLIgmI~~Jg[[[[[[[[[[[[[[[[[[[[[[[",
"[[[[[[[[[[[[[[[[[[[[[[[[[eSuNKKmNJK3nEGGJ4[[[uk[[[[[[[[[[[[[[[[[",
"[[[[[[[[[[[[[[[[[[[[[[[[[7ILNNKNFNNnNNzNLb[[[=[[[[[[[[[[[[[[[[[[",
"[[[[[[[[[[[[[[[[[[[[[[BpO1LTcMLNgnxzNFbymF[[[[[wk[[[[[[[[[[[[[[[",
"[[[[[[[[[[[[[[[[[[[[[[CTA6gc3YL9z960xEH9xIbiw[[<a[[[[[[[[[[[[[[[",
"[[[[[[[[[[[[[[[[[[[ku[,!~zmmf936z1+9nEG91gG`!q[[[[[[[[[[[[[[[[[[",
"[[[[[[[[[[[[[[[[[[[Tg[kHIzmnf9@o:$$uxmIN;dNL`Z[[[[[[[[[[[[[[[[[[",
"[[[[[[[[[[[[[[[[[[[vCZ_QT9y031+[[q[[8y3;0z6dNg[[[[[[[[[[[[[[[[[[",
"[[[[[[[[[[[[[[[[[[[$,c`Gj9&1366OqZ[[ O;&z`HnNx[[5[[[[[[[[[[[[[[[",
"[[[[[[[[[[[[[[[[[[[[[*ZY693yUm1.[[[[[tm13NNLTS[[tq[[[[[[[[[[[[[[",
"[[[[[[[[[[[[[[[[[[[[[[rJNNcNG0&.[[[%zGx1xzzG'/[[4[[[[[[[[[[[[[[[",
"[[[[[[[[[[[[[[[[[[[[[[j/Nb'N911@6*[ozGx0`Z3gLH[[[[[[[[[[[[[[[[[[",
"[[[[[[[[[[[[[[[[[[[,t[[chK'E0z0zE9[%znGxMd6g0t[[[[[[[[[[[[[[[[[[",
"[[[[[[[[[[[[[[[[[[[[*[[zNTI/NGmnm1&9dcELz0cG*[[[[[[[[[[[[[[[[[[[",
"[[[[[[[[[[[[[[[[[[[[[[xcKQNKcx09z3zmYLNGd19c[[[[[[[[[[[[[[[[[[[[",
"[[[[[[[[[[[[[[[[[[[[C^~NzNMz1gLFNnmNGz6LJyyz[[[[[[[[[[[[[[[[[[[[",
"[[[[[[[[[[[[[[[[[[[tR)Tz1KRN9y]GNGGNUb&fMNF,[[[[[[[[[[[[[[[[[[[[",
"[[[[[[[[[[[[[[[[[[[$b~~t#PT~Iyh8'mcxxh6NLm6[[[[[[[[[[[[[[[[[[[[[",
"[[[[[[[[[[[[[[[[[[[[-TM%[<II`J01N9zG61;c~I[[[[[[[[[[[[[[[[[[[[[[",
"[[[[[[[[[[[[[[[[[[[[[4,[[[aUMJz63NGz1x0gZYq[[[[[[[[[[[[[[[[[[[[[",
"[[[[[[[[[[[[[[[[[[[[[[[[[[rH7*$2hRcO&NUJxUc[[[[[[[[[[[[[[[[[[[[[",
"[[[[[[[[[[[[[[[[[[[[[[[4i[[[[[[[%t$[[4Tcf'H[[[[[[[[[[[[[[[[[[[[[",
"[[[[[[[[[[[[[[[[[[[[[[[,Gk[[[[[[[[[[[[C4-TH[[[[[[[[[[[[[[[[[[[[[",
"[[[[[[[[[[[[[[[[[[[[[[[[>[[[[[[ue[[[[[[[4z4[[[[[[[[[[[[[[[[[[[[[",
"[[[[[[[[[[[[[[[[[[[[[[[[[[[[[[[tc4[[[[[[[$[[[[[[[[[[[[[[[[[[[[[[",
"[[[[[[[[[[[[[[[[[[[[[[[[[[[[[[[SMzze[[[[[[[[[[[[[[[[[[[[[[[[[[[[",
"[[[[[[[[[[[[[[[[[[[[[[[[[[[[[[[ujyG,[[[[[[[[[[[[[[[[[[[[[[[[[[[[",
"[[[[[[[[[[[[[[[[[[[[[[[[[[[[[[[[[oq[[[[[[[[[[[[[[[[[[[[[[[[[[[[[",
"[[[[[[[[[[[[[[[[[[[[[[[[[[[[[[[[[[[[[[[[[[[[[[[[[[[[[[[[[[[[[[[[",
"[[[[[[[[[[[[[[[[[[[[[[[[[[[[[[[[[[[[[[[[[[[[[[[[[[[[[[[[[[[[[[[[",
"[[[[[[[[[[[[[[[[[[[[[[[[[[[[[[[[[[[[[[[[[[[[[[[[[[[[[[[[[[[[[[[[",
"[[[[[[[[[[[[[[[[[[[[[[[[[[[[[[[[[[[[[[[[[[[[[[[[[[[[[[[[[[[[[[[[",
"[[[[[[[[[[[[[[[[[[[[[[[[[[[[[[[[[[[[[[[[[[[[[[[[[[[[[[[[[[[[[[[[",
"[[[[[[[[[[[[[[[[[[[[[[[[[[[[[[[[[[[[[[[[[[[[[[[[[[[[[[[[[[[[[[[[",
"[[[[[[[[[[[[[[[[[[[[[[[[[[[[[[[[[[[[[[[[[[[[[[[[[[[[[[[[[[[[[[[[",
"[[[[[[[[[[[[[[[[[[[[[[[[[[[[[[[[[[[[[[[[[[[[[[[[[[[[[[[[[[[[[[[[",
"[[[[[[[[[[[[[[[[[[[[[[[[[[[[[[[[[[[[[[[[[[[[[[[[[[[[[[[[[[[[[[[[",
"[[[[[[[[[[[[[[[[[[[[[[[[[[[[[[[[[[[[[[[[[[[[[[[[[[[[[[[[[[[[[[[[",
"[[[[[[[[[[[[[[[[[[[[[[[[[[[[[[[[[[[[[[[[[[[[[[[[[[[[[[[[[[[[[[[[",
"[[[[[[[[[[[[[[[[[[[[[[[[[[[[[[[[[[[[[[[[[[[[[[[[[[[[[[[[[[[[[[[[",
"[[[[[[[[[[[[[[[[[[[[[[[[[[[[[[[[[[[[[[[[[[[[[[[[[[[[[[[[[[[[[[[["
};
