/* XPM */
static char *Explosion_two_colors7[] = {
/* columns rows colors chars-per-pixel */
"64 64 163 2 ",
"   c #6F290E",
".  c #722C0E",
"X  c #72300B",
"o  c #742E10",
"O  c #773610",
"+  c #7C3A15",
"@  c #68392C",
"#  c #6F4734",
"$  c #0F2073",
"%  c #4B4059",
"&  c #695245",
"*  c #726C5D",
"=  c #767261",
"-  c #823C16",
";  c #854415",
":  c #8C4D14",
">  c #8B4718",
",  c #914C18",
"<  c #8A551A",
"1  c #9D631C",
"2  c #844824",
"3  c #975D27",
"4  c #9D5C21",
"5  c #895B34",
"6  c #A46B25",
"7  c #A26E2C",
"8  c #A96D28",
"9  c #A16325",
"0  c #AC7426",
"q  c #AF7A21",
"w  c #A9762D",
"e  c #B37B26",
"r  c #B1782F",
"t  c #A0773E",
"y  c #B37D31",
"u  c #8D7044",
"i  c #867F5E",
"p  c #827256",
"a  c #B9822B",
"s  c #AB823B",
"d  c #BA8737",
"f  c #BC8A30",
"g  c #CF9C3B",
"h  c #9C8349",
"j  c #BA8A45",
"k  c #868666",
"l  c #848E7C",
"z  c #C19440",
"x  c #C3924C",
"c  c #C19B4F",
"v  c #C69C55",
"b  c #CCA24C",
"n  c #D8AB46",
"m  c #CCA65A",
"M  c #C9A053",
"N  c #D8B259",
"B  c #CFAE61",
"V  c #DBB460",
"C  c #DBB86C",
"Z  c #DFC275",
"A  c #EED36E",
"S  c #142C85",
"D  c #193683",
"F  c #173889",
"G  c #1C3B88",
"H  c #1D4691",
"J  c #23448E",
"K  c #284691",
"L  c #274B94",
"P  c #29579E",
"I  c #305599",
"U  c #345D9F",
"Y  c #37699A",
"T  c #34629A",
"R  c #2F57A0",
"E  c #2F5CAB",
"W  c #3563A3",
"Q  c #3D63A3",
"!  c #346AAB",
"~  c #3A6AAB",
"^  c #3869A5",
"/  c #3B72A9",
"(  c #3C72A5",
")  c #3868B0",
"_  c #3D72B1",
"`  c #41689C",
"'  c #4A759D",
"]  c #517D93",
"[  c #447AA5",
"{  c #4271AE",
"}  c #437AB6",
"|  c #4B7CB5",
" . c #447CBA",
".. c #527DB3",
"X. c #3F7DC7",
"o. c #5E8992",
"O. c #728E89",
"+. c #6F918E",
"@. c #75938C",
"#. c #4C8AAD",
"$. c #4A89B6",
"%. c #4D83BC",
"&. c #4681B5",
"*. c #5484BC",
"=. c #5888B9",
"-. c #4C93BB",
";. c #529BBB",
":. c #5892B9",
">. c #6499A1",
",. c #609FBF",
"<. c #6A98BF",
"1. c #7396B7",
"2. c #79ABA7",
"3. c #74A8A5",
"4. c #76AFB0",
"5. c #70A4B9",
"6. c #6DB3B8",
"7. c #71B3B6",
"8. c #7FB7B2",
"9. c #79B8BA",
"0. c #4C88C8",
"q. c #4683C3",
"w. c #5388C1",
"e. c #4C96C0",
"r. c #539BC1",
"t. c #5694CC",
"y. c #5C94C9",
"u. c #5B92C4",
"i. c #438CD5",
"p. c #5F99D1",
"a. c #6A9ECA",
"s. c #6496C8",
"d. c #55A2C3",
"f. c #58A1C0",
"g. c #59A8C4",
"h. c #5BABC9",
"j. c #5EB4CB",
"k. c #6FA4CE",
"l. c #68ADC2",
"z. c #6CB4C5",
"x. c #62B6CB",
"c. c #6AB7C9",
"v. c #61B9CE",
"b. c #73BFC6",
"n. c #7BB6C1",
"m. c #63A5D6",
"M. c #73A5D1",
"N. c #64BDD2",
"B. c #70B3E2",
"V. c #6AC0CD",
"C. c #67C2D4",
"Z. c #6AC5D5",
"A. c #69C7D8",
"S. c #6DCCDA",
"D. c #71C5D0",
"F. c #71CEDA",
"G. c #78CDD5",
"H. c #77D0D8",
"J. c #78D0D8",
"K. c #F2D98B",
"L. c #84D4D5",
"P. c #8BD6D3",
"I. c None",
/* pixels */
"I.I.I.I.I.I.I.I.I.I.I.I.I.I.I.I.I.I.I.I.I.I.I.I.I.I.I.I.I.I.I.I.I.I.I.I.I.I.I.I.I.I.I.I.I.I.I.I.I.I.I.I.I.I.I.I.I.I.I.I.I.I.I.I.",
"I.I.I.I.I.I.I.I.I.I.I.I.I.I.I.I.I.I.I.I.I.I.I.I.I.I.I.I.I.I.I.I.I.I.I.I.I.I.I.I.I.I.I.I.I.I.I.I.I.I.I.I.I.I.I.I.I.I.I.I.I.I.I.I.",
"I.I.I.I.I.I.I.I.I.I.I.I.I.I.I.I.I.I.I.I.I.I.I.I.I.I.I.I.I.I.I.I.I.I.I.I.I.I.I.I.I.I.I.I.I.I.I.I.I.I.I.I.I.I.I.I.I.I.I.I.I.I.I.I.",
"I.I.I.I.I.I.I.I.I.I.I.I.I.I.I.I.I.I.I.I.I.I.I.I.I.I.I.I.I.I.I.I.I.I.I.I.I.I.I.I.I.I.I.I.I.I.I.I.I.I.I.I.I.I.I.I.I.I.I.I.I.I.I.I.",
"I.I.I.I.I.I.I.I.I.I.I.I.I.I.I.I.I.I.I.I.I.I.I.I.I.I.I.I.I.I.I.I.I.I.I.I.I.I.I.I.I.I.I.I.I.I.I.I.I.I.I.I.I.I.I.I.I.I.I.I.I.I.I.I.",
"I.I.I.I.I.I.I.I.I.I.I.I.I.I.I.I.I.I.I.I.I.I.I.I.I.I.I.I.I.I.I.I.I.I.I.I.I.I.I.I.I.I.I.I.I.I.I.I.I.I.I.I.I.I.I.I.I.I.I.I.I.I.I.I.",
"I.I.I.I.I.I.I.I.I.I.I.I.I.I.I.I.I.I.I.I.I.I.I.I.I.I.I.I.I.I.I.I.I.I.I.I.I.I.I.I.I.I.I.I.I.I.I.I.I.I.I.I.I.I.I.I.I.I.I.I.I.I.I.I.",
"I.I.I.I.I.I.I.I.I.I.I.I.I.I.I.I.I.I.I.I.I.I.I.I.I.I.I.I.I.I.I.I.I.I.I.I.I.I.I.I.I.I.I.I.I.I.I.I.I.I.I.I.I.I.I.I.I.I.I.I.I.I.I.I.",
"I.I.I.I.I.I.I.I.I.I.I.I.I.I.I.I.I.I.I.I.I.I.I.I.I.I.I.I.I.I.I.I.I.I.I.I.I.I.I.I.I.I.I.I.I.I.I.I.I.I.I.I.I.I.I.I.I.I.I.I.I.I.I.I.",
"I.I.I.I.I.I.I.I.I.I.I.I.I.I.I.I.I.I.I.I.I.I.I.I.I.I.I.I.I.I.I.I.I.I.I.I.I.I.I.I.I.I.I.I.I.I.I.I.I.I.I.I.I.I.I.I.I.I.I.I.I.I.I.I.",
"I.I.I.I.I.I.I.I.I.I.I.I.I.I.I.I.I.I.I.I.I.I.I.I.I.I.I.I.I.I.I.I.I.I.I.I.I.I.I.I.I.I.I.I.I.I.I.I.I.I.I.I.I.I.I.I.I.I.I.I.I.I.I.I.",
"I.I.I.I.I.I.I.I.I.I.I.I.I.I.I.I.I.I.I.I.I.I.I.I.I.I.I.I.I.I.I.I.I.I.I.I.I.I.I.I.I.I.I.I.I.I.I.I.I.I.I.I.I.I.I.I.I.I.I.I.I.I.I.I.",
"I.I.I.I.I.I.I.I.I.I.I.I.I.I.I.I.I.I.I.I.I.I.I.I.I.I.I.I.I.I.I.I.I.I.I.I.I.I.I.I.I.I.I.I.I.I.I.I.I.I.I.I.I.I.I.I.I.I.I.I.I.I.I.I.",
"I.I.I.I.I.I.I.I.I.I.I.I.I.I.I.I.I.I.I.I.I.I.I.I.I.I.I.I.I.I.I.I.I.I.I.I.I.I.I.I.I.I.I.I.I.I.I.I.I.I.I.I.I.I.I.I.I.I.I.I.I.I.I.I.",
"I.I.I.I.I.I.I.I.I.I.I.I.I.I.I.I.I.I.I.I.I.I.I.I.I.I.I.I.I.I.I.I.I.I.I.I.I.I.I.I.I.I.I.I.I.I.I.I.I.I.I.I.I.I.I.I.I.I.I.I.I.I.I.I.",
"I.I.I.I.I.I.I.I.I.I.I.I.I.I.I.I.I.I.I.I.I.I.I.I.I.I.I.I.I.I.I.I.I.I.I.I.I.I.I.I.I.I.I.I.I.I.I.I.I.I.I.I.I.I.I.I.I.I.I.I.I.I.I.I.",
"I.I.I.I.I.I.I.I.I.I.I.I.I.I.I.I.I.I.I.I.I.I.I.I.I.I.I.I.I.I.I.I.I.I.I.I.I.I.I.I.I.I.I.I.I.I.I.I.I.I.I.I.I.I.I.I.I.I.I.I.I.I.I.I.",
"I.I.I.I.I.I.I.I.I.I.I.I.I.I.I.I.I.I.I.I.I.I.I.I.I.I.I.I.I.I.I.I.I.I.I.I.I.I.I.I.I.I.I.I.I.I.I.I.I.I.I.I.I.I.I.I.I.I.I.I.I.I.I.I.",
"I.I.I.I.I.I.I.I.I.I.I.I.I.I.I.I.I.I.I.I.I.I.I.I.I.I.I.I.I.I.I.I.I.I.I.I.I.I.I.I.I.I.I.I.I.I.I.I.I.I.I.I.I.I.I.I.I.I.I.I.I.I.I.I.",
"I.I.I.I.I.I.I.I.I.I.I.I.I.I.I.I.I.I.I.I.I.I.I.I.I.I.I.I.I.I.I.I.I.I.I.I.I.I.I.I.I.I.I.I.I.I.I.I.I.I.I.I.I.I.I.I.I.I.I.I.I.I.I.I.",
"I.I.I.I.I.I.I.I.I.I.I.I.I.I.I.I.I.I.I.I.I.I.I.I.I.I.I.I.I.I.I.I.I.I.I.I.I.I.I.I.I.I.I.I.I.I.I.I.I.I.I.I.I.I.I.I.I.I.I.I.I.I.I.I.",
"I.I.I.I.I.I.I.I.I.I.I.I.I.I.I.I.I.I.I.I.I.I.I.I.I.I.I.I.I.I.I.I.I.I.I.I.I.I.I.I.I.I.I.I.I.I.I.I.I.I.I.I.I.I.I.I.I.I.I.I.I.I.I.I.",
"I.I.I.I.I.I.I.I.I.I.I.I.I.I.I.I.I.I.I.I.I.I.I.I.I.I.I.I.P.P.L.L.L.P.I.I.I.I.I.I.I.I.I.I.I.} I.I.I.I.I.I.I.I.I.I.I.I.I.I.I.I.I.I.",
"I.I.I.I.I.I.I.I.I.I.Q *.I.I.I.I.I.I.I.I.I.I.I.I.I.I.L.I.I.I.I.I.I.I.I.J.L.I.I.I.I.I.I.I.w.%.I.I.I.I.I.I.I.I.I.I.I.I.I.I.I.I.I.I.",
"I.I.I.I.I.I.I.I.I.I.I.M.a.I.I.I.I.I.I.I.I.I.I.I.P.I.I.I.I.I.I.I.I.I.I.I.I.H.I.:.H I.I.I.I.I.I.I.I.I.I.I.I.I.I.I.I.I.I.I.I.I.I.I.",
"I.I.I.I.I.I.I.I.I.I.I.I. .P I.I.I.I.I.I.I.u.n.I.I.I.I.I.I.I.I.I.I.I.I.I.I.I.x.k.| I.I.I.I.I.I.I.I.I.I.I.I.I.I.I.I.I.I.I.I.I.I.I.",
"I.I.I.I.I.I.I.I.I.I.I.I.I.I.I.I.I.I.I.I.I.M.a.C.I.A.C.I.I.I.I.I.I.I.I.I.I.I.r.s.6.I.I.I.I.I.I.I.I.I.I.I.I.I.I.I.I.I.I.I.I.I.I.I.",
"I.I.I.I.I.I.I.I.I.I.I.I.I.I.I.I.I.I.I.I.I.-.q.d.I.h./ N.I.F.F.F.F.S.I.I.I.N.^ e.x.' I.I.I.I.I.I.I.I.I.I.I.I.I.I.I.I.I.I.I.I.I.I.",
"I.I.I.I.I.I.I.I.I.I.I.I.I.I.I.I.I.I.I.I.I.Z._ / I.v.| ,.I.I.I.I.I.I.I.F.I.;.T I.N.c.I.I.I.I.I.{ I.I.I.I.I.I.I.I.I.I.I.I.I.I.I.I.",
"I.I.I.I.I.I.I.I.I.I.I.I.1 d I.I.I.s.*.5.J.I.A.;.A.Z.s.1.I.I.I.I.I.I.' I.I.g.j.d.v.I.I.I.I.I.R I.I.I.I.I.I.I.I.I.I.I.I.I.I.I.I.I.",
"I.I.I.I.I.I.I.I.I.I.I.I.I.N V , I.I.{ &.&.Z.I.I.F.I.I.` I.I.I.I.I...W I.I.z.$.^ v.I.J.I.I.I.I.I.B Z z I.I.I.I.I.I.I.I.I.I.I.I.I.",
"I.I.I.I.I.I.I.I.I.I.I.I.I.I.n 0 I.I.I.@.( -.I.F.I.I.I.G I.I.I.I.I.| I.I.I.%.:.v.I.I.Z.I.I.I.e A K.m I.I.I.I.I.I.I.I.I.I.I.I.I.I.",
"I.I.I.I.I.I.I.I.I.I.I.I.I.I.4 3 I.I.h s O.j.A.I.I.I.I.I.I.I.I.I.I.F I.I.I.P I.I.j.;.W ' I.X e g 8 I.I.I.I.I.I.I.I.I.I.I.I.I.I.I.",
"I.I.I.I.I.I.I.I.I.; I.I.I.I.I.I.I.I.I.p & ] [ I.I.I.I.I.I.I.I.I.I.I.I.I.I.I.I.z.M.t.-.I.I.. , I.I.I.I.I.I.I.I.I.I.I.I.I.I.I.I.I.",
"I.I.I.I.I.I.I.I.I.I.8 v z e I.I.I.I.I.D.o.>.$.%.I.I.I.I.I.I.I.I.I.I.I.I.I.I.I.%.m.d.I.9.# I.I.I.I.7 I.I.I.I.I.I.I.I.I.I.I.I.I.I.",
"I.I.I.I.I.I.I.I.I.I.I.I.r 6 e : I.I.I.2.k 3.z.} I.I.Q =.I.I.I.I.I.I.I.I.I.I.I.W f.I.I.7.I.I.I.w v 7 I.I.I.I.I.I.I.I.I.I.I.I.I.I.",
"I.I.I.I.I.I.I.I.I.I.I.I.I.I.I.- o I.I.8.k * I.I.I.I.I.| I.I.I.I.I.I.I.I.L I.I.I.I.I.I.I.I.I.I.I.I.I.I.< z 9 I.I.I.I.I.I.I.I.I.I.",
"I.I.I.I.I.I.I.I.I.I.I.I.I.I.I.I.I.I.I.= @.c.I.I.I.I.I.I.I.I.I.I.I.I.I.I.I.I.I.I.I.7.7.I.I.I.I.I.I.I.I.r x I.I.I.I.I.I.I.I.I.I.I.",
"I.I.I.I.I.I.I.I.I.I.I.I.I.I.I.I.I.I.I.I.3.S.I.I.I.I.I.I.I.I.I.I.I.I.I.I.I.I.I.I.7.u t I.I.I.I.I.I.  + I.I.I.I.I.I.I.I.I.I.I.I.I.",
"I.I.I.I.I.I.I.I.I.I.I.I.I.I.I.I.; I.I.I.I.S.I.I.I.I.I.I.I.I.I.I.I.I.I.I.I.I.I.I.D.+.l I.I.I.I.I.I.I.I.I.I.I.I.I.I.I.I.I.I.I.I.I.",
"I.I.I.I.I.I.I.I.I.I.I.I.I.I.a 1 O I.I.I.I.I.G.I.I.I.I.I.I.I.I.I.I.I.I.I.I.I.I.I.A.h.I.I.I.I.I.I.I.I.I.I.I.I.I.I.I.I.I.I.I.I.I.I.",
"I.I.I.I.I.I.I.I.I.I.I.I.w m b 8 I.I.I.I.I.l.d.` I.I.I.I.I.I.I.I.I.I.I.I.I.I.I.z.Y J I.I.I.I.I.I.o < d j I.I.I.I.I.I.I.I.I.I.I.I.",
"I.I.I.I.I.I.I.I.I.I.I.I.I.I.I.I.I.I.I.I.I.L ( [ ) 0.I.I.I.I.I.I.I.I.I.I.W X.U #.I.I.I.I.I.I.I.I.I.I.a C j I.I.I.I.I.I.I.I.I.I.I.",
"I.I.I.I.I.I.I.~ ~ I.I.I.I.I.I.I.2 + ; + I.I.I.I.E i.y.I.I.I.I.I.I.I.I.I.t.B.~ I.I.I.I.I.I.I.I.I.I.I.I.I.I.I.I.I.I.I.I.I.I.I.I.I.",
"I.I.I.I.I.I.I.I.I.I.I.I.I.I.m C y 4 I.I.I.I.I.I.J ) p.m. ._ S W E ! w.P I.I.I.I.I.I.I.I.I.I.I.6 I.I.I.I.I.I.I.I.I.I.I.I.I.I.I.I.",
"I.I.I.I.I.I.I.I.I.I.I.I.I.y N x I.I.I.I.K I.I.I.I.I.I.I.~ I.I.I.I.I.I.I.I.I.I.I.I.I.I.I.I.I.: y M I.I.I.I.I.I.I.I.I.I.I.I.I.I.I.",
"I.I.I.I.I.I.I.I.I.I.I.I.@ 5 % I.I.I.I.I.I.I.I.I.I.I.I.I.I.I.I.I.I.I.I.I.I.I.I.I.I.I.I.I.I.I.I.I.I.I.I.I.I.I.I.I.I.I.I.I.I.I.I.I.",
"I.I.I.I.I.I.I.I.I.I.I.I.I.I.I.I.I.I.I.I.I.I.I.I.I.I.I.I.I.I.I.I.I.I.I.I.I.I.I.I.I.I.I.I.I.I.I.I.I.I.I.I.I.I.I.I.I.I.I.I.I.I.I.I.",
"I.I.I.I.I.I.I.I.I.I.I.I.I.I.I.I.I.I.I.I.I.I.K K I.I.D I.I.I.$ G I.I.I.I.I.D I I.I.I.I.I.I.I.I.I.I.I.I.I.I.I.I.I.I.I.I.I.I.I.I.I.",
"I.I.I.I.I.I.I.I.I.I.I.I.I.I.I.I.I.I.I.I.I.I.I.I.I.I.I.I.I.I.I.I.I.I.I.I.I.I.I.I.I.I.I.I.I.I.I.I.I.I.I.I.I.I.I.I.I.I.I.I.I.I.I.I.",
"I.I.I.I.I.I.I.I.I.I.I.I.I.I.I.I.I.I.I.I.I.I.I.I.I.I.I.I.I.I.I.I.I.I.I.I.I.I.I.I.I.I.I.I.I.I.I.I.I.I.I.I.I.I.I.I.I.I.I.I.I.I.I.I.",
"I.I.I.I.I.I.I.I.I.I.I.I.I.I.I.I.I.I.I.I.I.I.I.I.I.I.I.I.I.I.I.I.I.I.I.I.I.I.I.I.I.I.I.I.I.I.I.I.I.I.I.I.I.I.I.I.I.I.I.I.I.I.I.I.",
"I.I.I.I.I.I.I.I.I.I.I.I.I.I.I.I.I.I.I.I.I.I.I.I.I.I.I.I.I.I.I.I.I.I.I.I.I.I.I.I.I.I.I.I.I.I.I.I.I.I.I.I.I.I.I.I.I.I.I.I.I.I.I.I.",
"I.I.I.I.I.I.I.I.I.I.I.I.I.I.I.I.I.I.I.I.I.I.I.I.I.I.I.I.I.I.I.I.I.I.I.I.I.I.I.I.I.I.I.I.I.I.I.I.I.I.I.I.I.I.I.I.I.I.I.I.I.I.I.I.",
"I.I.I.I.I.I.I.I.I.I.I.I.I.I.I.I.I.I.I.I.I.I.I.I.I.I.I.I.I.I.I.I.I.I.I.I.I.I.I.I.I.I.I.I.I.I.I.I.I.I.I.I.I.I.I.I.I.I.I.I.I.I.I.I.",
"I.I.I.I.I.I.I.I.I.I.I.I.I.I.I.I.I.I.I.I.I.I.I.I.I.I.I.I.I.I.I.I.I.I.I.I.I.I.I.I.I.I.I.I.I.I.I.I.I.I.I.I.I.I.I.I.I.I.I.I.I.I.I.I.",
"I.I.I.I.I.I.I.I.I.I.I.I.I.I.I.I.I.I.I.I.I.I.I.I.I.I.I.I.I.I.I.I.I.I.I.I.I.I.I.I.I.I.I.I.I.I.I.I.I.I.I.I.I.I.I.I.I.I.I.I.I.I.I.I.",
"I.I.I.I.I.I.I.I.I.I.I.I.I.I.I.I.I.I.I.I.I.I.I.I.I.I.I.I.I.I.I.I.I.I.I.I.I.I.I.I.I.I.I.I.I.I.I.I.I.I.I.I.I.I.I.I.I.I.I.I.I.I.I.I.",
"I.I.I.I.I.I.I.I.I.I.I.I.I.I.I.I.I.I.I.I.I.I.I.I.I.I.I.I.I.I.I.I.I.I.I.I.I.I.I.I.I.I.I.I.I.I.I.I.I.I.I.I.I.I.I.I.I.I.I.I.I.I.I.I.",
"I.I.I.I.I.I.I.I.I.I.I.I.I.I.I.I.I.I.I.I.I.I.I.I.I.I.I.I.I.I.I.I.I.I.I.I.I.I.I.I.I.I.I.I.I.I.I.I.I.I.I.I.I.I.I.I.I.I.I.I.I.I.I.I.",
"I.I.I.I.I.I.I.I.I.I.I.I.I.I.I.I.I.I.I.I.I.I.I.I.I.I.I.I.I.I.I.I.I.I.I.I.I.I.I.I.I.I.I.I.I.I.I.I.I.I.I.I.I.I.I.I.I.I.I.I.I.I.I.I.",
"I.I.I.I.I.I.I.I.I.I.I.I.I.I.I.I.I.I.I.I.I.I.I.I.I.I.I.I.I.I.I.I.I.I.I.I.I.I.I.I.I.I.I.I.I.I.I.I.I.I.I.I.I.I.I.I.I.I.I.I.I.I.I.I.",
"I.I.I.I.I.I.I.I.I.I.I.I.I.I.I.I.I.I.I.I.I.I.I.I.I.I.I.I.I.I.I.I.I.I.I.I.I.I.I.I.I.I.I.I.I.I.I.I.I.I.I.I.I.I.I.I.I.I.I.I.I.I.I.I.",
"I.I.I.I.I.I.I.I.I.I.I.I.I.I.I.I.I.I.I.I.I.I.I.I.I.I.I.I.I.I.I.I.I.I.I.I.I.I.I.I.I.I.I.I.I.I.I.I.I.I.I.I.I.I.I.I.I.I.I.I.I.I.I.I."
};
