/* XPM */
static char *Nuclear_explosion9[] = {
/* columns rows colors chars-per-pixel */
"64 64 46 1 ",
"  c #0F0505",
". c #130605",
"X c #160807",
"o c #160A0A",
"O c #1C0D0C",
"+ c #1F100F",
"@ c #1E1110",
"# c #210E0D",
"$ c #231413",
"% c #291514",
"& c #271817",
"* c #2A1817",
"= c #271B19",
"- c #2C1C1A",
"; c #321D1B",
": c #2F211E",
"> c #33211E",
", c #38221F",
"< c #352421",
"1 c #3B2523",
"2 c #372924",
"3 c #3C2926",
"4 c #3D2D28",
"5 c #412926",
"6 c #422D29",
"7 c #44322D",
"8 c #49342E",
"9 c #463630",
"0 c #4C3631",
"q c #4D3933",
"w c #503732",
"e c #523B35",
"r c #553F39",
"t c #583F39",
"y c #56413A",
"u c #5A433C",
"i c #5F483F",
"p c #5E4840",
"a c #634B43",
"s c #684F46",
"d c #675046",
"f c #695147",
"g c #6E554B",
"h c #71574D",
"j c #73594E",
"k c None",
/* pixels */
"kkkkkkkkkkkkkkkkkkkkkkkkkkkkkkkkkkkkkkkkkkkkkkkkkkkkkkkkkkkkkkkk",
"kkkkkkkkkkkkkkkkkkkkkkkkkkkkkkkkkkkkkkkkkkkkkkkkkkkkkkkkkkkkkkkk",
"kkkkkkkkkkkkkkkkkkkkkkkkkkkkkkkkkkkkkkkkkkkkkkkkkkkkkkkkkkkkkkkk",
"kkkkkkkkkkkkkkkkkkkkkkkkkkkkkkkkkkkkkkkkkkkkkkkkkkkkkkkkkkkkkkkk",
"kkkkkkkkkkkkkkkkkkkkkkkkkkkkkkkkkkkkkkkkkkkkkkkkkkkkkkkkkkkkkkkk",
"kkkkkkkkkkkkkkkkkkkkkkkkkkkkkkkkkkkkkkkkkkkkkkkkkkkkkkkkkkkkkkkk",
"kkkkkkkkkkkkkkkkkkkkkkkkkkkkkkkkkkkkkkkkkkkkkkkkkkkkkkkkkkkkkkkk",
"kkkkkkkkkkkkkkkkkkkkkkkkkkkkkkkkkkkkkkkkkkkkkkkkkkkkkkkkkkkkkkkk",
"kkkkkkkkkkkkkkkkkkkkkkkkkkkkkkkkkkkkkkkkkkkkkkkkkkkkkkkkkkkkkkkk",
"kkkkkkkkkkkkkkkkkkkkkkkkkkkkkkkkkkkkkkkkkkkkkkkkkkkkkkkkkkkkkkkk",
"kkkkkkkkkkkkkkkkkkkkkkkkkkkkkkkkkkkkkkkkkkkkkkkkkkkkkkkkkkkkkkkk",
"kkkkkkkkkkkkkkkkkkkkkkkkkkkkkkkkkkkkkkkkkkkkkkkkkkkkkkkkkkkkkkkk",
"kkkkkkkkkkkkkkkkkkkkkkkkkkkkkkkkkkkkkkkkkkkkkkkkkkkkkkkkkkkkkkkk",
"kkkkkkkkkkkkkkkkkkkkkkkkkkkkkkkkkkkkkkkkkkkkkkkkkkkkkkkkkkkkkkkk",
"kkkkkkkkkkkkkkkkkkkkkkkkkkkkkkk783kkkkkkkkkkkkkkkkkkkkkkkkkkkkkk",
"kkkkkkkkkkkkkkkkkkkkkkkkkkkkkk*<<69kkkkkkkkkkkkkkkkkkkkkkkkkkkkk",
"kkkkkkkkkkkkkkkkkkkkkkkkk76><$.kk;uq-$kkkkkkkkkkkkkkkkkkkkkkkkkk",
"kkkkkkkkkkkkkkkkkkkkkkkk>6$kkkkkk%we&k$-79kkkkkkkkkkkkkkkkkkkkkk",
"kkkkkkkkkkkkkkk9-kkk3>k<>Okkkkkk k;,kkOkk<kkkkkkkkkkkkkkkkkkkkkk",
"kkkkkkkkkkkkk7%<kk--%kkkkkkkkkkkkkokkkkkkkkkkkkkkkkkkkkkkkkkkkkk",
"kkkkkkkkkkkkk>kkokkkkkkkkkkkk5-<kkkkkkkkkkkkkkk<ekkkkkkkkkkkkkkk",
"kkkkkkkkkkkkkkkkkkkkkkkkkk>1ar%%kkkkkkkkk-kkk4-*96ykkkkkkkkkkkkk",
"kkkkkkkkkkkkkkkkkkkkkkkkkk%%;;$k*kkkkkkkkk77kkkkk%r8k<kkkkkkkkkk",
"kkkkkkkkkkkkkkkkkkq<kkkkk;;OO-kkkkkkkkkkkk$kkkkkk8-kkyu4kkkkkkkk",
"kkkkkkkkkkkkkpqau;18kkkkkOOkkkkkuyk8kkkkkkkkkkkkkuuk$<kkkkkkkkkk",
"kkkkkkkkkk&&qhwquaeu6qr3kkkkkkk1ue;65kkk4ekkkk&kk-3kkkkkkkkkkkkk",
"kkkkkkkkkkkk;6;1is5-te16eukkkkk91%O#5kkk<9<kk*:kkokkkkkkkkkkkkkk",
"kkkkkkkkkkkkkkk&5>kk6;k*63kkkkkr1X.X>kkkkokkkkkkkkkkkkkkkkkkkkkk",
"kkkkkkkkkkkkkkkk$kkk$Okkp6kkkkk&kkkk1kkkkkkkkkkkkkkkkkkkkkkkkkkk",
"kkkkkkkkkkkkkkkkkkkkkkk&quukkkkkkkkkOkkkkkkkk&kkkkkkkkkkkkkkkkkk",
"kkkkkkkkkkkkkkkkkkkkkkkk#;;kk3kkkkOokkkkkkkkkkkkkkkkkkkkkkkkkkkk",
"kkkkkkkOkkk&kkkkkkkkkkkkk.kkkk-4kkkkkkkkkkkkkkkkkkkkkkk<kkkkkkkk",
"kkkkkkkkkkkkkkkkkkkkkkkkkkkkkkk2kkkkkkkkkkkkkkkkkkkkkkqkkkkkkkkk",
"kkkkkkkkkkkkkkkkkkkkkkkkkkkkkkk:kkkkkkkkkkkkkkkkkkkkkkkkkkkkkkkk",
"kkkkkkkkkkk-@kkkkkkkkkkkkkkkkkk@kkkkkkkkkkk>4kkkkkkkkkkkkkkkkkkk",
"kkkkkkkkkkkkkkkkk3<Okkkkkkkkkkkkkkkkkkkkkkkkkkkkkkkkkkkkkq8kkkkk",
"kkkkkkqrkkkkkkkk8kkkk<7kkk<kkkkkkkkkkkkkkkkkk3kkkkkkkkkkkudkkkkk",
"kkkkk<611kkkkkkk$kkkO$&kkkkkkkkkkkkkkkkkkkkk+>kkkk:kkkkkk3u<kkkk",
"kkkkkkkkkkkkkkkkkkkkkkkkkkkkkkkkkkkkkkkkkkkkkkkk$->kkkkk-$;ikkkk",
"kkkkkkkkkkad6@$$kk8ukkark22kkk&kkkkkkkkkkqdykkkkkkkkkkko$$&uykkk",
"kkkq7%kkkqq>kkkkkk9s55i8k$kkkk$>@kkkkkda,whwkkkkkkkk3kkkkkk&>kkk",
"kk7jrOkk8eOXkkk:kkas;Ok#*kkkkkkkkku7<ds1#%5wy3a7kkkk-7kkkkk 78kk",
"kk1u;kkkk1kkkkk;>$3<$$kk@kkk$<kkkk<k>a6XX#5w6&3kkkkkk7kkkkkkkkkk",
"kkk$okkkk6$kkkkkkkkk63kkkkkkkkkkkkkk$;kkkkXO.kkkk3kkkkkkkkkkkkkk",
"kkkkkkkkkkkkkkkkkkkk>>kkkkkkk4gjykk+kkkkkkkkkkkk&$kkkkkkkkkkkkkk",
"kkkkkkkkkkkkkkkkkkkkkkkkkkkqq5aht3kkkkkkk;>1*1kkkkkkkkkkkkkkkkkk",
"kkkkkkkkkkkkkkkkkkkkkkkkkk6r%O;;&$kkkkkkkokOO*+okkkkkkkkkkkkkkkk",
"kkkkkkkkkkkkkkkkkkkkkkkkkkk$kkkkkk*1&kkkkkkkkkkkkkkkkkkkkkkkkkkk",
"kkkkkkkkkkkkkkkkkkkkkkkkkkkkkkkkkkkkkkkkkkkkkkkkkkkkkkkkkkkkkkkk",
"kkkkkkkkkkkkkkkkkkkkkkkkkkkkkkkkkkkkkkkkkkkkkkkkkkkkkkkkkkkkkkkk",
"kkkkkkkkkkkkkkkkkkkkkkkkkkkkkkkkkkkkkkkkkkkkkkkkkkkkkkkkkkkkkkkk",
"kkkkkkkkkkkkkkkkkkkkkkkkkkkkkkkkkkkkkkkkkkkkkkkkkkkkkkkkkkkkkkkk",
"kkkkkkkkkkkkkkkkkkkkkkkkkkkkkkkkkkkkkkkkkkkkkkkkkkkkkkkkkkkkkkkk",
"kkkkkkkkkkkkkkkkkkkkkkkkkkkkkkkkkkkkkkkkkkkkkkkkkkkkkkkkkkkkkkkk",
"kkkkkkkkkkkkkkkkkkkkkkkkkkkkkkkkkkkkkkkkkkkkkkkkkkkkkkkkkkkkkkkk",
"kkkkkkkkkkkkkkkkkkkkkkkkkkkkkkkkkkkkkkkkkkkkkkkkkkkkkkkkkkkkkkkk",
"kkkkkkkkkkkkkkkkkkkkkkkkkkkkkkkkkkkkkkkkkkkkkkkkkkkkkkkkkkkkkkkk",
"kkkkkkkkkkkkkkkkkkkkkkkkkkkkkkkkkkkkkkkkkkkkkkkkkkkkkkkkkkkkkkkk",
"kkkkkkkkkkkkkkkkkkkkkkkkkkkkkkkkkkkkkkkkkkkkkkkkkkkkkkkkkkkkkkkk",
"kkkkkkkkkkkkkkkkkkkkkkkkkkkkkkkkkkkkkkkkkkkkkkkkkkkkkkkkkkkkkkkk",
"kkkkkkkkkkkkkkkkkkkkkkkkkkkkkkkkkkkkkkkkkkkkkkkkkkkkkkkkkkkkkkkk",
"kkkkkkkkkkkkkkkkkkkkkkkkkkkkkkkkkkkkkkkkkkkkkkkkkkkkkkkkkkkkkkkk",
"kkkkkkkkkkkkkkkkkkkkkkkkkkkkkkkkkkkkkkkkkkkkkkkkkkkkkkkkkkkkkkkk",
"kkkkkkkkkkkkkkkkkkkkkkkkkkkkkkkkkkkkkkkkkkkkkkkkkkkkkkkkkkkkkkkk"
};
