/* XPM */
static char *White_crystal2[] = {
/* columns rows colors chars-per-pixel */
"64 64 11 1 ",
"  c #3B2C2C",
". c #4B3936",
"X c #56433E",
"o c #373B46",
"O c #606C7E",
"+ c #778C9D",
"@ c #94B3C3",
"# c #B3DBE6",
"$ c #CEF8F9",
"% c #EAFFFF",
"& c None",
/* pixels */
"&&&&&&&&&&&&&&&&&&&&&&&&&&&&&&&&&&&&&&&&&&&&&&&&&&&&&&&&&&&&&&&&",
"&&&&&&&&&&&&&&&&&&&&&&&&&&&&&&&&&&&&&&&&&&&&&&&&&&&&&&&&&&&&&&&&",
"&&&&&&&&&&&&&&&&&&&&&&&&&&&&&&&&&&&&&&&&&&&&&&&&&&&&&&&&&&&&&&&&",
"&&&&&&&&&&&&&&&&&&&&&&&&&&&&&&&&&&&&&&&&&&&&&&&&&&&&&&&&&&&&&&&&",
"&&&&&&&&&&&&&&&&&&&&&&&&&&&&&&&&&&&&&&&&&&&&&&&&&&&&&&&&&&&&&&&&",
"&&&&&&&&&&&&&&&&&&&&&&&&&&&&&&&&&&&&&&&&&&&&&&&&&&&&&&&&&&&&&&&&",
"&&&&&&&&&&&&&&&&&&&&&&&&&&&&&&&&&&&&&&&&&&&&&&&&&&&&&&&&&&&&&&&&",
"&&&&&&&&&&&&&&&&&&&&&&&&&&&&&&&&&&&&&&&&&&&&&&&&&&&&&&&&&&&&&&&&",
"&&&&&&&&&&&&&&&&&&&&&&&&&&&&&&&&&&&&&&&&&&&&&&&&&&&&&&&&&&&&&&&&",
"&&&&&&&&&&&&&&&&&&&&&&&&&&&&&&&&&&&&&&&&&&&&&&&&&&&&&&&&&&&&&&&&",
"&&&&&&&&&&&&&&&&&&&&&&&&&&&&&&&&&&&&&&&&&&&&&&&&&&&&&&&&&&&&&&&&",
"&&&&&&&&&&&&&&&&&&&&&&&&&&&&&&&&&&&&&&&&&&&&&&&&&&&&&&&&&&&&&&&&",
"&&&&&&&&&&&&&&&&&&&&&&&&&&&&&&&&&&&&&&&&&&&&&&&&&&&&&&&&&&&&&&&&",
"&&&&&&&&&&&&&&&&&&&&&&&&&&&&&&&&&&&&&&&&&&&&&&&&&&&&&&&&&&&&&&&&",
"&&&&&&&&&&&&&&&&&&&&&o&&&&&&&&&&&&&&&&&&&&&&&&&&&&&&&&&&&&&&&&&&",
"&&&&&&&&&&&&&&&&&&&&&ooo&&&&&&&&&&&&&&&&&&&&&&&&&&&&&&&&&&&&&&&&",
"&&&&&&&&&&&&&&&&&&&&&o##o&&&&&&&&&&&&&&&&&&&&&&&&&&&&&&&&&&&&&&&",
"&&&&&&&&&&&&&&&&&&&&&o@#$o&&&&&&&&&&&&&&&&&&&&&&&&&&&&&&&&&&&&&&",
"&&&&&&&&&&&&&&&&&&&&&o@@#$o&&&&&&&&&&&o&&&&&&&&&&&&&&&&&&&&&&&&&",
"&&&&&&&&&&&&&&&&&&&&o+@@#$%o&&&&&&&&&o$o&&&&&&&&&&&&&&&&&&&&&&&&",
"&&&&&&&&&&&&&&&&&&&&o+@@@#$%o&&&&&&&o#%o&&&&&&&&&&&&&&&&&&&&&&&&",
"&&&&&&&&&&&&&&&&&&&&o+@@@##$o&&&&&&o@#%o&&&&&&&&&&&&&&&&&&&&&&&&",
"&&&&&&&&&&&&&&&&&&&&o++@@@##o&&&&&o+@#$o&&&&&&&&&&&&&&&&&&&&&&&&",
"&&&&&&&&&&&&&&&&&&&&&o+++@@#o&&&&o+@##$o&&&&&&&&&&&&&&&&&&&&&&&&",
"&&&&&&&&&&&&&&&&&&&&&oO+++@@#o&&&o+@@##o&&&&&&&&&&&&&&&&&&&&&&&&",
"&&&&&&&&&&&&&&&&&&&&&&oO+++@@o&&&o++@@#o&&&oooooooo&&&&&&&&&&&&&",
"&&&&&&&&&&&&&&&....X.&oOO++@@o.&oO++@@o&&&o#%$%%$#o&&&&&&&&&&&&&",
"&&&&&&&&&&&&&&&...XXX. oOO++@o .oO++@@o&&o###$$##o&&&&&&&&&&&&&&",
"&&&&&&&&&&&&&&&...XXX..ooOO+@@o oO+@@o&.o@######@o&&&&&&&&&&&&&&",
"&&&&&&&&&&&&&&&.X..X..o@@@$%@@o oO+@@o.o@@####@@o&&&&&&&&&&&&&&&",
"&&&&&&&&&&&&&&&XXX.. o@@@@@$$$ooO++@o o@@@@@@@@+o&&&&&&&&&&&&&&&",
"&&&&&&&&&&&&&&&&X..   o@@@@####+O+@@oo@@@@++@@+o..&&&&&&&&&&&&&&",
"&&&&&&&&&&&&&&&&&&..   o+++++###O+@oo@@@+++OOoo ....&&&&&&&&&&&&",
"&&&&&&&&&&&&&&&&&&.ooooo@OO+++++OO+o@@+++OOoo   X..&&&&&&&&&&&&&",
"&&&&&&&&&&&&&&&&..o$%$%%$OOOOOOO+#++++OOOoo    XXX&&&&&&&&&&&&&&",
"&&&&&&&&&&&&&&&..o###$$$$$##OOOO++#$OOOOo    ...X.&&&&&&&&&&&&&&",
"&&&&&&&&&&&&&&X.o##@@@#####++O#OO+##$%@o  .......&&&&&&&&&&&&&&&",
"&&&&&&&&&&&&&..o#@@@@@@##++OO@#$O+###$$%oX....&&&&&&&&&&&&&&&&&&",
"&&&&&&&&&&&&..o@@@@@@@@@++O+@@#$OO+###$$%o..&&&&&&&&&&&&&&&&&&&&",
"&&&&&&&&&&&..o@@@@@@@@@@OO+@@##%#O++@####o&&&&&&&&&&&&&&&&&&&&&&",
"&&&&&&&&&&..o+++@@@@@@@OOO+@@#$%$+O+@@@@#o.&&&&&&&&&&&&&&&&&&&&&",
"&&&&&&&&&..  oo++++++++OO+@@@@#$$#oO+@@@@o.&&&&&&&&&&&&&&&&&&&&&",
"&&&&&&&&....   oooo+++Oooo+@@@##%o o+++++o..&&&&&&&&&&&&&&&&&&&&",
"&&&&&&&&&...X..    oooo   o+@@@#o   oooooo..&&&&&&&&&&&&&&&&&&&&",
"&&&&&&&&&&&.XX...         o++@+o  ..     .X..&&&&&&&&&&&&&&&&&&&",
"&&&&&&&&&&&&&&...........  o++o  ..........&&&&&&&&&&&&&&&&&&&&&",
"&&&&&&&&&&&&&&&&&&&&&&&... o+o  ..&&&&&&&&&&&&&&&&&&&&&&&&&&&&&&",
"&&&&&&&&&&&&&&&&&&&&&&&&... o  ..&&&&&&&&&&&&&&&&&&&&&&&&&&&&&&&",
"&&&&&&&&&&&&&&&&&&&&&&&&&..X ...&&&&&&&&&&&&&&&&&&&&&&&&&&&&&&&&",
"&&&&&&&&&&&&&&&&&&&&&&&&&&XXX..&&&&&&&&&&&&&&&&&&&&&&&&&&&&&&&&&",
"&&&&&&&&&&&&&&&&&&&&&&&&&&&X..&&&&&&&&&&&&&&&&&&&&&&&&&&&&&&&&&&",
"&&&&&&&&&&&&&&&&&&&&&&&&&&&&.&&&&&&&&&&&&&&&&&&&&&&&&&&&&&&&&&&&",
"&&&&&&&&&&&&&&&&&&&&&&&&&&&&&&&&&&&&&&&&&&&&&&&&&&&&&&&&&&&&&&&&",
"&&&&&&&&&&&&&&&&&&&&&&&&&&&&&&&&&&&&&&&&&&&&&&&&&&&&&&&&&&&&&&&&",
"&&&&&&&&&&&&&&&&&&&&&&&&&&&&&&&&&&&&&&&&&&&&&&&&&&&&&&&&&&&&&&&&",
"&&&&&&&&&&&&&&&&&&&&&&&&&&&&&&&&&&&&&&&&&&&&&&&&&&&&&&&&&&&&&&&&",
"&&&&&&&&&&&&&&&&&&&&&&&&&&&&&&&&&&&&&&&&&&&&&&&&&&&&&&&&&&&&&&&&",
"&&&&&&&&&&&&&&&&&&&&&&&&&&&&&&&&&&&&&&&&&&&&&&&&&&&&&&&&&&&&&&&&",
"&&&&&&&&&&&&&&&&&&&&&&&&&&&&&&&&&&&&&&&&&&&&&&&&&&&&&&&&&&&&&&&&",
"&&&&&&&&&&&&&&&&&&&&&&&&&&&&&&&&&&&&&&&&&&&&&&&&&&&&&&&&&&&&&&&&",
"&&&&&&&&&&&&&&&&&&&&&&&&&&&&&&&&&&&&&&&&&&&&&&&&&&&&&&&&&&&&&&&&",
"&&&&&&&&&&&&&&&&&&&&&&&&&&&&&&&&&&&&&&&&&&&&&&&&&&&&&&&&&&&&&&&&",
"&&&&&&&&&&&&&&&&&&&&&&&&&&&&&&&&&&&&&&&&&&&&&&&&&&&&&&&&&&&&&&&&",
"&&&&&&&&&&&&&&&&&&&&&&&&&&&&&&&&&&&&&&&&&&&&&&&&&&&&&&&&&&&&&&&&"
};
