/* XPM */
static char *Green_crystal1[] = {
/* columns rows colors chars-per-pixel */
"64 64 11 1 ",
"  c #172325",
". c #192C2E",
"X c #1C3739",
"o c #463736",
"O c #214A48",
"+ c #2C6656",
"@ c #584642",
"# c #64514C",
"$ c #458D6C",
"% c #5DB975",
"& c None",
/* pixels */
"&&&&&&&&&&&&&&&&&&&&&&&&&&&&&&&&&&&&&&&&&&&&&&&&&&&&&&&&&&&&&&&&",
"&&&&&&&&&&&&&&&&&&&&&&&&&&&&&&&&&&&&&&&&&&&&&&&&&&&&&&&&&&&&&&&&",
"&&&&&&&&&&&&&&&&&&&&&&&&&&&&&&&&&&&&&&&&&&&&&&&&&&&&&&&&&&&&&&&&",
"&&&&&&&&&&&&&&&&&&&&&&&&&&&&&&&&&&&&&&&&&&&&&&&&&&&&&&&&&&&&&&&&",
"&&&&&&&&&&&&&&&&&&&&&&&&&&&&&&&&&&&&&&&&&&&&&&&&&&&&&&&&&&&&&&&&",
"&&&&&&&&&&&&&&&&&&&&&&&&&&&&&&&&&&&&&&&&&&&&&&&&&&&&&&&&&&&&&&&&",
"&&&&&&&&&&&&&&&&&&&&&&&&&&&&&&&&&&&&&&&&&&&&&&&&&&&&&&&&&&&&&&&&",
"&&&&&&&&&&&&&&&&&&&&&&&&&&&&&&&&&&&&&&&&&&&&&&&&&&&&&&&&&&&&&&&&",
"&&&&&&&&&&&&&&&&&&&&&&&&&&&&&&&&&&&&&&&&&&&&&&&&&&&&&&&&&&&&&&&&",
"&&&&&&&&&&&&&&&&&&&&&&&&&&&&&&&&&&&&&&&&&&&&&&&&&&&&&&&&&&&&&&&&",
"&&&&&&&&&&&&&&&&&&&&&&&&&&&&&&&&&&&&&&&&&&&&&&&&&&&&&&&&&&&&&&&&",
"&&&&&&&&&&&&&&&&&&&&&&&&&&&&&&&&&&&&&&&&&&&&&&&&&&&&&&&&&&&&&&&&",
"&&&&&&&&&&&&&&&&&&&&&&&&&&&&&&&&&&&&&&&     &&&&&&&&&&&&&&&&&&&&",
"&&&&&&&&&&&&&&&&&&&&&&&&&&&&&&&&&&&&&  ++OO+ &&&&&&&&&&&&&&&&&&&",
"&&&&&&&&&&&&&&&&&&&&&&&&&&&&&&&&&&&& +$+OOO+$ &&&&&&&&&&&&&&&&&&",
"&&&&&&&&&&&&&&&&&&&&&&&&&&&&&&&     OO+OOOO+$% &&&&&&&&&&&&&&&&&",
"&&&&&&&&&&&&&&&&&&&&&&&&&&&&&  +++++OOOOOOO++$% &&&&&&&&&&&&&&&&",
"&&&&&&&&&&&&&&&&&&&&&&&&&&&  ++$$$$++$OOOOO++$$$ &&&&&&&&&&&&&&&",
"&&&&&&&&&&&&&&&&&&&&&&&&&& O$+$$%%$$+O$XOOXO++O$ &&&&&&&&&&&&&&&",
"&&&&&&&&&&&&&&&&&&&&&&&&& OO++$%%%%$+O+$%XXO+O+$O &&&&&&&&&&&&&&",
"&&&&&&&&&&&&&&&&&&&&&&&& +O++$$%%%$$++O$$%XOO++OO &&&&&&&&&&&&&&",
"&&&&&&&&&&&&&&&&&&&   & +OO++$$$%$$++OO+$$%XO+OOO &&&&&&&&&&&&&&",
"&&&&&&&&&&&&&&&&&& +$$ $+OO$+$%$$$++O+O+%$%%OOOO+ &&&&&&&&&&&&&&",
"&&&&&&&&&&&&&&&&& +$%+O++OO$++$$$++O++O++$$%XOO+++ &&&&&&&&&&&&&",
"&&&&&&&&&&&&&&&& O+$$O++OOO$++++++O++OOO+++$%XO++O &&&&&&&&&&&&&",
"&&&&&&&&&&&&&&& O+++$O++OOX%$+$++O++OOOX+$++$XXOOO &&&&&&&&&&&&&",
"&&&&&&&&&&&&&&& O+$++XO+OOX$$$++O++OOOOX+++$$XXOO+ &&&&&&&&&&&&&",
"&&&&&&&&&&&&&&& OO+X.XO+OXX$$++O$+OOO+OO++$$%XXXOO &&&&&&&&&&&&&",
"&&&&&&&&&&&&&@ XOOX.XXOOXXX.++O$+OOO++O$O+$$OXXXXO &&&&&&&&&&&&&",
"&&&&&&&&&&&&@o XXX.XXXOOXX...+$+OOO++OX$$XXOXXXOX o&&&&&&&&&&&&&",
"&&&&&&&&&&&@@o .X..XXO.XX....$+OOO+++OX+$%XXXXOXX o@&&&&&&&&&&&&",
"&&&&&&&&&&@#@o ...XXOX.....X..OOO+++OO++$$$XXOXX o@@&&&&&&&&&&&&",
"&&&&&&&&&&###o ...XXX++OO+.....O++$+OX+++$$XXXXX o@@&&&&&&&&&&&&",
"&&&&&&&&&&@#@oo ..XX++OO++$....+++OO.XX+++OOXOX o#@@&&&&&&&&&&&&",
"&&&&&&&&&&@@@@o ...++OOOO+$%....+OO..XXO+OOOXX o###&&&&&&&&&&&&&",
"&&&&&&&&&&&@@@#o .+$+OOOO$+$%....O..XXOOXO+OXX o@#@&&&&&&&&&&&&&",
"&&&&&&&&&&&@@###o ++OOOOO++$$$......XOOXXXOOXX o@@&&&&&&&&&&&&&&",
"&&&&&&&&&&&&@@#o +++O+OO$+++$%.....XXOXXXXOXX o@@&&&&&&&&&&&&&&&",
"&&&&&&&&&&&&&@@o ++OOOOO$+O++OO....XOXXXXXOXX o@&&&&&&&&&&&&&&&&",
"&&&&&&&&&&&&@@oo O+OOOOX+O++OO$...XXXXXXXOXXO @&&&&&&&&&&&&&&&&&",
"&&&&&&&&&&&&@@o .XOOOOXXO++OO+O...XXXXXXXXXOOX &&&&&&&&&&&&&&&&&",
"&&&&&&&&&&&@@@o .XXOOX.X++OO+OO....XOXXXX.XXOOX &&&&&&&&&&&&&&&&",
"&&&&&&&&&&&@@@o .XXX..XX++++OOO.X..XXXXX..XXXX. &&&&&&&&&&&&&&&&",
"&&&&&&&&&&&@@@o ..X..XXXX++OO+O.....XXX..XXXXX. @&&&&&&&&&&&&&&&",
"&&&&&&&&&&@##@o .....XXXXXXXOOO........ ...XX.. @&&&&&&&&&&&&&&&",
"&&&&&&&&&&####oo ..X.XXXXXXX.OX ..X... o ..... @@&&&&&&&&&&&&&&&",
"&&&&&&&&&&####oo ....XXXXOX..X o      ooo ... o@@&&&&&&&&&&&&&&&",
"&&&&&&&&&&@###@oo ....XXOXX.. oooooooo#@@o   o@@&&&&&&&&&&&&&&&&",
"&&&&&&&&&&@@#@@@oo ....XXX..X o@@@@@@@@@@@ooo@@&&&&&&&&&&&&&&&&&",
"&&&&&&&&&&&@@@@@#oo ........ o@@&@@@@@@&&@@@@@&&&&&&&&&&&&&&&&&&",
"&&&&&&&&&&&&@@@###@o  ....  o@@&&&&&&&&&&&&&&&&&&&&&&&&&&&&&&&&&",
"&&&&&&&&&&&&&@@####@oo    oo@&&&&&&&&&&&&&&&&&&&&&&&&&&&&&&&&&&&",
"&&&&&&&&&&&&&&@@##@@@@oooo@&&&&&&&&&&&&&&&&&&&&&&&&&&&&&&&&&&&&&",
"&&&&&&&&&&&&&&&&&@@@@@&&&&&&&&&&&&&&&&&&&&&&&&&&&&&&&&&&&&&&&&&&",
"&&&&&&&&&&&&&&&&&&&&&&&&&&&&&&&&&&&&&&&&&&&&&&&&&&&&&&&&&&&&&&&&",
"&&&&&&&&&&&&&&&&&&&&&&&&&&&&&&&&&&&&&&&&&&&&&&&&&&&&&&&&&&&&&&&&",
"&&&&&&&&&&&&&&&&&&&&&&&&&&&&&&&&&&&&&&&&&&&&&&&&&&&&&&&&&&&&&&&&",
"&&&&&&&&&&&&&&&&&&&&&&&&&&&&&&&&&&&&&&&&&&&&&&&&&&&&&&&&&&&&&&&&",
"&&&&&&&&&&&&&&&&&&&&&&&&&&&&&&&&&&&&&&&&&&&&&&&&&&&&&&&&&&&&&&&&",
"&&&&&&&&&&&&&&&&&&&&&&&&&&&&&&&&&&&&&&&&&&&&&&&&&&&&&&&&&&&&&&&&",
"&&&&&&&&&&&&&&&&&&&&&&&&&&&&&&&&&&&&&&&&&&&&&&&&&&&&&&&&&&&&&&&&",
"&&&&&&&&&&&&&&&&&&&&&&&&&&&&&&&&&&&&&&&&&&&&&&&&&&&&&&&&&&&&&&&&",
"&&&&&&&&&&&&&&&&&&&&&&&&&&&&&&&&&&&&&&&&&&&&&&&&&&&&&&&&&&&&&&&&",
"&&&&&&&&&&&&&&&&&&&&&&&&&&&&&&&&&&&&&&&&&&&&&&&&&&&&&&&&&&&&&&&&"
};
