/* XPM */
static char *Yellow_crystal2[] = {
/* columns rows colors chars-per-pixel */
"64 64 18 1 ",
"  c #2D2526",
". c #332A2A",
"X c #5D3129",
"o c #403231",
"O c #453635",
"+ c #4F3D39",
"@ c #6F4134",
"# c #574541",
"$ c #63504A",
"% c #8B573E",
"& c #8A573F",
"* c #A47347",
"= c #BB8C4E",
"- c #D3A651",
"; c #E0C355",
": c #ECDB52",
"> c #F8F49A",
", c None",
/* pixels */
",,,,,,,,,,,,,,,,,,,,,,,,,,,,,,,,,,,,,,,,,,,,,,,,,,,,,,,,,,,,,,,,",
",,,,,,,,,,,,,,,,,,,,,,,,,,,,,,,,,,,,,,,,,,,,,,,,,,,,,,,,,,,,,,,,",
",,,,,,,,,,,,,,,,,,,,,,,,,,,,,,,,,,,,,,,,,,,,,,,,,,,,,,,,,,,,,,,,",
",,,,,,,,,,,,,,,,,,,,,,,,,,,,,,,,,,,,,,,,,,,,,,,,,,,,,,,,,,,,,,,,",
",,,,,,,,,,,,,,,,,,,,,,,,,,,,,,,,,,,,,,,,,,,,,,,,,,,,,,,,,,,,,,,,",
",,,,,,,,,,,,,,,,,,,,,,,,,,,,,,,,,,,,,,,,,,,,,,,,,,,,,,,,,,,,,,,,",
",,,,,,,,,,,,,,,,,,,,,,,,,,,,,,,,,,,,,,,,,,,,,,,,,,,,,,,,,,,,,,,,",
",,,,,,,,,,,,,,,,,,,,,,,,,,,,,,,,,,,,,,,,,,,,,,,,,,,,,,,,,,,,,,,,",
",,,,,,,,,,,,,,,,,,,,,,,,,,,,,,,,,,,,,,,,,,,,,,,,,,,,,,,,,,,,,,,,",
",,,,,,,,,,,,,,,,,,,,,,,,,,,,,,,,,,,,,,,,,,,,,,,,,,,,,,,,,,,,,,,,",
",,,,,,,,,,,,,,,,,,,,,,,,,,,,,,,,,,,,,,,,,,,,,,,,,,,,,,,,,,,,,,,,",
",,,,,,,,,,,,,,,,,,,,XX,,,,,,,,,,,,,,,,,,,,,,,,,,,,,,,,,,,,,,,,,,",
",,,,,,,,,,,,,,,,,,,,X>X,,,,,,,,,,,,,,,,,,,,,,,,,,,,,,,,,,,,,,,,,",
",,,,,,,,,,,,,,,,,,,,X:>X,,,,,,,,,,,,,,,,,,,,,,,,,,,,,,,,,,,,,,,,",
",,,,,,,,,,,,,,,,,,,,X=>>X,,,,,,,,,,,,,,,,,,,,,,,,,,,,,,,,,,,,,,,",
",,,,,,,,,,,,,,,,,,,,X=:>>X,,,,,,,,,,,,,,,,,,,,,,,,,,,,,,,,,,,,,,",
",,,,,,,,,,,,,,,,,,,,X=;:>>X,,,,,,,,,,,,,,,,,,,,X,,,,,,,,,,,,,,,,",
",,,,,,,,,,,,,,,,,,,,X=-;::>X,,,,,,,,,,,,,,,,,,XX,,,,,,,,,,,,,,,,",
",,,,,,,,,,,,,,,,,,,,X=-;;:::X,,,,,,,,,,,,,,,XX:X,,,,,,,,,,,,,,,,",
",,,,,,,,,,,,,,,,,,,X==--;;:::X,,,,,,,,,,,,,X==:>X,,,,,,,,,,,,,,,",
",,,,,,,,,,,,,,,,,,,X==---;;::X,,,,,,,,,,,,X==-:>X,,,,,,,,,,,,,,,",
",,,,,,,,,,,,,,,,,,,X==-;-;;=-X,,,,,,,,,,XX==--::X,,,,,,,,,,,,,,,",
",,,,,,,,,,,,,,,,,,,X==---;**-X,,,X,,,,,X===--;::X,,,,,,,,,,,,,,,",
",,,,,,,,,,,,,,,,,,,X==--;***--X,X>X,,,X===----;:X,,,,,,,,,,,,,,,",
",,,,,,,,,,,,,,,,,,,X=--***=*=-X,X:>X,,X=--;---;:X,,,,,,,,,,,,,,,",
",,,,,,,,,,,,,,,,,,,X%%=*****=--X==:>X,X%-----;;::X,,,,,,,,,,,,,,",
",,,,,,,,,,,,,,,,,,,X*%%==**=-=%*==:::XX%**-;;;-:%X,,,,,,,,,,,,,,",
",,,,,,,,,,,,,,,,,,,,X%%%*==-==%===;:::%%******=&&X,,,,,,,,,,,,,,",
",,,,,,,,,,,,,,,,,,,,,X%%**===%*==--;::%%=****=&&X,,,,,,,,,,,,,,,",
",,,,,,,,,,,,,,,,,,,,,X%%%****%==---;::%**=====&X,,,,,,,,,,,,,,,,",
",,,,,,,,,,,,,,,,,,,###X%%***%*=----;;::**=--=&%X,,,,,,,,,,,,,,,,",
",,,,,,,,,,,,,,,,,#$##OX@%%***%%---;;;;:***==*%X,,,,,,,,,,,,,,,,,",
",,,,,,,,,,,,,,,,#$$$O .@@%%=*%%**;;:**-*****%@X,,,,,,,,,,,,,,,,,",
",,,,,,,,,,,,,,,###$O ...@@%***%%******-*===%@.. ,,,,,,,,,,,,,,,,",
",,,,,,,,,,,,,,,###OO ooo.@@%**%%=*=**=-**=%...oo ,,,,,,,,,,,,,,,",
",,,,,,,,,,,,,,,##OO o++oo.@%%*%%=***=--**&.:---*o ,,,,,,,,,,,,,,",
",,,,,,,,,,,,,,###O o++++oo.@%%*%*=*=---*&%----*o+ ,,,,,,,,,,,,,,",
",,,,,,,,,,,,,###O .o++--:ooo@%*%%*===-.&%-**-*o++ ,,,,,,,,,,,,,,",
",,,,,,,,,,,,####O .o++==---:o@%@%**=*-..o**%%o++++ ,,,,,,,,,,,,,",
",,,,,,,,,,,##$$#OO .o++=-----o@@%****-.o**%%++++++ O,,,,,,,,,,,,",
",,,,,,,,,,,#$$$$#OO ooo==---*-o@@%=*=-o*=%%++++++o #,,,,,,,,,,,,",
",,,,,,,,,,,#$$$$##OO oo===-***-o@%*=--**%%o+++++o ##,,,,,,,,,,,,",
",,,,,,,,,,,,#$$####O .oo@@%%=***o@**-**%@ooo+++o O##,,,,,,,,,,,,",
",,,,,,,,,,,,#######O .o+++@@%%***o%*-*%@++ooooo O##,,,,,,,,,,,,,",
",,,,,,,,,,,,,#######O .o++++@@%%%oo%+++++ooo   O##,,,,,,,,,,,,,,",
",,,,,,,,,,,,,,#####$#O .o++++++%oo++++++oo. OOO##,,,,,,,,,,,,,,,",
",,,,,,,,,,,,,,,,##$$$#O  oo+++ooooo++++oo. OO###,,,,,,,,,,,,,,,,",
",,,,,,,,,,,,,,,,,##$###OO   ooo   ooooo.. OO##,,,,,,,,,,,,,,,,,,",
",,,,,,,,,,,,,,,,,,#######OOO   OOO  ...  OO##,,,,,,,,,,,,,,,,,,,",
",,,,,,,,,,,,,,,,,,,,#######OOOOOOOOO   OO##,,,,,,,,,,,,,,,,,,,,,",
",,,,,,,,,,,,,,,,,,,,,,#########$###OOOOO##,,,,,,,,,,,,,,,,,,,,,,",
",,,,,,,,,,,,,,,,,,,,,,,,,,,,##$$$#######,,,,,,,,,,,,,,,,,,,,,,,,",
",,,,,,,,,,,,,,,,,,,,,,,,,,,,,,,,,,,,,,,,,,,,,,,,,,,,,,,,,,,,,,,,",
",,,,,,,,,,,,,,,,,,,,,,,,,,,,,,,,,,,,,,,,,,,,,,,,,,,,,,,,,,,,,,,,",
",,,,,,,,,,,,,,,,,,,,,,,,,,,,,,,,,,,,,,,,,,,,,,,,,,,,,,,,,,,,,,,,",
",,,,,,,,,,,,,,,,,,,,,,,,,,,,,,,,,,,,,,,,,,,,,,,,,,,,,,,,,,,,,,,,",
",,,,,,,,,,,,,,,,,,,,,,,,,,,,,,,,,,,,,,,,,,,,,,,,,,,,,,,,,,,,,,,,",
",,,,,,,,,,,,,,,,,,,,,,,,,,,,,,,,,,,,,,,,,,,,,,,,,,,,,,,,,,,,,,,,",
",,,,,,,,,,,,,,,,,,,,,,,,,,,,,,,,,,,,,,,,,,,,,,,,,,,,,,,,,,,,,,,,",
",,,,,,,,,,,,,,,,,,,,,,,,,,,,,,,,,,,,,,,,,,,,,,,,,,,,,,,,,,,,,,,,",
",,,,,,,,,,,,,,,,,,,,,,,,,,,,,,,,,,,,,,,,,,,,,,,,,,,,,,,,,,,,,,,,",
",,,,,,,,,,,,,,,,,,,,,,,,,,,,,,,,,,,,,,,,,,,,,,,,,,,,,,,,,,,,,,,,",
",,,,,,,,,,,,,,,,,,,,,,,,,,,,,,,,,,,,,,,,,,,,,,,,,,,,,,,,,,,,,,,,",
",,,,,,,,,,,,,,,,,,,,,,,,,,,,,,,,,,,,,,,,,,,,,,,,,,,,,,,,,,,,,,,,"
};
