/* XPM */
static char *Red_crystal2[] = {
/* columns rows colors chars-per-pixel */
"64 64 13 1 ",
"  c #3B2C2C",
". c #561523",
"X c #651D2E",
"o c #4B3936",
"O c #752431",
"+ c #56433E",
"@ c #893036",
"# c #9E3E37",
"$ c #B45941",
"% c #CC6D4A",
"& c #E48B53",
"* c #FFCA79",
"= c None",
/* pixels */
"================================================================",
"================================================================",
"================================================================",
"================================================================",
"================================================================",
"================================================================",
"================================================================",
"================================================================",
"================================================================",
"================================================================",
"================================================================",
"================================================================",
"================================================================",
"===========================.........============================",
"==========================.$%%%%%%%%.===========================",
"=========================.$&*&&*&&*&%.==========================",
"========================.$%&&&&&&&&&&%.=========================",
"=======================.$%%%&&&&*&&&&%$....=====================",
"======================.$%%%%&&&***&&&&&$#$%.====================",
"=====================.$$%%&%%&&&*&&*&&&$$#*%.===================",
"=====================.$$%%%%%%&&&&&&&&&$$#&&%.==================",
"====================.#$$%%%%%%%&&&&&&&%$$#&&&%.=================",
"===================.$#$$%%%%%%%%%&&%%%%$$#&&&%$.================",
"==================.$%#$$%%%%%%%%%%%%%%%$$#&&&%$.================",
"==================.$%O$$$%%%%%%%%&%%%%$$$#%&&%$.================",
"==================.$$OO$$$%%%&%%&&&%%$$$##%%%$$.================",
"==================.##XOO$$$%%%%%%&%%$$$##$%%%$$.================",
"=================.$$%XOO@$$$%%%%%%%$$$@##&%%%$$.o===============",
"================.$%*&XOOO@$$$$$$$$$$$@###$%%$$$.+===============",
"==============o.$%%&&XXOOO@$$$$$$$$$@@####%$$$#.oo==============",
"=============oo.$%%%&XXOOO@@@@@@@@@@@#####$$$@#.oo==============",
"============oo+.$$%%%XXOOOO@@@@@@@#@@####&$$@#%. o==============",
"============o++.$$$%%$XOOOO@@@#@@@@@@#####$@##$. o==============",
"===========o+++.O$$$$$XOOOO@@###@@$$%%%###@@###. o==============",
"===========oo+o.O@$$$$$OOOO@@@#@@$&*&*&%##@@##@.oo==============",
"===========oooo.OO@@@@@OOOO@@@@@$%%&&&&&%#@@#@. o===============",
"===========ooo .XO@@#@@OOOO@@@@$%%%%&&&&&%@@@. oo===============",
"===========o+o .XO@###@#OOO@@@$$%%%%%%&&&$$@. oo================",
"===========+++ .XO@@#@@@OOO@@@$$%&%%%%%%%$$. oo=================",
"===========o+o .XO@@@@@$XOO@#@$$$%%%%%%%$$$.oo==================",
"============oo .XO@@@@@#XOO@@@O$$$%%%%%$$$#.o===================",
"=============oo .OO@@@@@XXO@@@OO$$$%%%$$$@#.====================",
"==============oo .OOOOOO.XO@@@XO@$$$$$$$@#$.====================",
"===============oo ...... .O@@@XOO@$$$$$@##%.====================",
"================ooo       .OO@XOO@@@@@@@###.o===================",
"================oooooooooo ..OXXO@@@@#@@##$.o===================",
"=================oooooo++oo  .XXO@@@@@@@###.o===================",
"=================ooooo++++oo .XXO@@#@@@@##@.o===================",
"==================ooo+++++oo  .XO@@@@@@@#@.oo===================",
"====================oo++++oo+  .XO@@@@@@@. o====================",
"======================+++oo+++  .OOOOOOO. oo====================",
"========================oooo+oo  .......ooo=====================",
"=============================ooo       ooo======================",
"===============================ooooooooo========================",
"================================================================",
"================================================================",
"================================================================",
"================================================================",
"================================================================",
"================================================================",
"================================================================",
"================================================================",
"================================================================",
"================================================================"
};
