/* XPM */
static char *Red_crystal1[] = {
/* columns rows colors chars-per-pixel */
"64 64 13 1 ",
"  c #3B2C2C",
". c #561523",
"X c #651D2E",
"o c #4B3936",
"O c #752431",
"+ c #56433E",
"@ c #893036",
"# c #9E3E37",
"$ c #B45941",
"% c #CC6D4A",
"& c #E48B53",
"* c #FFCA79",
"= c None",
/* pixels */
"================================================================",
"================================================================",
"================================================================",
"================================================================",
"================================================================",
"================================================================",
"================================================================",
"================================================================",
"===================.......======================================",
"==================.$%%%%%%.============......===================",
"=================.$&&&*&*&%.==========.$%%%%%.==================",
"================.$%&&&&&&&&%.========.$&&&*&*%.=================",
"===============.#%%&*&&&*&&&%.======.$%&&&&&&&%.================",
"==============.$%%%&&&&***&&&$.====.$%%%&&&&&&&%.===============",
"=============.$%%%%%&&&&*&&&&%$.==.$$%%&%&&&&&&%$.==============",
"============.$$%%%%%%&&&&&&&%%$$.=.$$%&&&%&&&&&$$.==============",
"============.$$%%&%%%%&&&&&%%%$$.=.$$%%&%%%%%%%$$.==============",
"============.$$%&&&%%%%%%%%%%%$$#.##$$$%%%%%%%$$$.==============",
"============.$$%%&%%%%%%%%%%%%$$#$$$%%%$%%%%%$$$#.==============",
"============.$$$%%%%%&%%%%%%%$$$#%&**&*%$&%%$$$##.==============",
"============.O$$$%%%%%%%%%%%$$$##%%&&&&&%$$$$$@#%.==============",
"============.OO$$$%%%%%%%%%$$$###%%&&&&&&%$$$@##$.==============",
"============.XO@$$$%%%%%%%$$$##$#%%&&&*&&&%$@@###.==============",
"===========o.XOO@$$$$$$$$$$$@####%%&&***&&&$@@##$.==============",
"==========o+.XOOO@$$$$$$$$$@###%#%%&&&*&&&&$@@###.==============",
"=========o++.XXOOO@$$$$$$$@####$#%%%&&&&&&%$@@###.==============",
"========ooo+.XXOOO@@@@@@@@@#####$%%%%&&&&%$#$$$$$.==============",
"=======+oooo.XXOOO@#@@@@@@@####$%%%%%%%%%$#$%**&*$.=============",
"======+++oo .XXOOO@@@@@#@@@###$%%%%%%%%%%#$%%%&&&&$.============",
"======++++o .XXOOO@@@@###@@#@$%%%%%%%%%%%#$%%%%&&&$.============",
"=====oo++oo .XXOOO@@@@@#@@@@$%%%%%%%%&%%%#$$%&%%%$$.============",
"=====oooooo .XXOOO@@@#@@@@@$%%%%%%%%&&&%%O$$$%%%$$$.============",
"=====oooooo .XXXOO@@@@@@@@$%%%&%%%%%%&%%%O@$$$$$$$#.============",
"=====o+oooo  .XXOO@@@@@@@$$%%%%%%%%%%%%%$OO@$$$$$@#.============",
"=====+++oooo  .XXO@$$%%%%#$$%%%%%%&%%%%%$XOO@@@@@##.============",
"=====o+oo++oo  .XO$%&*&*&%#$$%%%%%%%%%%$$XOO@@@@@#$.============",
"=====ooo++++ooo .$%%&&&&&&%#$$$$$$$$$$$$$XOO@@@@@#%.============",
"======oo+++++oo.$%%%&&&*&&&$#$$$$$$$$$$$@XOO@@@@@#$.o===========",
"======ooo++++o.$$%&%&&***&&$$#$$$$$$$$$@@XOO@@@@@##.o===========",
"=======oo++++o.$$%%%&&&*&&%$$@@@@@@@@@@@@XXO@@@@@#$.oo==========",
"========oo++oo.$$%%%%&&&&%%$$#@@@@@@#@@@@XXO@@@@@##.oo==========",
"=========ooooo.$$$%%%%%%%%$$$#@@@@@@@@@@@XXO@@@@@##. o==========",
"==========ooo+.O$$$%%%%%%$$$##@@#@@@@$$$$OXO@@@@@##. o==========",
"==========oo++.O@$$$%%%%$$$@#$@###@@$%*&&$OO@@@@@#@. o==========",
"=========oooo+.XO@$$$$$$$$@##%@@#@@$$%%&&$$OO@@@@@. o===========",
"=========ooooo.XOO@$$$$$$@###$@@@@@$$$%%$$$#OOOOO. o============",
"=========oooo .XOO@@@@@@@@####@@@@OO$$$$$$@#O.... o=============",
"=========o++o .XOO@@@@@@@@###$@@@@OO@$$$$@#$.   oo==============",
"=========++++ .XOO@#@@@@@@####@OOOXOO@@@@@##.ooo================",
"=========++++ .XOO###@@@@@####....XOO@@@@@#%.o==================",
"==========++o .XXO@#@@@@@@##@.    .XO@@@@@##.o==================",
"==========o+o  .XO@@@@@@@@#@. oo  .XO@@#@@#@.o==================",
"===========ooo  .XO@@@@@@@@. oo+o .XO@@@@@@. o==================",
"============ooo  .XOOOOOOO. oo+++  .OO@@@@. o===================",
"=============ooo  ........ oo=o+oo  .OOOO. oo===================",
"==============ooo         oo====ooo  .... oo====================",
"===============ooooooooooo========ooo    oo=====================",
"=================oooooo=============ooooo=======================",
"================================================================",
"================================================================",
"================================================================",
"================================================================",
"================================================================",
"================================================================"
};
