/* XPM */
static char *corner_grey_UR[] = {
/* columns rows colors chars-per-pixel */
"64 64 158 2 ",
"   c #5A472A",
".  c #5C4A2E",
"X  c #5D4B31",
"o  c #5F4F38",
"O  c #604E35",
"+  c #635034",
"@  c #63533B",
"#  c #705B3D",
"$  c #655743",
"%  c #655847",
"&  c #6B5943",
"*  c #665A4B",
"=  c #6C5D49",
"-  c #705D43",
";  c #715F4B",
":  c #6C5F50",
">  c #6E604F",
",  c #796242",
"<  c #7A674C",
"1  c #6A6155",
"2  c #6D655C",
"3  c #756350",
"4  c #7B6751",
"5  c #7C6853",
"6  c #71665A",
"7  c #74695D",
"8  c #7B6B5D",
"9  c #6E6963",
"0  c #736C65",
"q  c #796E66",
"w  c #746E69",
"e  c #7D7165",
"r  c #76716C",
"t  c #7C736C",
"y  c #7D7672",
"u  c #866F47",
"i  c #866E4B",
"p  c #916F49",
"a  c #8B7249",
"s  c #94734B",
"d  c #9A774E",
"f  c #967A4E",
"g  c #997B4F",
"h  c #866F54",
"j  c #806F58",
"k  c #86735D",
"l  c #8C755E",
"z  c #8E795B",
"x  c #967D52",
"c  c #9C7D51",
"v  c #947C5D",
"b  c #9A7E5E",
"n  c #A17E53",
"m  c #827363",
"M  c #8F7B64",
"N  c #83756C",
"B  c #85796D",
"V  c #8C7C6B",
"C  c #927E63",
"Z  c #937E68",
"A  c #837771",
"S  c #847A73",
"D  c #8A7C73",
"F  c #867D7A",
"G  c #897E7C",
"H  c #907E73",
"J  c #9E8152",
"K  c #9F855A",
"L  c #A48455",
"P  c #A98556",
"I  c #A78857",
"U  c #A98957",
"Y  c #A4855A",
"T  c #AB8759",
"R  c #A6895B",
"E  c #AC8B5A",
"W  c #B28E5B",
"Q  c #B5915D",
"!  c #BA945F",
"~  c #968063",
"^  c #9C8363",
"/  c #96826A",
"(  c #9A856C",
")  c #9F896F",
"_  c #8A807E",
"`  c #918173",
"'  c #998672",
"]  c #9D8975",
"[  c #93847C",
"{  c #9A887B",
"}  c #A28763",
"|  c #A58A65",
" . c #AC8D63",
".. c #A38A69",
"X. c #AA8E6D",
"o. c #AF9061",
"O. c #AE906C",
"+. c #B49263",
"@. c #BC9560",
"#. c #BE9966",
"$. c #B4946B",
"%. c #BA976A",
"&. c #BC9A6A",
"*. c #A58D72",
"=. c #A28D7C",
"-. c #A79077",
";. c #AB9173",
":. c #A8927E",
">. c #B29473",
",. c #B79875",
"<. c #BA9A74",
"1. c #B2977C",
"2. c #B5987A",
"3. c #B99B7A",
"4. c #C19A65",
"5. c #C19D6B",
"6. c #C19F71",
"7. c #C6A26E",
"8. c #C8A36E",
"9. c #C3A171",
"0. c #C9A572",
"q. c #8E8381",
"w. c #928684",
"e. c #948987",
"r. c #9D8D85",
"t. c #978989",
"y. c #9B8C8B",
"u. c #9A8E90",
"i. c #9F9192",
"p. c #A18E80",
"a. c #A39185",
"s. c #AA9482",
"d. c #A6938D",
"f. c #AB968B",
"g. c #AE998C",
"h. c #B19780",
"j. c #B49A84",
"k. c #B99C83",
"l. c #B49C8C",
"z. c #B89E8A",
"x. c #A39495",
"c. c #A89797",
"v. c #AC9A94",
"b. c #A69699",
"n. c #A89799",
"m. c #AC9B9C",
"M. c #B49E95",
"N. c #B89F91",
"B. c #B19E9B",
"V. c #B7A096",
"C. c #BBA292",
"Z. c #B6A19C",
"A. c #AF9EA0",
"S. c #B19FA1",
"D. c #B4A3A5",
"F. c #B7A5A8",
"G. c #C5A785",
"H. c None",
/* pixels */
"! L P ! ! ! @.! @.@.@.@.@.@.Q P L U ! ! @.@.4.! ! @.@.! ! ! ! ! @.@.! @.@.@.@.@.! ! ! ! ! @.! @.@.4.! ! @.@.@.@.@.W } +.Q ! ! ! ",
"P s p W 4.@.@.@.! @.@.@.@.@.E Q ! U W ! ! @.! ! ! @.n h ^ E ! Q Q ! @.@.@.! ! @.W J W ! @.@.@.@.@.! 4.! @.@.@.@.W k w.l.W W @.@.",
"T d s W @.+.+.@.4.! Q |  .@.! ! ! W f Q 4.! ! ! 4.W 4 S x.z a L ! @.@.@.! ! @.@.W s ! ! @.@.@.@.! ! ! ! @.@.@.! W e b.M.L L W ! ",
"@.T T ! } V [ >.! | N A y.1.! ! U U f J W ! ! 4.! Y e m.B.Y W %.5.5.5.#.4.4.@.@.Q P ! @.! @.! @.4.! 4.! @.@.@.! Q z r.g.T U E W ",
"! Z { *.q G m.M.%.e r y.D.B.+.U J ! ! Q W @.@.@.4.E Z M.>.+.5.#.&.5.&.9.5.7.7.5.L ! ! @.4.! ! @.! ! @.@.@.@.! 4.! Q +.@.@.@.@.@.",
"Z G B.a.0 t.F.m.< 2 y n.F.Z.+.Q  ...#.! @. . .@.@.! @.%.Y E W d n %.9.&.7.9.9.%.T @.! @.! W ! ! @.! @.@.@.@.@.@.@.! ! @.@.@.@.@.",
"m n.m.4 2 q.D.B.> 2 t b.F.Z.<.+.B y.z.5.~ A t.1.@.4.! @.T U L p s +.7.7.9.9.9.%.T ! ! ! ! n T 4.@.! ! @.@.@.@.@.@.@.@.@.@.@.! @.",
"6 n.H H.H.F n.H.H.H.r e.D.d.# > e.D.G.%.w q.S.M.+.| ! @.E ! W n L @.#.5.9.9.9.9.W ! 4.! ! ! ! @.4.4.4.@.! @.! @.! @.! @.@.! @.@.",
"H.H.H.H.H.H.H.H.H.H.H.H.H.H.H.H.x.` i i 0 e.D.D.V _ a.+.E +. .+.@.! @.@.4.5.0.4.W @.@.@.@.@.@.#.#.4.&.4.#.! #.! @.@.@.@.! @.! 4.",
"H.H.H.H.H.H.H.H.H.H.H.H.H.H.H.H.H.H.H.. 1 _ S.c.y b.D.:.M B [ s.+.4.! @.! 4.4.! @.@.@.@.! @.@.4.&.&.&.5.4.#.! ! Q ! @.! @.@.! ! ",
"H.H.H.H.H.H.H.H.H.H.H.H.H.H.H.H.H.H.H.H.H.H.[ 3 2 x.D.w.0 _ A.D.3.@.@.! ! @.@.@.4.! @.@.@.4.@.4.#.4.&.4.5.4.! U L ! ! @.@.! ! 4.",
"H.H.H.H.H.H.H.H.H.H.H.H.H.H.H.H.H.H.H.H.H.H.H.H.@ 7 5 1 0 e.D.F.k.} ' -.O.@.@.@.! ! Y } | @.#.@.#.#.#.o.o.o.I L Q ! @.! ! ! ! ! ",
"H.H.H.H.H.H.H.H.H.H.H.H.H.H.H.H.H.H.H.H.H.H.H.H.H.H.H.H.0 _ m.D.2.V x.S.M.%.@.@.! T N b.n.3.#.#.#.Q K U o.o.&.5.! W J J J L ! ! ",
"H.H.H.H.H.H.H.H.H.H.H.H.H.H.H.H.H.H.H.H.H.H.H.H.H.H.H.H.H.H.y.j - m c.F.M.#.@.@.4.W D A.S.k.@.#.E u E 7.5.5.5.&.W +.U Q W P ! ! ",
"H.H.H.H.H.H.H.H.H.H.H.H.H.H.H.H.H.H.H.H.H.H.H.H.H.H.H.H.H.H.H.H.  & y.S.h.^ =.-.+.Q Z b.S...P T f a K E $.5.6.K %.7.+.4.@.@.! ! ",
"H.H.H.H.H.H.H.H.H.H.H.H.H.H.H.H.H.H.H.H.H.H.H.H.H.H.H.H.H.H.H.H.H.H.m N - A m.S.z.4.W p.>.Q ! +.#.&.+.I J o.o.J &.o. .8.4.@.@.@.",
"H.H.H.H.H.H.H.H.H.H.H.H.H.H.H.H.H.H.H.H.H.H.H.H.H.H.H.H.H.H.H.H.H.H.H.. X t B.F.C.@.@.Q @.@.@.4.&.4.4.&.R R +.o.R +.6.0.5.! ! ! ",
"H.H.H.H.H.H.H.H.H.H.H.H.H.H.H.H.H.H.H.H.H.H.H.H.H.H.H.H.H.H.H.H.H.H.H.H.H.q x.D.,.} O.@.@.@.@.#.@.&.4.5.&.+.R K Y %.6.0.7.! ! ! ",
"H.H.H.H.H.H.H.H.H.H.H.H.H.H.H.H.H.H.H.H.H.H.H.H.H.H.H.H.H.H.H.H.H.H.H.H.H.H.w.V C _ v.%.@.+.! @.#.4.&.5.5.5.5.&.&.%.^ ) %.@.! @.",
"H.H.H.H.H.H.H.H.H.H.H.H.H.H.H.H.H.H.H.H.H.H.H.H.H.H.H.H.H.H.H.H.H.H.H.H.H.H.H.X w m.M.( V { >.! @.@.@.#.%.&.7.6.9.$.N y.f.#.@.@.",
"H.H.H.H.H.H.H.H.H.H.H.H.H.H.H.H.H.H.H.H.H.H.H.H.H.H.H.H.H.H.H.H.H.H.H.H.H.H.H.H.S p.D w q.m.m.%.! @.! b ` 1.6.5.7.$.t m.F.,.! @.",
"H.H.H.H.H.H.H.H.H.H.H.H.H.H.H.H.H.H.H.H.H.H.H.H.H.H.H.H.H.H.H.H.H.H.H.H.H.H.H.H.H.@ 1 r x.F.D.<.! ! Q e u.Z.6.7.7.6.' d.N.%.! ! ",
"H.H.H.H.H.H.H.H.H.H.H.H.H.H.H.H.H.H.H.H.H.H.H.H.H.H.H.H.H.H.H.H.H.H.H.H.H.H.H.H.H.H.H.w y.D.D.<.! ! ! } p.C.7.5.$.&.9.7.@.@.@.@.",
"H.H.H.H.H.H.H.H.H.H.H.H.H.H.H.H.H.H.H.H.H.H.H.H.H.H.H.H.H.H.H.H.H.H.H.H.H.H.H.H.H.H.H.H.8 { j...( *.#.! @.+.5.+.d Y 0.4.@.! @.@.",
"H.H.H.H.H.H.H.H.H.H.H.H.H.H.H.H.H.H.H.H.H.H.H.H.H.H.H.H.H.H.H.H.H.H.H.H.H.H.H.H.H.H.H.H.. O 8 t q.m.l.@.@.@.@.4.L +.4.4.! @.@.@.",
"H.H.H.H.H.H.H.H.H.H.H.H.H.H.H.H.H.H.H.H.H.H.H.H.H.H.H.H.H.H.H.H.H.H.H.H.H.H.H.H.H.H.H.H.H.@ 2 y n.F.M.#.@.@.! 4.4.4.! ! @.@.@.@.",
"H.H.H.H.H.H.H.H.H.H.H.H.H.H.H.H.H.H.H.H.H.H.H.H.H.H.H.H.H.H.H.H.H.H.H.H.H.H.H.H.H.H.H.H.H.H.9 y n.F.Z.%.! ! ! ! ! ! ! 4.@.@.@.@.",
"H.H.H.H.H.H.H.H.H.H.H.H.H.H.H.H.H.H.H.H.H.H.H.H.H.H.H.H.H.H.H.H.H.H.H.H.H.H.H.H.H.H.H.H.H.H.H.r [ x.f.+.! 4.@.! U ! ! ! @.@.@.@.",
"H.H.H.H.H.H.H.H.H.H.H.H.H.H.H.H.H.H.H.H.H.H.H.H.H.H.H.H.H.H.H.H.H.H.H.H.H.H.H.H.H.H.H.H.H.H.H.H.@ = S y.<.@.@.@.W v O.@.@.! ! @.",
"H.H.H.H.H.H.H.H.H.H.H.H.H.H.H.H.H.H.H.H.H.H.H.H.H.H.H.H.H.H.H.H.H.H.H.H.H.H.H.H.H.H.H.H.H.H.H.H.H.0 y.D.3.! @.@.W { :.E ! ! @.@.",
"H.H.H.H.H.H.H.H.H.H.H.H.H.H.H.H.H.H.H.H.H.H.H.H.H.H.H.H.H.H.H.H.H.H.H.H.H.H.H.H.H.H.H.H.H.H.H.H.H._ D.V.%.! @.@.! $.! E J W @.@.",
"H.H.H.H.H.H.H.H.H.H.H.H.H.H.H.H.H.H.H.H.H.H.H.H.H.H.H.H.H.H.H.H.H.H.H.H.H.H.H.H.H.H.H.H.H.H.H.H.H.N { ;...+.@.@.@.@.@.@.W g W @.",
"H.H.H.H.H.H.H.H.H.H.H.H.H.H.H.H.H.H.H.H.H.H.H.H.H.H.H.H.H.H.H.H.H.H.H.H.H.H.H.H.H.H.H.H.H.H.H.H.H.H.+ e e.g.#.@.@.@.@.@.! E J Q ",
"H.H.H.H.H.H.H.H.H.H.H.H.H.H.H.H.H.H.H.H.H.H.H.H.H.H.H.H.H.H.H.H.H.H.H.H.H.H.H.H.H.H.H.H.H.H.H.H.H.H.% q.S.z.@.@.! @.@.@.! @.! E ",
"H.H.H.H.H.H.H.H.H.H.H.H.H.H.H.H.H.H.H.H.H.H.H.H.H.H.H.H.H.H.H.H.H.H.H.H.H.H.H.H.H.H.H.H.H.H.H.H.H.H.H.y.V.O.( ( O.@.@.! U U ! ! ",
"H.H.H.H.H.H.H.H.H.H.H.H.H.H.H.H.H.H.H.H.H.H.H.H.H.H.H.H.H.H.H.H.H.H.H.H.H.H.H.H.H.H.H.H.H.H.H.H.H.H.H.& 5 e y i.m.&.@.U P g W ! ",
"H.H.H.H.H.H.H.H.H.H.H.H.H.H.H.H.H.H.H.H.H.H.H.H.H.H.H.H.H.H.H.H.H.H.H.H.H.H.H.H.H.H.H.H.H.H.H.H.H.H.H.H.% w w.D.F.3.! E d s n ! ",
"H.H.H.H.H.H.H.H.H.H.H.H.H.H.H.H.H.H.H.H.H.H.H.H.H.H.H.H.H.H.H.H.H.H.H.H.H.H.H.H.H.H.H.H.H.H.H.H.H.H.H.H.* 0 w.D.D.k.! ! n s n ! ",
"H.H.H.H.H.H.H.H.H.H.H.H.H.H.H.H.H.H.H.H.H.H.H.H.H.H.H.H.H.H.H.H.H.H.H.H.H.H.H.H.H.H.H.H.H.H.H.H.H.H.H.H.H.= N x.M.%.@.@.! Q ! ! ",
"H.H.H.H.H.H.H.H.H.H.H.H.H.H.H.H.H.H.H.H.H.H.H.H.H.H.H.H.H.H.H.H.H.H.H.H.H.H.H.H.H.H.H.H.H.H.H.H.H.H.H.H.H.X 2 w.a.$.@.! ! @.@.! ",
"H.H.H.H.H.H.H.H.H.H.H.H.H.H.H.H.H.H.H.H.H.H.H.H.H.H.H.H.H.H.H.H.H.H.H.H.H.H.H.H.H.H.H.H.H.H.H.H.H.H.H.H.H.H.0 x.D.k.@.@.@.4.! ! ",
"H.H.H.H.H.H.H.H.H.H.H.H.H.H.H.H.H.H.H.H.H.H.H.H.H.H.H.H.H.H.H.H.H.H.H.H.H.H.H.H.H.H.H.H.H.H.H.H.H.H.H.H.H.H.w x.D.k.@.@.@.! @.! ",
"H.H.H.H.H.H.H.H.H.H.H.H.H.H.H.H.H.H.H.H.H.H.H.H.H.H.H.H.H.H.H.H.H.H.H.H.H.H.H.H.H.H.H.H.H.H.H.H.H.H.H.H.H.H.H.8 w.-.@.@.@.4.@.@.",
"H.H.H.H.H.H.H.H.H.H.H.H.H.H.H.H.H.H.H.H.H.H.H.H.H.H.H.H.H.H.H.H.H.H.H.H.H.H.H.H.H.H.H.H.H.H.H.H.H.H.H.H.H.H.H.2 w.B.%.W T E Q @.",
"H.H.H.H.H.H.H.H.H.H.H.H.H.H.H.H.H.H.H.H.H.H.H.H.H.H.H.H.H.H.H.H.H.H.H.H.H.H.H.H.H.H.H.H.H.H.H.H.H.H.H.H.H.H.H.G S.N.! l A G { +.",
"H.H.H.H.H.H.H.H.H.H.H.H.H.H.H.H.H.H.H.H.H.H.H.H.H.H.H.H.H.H.H.H.H.H.H.H.H.H.H.H.H.H.H.H.H.H.H.H.H.H.H.H.H.H.H.D f.<.P A x.S.m.$.",
"H.H.H.H.H.H.H.H.H.H.H.H.H.H.H.H.H.H.H.H.H.H.H.H.H.H.H.H.H.H.H.H.H.H.H.H.H.H.H.H.H.H.H.H.H.H.H.H.H.H.H.H.H.H.H.O 7 ' C D F.S.z.#.",
"H.H.H.H.H.H.H.H.H.H.H.H.H.H.H.H.H.H.H.H.H.H.H.H.H.H.H.H.H.H.H.H.H.H.H.H.H.H.H.H.H.H.H.H.H.H.H.H.H.H.H.H.H.H.H.$ r x.v.( =.g.%.! ",
"H.H.H.H.H.H.H.H.H.H.H.H.H.H.H.H.H.H.H.H.H.H.H.H.H.H.H.H.H.H.H.H.H.H.H.H.H.H.H.H.H.H.H.H.H.H.H.H.H.H.H.H.H.H.H.H.y S.F.3.L g ! @.",
"H.H.H.H.H.H.H.H.H.H.H.H.H.H.H.H.H.H.H.H.H.H.H.H.H.H.H.H.H.H.H.H.H.H.H.H.H.H.H.H.H.H.H.H.H.H.H.H.H.H.H.H.H.H.H.H.0 r.l.%.Q g ! ! ",
"H.H.H.H.H.H.H.H.H.H.H.H.H.H.H.H.H.H.H.H.H.H.H.H.H.H.H.H.H.H.H.H.H.H.H.H.H.H.H.H.H.H.H.H.H.H.H.H.H.H.H.H.H.H.H.H.. > ` X.! L W ! ",
"H.H.H.H.H.H.H.H.H.H.H.H.H.H.H.H.H.H.H.H.H.H.H.H.H.H.H.H.H.H.H.H.H.H.H.H.H.H.H.H.H.H.H.H.H.H.H.H.H.H.H.H.H.H.H.H.H.2 y.m.,.Q L ! ",
"H.H.H.H.H.H.H.H.H.H.H.H.H.H.H.H.H.H.H.H.H.H.H.H.H.H.H.H.H.H.H.H.H.H.H.H.H.H.H.H.H.H.H.H.H.H.H.H.H.H.H.H.H.H.H.H.H.r x.F.k.@.! ! ",
"H.H.H.H.H.H.H.H.H.H.H.H.H.H.H.H.H.H.H.H.H.H.H.H.H.H.H.H.H.H.H.H.H.H.H.H.H.H.H.H.H.H.H.H.H.H.H.H.H.H.H.H.H.H.H.H.H.7 r.d.,.@.@.@.",
"H.H.H.H.H.H.H.H.H.H.H.H.H.H.H.H.H.H.H.H.H.H.H.H.H.H.H.H.H.H.H.H.H.H.H.H.H.H.H.H.H.H.H.H.H.H.H.H.H.H.H.H.H.H.H.H.H.H.K 8 ^ @.@.@.",
"H.H.H.H.H.H.H.H.H.H.H.H.H.H.H.H.H.H.H.H.H.H.H.H.H.H.H.H.H.H.H.H.H.H.H.H.H.H.H.H.H.H.H.H.H.H.H.H.H.H.H.H.H.H.H.H.H.H.t q.y.a.+.@.",
"H.H.H.H.H.H.H.H.H.H.H.H.H.H.H.H.H.H.H.H.H.H.H.H.H.H.H.H.H.H.H.H.H.H.H.H.H.H.H.H.H.H.H.H.H.H.H.H.H.H.H.H.H.H.H.H.H.w e.m.D.g.@.@.",
"H.H.H.H.H.H.H.H.H.H.H.H.H.H.H.H.H.H.H.H.H.H.H.H.H.H.H.H.H.H.H.H.H.H.H.H.H.H.H.H.H.H.H.H.H.H.H.H.H.H.H.H.H.H.H.H.H.H.i.F.D.2.! @.",
"H.H.H.H.H.H.H.H.H.H.H.H.H.H.H.H.H.H.H.H.H.H.H.H.H.H.H.H.H.H.H.H.H.H.H.H.H.H.H.H.H.H.H.H.H.H.H.H.H.H.H.H.H.H.H.H.H.H.( C.j.#.@.@.",
"H.H.H.H.H.H.H.H.H.H.H.H.H.H.H.H.H.H.H.H.H.H.H.H.H.H.H.H.H.H.H.H.H.H.H.H.H.H.H.H.H.H.H.H.H.H.H.H.H.H.H.H.H.H.H.H.H.@ v X.+.Q W W ",
"H.H.H.H.H.H.H.H.H.H.H.H.H.H.H.H.H.H.H.H.H.H.H.H.H.H.H.H.H.H.H.H.H.H.H.H.H.H.H.H.H.H.H.H.H.H.H.H.H.H.H.H.H.H.H.H.H.7 _ e.r. .Q +.",
"H.H.H.H.H.H.H.H.H.H.H.H.H.H.H.H.H.H.H.H.H.H.H.H.H.H.H.H.H.H.H.H.H.H.H.H.H.H.H.H.H.H.H.H.H.H.H.H.H.H.H.H.H.H.H.H.* G n.D.v. .@.! ",
"H.H.H.H.H.H.H.H.H.H.H.H.H.H.H.H.H.H.H.H.H.H.H.H.H.H.H.H.H.H.H.H.H.H.H.H.H.H.H.H.H.H.H.H.H.H.H.H.H.H.H.H.H.H.H.H.% w.F.D.j.U Q Q ",
"H.H.H.H.H.H.H.H.H.H.H.H.H.H.H.H.H.H.H.H.H.H.H.H.H.H.H.H.H.H.H.H.H.H.H.H.H.H.H.H.H.H.H.H.H.H.H.H.H.H.H.H.H.H.H.H.X k V.l.%.Q E ! "
};
