/* XPM */
static char *corner_grey_DR[] = {
/* columns rows colors chars-per-pixel */
"64 64 158 2 ",
"   c #5A472A",
".  c #5C4A2E",
"X  c #5D4B31",
"o  c #5F4F38",
"O  c #604E35",
"+  c #635034",
"@  c #63533B",
"#  c #705B3D",
"$  c #655743",
"%  c #655847",
"&  c #6B5943",
"*  c #665A4B",
"=  c #6C5D49",
"-  c #705D43",
";  c #715F4B",
":  c #6C5F50",
">  c #6E604F",
",  c #796242",
"<  c #7A674C",
"1  c #6A6155",
"2  c #6D655C",
"3  c #756350",
"4  c #7B6751",
"5  c #7C6853",
"6  c #71665A",
"7  c #74695D",
"8  c #7B6B5D",
"9  c #6E6963",
"0  c #736C65",
"q  c #796E66",
"w  c #746E69",
"e  c #7D7165",
"r  c #76716C",
"t  c #7C736C",
"y  c #7D7672",
"u  c #866F47",
"i  c #866E4B",
"p  c #916F49",
"a  c #8B7249",
"s  c #94734B",
"d  c #9A774E",
"f  c #967A4E",
"g  c #997B4F",
"h  c #866F54",
"j  c #806F58",
"k  c #86735D",
"l  c #8C755E",
"z  c #8E795B",
"x  c #967D52",
"c  c #9C7D51",
"v  c #947C5D",
"b  c #9A7E5E",
"n  c #A17E53",
"m  c #827363",
"M  c #8F7B64",
"N  c #83756C",
"B  c #85796D",
"V  c #8C7C6B",
"C  c #927E63",
"Z  c #937E68",
"A  c #837771",
"S  c #847A73",
"D  c #8A7C73",
"F  c #867D7A",
"G  c #897E7C",
"H  c #907E73",
"J  c #9E8152",
"K  c #9F855A",
"L  c #A48455",
"P  c #A98556",
"I  c #A78857",
"U  c #A98957",
"Y  c #A4855A",
"T  c #AB8759",
"R  c #A6895B",
"E  c #AC8B5A",
"W  c #B28E5B",
"Q  c #B5915D",
"!  c #BA945F",
"~  c #968063",
"^  c #9C8363",
"/  c #96826A",
"(  c #9A856C",
")  c #9F896F",
"_  c #8A807E",
"`  c #918173",
"'  c #998672",
"]  c #9D8975",
"[  c #93847C",
"{  c #9A887B",
"}  c #A28763",
"|  c #A58A65",
" . c #AC8D63",
".. c #A38A69",
"X. c #AA8E6D",
"o. c #AF9061",
"O. c #AE906C",
"+. c #B49263",
"@. c #BC9560",
"#. c #BE9966",
"$. c #B4946B",
"%. c #BA976A",
"&. c #BC9A6A",
"*. c #A58D72",
"=. c #A28D7C",
"-. c #A79077",
";. c #AB9173",
":. c #A8927E",
">. c #B29473",
",. c #B79875",
"<. c #BA9A74",
"1. c #B2977C",
"2. c #B5987A",
"3. c #B99B7A",
"4. c #C19A65",
"5. c #C19D6B",
"6. c #C19F71",
"7. c #C6A26E",
"8. c #C8A36E",
"9. c #C3A171",
"0. c #C9A572",
"q. c #8E8381",
"w. c #928584",
"e. c #948987",
"r. c #9D8D85",
"t. c #978989",
"y. c #9B8C8B",
"u. c #9A8E90",
"i. c #9F9192",
"p. c #A18E80",
"a. c #A39185",
"s. c #AA9482",
"d. c #A6938D",
"f. c #AB968B",
"g. c #AE998C",
"h. c #B19780",
"j. c #B49A84",
"k. c #B99C83",
"l. c #B49C8C",
"z. c #B89E8A",
"x. c #A39495",
"c. c #A89797",
"v. c #AC9A94",
"b. c #A69699",
"n. c #A89799",
"m. c #AC9B9C",
"M. c #B49E95",
"N. c #B89F91",
"B. c #B19E9B",
"V. c #B7A096",
"C. c #BBA292",
"Z. c #B6A19C",
"A. c #AF9EA0",
"S. c #B19FA1",
"D. c #B4A3A5",
"F. c #B7A5A8",
"G. c #C5A785",
"H. c None",
/* pixels */
"H.H.H.H.H.H.H.H.H.H.H.H.H.H.H.H.H.H.H.H.H.H.H.H.H.H.H.H.H.H.H.H.H.H.H.H.H.H.H.H.H.H.H.H.H.H.H.H.H.H.H.H.H.H.H.H.6 m ~ +.@.T P ! ",
"H.H.H.H.H.H.H.H.H.H.H.H.H.H.H.H.H.H.H.H.H.H.H.H.H.H.H.H.H.H.H.H.H.H.H.H.H.H.H.H.H.H.H.H.H.H.H.H.H.H.H.H.H.H.H.H.m.n.G Z E s p P ",
"H.H.H.H.H.H.H.H.H.H.H.H.H.H.H.H.H.H.H.H.H.H.H.H.H.H.H.H.H.H.H.H.H.H.H.H.H.H.H.H.H.H.H.H.H.H.H.H.H.H.H.H.H.H.H.H.D v.A.{ T s p T ",
"H.H.H.H.H.H.H.H.H.H.H.H.H.H.H.H.H.H.H.H.H.H.H.H.H.H.H.H.H.H.H.H.H.H.H.H.H.H.H.H.H.H.H.H.H.H.H.H.H.H.H.H.H.H.H.H.H.5 p.-.@.W W ! ",
"H.H.H.H.H.H.H.H.H.H.H.H.H.H.H.H.H.H.H.H.H.H.H.H.H.H.H.H.H.H.H.H.H.H.H.H.H.H.H.H.H.H.H.H.H.H.H.H.H.H.H.H.H.H.H.H.H.2 0 q } @.@.@.",
"H.H.H.H.H.H.H.H.H.H.H.H.H.H.H.H.H.H.H.H.H.H.H.H.H.H.H.H.H.H.H.H.H.H.H.H.H.H.H.H.H.H.H.H.H.H.H.H.H.H.H.H.H.H.H.H.F w.t.G V ! @.@.",
"H.H.H.H.H.H.H.H.H.H.H.H.H.H.H.H.H.H.H.H.H.H.H.H.H.H.H.H.H.H.H.H.H.H.H.H.H.H.H.H.H.H.H.H.H.H.H.H.H.H.H.H.H.H.H.H.n.S.F.m.[ +.@.@.",
"H.H.H.H.H.H.H.H.H.H.H.H.H.H.H.H.H.H.H.H.H.H.H.H.H.H.H.H.H.H.H.H.H.H.H.H.H.H.H.H.H.H.H.H.H.H.H.H.H.H.H.H.H.H.H.H.H.B.B.M.>.! @.@.",
"H.H.H.H.H.H.H.H.H.H.H.H.H.H.H.H.H.H.H.H.H.H.H.H.H.H.H.H.H.H.H.H.H.H.H.H.H.H.H.H.H.H.H.H.H.H.H.H.H.H.H.H.H.H.H.H.H.; < %.! ! @.@.",
"H.H.H.H.H.H.H.H.H.H.H.H.H.H.H.H.H.H.H.H.H.H.H.H.H.H.H.H.H.H.H.H.H.H.H.H.H.H.H.H.H.H.H.H.H.H.H.H.H.H.H.H.H.H.H.H.H.2 2 e | ! ! @.",
"H.H.H.H.H.H.H.H.H.H.H.H.H.H.H.H.H.H.H.H.H.H.H.H.H.H.H.H.H.H.H.H.H.H.H.H.H.H.H.H.H.H.H.H.H.H.H.H.H.H.H.H.H.H.H.H.r y y r N +.@.@.",
"H.H.H.H.H.H.H.H.H.H.H.H.H.H.H.H.H.H.H.H.H.H.H.H.H.H.H.H.H.H.H.H.H.H.H.H.H.H.H.H.H.H.H.H.H.H.H.H.H.H.H.H.H.H.H.H.t.n.n.y.S | ! @.",
"H.H.H.H.H.H.H.H.H.H.H.H.H.H.H.H.H.H.H.H.H.H.H.H.H.H.H.H.H.H.H.H.H.H.H.H.H.H.H.H.H.H.H.H.H.H.H.H.H.H.H.H.H.H.H.H.B.F.F.D.y.| @.@.",
"H.H.H.H.H.H.H.H.H.H.H.H.H.H.H.H.H.H.H.H.H.H.H.H.H.H.H.H.H.H.H.H.H.H.H.H.H.H.H.H.H.H.H.H.H.H.H.H.H.H.H.H.H.H.H.H.d.D.Z.V.1.@.@.@.",
"H.H.H.H.H.H.H.H.H.H.H.H.H.H.H.H.H.H.H.H.H.H.H.H.H.H.H.H.H.H.H.H.H.H.H.H.H.H.H.H.H.H.H.H.H.H.H.H.H.H.H.H.H.H.H.H.# <.o.+.! ! E ! ",
"H.H.H.H.H.H.H.H.H.H.H.H.H.H.H.H.H.H.H.H.H.H.H.H.H.H.H.H.H.H.H.H.H.H.H.H.H.H.H.H.H.H.H.H.H.H.H.H.H.H.H.H.H.H.H.H.> +.Q I ! ! Q I ",
"H.H.H.H.H.H.H.H.H.H.H.H.H.H.H.H.H.H.H.H.H.H.H.H.H.H.H.H.H.H.H.H.H.H.H.H.H.H.H.H.H.H.H.H.H.H.H.H.H.H.H.H.H.H.H.x.e.B  .L L ! ! J ",
"H.H.H.H.H.H.H.H.H.H.H.H.H.H.H.H.H.H.H.H.H.H.H.H.H.H.H.H.H.H.H.H.H.H.H.H.H.H.H.H.H.H.H.H.H.H.H.H.H.H.H.H.H.H.H.[ D.y...@.U Q U U ",
"H.H.H.H.H.H.H.H.H.H.H.H.H.H.H.H.H.H.H.H.H.H.H.H.H.H.H.H.H.H.H.H.H.H.H.H.H.H.H.H.H.H.H.H.H.H.H.H.H.H.H.H.H.H.H.i G.z.@.@.f f W ! ",
"H.H.H.H.H.H.H.H.H.H.H.H.H.H.H.H.H.H.H.H.H.H.H.H.H.H.H.H.H.H.H.H.H.H.H.H.H.H.H.H.H.H.H.H.H.H.H.H.H.H.H.H.H.H.. i %.5.@.W J ! @.! ",
"H.H.H.H.H.H.H.H.H.H.H.H.H.H.H.H.H.H.H.H.H.H.H.H.H.H.H.H.H.H.H.H.H.H.H.H.H.H.H.H.H.H.H.H.H.H.H.H.H.H.H.H.H.H.1 9 w ~ @.W W ! 4.! ",
"H.H.H.H.H.H.H.H.H.H.H.H.H.H.H.H.H.H.H.H.H.H.H.H.H.H.H.H.H.H.H.H.H.H.H.H.H.H.H.H.H.H.H.H.H.H.H.H.H.H.H.H.H.H.q.t.q.N  .! ! ! ! ! ",
"H.H.H.H.H.H.H.H.H.H.H.H.H.H.H.H.H.H.H.H.H.H.H.H.H.H.H.H.H.H.H.H.H.H.H.H.H.H.H.H.H.H.H.H.H.H.H.H.H.H.H.H.H.[ B.D.D.e.+.@.@.@.@.@.",
"H.H.H.H.H.H.H.H.H.H.H.H.H.H.H.H.H.H.H.H.H.H.H.H.H.H.H.H.H.H.H.H.H.H.H.H.H.H.H.H.H.H.H.H.H.H.H.H.H.H.H.H.H.3 n.Z.V.:.! @.@.@.@.@.",
"H.H.H.H.H.H.H.H.H.H.H.H.H.H.H.H.H.H.H.H.H.H.H.H.H.H.H.H.H.H.H.H.H.H.H.H.H.H.H.H.H.H.H.H.H.H.H.H.H.H.H.H.@ 2 y V $.! @.4.@.@.@.@.",
"H.H.H.H.H.H.H.H.H.H.H.H.H.H.H.H.H.H.H.H.H.H.H.H.H.H.H.H.H.H.H.H.H.H.H.H.H.H.H.H.H.H.H.H.H.H.H.H.H.H.H.H.7 x.x._  .@.@.E P W @.@.",
"H.H.H.H.H.H.H.H.H.H.H.H.H.H.H.H.H.H.H.H.H.H.H.H.H.H.H.H.H.H.H.H.H.H.H.H.H.H.H.H.H.H.H.H.H.H.H.H.H.H.H.H.5 D.F.a.+.@.@./ q 4 n @.",
"H.H.H.H.H.H.H.H.H.H.H.H.H.H.H.H.H.H.H.H.H.H.H.H.H.H.H.H.H.H.H.H.H.H.H.H.H.H.H.H.H.H.H.H.H.H.H.H.H.H.H.H.= w.:.+.! @.&.M.m.F h ! ",
"H.H.H.H.H.H.H.H.H.H.H.H.H.H.H.H.H.H.H.H.H.H.H.H.H.H.H.H.H.H.H.H.H.H.H.H.H.H.H.H.H.H.H.H.H.H.H.H.H.H.H.w w 0 M E E U P ;.B.x.K @.",
"H.H.H.H.H.H.H.H.H.H.H.H.H.H.H.H.H.H.H.H.H.H.H.H.H.H.H.H.H.H.H.H.H.H.H.H.H.H.H.H.H.H.H.H.H.H.H.H.H.H.H._ t._ N +.! R E @.K z E @.",
"H.H.H.H.H.H.H.H.H.H.H.H.H.H.H.H.H.H.H.H.H.H.H.H.H.H.H.H.H.H.H.H.H.H.H.H.H.H.H.H.H.H.H.H.H.H.H.H.H.H.y.m.D.m.w.+.W L W 5.E a @.@.",
"H.H.H.H.H.H.H.H.H.H.H.H.H.H.H.H.H.H.H.H.H.H.H.H.H.H.H.H.H.H.H.H.H.H.H.H.H.H.H.H.H.H.H.H.H.H.H.H.H.H.8 D.D.D.s.W n p d &.&.L W @.",
"H.H.H.H.H.H.H.H.H.H.H.H.H.H.H.H.H.H.H.H.H.H.H.H.H.H.H.H.H.H.H.H.H.H.H.H.H.H.H.H.H.H.H.H.H.H.H.H.H.  , 1.k.<.#.@.n s n 5.5.W W 4.",
"H.H.H.H.H.H.H.H.H.H.H.H.H.H.H.H.H.H.H.H.H.H.H.H.H.H.H.H.H.H.H.H.H.H.H.H.H.H.H.H.H.H.H.H.H.H.H.H.H.$ m V } @.@.@.%.+.4.5.5.%.! ! ",
"H.H.H.H.H.H.H.H.H.H.H.H.H.H.H.H.H.H.H.H.H.H.H.H.H.H.H.H.H.H.H.H.H.H.H.H.H.H.H.H.H.H.H.H.H.H.H.H.q t.n.x.' ! @.@.4.5.6.5.4.4.! @.",
"H.H.H.H.H.H.H.H.H.H.H.H.H.H.H.H.H.H.H.H.H.H.H.H.H.H.H.H.H.H.H.H.H.H.H.H.H.H.H.H.H.H.H.H.H.H.H.. B D.F.S.-.! @.@.4.6.5.6.4.@.@.@.",
"H.H.H.H.H.H.H.H.H.H.H.H.H.H.H.H.H.H.H.H.H.H.H.H.H.H.H.H.H.H.H.H.H.H.H.H.H.H.H.H.H.H.H.H.H.H.H.X - h.M.M.$.! ! 4.0.6.6.5.@.@.@.@.",
"H.H.H.H.H.H.H.H.H.H.H.H.H.H.H.H.H.H.H.H.H.H.H.H.H.H.H.H.H.H.H.H.H.H.H.H.H.H.H.H.H.H.H.H.H.H.q t A } %.+.@.@.4.5.6.9.6.8.@.@.! @.",
"H.H.H.H.H.H.H.H.H.H.H.H.H.H.H.H.H.H.H.H.H.H.H.H.H.H.H.H.H.H.H.H.H.H.H.H.H.H.H.H.H.H.H.H.H.w.b.m.A.*.@.@.@.! 4.0.9.9.9.8.! ! @.@.",
"H.H.H.H.H.H.H.H.H.H.H.H.H.H.H.H.H.H.H.H.H.H.H.H.H.H.H.H.H.H.H.H.H.H.H.H.H.H.H.H.H.H.H.H.X Z D.F.S.=.@.@.@.@.! 4.9.&.%.4.@.4.! @.",
"H.H.H.H.H.H.H.H.H.H.H.H.H.H.H.H.H.H.H.H.H.H.H.H.H.H.H.H.H.H.H.H.H.H.H.H.H.H.H.H.H.H.H.S 0 C <.z.j.$.@.@.@.@.@.W W E R L Q Q W ! ",
"H.H.H.H.H.H.H.H.H.H.H.H.H.H.H.H.H.H.H.H.H.H.H.H.H.H.H.H.H.H.H.H.H.H.H.H.H.H.H.H.H.H.@ a.A.G | @.4.! W W ! @.@.@.@.@.@.Q U s J ! ",
"H.H.H.H.H.H.H.H.H.H.H.H.H.H.H.H.H.H.H.H.H.H.H.H.H.H.H.H.H.H.H.H.H.H.H.H.H.H.H.H.H.H.: S M.v.X.@. .Z D N Y @.@.@.@.@.@.@.! Q W ! ",
"H.H.H.H.H.H.H.H.H.H.H.H.H.H.H.H.H.H.H.H.H.H.H.H.H.H.H.H.H.H.H.H.H.H.H.H.H.H.H.H.H.w r w ( &.@.Q =.b.A.b.} @.@.@.@.@.@.@.@.! ! ! ",
"H.H.H.H.H.H.H.H.H.H.H.H.H.H.H.H.H.H.H.H.H.H.H.H.H.H.H.H.H.H.H.H.H.H.H.H.H.H.H.. q y.x.q.B @.@.! ;.S.S.m. .@.@.@.! ! 4.! @.@.@.@.",
"H.H.H.H.H.H.H.H.H.H.H.H.H.H.H.H.H.H.H.H.H.H.H.H.H.H.H.H.H.H.H.H.H.H.H.H.H.H.+ + { F.F.B.[ @.@.@.W } k.3.@.@.@.@.! L W ! ! @.@.! ",
"H.H.H.H.H.H.H.H.H.H.H.H.H.H.H.H.H.H.H.H.H.H.H.H.H.H.H.H.H.H.H.H.H.H.H.H.H.9 2 8 j.S.D.B.>.! @.@.! Y 4.4.@.#.4.! ! W ! ! ! ! @.@.",
"H.H.H.H.H.H.H.H.H.H.H.H.H.H.H.H.H.H.H.H.H.H.H.H.H.H.H.H.H.H.H.H.H.H.H.H.r A y r ..<.<.%.! @.#.4.+.P ! 4.@.4.@.4.! ! ! ! 4.! 4.! ",
"H.H.H.H.H.H.H.H.H.H.H.H.H.H.H.H.H.H.H.H.H.H.H.H.H.H.H.H.H.H.H.H.H.H.H.+ _ n.m.q.( ! ! ! @.@.#.#.4.d E %.#.#.#.#.#.@.@.! @.@.! @.",
"H.H.H.H.H.H.H.H.H.H.H.H.H.H.H.H.H.H.H.H.H.H.H.H.H.H.H.H.H.H.H.H.N _ w > d.F.D.m...@.@.@.@.4.&.#.#.a u +.&.#.4.#.#.@.@.@.@.@.@.@.",
"H.H.H.H.H.H.H.H.H.H.H.H.H.H.H.H.H.H.H.H.H.H.H.H.H.H.H.H.H.H.% + { F.y.S f.Z.Z.l.%.! Q ! #.&.5.4.+.Y E J #.#.&.#.#.@.@.! @.@.! @.",
"H.H.H.H.H.H.H.H.H.H.H.H.H.H.H.H.H.H.H.H.H.H.H.H.H.H.H.H.& y.q.q ;.M.D.y.+.&.#.@.@.} e b 4.5.4.&.R E 5.E +.5.4.5.#.@.@.@.@.! @.@.",
"H.H.H.H.H.H.H.H.H.H.H.H.H.H.H.H.H.H.H.H.H.H.H.H.H.H.* * 5 M.D.e...%.3.<.@.! @.@.@.r.y.` &.5.&.R x %.&.Q o.&.4.#.@.@.@.@.@.! ! ! ",
"H.H.H.H.H.H.H.H.H.H.H.H.H.H.H.H.H.H.H.H.H.H.H.H.. * 9 w e O.z.l.+.@.@.! @.! ! @.@.z.D.1.&.&.+.R o.5.7.+.E 5.4.@.@.@.@.@.! 4.4.! ",
"H.H.H.H.H.H.H.H.H.H.H.H.H.H.H.H.H.H.H.H.H.H.w 0 6 N w.w.y ( @.@.! ! @.@.! ! @.@.5.9.6.5.&.7. .o.o.5.5.%.I ! ! @.@.@.@.@.@.@.! ! ",
"H.H.H.H.H.H.H.H.H.H.H.H.H.H.H.H.@ O S q.6 8 x.x.w.x.F.D.i.( ! @.! ! 4.! ! ! 4.5.+.5.9.5.7.&.K o.x R &.5.L R ! @.@.@.@.@.@.@.@.! ",
". % * H.H.H.H.H.H.H.H.H.H.. 0 N q 7 f.S.e.w.S.D.a.v.F.F.M.$.@.@.4.! W W T ! 4.P s %.9.9.9.%.R R &.%.E ! ! L W @.@.@.! ! ! E W @.",
"k w.G 0 @ H.H.0 H.H.9 w 2 > y.S.x.' <.N.B.;.k.k.%.<.k.3.%.@.@.@.! $.{ v ! ! 4.W P 5.<.%.%.%.%.o.o.7.+.W ! ! ! @.@.@.! W v e m E ",
"M.D.m.G v ( i.e.t K r.b.y.` l.F.c.C P ! %.@.! ! ! ! ! ! ! @.@.@.@.+.s.X.! @.@.4.0.9.' t e ..9.<. .o.U J ! ! @.@.@.@.@.! r.b.w.} ",
"l.D.D.t.X.C.F.m.q.k d.D.m.X.%.,.( D A l W 4.@.@.@.! ! E R Q ! ! @.E T 4.@.! ! 4.4.5.d.m.y.' 0.0.0.4.! J ! @.@.@.@.@.@.! j.B.j.+.",
"%.j.v.r.+.j.D.D.y.^ <.z.<.@.Q L =.S.x.A E @.@.@.@.! n d P W ! ! W n Q @.@.! ! ! ! @.C.F.g.@.7.7.#.! Q J ! ! @.@.4.! ! 4.T Y E ! ",
"W R +.| Q @.3.g.a.@.! @.Q J g x g.F.S.q.E @.@.@.4.W p p g P ! W g W @.@.! 4.@.@.! ! %.<.%.! ! @.! ! U J ! @.@.@.! ! ! @.T J W Q ",
"E W @.Q Q ! @.@.+.! @.! L W ! ! %.z.v.{ Q @.@.@.! ! n n W ! ! J W ! @.@.@.@.@.@.! 4.! ! ! ! @.! @.@.! ! @.@.@.@.! ! @.! E W @.@.",
"! Q @.@.Q @.@.@.! ! ! ! Q @.@.@.! %.$.+.@.@.@.@.! ! ! ! ! ! W W @.! @.@.@.@.@.@.! ! 4.@.! ! @.@.! @.! ! @.@.@.@.@.@.@.! Q ! @.@."
};
