/* XPM */
static char *corner_grey_DL[] = {
/* columns rows colors chars-per-pixel */
"64 64 158 2 ",
"   c #5A472A",
".  c #5C4A2E",
"X  c #5D4B31",
"o  c #5F4F38",
"O  c #604E35",
"+  c #635034",
"@  c #63533B",
"#  c #705B3D",
"$  c #655743",
"%  c #655847",
"&  c #6B5943",
"*  c #665A4B",
"=  c #6C5D49",
"-  c #705D43",
";  c #715F4B",
":  c #6C5F50",
">  c #6E604F",
",  c #796242",
"<  c #7A674C",
"1  c #6A6155",
"2  c #6D655C",
"3  c #756350",
"4  c #7B6751",
"5  c #7C6853",
"6  c #71665A",
"7  c #74695D",
"8  c #7B6B5D",
"9  c #6E6963",
"0  c #736C65",
"q  c #796E66",
"w  c #746E69",
"e  c #7D7165",
"r  c #76716C",
"t  c #7C736C",
"y  c #7D7672",
"u  c #866F47",
"i  c #866E4B",
"p  c #916F49",
"a  c #8B7249",
"s  c #94734B",
"d  c #9A774E",
"f  c #967A4E",
"g  c #997B4F",
"h  c #866F54",
"j  c #806F58",
"k  c #86735D",
"l  c #8C755E",
"z  c #8E795B",
"x  c #967D52",
"c  c #9C7D51",
"v  c #947C5D",
"b  c #9A7E5E",
"n  c #A17E53",
"m  c #827363",
"M  c #8F7B64",
"N  c #83756C",
"B  c #85796D",
"V  c #8C7C6B",
"C  c #927E63",
"Z  c #937E68",
"A  c #837771",
"S  c #847A73",
"D  c #8A7C73",
"F  c #867D7A",
"G  c #897E7C",
"H  c #907E73",
"J  c #9E8152",
"K  c #9F855A",
"L  c #A48455",
"P  c #A98556",
"I  c #A78857",
"U  c #A98957",
"Y  c #A4855A",
"T  c #AB8759",
"R  c #A6895B",
"E  c #AC8B5A",
"W  c #B28E5B",
"Q  c #B5915D",
"!  c #BA945F",
"~  c #968063",
"^  c #9C8363",
"/  c #96826A",
"(  c #9A856C",
")  c #9F896F",
"_  c #8A807E",
"`  c #918173",
"'  c #998672",
"]  c #9D8975",
"[  c #93847C",
"{  c #9A887B",
"}  c #A28763",
"|  c #A58A65",
" . c #AC8D63",
".. c #A38A69",
"X. c #AA8E6D",
"o. c #AF9061",
"O. c #AE906C",
"+. c #B49263",
"@. c #BC9560",
"#. c #BE9966",
"$. c #B4946B",
"%. c #BA976A",
"&. c #BC9A6A",
"*. c #A58D72",
"=. c #A28D7C",
"-. c #A79077",
";. c #AC9173",
":. c #A8927E",
">. c #B29473",
",. c #B79875",
"<. c #BA9A74",
"1. c #B2977C",
"2. c #B5987A",
"3. c #B99B7A",
"4. c #C19A65",
"5. c #C19D6B",
"6. c #C19F71",
"7. c #C6A26E",
"8. c #C8A36E",
"9. c #C3A171",
"0. c #C9A572",
"q. c #8E8381",
"w. c #928684",
"e. c #948987",
"r. c #9D8D85",
"t. c #978989",
"y. c #9B8C8B",
"u. c #9A8E90",
"i. c #9F9192",
"p. c #A18E80",
"a. c #A39184",
"s. c #AA9482",
"d. c #A6938D",
"f. c #AB968B",
"g. c #AE998C",
"h. c #B19780",
"j. c #B49A84",
"k. c #B99C83",
"l. c #B49C8C",
"z. c #B89E8A",
"x. c #A39495",
"c. c #A89797",
"v. c #AC9A94",
"b. c #A69699",
"n. c #A89799",
"m. c #AC9B9C",
"M. c #B49E95",
"N. c #B89F91",
"B. c #B19E9B",
"V. c #B7A096",
"C. c #BBA292",
"Z. c #B6A19C",
"A. c #AF9EA0",
"S. c #B19FA1",
"D. c #B4A3A5",
"F. c #B7A5A8",
"G. c #C5A785",
"H. c None",
/* pixels */
"! E Q %.N.M.k . H.H.H.H.H.H.H.H.H.H.H.H.H.H.H.H.H.H.H.H.H.H.H.H.H.H.H.H.H.H.H.H.H.H.H.H.H.H.H.H.H.H.H.H.H.H.H.H.H.H.H.H.H.H.H.H.",
"! E U j.D.D.q.% H.H.H.H.H.H.H.H.H.H.H.H.H.H.H.H.H.H.H.H.H.H.H.H.H.H.H.H.H.H.H.H.H.H.H.H.H.H.H.H.H.H.H.H.H.H.H.H.H.H.H.H.H.H.H.H.",
"@.@.o.m.D.m.G * H.H.H.H.H.H.H.H.H.H.H.H.H.H.H.H.H.H.H.H.H.H.H.H.H.H.H.H.H.H.H.H.H.H.H.H.H.H.H.H.H.H.H.H.H.H.H.H.H.H.H.H.H.H.H.H.",
"! Q  .r.t.G 0 H.H.H.H.H.H.H.H.H.H.H.H.H.H.H.H.H.H.H.H.H.H.H.H.H.H.H.H.H.H.H.H.H.H.H.H.H.H.H.H.H.H.H.H.H.H.H.H.H.H.H.H.H.H.H.H.H.",
"Q E Q +.X.K @ H.H.H.H.H.H.H.H.H.H.H.H.H.H.H.H.H.H.H.H.H.H.H.H.H.H.H.H.H.H.H.H.H.H.H.H.H.H.H.H.H.H.H.H.H.H.H.H.H.H.H.H.H.H.H.H.H.",
"@.! @.j.C.` H.H.H.H.H.H.H.H.H.H.H.H.H.H.H.H.H.H.H.H.H.H.H.H.H.H.H.H.H.H.H.H.H.H.H.H.H.H.H.H.H.H.H.H.H.H.H.H.H.H.H.H.H.H.H.H.H.H.",
"@.@.3.D.D.i.H.H.H.H.H.H.H.H.H.H.H.H.H.H.H.H.H.H.H.H.H.H.H.H.H.H.H.H.H.H.H.H.H.H.H.H.H.H.H.H.H.H.H.H.H.H.H.H.H.H.H.H.H.H.H.H.H.H.",
"! @.g.D.m.e.0 H.H.H.H.H.H.H.H.H.H.H.H.H.H.H.H.H.H.H.H.H.H.H.H.H.H.H.H.H.H.H.H.H.H.H.H.H.H.H.H.H.H.H.H.H.H.H.H.H.H.H.H.H.H.H.H.H.",
"! @.a.y.w.r H.H.H.H.H.H.H.H.H.H.H.H.H.H.H.H.H.H.H.H.H.H.H.H.H.H.H.H.H.H.H.H.H.H.H.H.H.H.H.H.H.H.H.H.H.H.H.H.H.H.H.H.H.H.H.H.H.H.",
"@.! +.^ 5 ^ H.H.H.H.H.H.H.H.H.H.H.H.H.H.H.H.H.H.H.H.H.H.H.H.H.H.H.H.H.H.H.H.H.H.H.H.H.H.H.H.H.H.H.H.H.H.H.H.H.H.H.H.H.H.H.H.H.H.",
"! @.@.<.d.p.0 H.H.H.H.H.H.H.H.H.H.H.H.H.H.H.H.H.H.H.H.H.H.H.H.H.H.H.H.H.H.H.H.H.H.H.H.H.H.H.H.H.H.H.H.H.H.H.H.H.H.H.H.H.H.H.H.H.",
"! ! @.z.F.b.w H.H.H.H.H.H.H.H.H.H.H.H.H.H.H.H.H.H.H.H.H.H.H.H.H.H.H.H.H.H.H.H.H.H.H.H.H.H.H.H.H.H.H.H.H.H.H.H.H.H.H.H.H.H.H.H.H.",
"! L Q <.m.y.2 H.H.H.H.H.H.H.H.H.H.H.H.H.H.H.H.H.H.H.H.H.H.H.H.H.H.H.H.H.H.H.H.H.H.H.H.H.H.H.H.H.H.H.H.H.H.H.H.H.H.H.H.H.H.H.H.H.",
"! E L @.X.` 3 X H.H.H.H.H.H.H.H.H.H.H.H.H.H.H.H.H.H.H.H.H.H.H.H.H.H.H.H.H.H.H.H.H.H.H.H.H.H.H.H.H.H.H.H.H.H.H.H.H.H.H.H.H.H.H.H.",
"! ! f Q %.l.r.7 H.H.H.H.H.H.H.H.H.H.H.H.H.H.H.H.H.H.H.H.H.H.H.H.H.H.H.H.H.H.H.H.H.H.H.H.H.H.H.H.H.H.H.H.H.H.H.H.H.H.H.H.H.H.H.H.",
"@.! g L 2.F.S.y H.H.H.H.H.H.H.H.H.H.H.H.H.H.H.H.H.H.H.H.H.H.H.H.H.H.H.H.H.H.H.H.H.H.H.H.H.H.H.H.H.H.H.H.H.H.H.H.H.H.H.H.H.H.H.H.",
"! &.g.=.( c.x.w @ H.H.H.H.H.H.H.H.H.H.H.H.H.H.H.H.H.H.H.H.H.H.H.H.H.H.H.H.H.H.H.H.H.H.H.H.H.H.H.H.H.H.H.H.H.H.H.H.H.H.H.H.H.H.H.",
"@.l.F.D.D K ' 6 O H.H.H.H.H.H.H.H.H.H.H.H.H.H.H.H.H.H.H.H.H.H.H.H.H.H.H.H.H.H.H.H.H.H.H.H.H.H.H.H.H.H.H.H.H.H.H.H.H.H.H.H.H.H.H.",
"$.m.S.x.N L &.v.S H.H.H.H.H.H.H.H.H.H.H.H.H.H.H.H.H.H.H.H.H.H.H.H.H.H.H.H.H.H.H.H.H.H.H.H.H.H.H.H.H.H.H.H.H.H.H.H.H.H.H.H.H.H.H.",
"+.{ _ S M +.N.D._ H.H.H.H.H.H.H.H.H.H.H.H.H.H.H.H.H.H.H.H.H.H.H.H.H.H.H.H.H.H.H.H.H.H.H.H.H.H.H.H.H.H.H.H.H.H.H.H.H.H.H.H.H.H.H.",
"@.! E E W %.B.w.2 H.H.H.H.H.H.H.H.H.H.H.H.H.H.H.H.H.H.H.H.H.H.H.H.H.H.H.H.H.H.H.H.H.H.H.H.H.H.H.H.H.H.H.H.H.H.H.H.H.H.H.H.H.H.H.",
"@.@.@.@.@.@.-.w.8 H.H.H.H.H.H.H.H.H.H.H.H.H.H.H.H.H.H.H.H.H.H.H.H.H.H.H.H.H.H.H.H.H.H.H.H.H.H.H.H.H.H.H.H.H.H.H.H.H.H.H.H.H.H.H.",
"@.@.! ! ! ! k.D.x.w H.H.H.H.H.H.H.H.H.H.H.H.H.H.H.H.H.H.H.H.H.H.H.H.H.H.H.H.H.H.H.H.H.H.H.H.H.H.H.H.H.H.H.H.H.H.H.H.H.H.H.H.H.H.",
"@.@.! 4.! ! k.D.x.0 H.H.H.H.H.H.H.H.H.H.H.H.H.H.H.H.H.H.H.H.H.H.H.H.H.H.H.H.H.H.H.H.H.H.H.H.H.H.H.H.H.H.H.H.H.H.H.H.H.H.H.H.H.H.",
"@.@.@.@.@.@.%.d.w.6 . H.H.H.H.H.H.H.H.H.H.H.H.H.H.H.H.H.H.H.H.H.H.H.H.H.H.H.H.H.H.H.H.H.H.H.H.H.H.H.H.H.H.H.H.H.H.H.H.H.H.H.H.H.",
"@.Q W Q @.! &.v.x.N = H.H.H.H.H.H.H.H.H.H.H.H.H.H.H.H.H.H.H.H.H.H.H.H.H.H.H.H.H.H.H.H.H.H.H.H.H.H.H.H.H.H.H.H.H.H.H.H.H.H.H.H.H.",
"@.n s n ! ! k.D.D.w.9 * H.H.H.H.H.H.H.H.H.H.H.H.H.H.H.H.H.H.H.H.H.H.H.H.H.H.H.H.H.H.H.H.H.H.H.H.H.H.H.H.H.H.H.H.H.H.H.H.H.H.H.H.",
"! n p d T ! k.D.D.e.0 * H.H.H.H.H.H.H.H.H.H.H.H.H.H.H.H.H.H.H.H.H.H.H.H.H.H.H.H.H.H.H.H.H.H.H.H.H.H.H.H.H.H.H.H.H.H.H.H.H.H.H.H.",
"4.T n P U ! &.B.i.y e 5 & H.H.H.H.H.H.H.H.H.H.H.H.H.H.H.H.H.H.H.H.H.H.H.H.H.H.H.H.H.H.H.H.H.H.H.H.H.H.H.H.H.H.H.H.H.H.H.H.H.H.H.",
"! ! U T ! ! ! $.( ( O.B.y.H.H.H.H.H.H.H.H.H.H.H.H.H.H.H.H.H.H.H.H.H.H.H.H.H.H.H.H.H.H.H.H.H.H.H.H.H.H.H.H.H.H.H.H.H.H.H.H.H.H.H.",
"W Q ! ! ! @.@.@.@.@.z.S.q.% H.H.H.H.H.H.H.H.H.H.H.H.H.H.H.H.H.H.H.H.H.H.H.H.H.H.H.H.H.H.H.H.H.H.H.H.H.H.H.H.H.H.H.H.H.H.H.H.H.H.",
"W n W ! @.@.@.@.@.@.l.e.e + H.H.H.H.H.H.H.H.H.H.H.H.H.H.H.H.H.H.H.H.H.H.H.H.H.H.H.H.H.H.H.H.H.H.H.H.H.H.H.H.H.H.H.H.H.H.H.H.H.H.",
"! Q g W ! ! ! @.@.@.+...;.{ N H.H.H.H.H.H.H.H.H.H.H.H.H.H.H.H.H.H.H.H.H.H.H.H.H.H.H.H.H.H.H.H.H.H.H.H.H.H.H.H.H.H.H.H.H.H.H.H.H.",
"@.! W c T %.>.! @.@.@.#.M.F._ H.H.H.H.H.H.H.H.H.H.H.H.H.H.H.H.H.H.H.H.H.H.H.H.H.H.H.H.H.H.H.H.H.H.H.H.H.H.H.H.H.H.H.H.H.H.H.H.H.",
"@.! ! ! T 1.{ E 4.! ! 3.S.u.w H.H.H.H.H.H.H.H.H.H.H.H.H.H.H.H.H.H.H.H.H.H.H.H.H.H.H.H.H.H.H.H.H.H.H.H.H.H.H.H.H.H.H.H.H.H.H.H.H.",
"@.@.! ! 4.X.v W ! ! ! <.y.S = @ H.H.H.H.H.H.H.H.H.H.H.H.H.H.H.H.H.H.H.H.H.H.H.H.H.H.H.H.H.H.H.H.H.H.H.H.H.H.H.H.H.H.H.H.H.H.H.H.",
"@.! ! ! ! ! Q W ! @.! @.$.f.d.[ r H.H.H.H.H.H.H.H.H.H.H.H.H.H.H.H.H.H.H.H.H.H.H.H.H.H.H.H.H.H.H.H.H.H.H.H.H.H.H.H.H.H.H.H.H.H.H.",
"! 4.@.@.4.! ! ! ! @.@.! %.Z.D.n.y 9 H.H.H.H.H.H.H.H.H.H.H.H.H.H.H.H.H.H.H.H.H.H.H.H.H.H.H.H.H.H.H.H.H.H.H.H.H.H.H.H.H.H.H.H.H.H.",
"@.@.@.@.! ! 4.4.! ! @.@.#.Z.F.n.y 2 o H.H.H.H.H.H.H.H.H.H.H.H.H.H.H.H.H.H.H.H.H.H.H.H.H.H.H.H.H.H.H.H.H.H.H.H.H.H.H.H.H.H.H.H.H.",
"@.@.@.@.4.4.W P 4.4.4.! @.l.n.q.t 8 O . H.H.H.H.H.H.H.H.H.H.H.H.H.H.H.H.H.H.H.H.H.H.H.H.H.H.H.H.H.H.H.H.H.H.H.H.H.H.H.H.H.H.H.H.",
"@.@.@.@.4.0.Y s +.7.@.@.@.$.*./ ..j.{ q H.H.H.H.H.H.H.H.H.H.H.H.H.H.H.H.H.H.H.H.H.H.H.H.H.H.H.H.H.H.H.H.H.H.H.H.H.H.H.H.H.H.H.H.",
"@.@.@.@.5.6.5.%.5.9.z.p.} ! @.! <.D.D.y.w H.H.H.H.H.H.H.H.H.H.H.H.H.H.H.H.H.H.H.H.H.H.H.H.H.H.H.H.H.H.H.H.H.H.H.H.H.H.H.H.H.H.H.",
"@.@.#.N.x.' 6.6.6.6.Z.u.m W @.@.<.D.F.x.r : @ H.H.H.H.H.H.H.H.H.H.H.H.H.H.H.H.H.H.H.H.H.H.H.H.H.H.H.H.H.H.H.H.H.H.H.H.H.H.H.H.H.",
"@.@.<.D.m.N $.5.5.6.1.` b ! @.@.@.Z.n.q.0 D y.D H.H.H.H.H.H.H.H.H.H.H.H.H.H.H.H.H.H.H.H.H.H.H.H.H.H.H.H.H.H.H.H.H.H.H.H.H.H.H.H.",
"@.@.@.g.t.t %.6.9.7.&.%.5.@.@.@.! >.{ V ( B.m.q X H.H.H.H.H.H.H.H.H.H.H.H.H.H.H.H.H.H.H.H.H.H.H.H.H.H.H.H.H.H.H.H.H.H.H.H.H.H.H.",
"@.@.@.+.....%.%.&.5.5.5.5.&.#.#.@.! +.@.&.n._ C M w.H.H.H.H.H.H.H.H.H.H.H.H.H.H.H.H.H.H.H.H.H.H.H.H.H.H.H.H.H.H.H.H.H.H.H.H.H.H.",
"@.@.! 7.0.9.%.Y K R +.#.4.&.#.#.@.@.@.@.@.O.| ,.D.x.q H.H.H.H.H.H.H.H.H.H.H.H.H.H.H.H.H.H.H.H.H.H.H.H.H.H.H.H.H.H.H.H.H.H.H.H.H.",
"@.@.! 7.0.<.+.R o.o.R R 5.4.#.#.#.#.@.@.Q @.@.z.F.A.N X X H.H.H.H.H.H.H.H.H.H.H.H.H.H.H.H.H.H.H.H.H.H.H.H.H.H.H.H.H.H.H.H.H.H.H.",
"@.@.! 4.0.E +.%.J  .o.J R #.#.#.@.+.Q -.=.o.! l.S.m.A - N m H.H.H.H.H.H.H.H.H.H.H.H.H.H.H.H.H.H.H.H.H.H.H.H.H.H.H.H.H.H.H.H.H.H.",
"@.@.@.! #.+.9.%.R &.5.+.R K < J U Y | B.n.Z ! +.-.=.Z h.S.d.%   H.H.H.H.H.H.H.H.H.H.H.H.H.H.H.H.H.H.H.H.H.H.H.H.H.H.H.H.H.H.H.H.",
"! ! P Q Q U +.R &.&.5.7.5.o.u E @.@.z.F.S.D o.4.@.! 4.M.S.n.m - 8 y.H.H.H.H.H.H.H.H.H.H.H.H.H.H.H.H.H.H.H.H.H.H.H.H.H.H.H.H.H.H.",
"@.Q L c J L Q @.5.&.+.o.R J Q #.#.#.<.n.x.N W @.! @.4.M.S.b.V 1.D.B._ 0 H.H.H.H.H.H.H.H.H.H.H.H.H.H.H.H.H.H.H.H.H.H.H.H.H.H.H.H.",
"@.! @.! ! ! ! ! J I o.o.o.#.#.#.#.@.@. .} R ! @.@.@.4.+.-.' Y k.D.D.t.w = 8 8 @ H.H.H.H.H.H.H.H.H.H.H.H.H.H.H.H.H.H.H.H.H.H.H.H.",
"@.@.@.@.@.! ! L E +.4.5.5.5.#.#.#.@.@.@.@.! @.@.@.@.! ! ! ! 4.,.D.m.q.0 w.D.x.6 3 ` H.H.H.H.H.H.H.H.H.H.H.H.H.H.H.H.H.H.H.H.H.H.",
"@.@.@.@.@.@.! W ! ! ! 4.&.4.#.#.@.#.@.@.@.@.! ! @.4.! 4.@.@.@.%.s._ t M :.D.x.y b.S.q.1 . H.H.H.H.H.H.H.H.H.H.H.H.H.H.H.H.H.H.H.",
"@.! @.! ! @.@.@.! ! #.4.&.4.4.#.#.@.@.@.@.@.! Q 4.9.5.4.@.@.@.@.@.+.+.E +.a._ D B.D.t.0 i u [ x.H.H.H.H.H.H.H.H.H.H.H.H.H.H.H.H.",
"! ! @.@.@.@.@.@.#.! ! ! 7.! 7.! ! ! ! ! ! @.! Q 9.9.9.9.5.&.@.L c W ! E ! Q  .$.M.D.q.w &.G.D.t.> # d.S.t.r H.H.H.n.F H.H.H n.6 ",
"! 4.! @.@.@.! @.! ! 4.! ! ! ! ! ! W L ! @.@.! E &.0.9.5.5.5.+.s p L U P ! 4.! ! 1.t.t ~ 5.z.y.B +.<.D.D.b.t 2 ; B.D.w.2 4 m.n.m ",
"@.@.! @.! @.@.@.! ! ! ! ! ! ! ! @.! Q ! @.@.@.U &.9.9.6.5.6.&.n d W E L &.@.@.@.!  .o.! @.+... .Q +.D.F.n.y 2 < m.F.t.0 p.m.G ~ ",
"@.@.@.! @.+.W ! #.! 4.! @.! 4.! @.@.! ! @.@.! L 5.9.9.5.6.5.5.#.#.5.%.;.M.( E @.4.! ! W Q @.@.L L @.M.D.y.r m %.M.A.F q *.{ / +.",
"Q U U W j.r.z ! @.@.@.@.@.@.@.@.@.@.@.! ! ! P Q @.@.4.@.4.5.5.5.&.W K M.n.q Y @.@.@.! W J g U U ! ! 2.y.A N } ! >.[ V } @.E E @.",
"! W J L Z.b.r W @.@.@.@.@.@.@.@.@.! ! 4.! Q s W @.@.! ! @.@.@.+.L a z x.F 4 W @.@.! @.4.Q f W @.! ! @. .} +.! @.! +.! ! W s s T ",
"@.@.W W j.w.k Q @.@.@.@.@.@.@.@.@.@.@.! ! Q L W ! 4.@.@.@.@.! Q Q Q W ^ h n @.@.@.@.@.@.@.W U Q Q E @.@.4.! @.! @.@.4.! W s p T ",
"@.@.Q ! +.Y U @.@.@.@.@.@.@.@.@.@.! @.! ! ! ! ! ! ! @.@.! @.@.@.@.@.@.@.! @.@.@.@.! @.@.! @.U J I Q @.@.@.@.@.@.@.@.! ! ! P P ! "
};
