/* XPM */
static char *corner_grey_UL[] = {
/* columns rows colors chars-per-pixel */
"64 64 158 2 ",
"   c #5A472A",
".  c #5C4A2E",
"X  c #5D4B31",
"o  c #5F4F38",
"O  c #604E35",
"+  c #635034",
"@  c #63533B",
"#  c #705B3D",
"$  c #655743",
"%  c #655847",
"&  c #6B5943",
"*  c #665A4B",
"=  c #6C5D49",
"-  c #705D43",
";  c #715F4B",
":  c #6C5F50",
">  c #6E604F",
",  c #796242",
"<  c #7A674C",
"1  c #6A6155",
"2  c #6D655C",
"3  c #756350",
"4  c #7B6751",
"5  c #7C6853",
"6  c #71665A",
"7  c #74695D",
"8  c #7B6B5D",
"9  c #6E6963",
"0  c #736C65",
"q  c #796E66",
"w  c #746E69",
"e  c #7D7165",
"r  c #76716C",
"t  c #7C736C",
"y  c #7D7672",
"u  c #866F47",
"i  c #866E4B",
"p  c #916F49",
"a  c #8B7249",
"s  c #94734B",
"d  c #9A774E",
"f  c #967A4E",
"g  c #997B4F",
"h  c #866F54",
"j  c #806F58",
"k  c #86735D",
"l  c #8C755E",
"z  c #8E795B",
"x  c #967D52",
"c  c #9C7D51",
"v  c #947C5D",
"b  c #9A7E5E",
"n  c #A17E53",
"m  c #827363",
"M  c #8F7B64",
"N  c #83756C",
"B  c #85796D",
"V  c #8C7C6B",
"C  c #927E63",
"Z  c #937E68",
"A  c #837771",
"S  c #847A73",
"D  c #8A7C73",
"F  c #867D7A",
"G  c #897E7C",
"H  c #907E73",
"J  c #9E8152",
"K  c #9F855A",
"L  c #A48455",
"P  c #A98556",
"I  c #A78857",
"U  c #A98957",
"Y  c #A4855A",
"T  c #AB8759",
"R  c #A6895B",
"E  c #AC8B5A",
"W  c #B28E5B",
"Q  c #B5915D",
"!  c #BA945F",
"~  c #968063",
"^  c #9C8363",
"/  c #96826A",
"(  c #9A856C",
")  c #9F896F",
"_  c #8A807E",
"`  c #918173",
"'  c #998672",
"]  c #9D8975",
"[  c #93847C",
"{  c #9A887B",
"}  c #A28763",
"|  c #A58A65",
" . c #AC8D63",
".. c #A38A69",
"X. c #AA8E6D",
"o. c #AF9061",
"O. c #AE906C",
"+. c #B49263",
"@. c #BC9560",
"#. c #BE9966",
"$. c #B4946B",
"%. c #BA976A",
"&. c #BC9A6A",
"*. c #A58D72",
"=. c #A28D7C",
"-. c #A79077",
";. c #AC9173",
":. c #A8927E",
">. c #B29473",
",. c #B79875",
"<. c #BA9A74",
"1. c #B2977C",
"2. c #B5987A",
"3. c #B99B7A",
"4. c #C19A65",
"5. c #C19D6B",
"6. c #C19F71",
"7. c #C6A26E",
"8. c #C8A36E",
"9. c #C3A171",
"0. c #C9A572",
"q. c #8E8381",
"w. c #928684",
"e. c #948987",
"r. c #9D8D85",
"t. c #978989",
"y. c #9B8C8B",
"u. c #9A8E90",
"i. c #9F9192",
"p. c #A18E80",
"a. c #A39184",
"s. c #AA9482",
"d. c #A6938D",
"f. c #AB968B",
"g. c #AE998C",
"h. c #B19780",
"j. c #B49A84",
"k. c #B99C83",
"l. c #B49C8C",
"z. c #B89E8A",
"x. c #A39495",
"c. c #A89797",
"v. c #AC9A94",
"b. c #A69699",
"n. c #A89799",
"m. c #AC9B9C",
"M. c #B49E95",
"N. c #B89F91",
"B. c #B19E9B",
"V. c #B7A096",
"C. c #BBA292",
"Z. c #B6A19C",
"A. c #AF9EA0",
"S. c #B19FA1",
"D. c #B4A3A5",
"F. c #B7A5A8",
"G. c #C5A785",
"H. c None",
/* pixels */
"@.@.! Q @.@.@.@.@.@.@.@.@.! @.@.@.! 4.! 4.! @.@.@.@.! @.4.! ! ! Q W ! @.! ! @.@.@.@.@.@.+.$.4.! ! 4.! Q ! @.@.! @.@.! Q ! @.! ! ",
"@.@.Q U @.@.@.@.@.@.@.@.! ! @.@.! ! ! ! ! ! @.@.@.@.@.@.! @.@.W g ! ! E n n ! @.! ! @.Q ] m.l.%.! ! W n ! @.@.+.@.! ! E Q ! W W ",
"Q Q J U @.@.@.! @.@.@.! n P @.@.! ! ! %.<.#.@.@.@.! @.! ! ! W d W ! U n p p W @.4.! 4.| G S.S.g.c g n Q @.@.@.=.g.3.#.Q | O.I Q ",
"! E Y U @.@.@.! @.@.@.! n Q @.@.4.7.%.f.F.N.@.@.@.@.@.@.! Q J W ! ! E U d n ! @.! ! ! E S x.F.p.L W ! <.z.,.^ t.D.D.j.+.r.v.l.@.",
"+.l.M.l.@.@.4.! ! ! ! ! J Q 4.8.0.0.] y.n.v.5.4.@.@.! ! 4.U E 4.@.@.! U U @.@.@.@.@.@.Q l N D ( <.%.X.m.F.d.j w.A.F.C...e.D.D.l.",
"K w.b.r.o.@.! @.#.! ! #.J U +.E 6.9.^ t t ( 9.0.7.! ! ! O.:.+.@.! @.! ! ! @.! @.@.@.@.%.+.T ~ v.D.N.` u.b.p.~ t e.i./ K _ m.D.V.",
"E m t l W @.@.@.! ! ! ! W +.8.+.o.%.%.%.%.<.&.Y Q 4.@.! v { >.! @.@.@.<.k.k.%.@.k.2.-.B.N.&.' x.S.y.= 6 w 0 H.H.w H.H.@ 2 _ _ k ",
"@.W W Q @.@.! @.! Q J Q #.R %.&.R Y %.9.9.7.%.d P @.! E W W @.@.@.! O.B.D.D.M.a.D.D.w.w.S.v.7 r y 7 X H.H.H.H.H.H.H.H.H.H.> % X ",
"! @.4.@.@.@.@.@.! ! E L 7.&.R x  .K &.7.5.6.5.+.4.@.! ! @.@.@.@.@.! ( x.D.D.i.w.x.x.8 2 _ S O @ H.H.H.H.H.H.H.H.H.H.H.H.H.H.H.H.",
"4.! ! @.@.! @.! ! ! ! I +.7.&.o.o. .5.5.7.<.5.7.@.@.@.@.@.@.@.@.@.4.^ y e.w.N 2 0 w H.H.H.H.H.H.H.H.H.H.H.H.H.H.H.H.H.H.H.H.H.H.",
"! ! @.@.@.! @.@.#.! #.R o.5.7.o.R +.5.#.1.Z.N.%.@.@.@.@.@.! @.+.g.z.X.e w 0 = X H.H.H.H.H.H.H.H.H.H.H.H.H.H.H.H.H.H.H.H.H.H.H.H.",
"@.! ! @.@.@.@.! 4.7.7.W o.5.+.J R #.5.%.` u.=.@.@.@.! @.,.3.#...e.D.M.5 % * H.H.H.H.H.H.H.H.H.H.H.H.H.H.H.H.H.H.H.H.H.H.H.H.H.H.",
"@.@.@.@.@.@.@.#.#.5.&.+.R 7.R I #.5.#.5.b m } ! @.%.%.+.r.D.V.;.e q.y.& H.H.H.H.H.H.H.H.H.H.H.H.H.H.H.H.H.H.H.H.H.H.H.H.H.H.H.H.",
"@.@.@.@.! @.@.#.&.#.5.#.K E K @.5.#.&.#.! W ! %.z.Z.Z.f.S y.D.{ + % H.H.H.H.H.H.H.H.H.H.H.H.H.H.H.H.H.H.H.H.H.H.H.H.H.H.H.H.H.H.",
"@.@.@.@.@.@.@.#.4.4.#.#.+.u a #.#.#.4.@.@.@.@.*.m.D.D.x.= w q.N H.H.H.H.H.H.H.H.H.H.H.H.H.H.H.H.H.H.H.H.H.H.H.H.H.H.H.H.H.H.H.H.",
"@.@.@.@.@.@.@.#.#.#.#.#.#.R f #.#.#.#.@.! ! @./ q.n.n.[ @ H.H.H.H.H.H.H.H.H.H.H.H.H.H.H.H.H.H.H.H.H.H.H.H.H.H.H.H.H.H.H.H.H.H.H.",
"@.@.@.@.@.! @.@.4.#.#.#.#.! T #.#.#.! @.%.<.<...t y y r H.H.H.H.H.H.H.H.H.H.H.H.H.H.H.H.H.H.H.H.H.H.H.H.H.H.H.H.H.H.H.H.H.H.H.H.",
"@.@.@.@.! ! W ! ! 4.! #.@.#.T Q #.@.! >.M.D.D.j.8 2 9 H.H.H.H.H.H.H.H.H.H.H.H.H.H.H.H.H.H.H.H.H.H.H.H.H.H.H.H.H.H.H.H.H.H.H.H.H.",
"@.@.@.@.@.W n ! ! @.@.#.2.k.| W @.@.@.{ m.D.D.{ O O H.H.H.H.H.H.H.H.H.H.H.H.H.H.H.H.H.H.H.H.H.H.H.H.H.H.H.H.H.H.H.H.H.H.H.H.H.H.",
"@.@.@.@.! @.! ! ! ! 4.| n.S.S.>.Q @.+.V q.x.y.q . H.H.H.H.H.H.H.H.H.H.H.H.H.H.H.H.H.H.H.H.H.H.H.H.H.H.H.H.H.H.H.H.H.H.H.H.H.H.H.",
"@.! ! ! @.! @.@.@.@.! } x.S.n.=.W @.%./ w w w H.H.H.H.H.H.H.H.H.H.H.H.H.H.H.H.H.H.H.H.H.H.H.H.H.H.H.H.H.H.H.H.H.H.H.H.H.H.H.H.H.",
"! W Q ! @.@.@.@.@.@.4.n A D Z  .4.X.v.B.D : H.H.H.H.H.H.H.H.H.H.H.H.H.H.H.H.H.H.H.H.H.H.H.H.H.H.H.H.H.H.H.H.H.H.H.H.H.H.H.H.H.H.",
"! J s U Q @.! @.@.@.@.! W W @.@.! | G A.a.@ H.H.H.H.H.H.H.H.H.H.H.H.H.H.H.H.H.H.H.H.H.H.H.H.H.H.H.H.H.H.H.H.H.H.H.H.H.H.H.H.H.H.",
"! W Q Q L U W W W @.@.@.@.@.+.z.z.,.C q F H.H.H.H.H.H.H.H.H.H.H.H.H.H.H.H.H.H.H.H.H.H.H.H.H.H.H.H.H.H.H.H.H.H.H.H.H.H.H.H.H.H.H.",
"! @.@.@.5.%.&.9.7.! @.! ! ! -.D.F.D.M O H.H.H.H.H.H.H.H.H.H.H.H.H.H.H.H.H.H.H.H.H.H.H.H.H.H.H.H.H.H.H.H.H.H.H.H.H.H.H.H.H.H.H.H.",
"! @.@.@.9.9.9.9.8.! @.@.! ! ] m.S.x.w.H.H.H.H.H.H.H.H.H.H.H.H.H.H.H.H.H.H.H.H.H.H.H.H.H.H.H.H.H.H.H.H.H.H.H.H.H.H.H.H.H.H.H.H.H.",
"@.@.@.@.7.9.9.9.8.@.@.@.#.%.^ N t q H.H.H.H.H.H.H.H.H.H.H.H.H.H.H.H.H.H.H.H.H.H.H.H.H.H.H.H.H.H.H.H.H.H.H.H.H.H.H.H.H.H.H.H.H.H.",
"@.@.@.4.5.9.6.9.4.! ! $.M.Z.h.- X H.H.H.H.H.H.H.H.H.H.H.H.H.H.H.H.H.H.H.H.H.H.H.H.H.H.H.H.H.H.H.H.H.H.H.H.H.H.H.H.H.H.H.H.H.H.H.",
"@.@.! 4.7.7.5.5.@.@.! =.D.D.D.N . H.H.H.H.H.H.H.H.H.H.H.H.H.H.H.H.H.H.H.H.H.H.H.H.H.H.H.H.H.H.H.H.H.H.H.H.H.H.H.H.H.H.H.H.H.H.H.",
"@.@.! 4.7.&.6.#.@.@.@.( x.b.y.e H.H.H.H.H.H.H.H.H.H.H.H.H.H.H.H.H.H.H.H.H.H.H.H.H.H.H.H.H.H.H.H.H.H.H.H.H.H.H.H.H.H.H.H.H.H.H.H.",
"@.! @.4.&.#.+.@.@.@.! | V m $ H.H.H.H.H.H.H.H.H.H.H.H.H.H.H.H.H.H.H.H.H.H.H.H.H.H.H.H.H.H.H.H.H.H.H.H.H.H.H.H.H.H.H.H.H.H.H.H.H.",
"@.Q ! 7.&.n s L @.#.3.k.1.,   H.H.H.H.H.H.H.H.H.H.H.H.H.H.H.H.H.H.H.H.H.H.H.H.H.H.H.H.H.H.H.H.H.H.H.H.H.H.H.H.H.H.H.H.H.H.H.H.H.",
"@.Q L 4.%.d p n @.s.D.D.S.m H.H.H.H.H.H.H.H.H.H.H.H.H.H.H.H.H.H.H.H.H.H.H.H.H.H.H.H.H.H.H.H.H.H.H.H.H.H.H.H.H.H.H.H.H.H.H.H.H.H.",
"@.! a E 5.W L W o._ A.D.A.r.H.H.H.H.H.H.H.H.H.H.H.H.H.H.H.H.H.H.H.H.H.H.H.H.H.H.H.H.H.H.H.H.H.H.H.H.H.H.H.H.H.H.H.H.H.H.H.H.H.H.",
"@.E z Y @.E U ! +.S q.t.G H.H.H.H.H.H.H.H.H.H.H.H.H.H.H.H.H.H.H.H.H.H.H.H.H.H.H.H.H.H.H.H.H.H.H.H.H.H.H.H.H.H.H.H.H.H.H.H.H.H.H.",
"! ~ x.B.;.Y U E E M 9 w 0 H.H.H.H.H.H.H.H.H.H.H.H.H.H.H.H.H.H.H.H.H.H.H.H.H.H.H.H.H.H.H.H.H.H.H.H.H.H.H.H.H.H.H.H.H.H.H.H.H.H.H.",
"! h S m.M.#.@.@.+.:.w.> H.H.H.H.H.H.H.H.H.H.H.H.H.H.H.H.H.H.H.H.H.H.H.H.H.H.H.H.H.H.H.H.H.H.H.H.H.H.H.H.H.H.H.H.H.H.H.H.H.H.H.H.",
"! L < t / @.@.+.a.D.D.5 H.H.H.H.H.H.H.H.H.H.H.H.H.H.H.H.H.H.H.H.H.H.H.H.H.H.H.H.H.H.H.H.H.H.H.H.H.H.H.H.H.H.H.H.H.H.H.H.H.H.H.H.",
"4.! W Y E @.@.| _ x.x.7 H.H.H.H.H.H.H.H.H.H.H.H.H.H.H.H.H.H.H.H.H.H.H.H.H.H.H.H.H.H.H.H.H.H.H.H.H.H.H.H.H.H.H.H.H.H.H.H.H.H.H.H.",
"! ! ! 4.4.@.@.+.D t 2 @ H.H.H.H.H.H.H.H.H.H.H.H.H.H.H.H.H.H.H.H.H.H.H.H.H.H.H.H.H.H.H.H.H.H.H.H.H.H.H.H.H.H.H.H.H.H.H.H.H.H.H.H.",
"! ! @.@.@.@.1.M.D.c.3 H.H.H.H.H.H.H.H.H.H.H.H.H.H.H.H.H.H.H.H.H.H.H.H.H.H.H.H.H.H.H.H.H.H.H.H.H.H.H.H.H.H.H.H.H.H.H.H.H.H.H.H.H.",
"@.@.@.@.@. .y.S.D.S.H H.H.H.H.H.H.H.H.H.H.H.H.H.H.H.H.H.H.H.H.H.H.H.H.H.H.H.H.H.H.H.H.H.H.H.H.H.H.H.H.H.H.H.H.H.H.H.H.H.H.H.H.H.",
"@.@.@.@.! o.A _ t.G H.H.H.H.H.H.H.H.H.H.H.H.H.H.H.H.H.H.H.H.H.H.H.H.H.H.H.H.H.H.H.H.H.H.H.H.H.H.H.H.H.H.H.H.H.H.H.H.H.H.H.H.H.H.",
"@.@.@.W W ! Z w 0 1 H.H.H.H.H.H.H.H.H.H.H.H.H.H.H.H.H.H.H.H.H.H.H.H.H.H.H.H.H.H.H.H.H.H.H.H.H.H.H.H.H.H.H.H.H.H.H.H.H.H.H.H.H.H.",
"! ! Q J Q 4.4.&.i X H.H.H.H.H.H.H.H.H.H.H.H.H.H.H.H.H.H.H.H.H.H.H.H.H.H.H.H.H.H.H.H.H.H.H.H.H.H.H.H.H.H.H.H.H.H.H.H.H.H.H.H.H.H.",
"! Q f d ! +.z.G.u H.H.H.H.H.H.H.H.H.H.H.H.H.H.H.H.H.H.H.H.H.H.H.H.H.H.H.H.H.H.H.H.H.H.H.H.H.H.H.H.H.H.H.H.H.H.H.H.H.H.H.H.H.H.H.",
"U U W U @...y.D.[ H.H.H.H.H.H.H.H.H.H.H.H.H.H.H.H.H.H.H.H.H.H.H.H.H.H.H.H.H.H.H.H.H.H.H.H.H.H.H.H.H.H.H.H.H.H.H.H.H.H.H.H.H.H.H.",
"L ! ! P L  .B t.x.H.H.H.H.H.H.H.H.H.H.H.H.H.H.H.H.H.H.H.H.H.H.H.H.H.H.H.H.H.H.H.H.H.H.H.H.H.H.H.H.H.H.H.H.H.H.H.H.H.H.H.H.H.H.H.",
"P Q ! Q U Q +.> H.H.H.H.H.H.H.H.H.H.H.H.H.H.H.H.H.H.H.H.H.H.H.H.H.H.H.H.H.H.H.H.H.H.H.H.H.H.H.H.H.H.H.H.H.H.H.H.H.H.H.H.H.H.H.H.",
"Q E ! ! +.+.<.# H.H.H.H.H.H.H.H.H.H.H.H.H.H.H.H.H.H.H.H.H.H.H.H.H.H.H.H.H.H.H.H.H.H.H.H.H.H.H.H.H.H.H.H.H.H.H.H.H.H.H.H.H.H.H.H.",
"@.@.@.1.B.Z.Z.d.H.H.H.H.H.H.H.H.H.H.H.H.H.H.H.H.H.H.H.H.H.H.H.H.H.H.H.H.H.H.H.H.H.H.H.H.H.H.H.H.H.H.H.H.H.H.H.H.H.H.H.H.H.H.H.H.",
"@.@. .y.D.D.D.D.H.H.H.H.H.H.H.H.H.H.H.H.H.H.H.H.H.H.H.H.H.H.H.H.H.H.H.H.H.H.H.H.H.H.H.H.H.H.H.H.H.H.H.H.H.H.H.H.H.H.H.H.H.H.H.H.",
"@.@.| y u.n.b.e.H.H.H.H.H.H.H.H.H.H.H.H.H.H.H.H.H.H.H.H.H.H.H.H.H.H.H.H.H.H.H.H.H.H.H.H.H.H.H.H.H.H.H.H.H.H.H.H.H.H.H.H.H.H.H.H.",
"! @.Q t r y y r H.H.H.H.H.H.H.H.H.H.H.H.H.H.H.H.H.H.H.H.H.H.H.H.H.H.H.H.H.H.H.H.H.H.H.H.H.H.H.H.H.H.H.H.H.H.H.H.H.H.H.H.H.H.H.H.",
"@.@.!  .m 2 2 H.H.H.H.H.H.H.H.H.H.H.H.H.H.H.H.H.H.H.H.H.H.H.H.H.H.H.H.H.H.H.H.H.H.H.H.H.H.H.H.H.H.H.H.H.H.H.H.H.H.H.H.H.H.H.H.H.",
"@.@.@.@.%.< > H.H.H.H.H.H.H.H.H.H.H.H.H.H.H.H.H.H.H.H.H.H.H.H.H.H.H.H.H.H.H.H.H.H.H.H.H.H.H.H.H.H.H.H.H.H.H.H.H.H.H.H.H.H.H.H.H.",
"@.@.@.>.M.m.B.H.H.H.H.H.H.H.H.H.H.H.H.H.H.H.H.H.H.H.H.H.H.H.H.H.H.H.H.H.H.H.H.H.H.H.H.H.H.H.H.H.H.H.H.H.H.H.H.H.H.H.H.H.H.H.H.H.",
"! ! +.[ m.D.D.b.H.H.H.H.H.H.H.H.H.H.H.H.H.H.H.H.H.H.H.H.H.H.H.H.H.H.H.H.H.H.H.H.H.H.H.H.H.H.H.H.H.H.H.H.H.H.H.H.H.H.H.H.H.H.H.H.",
"@.@.+.V G y.w.F H.H.H.H.H.H.H.H.H.H.H.H.H.H.H.H.H.H.H.H.H.H.H.H.H.H.H.H.H.H.H.H.H.H.H.H.H.H.H.H.H.H.H.H.H.H.H.H.H.H.H.H.H.H.H.H.",
"! @.@.} q 0 2 H.H.H.H.H.H.H.H.H.H.H.H.H.H.H.H.H.H.H.H.H.H.H.H.H.H.H.H.H.H.H.H.H.H.H.H.H.H.H.H.H.H.H.H.H.H.H.H.H.H.H.H.H.H.H.H.H.",
"! W W ! *.a.5 H.H.H.H.H.H.H.H.H.H.H.H.H.H.H.H.H.H.H.H.H.H.H.H.H.H.H.H.H.H.H.H.H.H.H.H.H.H.H.H.H.H.H.H.H.H.H.H.H.H.H.H.H.H.H.H.H.",
"T s d T { m.n.` H.H.H.H.H.H.H.H.H.H.H.H.H.H.H.H.H.H.H.H.H.H.H.H.H.H.H.H.H.H.H.H.H.H.H.H.H.H.H.H.H.H.H.H.H.H.H.H.H.H.H.H.H.H.H.H.",
"P s s T / G n.n.H.H.H.H.H.H.H.H.H.H.H.H.H.H.H.H.H.H.H.H.H.H.H.H.H.H.H.H.H.H.H.H.H.H.H.H.H.H.H.H.H.H.H.H.H.H.H.H.H.H.H.H.H.H.H.H.",
"! T T ! +.~ m 7 H.H.H.H.H.H.H.H.H.H.H.H.H.H.H.H.H.H.H.H.H.H.H.H.H.H.H.H.H.H.H.H.H.H.H.H.H.H.H.H.H.H.H.H.H.H.H.H.H.H.H.H.H.H.H.H."
};
