/* XPM */
static char *Ground_Tile_02_A[] = {
/* columns rows colors chars-per-pixel */
"64 64 92 1 ",
"  c #6F5E3C",
". c #725E3C",
"X c #75633E",
"o c #79653F",
"O c #5F5A54",
"+ c #655544",
"@ c #695640",
"# c #6B5943",
"$ c #65594D",
"% c #6D5E4B",
"& c #725E44",
"* c #705F48",
"= c #625B54",
"- c #685D54",
"; c #635E59",
": c #6E624D",
"> c #756245",
", c #7A6642",
"< c #7D6A43",
"1 c #73634A",
"2 c #796649",
"3 c #7E6B4A",
"4 c #6A6155",
"5 c #67615D",
"6 c #6D6459",
"7 c #706150",
"8 c #756854",
"9 c #7B6C54",
"0 c #746A59",
"q c #7A6C59",
"w c #676360",
"e c #6B6563",
"r c #6E6866",
"t c #706762",
"y c #746B64",
"u c #746C6B",
"i c #786D68",
"p c #7C706C",
"a c #7D7270",
"s c #896745",
"d c #836D44",
"f c #8A6C45",
"g c #836D49",
"h c #8B6F49",
"j c #857146",
"k c #8B7346",
"l c #867249",
"z c #8B754B",
"x c #8F7A4F",
"c c #957646",
"v c #987645",
"b c #967847",
"n c #987947",
"m c #937749",
"M c #92794C",
"N c #997A49",
"B c #816F59",
"V c #877653",
"C c #8B7652",
"Z c #8E7A50",
"A c #85765B",
"S c #8A775C",
"D c #8E7A5A",
"F c #907B50",
"G c #927C5A",
"H c #8C7A63",
"J c #8B7B6C",
"K c #957E67",
"L c #827676",
"P c #8B7971",
"I c #82767A",
"U c #86797B",
"Y c #8A7E7F",
"T c #938065",
"R c #998167",
"E c #95826D",
"W c #8E807D",
"Q c #958373",
"! c #96847A",
"~ c #8C7E82",
"^ c #907F81",
"/ c #8D8286",
"( c #938484",
") c #988782",
"_ c #998882",
"` c #958689",
"' c #95888D",
"] c #9B8B8D",
"[ c #9C8D92",
"{ c #A08F93",
"} c #A19096",
"| c #A19098",
/* pixels */
"xZxxxxxZQ_QZxxZZkTkbTkTkzxxxxxxxxxTbTTkbjbTzTkkMxTbkxxxxxxxxxxxx",
"xzxFxxx9/{`DxZMNbbbvbbbbxxxxxxxxxMkkkkTzTbkbbbvnbbbxxxxxxxxxxxxx",
"xxzxxxx1wuyZxmbvbvbbkbvbkkxxxxxxxkjjkbkkkbbvbvvvbkbbbxkTxxxkxxxx",
"xZxjxxxz1:lZmvcbbbkbvbkvbTxxxxxxxkjkxTMMTbbkbkvkbbbbbxxkxxxTxxxx",
"xMMZxxxxMMxxbcccbbbbbbbbxTxxxxxxxxxxxTkxbbkbkbbbbbvvnbjjxTlY!ETx",
"xvbZjxxxZxxbbcccbkkbbbbbxkkTxxxMTxxxkxkxbbbbbbbkkbkkkj<jTl0/_{Tz",
"MbvM<lxMMNmcmcccbbbbkbkkxxxbbbbbkkTxEQTnvkbkbbbbkjjkxbxkjb:L!{!T",
"xMvMx<kNbMcMcmcMxbbkbMTxbbbbbkbbbbV!{]{TvbbvTkbjjbbTTkbjkb:wY/Zk",
"xMvMZxjkmmbcMmmMkMbkkxxxkbbbbMbbbz0']][WTbkbzMkjFxxxxbkjbbkX:<zT",
"xMvMZMMzkMMmcmmmbxbTxxxxbbbkxbkMb<uW'''TkbbbbbbkFxxxxxbjbkMbbMTz",
"xMcbMZxxkjbMmmmmxbbMTxxxxxbTxbMMT wyuaulbkTkbxbkxxxxxxx<xxbMMxkk",
"xxMMbxxxMMkzMMmxbMMMbkxxxxxxxxkbbj$;OO:xbkbbMMkkFFxxxxx<Mkxkkbxx",
"xMcmcMxxxbljMMMmbxbkkTxxxxxxTbkbkTkj<<kxTkbxMMjkbjxxxxxjzjkkxkxx",
"xMmMMMxxZMMl<kmMxxxxkxxxxxxxjjkTMkxxxTbMbbxxbjXdjjzxxzjxxbTxTbxx",
"xxMMmMZxxMMMzzxMxbMxxxxxxxxxkkxxkxxxkxbMkkbkjojkxTxxxjxxxxxxxxxx",
"xxxmMMxxxMMMMMMMMMxxxxxxxxxxxxxxTkxxxxxxTbkjxMTkkxxxxxxxxxxxxxxx",
"xMxmzxZMxxxbxxxxMMMxxxxxkMTkkTxxxxxxTbxxkjjxxxkMxxxxbkxxxxxxxxxx",
"xxmMMxZZbxxxxxbxxMMxxxTxkTkj<kxxxxxxbxxx<kTbxxxxxxxxTMxxxxxxxxxx",
"xxMMMxxxxxxxxxxxxxxxkbkbbMjkkjxxxxxxzxkjkFxxxxMxxbbkMMxkxkxxxkxx",
"xxxxZZxxxxxxxxxxxxxxbbbbnkkTxjzxxxxxxzxxFxxxxxMjxbbbbbbTTkxxxTxx",
"xxxMxxxxxxxxxxxxTkTbbbkblTbbFjjTxxxxxxFxxxxxxxxTbbkbbbkbbkTxxxxx",
"xxxxxZZMxxxxxxxxkbkbbbbk8'_Tbb<lxxzzxxxxxxxxxxxbbbbbbbbbbbbxxxxx",
"xxxxxxxxxxxxxxxxxbbkbbkj r'!bbb<xlzxxxxxxxxxkbbbbbkbkbbbkbbxxxxx",
"xxxxxFTxxxxxxxkTkbbbbbjko :VbkbjjxxxxxxFxxxxTMbMkbbbMbzbMbbbbkkx",
"xxZMA]]!TTjzkxxbbbMbbbjknbjbbbbkxxxxxxxxxxxxbbkbbbMkbbMMbMkbbkkx",
"ZxMlp[]{_TkTTjbkbxMMkMMkMMbMkxxjbxxxxxxxxxMbkxbxzMbbxkMbMMbkbMxx",
"xxTjy'_WLZbzxjMbxbMMbxbMzbkjxbkkFxxxFxxxxxxbMMMbMMbxbxbxMkbbbxTk",
"xxxk:ry:9bkTkjxxxMkMMMxkjzoxbxxxxxxxxxxxxxMMMMMMbMxxbxxkMMxTTxkM",
"xxxTdooTTkxT<kxbbxkkbxkkjoxbxxxxxxxxxxxxxxbxMMxbTMMMxMMMxMxxkTTx",
"xxxxbTbkxxxx<kxxxxTbMxTj xMMxxxxxxxxxxxxxxxxxMxxkkkTxkMMbjxxz!]Q",
"xxxxkTkTxxxxokxxxxxxxxxjjxxxTxxxxxxxxxTxjxxxxxxxxMkMTkxkjkTk0Y!!",
"xxxMTkkbxxxxXMxxxxxxxxjkTkxxkxxxxxxxxxxxjMxxxxxxxxbTkxxMkTzTXwr0",
"xxxxxxxxxxTzokkTTkbkxxjxxxxxxxxxxxxxxxxxdkxTbkbjkxkjjTkxxxxbxX:T",
"xxxxxxxxxkbkjTbbbbbvbkkMxxxxxxxxxxxxxxxxTbMbbbokkkX xxxxxxxxxxxx",
"xxxxTkxxxxTkjbbbbvbbb<bbxxxxxxxxxxxxxxxxkobkbjkbbbkobxxxxxxxxxxx",
"xxxxxxxxxxbkknbkvkbbkkbbxxxxxxxxxxxxxxxxodbkodbvbbbjbxxxxxxxxxxx",
"xbbxxxxxxxTjjbbbbvbbkkbbbxxxkxbbxxxxxxFjkbbnbXjbbbbkbbMkxxkxxxxx",
"xbbxxxxxxxbjbbbbbkvkjbbbxxxxTxbbxxxzxbjjbbbkbojbkbbkkjkTxxxbbxxx",
"xbbxxxxbbbkkbbbbbbbkbbbxxkxxxbbbxxxbTTZbbbvnbojbbboojkjojbbbbbxx",
"xbbbxxbkbbkbbzbbbbbbxxxxxTxxxxbbkTTT![[TkbbvTojbbzTkTbbjbbbbkbxx",
"xxbxxxbbbb okkkMkbbTkxzxxjzxxxkbxxlW]]]!TbTbk<jbxxxjkjjbbkbbMbxx",
"TbxbxxxMkjdkbbjkbkbzjjjjjjTkxxbbbj0/][[WojkooMbMxxxjjxkbxbbkMMxx",
"kxbbxxxzdbMbkMbkjkkjjxTbxbxkxxbbTowuaLYy okdjbkMxxxxjTxxTMMMMkxx",
"xbkbbxxjTbxxMMMMTkbbTxxkxxxTxxxkbj$O;O;XkMbbkMMMxxxjjkxxbkMMMMxx",
"xxkxbxxjbkbbxbMMxbbTkxxxxxxxxxxbbbkoX:jjMMbzokMbbxjjxxxxxxxxxbxx",
"xxbbxbzzTxkxMMMkMkbkxxxxxxxxxxxbbkxxkTxbMMzxbzMkjjXzxxxxxxxxTkxx",
"xxbxbjzxxbbxxbMMMxkkxxxxxxxxxxxxxkTxxjxMMbxbTbTxxxjjTkxxxxxxxxxx",
"xxxbk<TxxxxMxxMxMMMxxxxxxxxxxxkbMMbkkkxxMxxxkkbkxkTljjkxxxxxxxxx",
"xxbxjjxxxxxxxxbxxMxxxxxxxxxxxxxMbxjjkxxbMxxxxxxbxxxxkxjjTkxxxxxx",
"xxxkkxxxxxbxxxxxMxMxTxkMTkxxxxxxxxxxxxxxxxMxbxxkxxxxkTxxxxxxxxxx",
"xxxkkxxxxxxxxxxxxxxxbbbbbxxxxxxMxxxxTbkkxxkxxkkTbbbxbbMkxxxxxxxx",
"xxxxTxxxxxxxxxxxkkTMbkvvbbbxxzzMxxxxxxTxxxbTzjkkbbbbbnbTxxxxxxxx",
"xxbxxxxxxxxxxxxxkMxbbbbkkbkkjkxxxxxxxxxxxxxxxxxTbkbbkbkbbxxkxxxx",
"FxxxxxxxxxxxxFFFTbbbbbojkkkbbbMkxxxxxxxxxxxxxxkbbbbbkbbbbbbTxxxx",
"xxxkxxxxxxxkjjjjkbvkbjjbbbbbbbbTxxxxxxxxxxxxkbbbkbxbbbkbbkbbxxxx",
"FMkTxxxxxxkTzjzjkokTbkbzbbxMkMbbxxxxxxxxxxxxTMbbbbbMbTbbbbbbbxxx",
"xkjxxxxxxxxxFFFbbkjXkbbbMkbxxbbkbxZZZxxxxxxxbbMMMbkTE'[_xbbbMMTk",
"xxkxxxxxxxxxxFbxxbM<jMMzMbxbbMMbTQTZTlxxxxMkbMkbbkb</{['TMxxbMxx",
"xxkxxxxxxxxFxbxbMkMMjxbbMMbMxbxb:/[ExxTkxxMbxbxxxzbXrWWLjMkkkTxx",
"bTTxxxxxxxxxxxxxMMMMjkxxMMkbjTxx :LJxxxkxxMMxMxbMMToww0:bkj<<kkx",
"jW[ETkxxxxxxxxbxMMMxjMMMMMMMxxxFkXXkxxxxxxMMkxxbMbTk O:jbxxxxxjk",
" r'}TzxxxxxxxxxxMMkxjxxxMxkTxxxxxxTxxxxkkxxxxxxxxxbkkjlTxxxxxxxx",
" Oy/TxxxxxxxxxxxxxxxkTxMxxMMxxxxxxxxTxxkjxbkbxxxMMxxxbxxTxxxxxxx",
"T +:xFxxxxxxxxxxxxxxxkxxxxxxxxxxxxxxkxxxxxxTxxkTkkTxxxxxxxxxxxxx"
};
