/* XPM */
static char *Rock1_2[] = {
/* columns rows colors chars-per-pixel */
"64 64 8 1 ",
"  c #403330",
". c #635350",
"X c #665653",
"o c #917D72",
"O c #C1AB93",
"+ c #E2D5B9",
"@ c #F6EBC9",
"# c None",
/* pixels */
"################################################################",
"################################################################",
"################################################################",
"################################################################",
"################################################################",
"################################################################",
"################################################################",
"################################################################",
"################################################################",
"############################  ##################################",
"#########################   OO  ###   ##########################",
"#######################  +++++OO   OOO  ########################",
"#####################  ++++++++@OO+++OOO #######################",
"#################### O++++++++++o++++++OO ######################",
"################### O+++++++++++Oo+++++++O #####################",
"################## O+++++++++++++oO@++++++O ####################",
"################## O+++++++++++++OoOO@@++OO ####################",
"################# O++++++++++++++Ooo+OOOOOOO ###################",
"################# O@++++++++++++@+OXoOOOOOOO ###################",
"################# O@+++++++++++@OOOXXo+OOOOo ###################",
"################# O@+++++++++OOOooooXoo+OOOo ###################",
"################# o@++++++++++++++OoXXoo++oo ###################",
"################# o@++++++++++++++OOoXXXoooX ###################",
"################# o@@++++++++++++++OoXooooX  ###################",
"################# oo@++++++++++++++OoooOOOOO ###################",
"################# oo@@+++++++++++++OoOO++++OO ##################",
"################# Xoo@@++++++++++@OOOO++++++O ##################",
"################# Xoo@@+++++++++@OOO+++++++++O #################",
"################# XXoo@@+++++++@OOO++++++++++O #################",
"#################  Xooo@@+++++@OOo++++++++++Oo #################",
"################# oooooo@@+++@OOo+++++++++++Oo #################",
"################ ooOOoooo@@+@OOo++++++++++++Oo #################",
"################ o+OOOooooo@OOoo+++++O++++@Ooo #################",
"################ o+OOOOooXoooXO++++++O+++@+ooX #################",
"################ Xo+OOOOOoXXXoO++++++OO++@OooX #################",
"################ Xoo+OOOOOOoXoO@+++++oO+@OooXX #################",
"################ XXoo++OOOOOoXOO@++++oOOOoooXX #################",
"################ XXXooo++OO+oXXO@+++OXOOooooXX #################",
"################ XXXXoooo++ooXXXO@+@ooOooooXoX #################",
"################ XXXXXXooooooXXXXO@oXooooooooX #################",
"################ XXXXXXXooooXXXXXXoXoooooOooXX #################",
"################ XXXXXXXoooooXXXXXXXooooOOooXX #################",
"################ XXXXXXXXoooo.XXXXXXoooOOooXX ##################",
"################ XXXXXXXXXoOo.XXXXXXoooooooXX ##################",
"################ XXXXXXXooOoo.XXXXXXXoooooXX ###################",
"################# XXXXXXoOOoo.XXXXXXXXoooXXX ###################",
"################## XXXXXoooo .XXXXXXooooXXX ####################",
"################### XXXXXooX  XXXXXXoooXXX #####################",
"####################  XXXXX # XXXXXXXoXXX ######################",
"######################     ### XXXXXXXXX #######################",
"############################### XXXXXX  ########################",
"################################      ##########################",
"################################################################",
"################################################################",
"################################################################",
"################################################################",
"################################################################",
"################################################################",
"################################################################",
"################################################################",
"################################################################",
"################################################################",
"################################################################",
"################################################################"
};
