/* XPM */
static char *Green_crystal2[] = {
/* columns rows colors chars-per-pixel */
"64 64 11 1 ",
"  c #172325",
". c #192C2E",
"X c #1C3739",
"o c #463736",
"O c #214A48",
"+ c #2C6656",
"@ c #584642",
"# c #64514C",
"$ c #458D6C",
"% c #5DB975",
"& c None",
/* pixels */
"&&&&&&&&&&&&&&&&&&&&&&&&&&&&&&&&&&&&&&&&&&&&&&&&&&&&&&&&&&&&&&&&",
"&&&&&&&&&&&&&&&&&&&&&&&&&&&&&&&&&&&&&&&&&&&&&&&&&&&&&&&&&&&&&&&&",
"&&&&&&&&&&&&&&&&&&&&&&&&&&&&&&&&&&&&&&&&&&&&&&&&&&&&&&&&&&&&&&&&",
"&&&&&&&&&&&&&&&&&&&&&&&&&&&&&&&&&&&&&&&&&&&&&&&&&&&&&&&&&&&&&&&&",
"&&&&&&&&&&&&&&&&&&&&&&&&&&&&&&&&&&&&&&&&&&&&&&&&&&&&&&&&&&&&&&&&",
"&&&&&&&&&&&&&&&&&&&&&&&&&&&&&&&&&&&&&&&&&&&&&&&&&&&&&&&&&&&&&&&&",
"&&&&&&&&&&&&&&&&&&&&&&&&&&&&&&&&&&&&&&&&&&&&&&&&&&&&&&&&&&&&&&&&",
"&&&&&&&&&&&&&&&&&&&&&&&&&&&&&&&&&&&&&&&&&&&&&&&&&&&&&&&&&&&&&&&&",
"&&&&&&&&&&&&&&&&&&&&&&&&&&&&&&&&&&&&&&&&&&&&&&&&&&&&&&&&&&&&&&&&",
"&&&&&&&&&&&&&&&&&&&&&&&&&&&&&&&&&&&&&&&&&&&&&&&&&&&&&&&&&&&&&&&&",
"&&&&&&&&&&&&&&&&&&&&&&&&&&&&&&&&&&&&&&&&&&&&&&&&&&&&&&&&&&&&&&&&",
"&&&&&&&&&&&&&&&&&&&&&&&&&&&&&&&&&&&&&&&&&&&&&&&&&&&&&&&&&&&&&&&&",
"&&&&&&&&&&&&&&&&&&&&&&&&&&&&&&&&&&&&&&&&&&&&&&&&&&&&&&&&&&&&&&&&",
"&&&&&&&&&&&&&&&&&&&&&&&&&&&&&&&&&&&&&&&&&&&&&&&&&&&&&&&&&&&&&&&&",
"&&&&&&&&&&&&&&&&&&&&&&&&&&&&&&&&&&&&&&&&&&&&&&&&&&&&&&&&&&&&&&&&",
"&&&&&&&&&&&&&&&&&&&&&&&&&&&&&&&&&&&&&&&&&&&&&&&&&&&&&&&&&&&&&&&&",
"&&&&&&&&&&&&&&&&&&&&&&&&&&&&&&&&&    &&&&&&&&&&&&&&&&&&&&&&&&&&&",
"&&&&&&&&&&&&&&&&&&&&&&&&&&&&&&&  +$$$ &&&&&&&&&&&&&&&&&&&&&&&&&&",
"&&&&&&&&&&&&&&&&&&&&&&&&&&&&&& OO+%$++ &&&&&&&&&&&&&&&&&&&&&&&&&",
"&&&&&&&&&&&&&&&&&&&&&&&&&&&&& +O$%%%$O$ &&&&&&&&&&&&&&&&&&&&&&&&",
"&&&&&&&&&&&&&&&&&&&&&&   &&& +OO$$%$$+O$ &&&&&&&&&&&&&&&&&&&&&&&",
"&&&&&&&&&&&&&&&&&&&&& O+$ & +OO$+$$$++OO$ &&&&&&&&&&&&&&&&&&&&&&",
"&&&&&&&&&&&&&&&&&&&& +OO+$ ++OO$+++++O+O$ &&&&&&&&&&&&&&&&&&&&&&",
"&&&&&&&&&&&&&&&&&&& +OOO++O+OO$%+$++O++OOO &&&&&&&&&&&&&&&&&&&&&",
"&&&&&&&&&&&&&&&&&& +OO+O$+O+OO$$$++O++OOOOO &&&&&&&&&&&&&&&&&&&&",
"&&&&&&&&&&&&&&&&& $+OOOO+OOOOX$$++O$+OOOO+O &&&&&&&&&&&&&&&&&&&&",
"&&&&&&&&&&&&&&&&& +OOOOX+OOOXXX$++$+OO+OX+$% &&&&&&&&&&&&&&&&&&&",
"&&&&&&&&&&&&&&&& XOO+OOXXOOXXX.$$$+OO+OO+++$$ &&&&&&&&&&&&&&&&&&",
"&&&&&&&&&&&&&&&& XXOOOXXX.XXX...$+OO++OX+O+$O &&&&&&&&&&&&&&&&&&",
"&&&&&&&&&&&&&&&& .X...XOX..X..X..OO++OX+O++OO &&&&&&&&&&&&&&&&&&",
"&&&&&&&&&&&&&&&@ ....XOXXX.......XXXOOXOO+OOO &&&&&&&&&&&&&&&&&&",
"&&&&&&&&&&&&&&@o ...XOXXXO++$$..XXXXOXXO+OO+O &&&&&&&&&&&&&&&&&&",
"&&&&&&&&&&&&&@@o ..XXXXXO++O+$%.XXXOXXO+XXXOO &&&&&&&&&&&&&&&&&&",
"&&&&&&&&&&&&@@@oo .XXXXOO+O++O$$XXXXXXXXXXOXO @&&&&&&&&&&&&&&&&&",
"&&&&&&&&&&&&@@#@o ..XXXO+OO$+O$$.XXXXX.XOXXXX @&&&&&&&&&&&&&&&&&",
"&&&&&&&&&&&&@###oo ..XOOOO+++O$$$XXXX..XXXX. o@&&&&&&&&&&&&&&&&&",
"&&&&&&&&&&&&@###@oo  X.OO+++OXO$O.XX..XX+$.. @@&&&&&&&&&&&&&&&&&",
"&&&&&&&&&&&&@@#@@@@oo .XXO+OOXXOOO.....+++$ o@&&&&&&&&&&&&&&&&&&",
"&&&&&&&&&&&&&@@@@@@@o ..XX...XXO+O..X.OO+++O &&&&&&&&&&&&&&&&&&&",
"&&&&&&&&&&&&&&@@@@#@o ..X...XXOXOO....OOO+XO &&&&&&&&&&&&&&&&&&&",
"&&&&&&&&&&&&&&&@@###o .....XXOXX.O.....OOXXX @&&&&&&&&&&&&&&&&&&",
"&&&&&&&&&&&&&&&&&@#@o .....XXXXX..    ...XX #@&&&&&&&&&&&&&&&&&&",
"&&&&&&&&&&&&&&&&&@@@oo ...XXXXXX. oooo ..X o@@&&&&&&&&&&&&&&&&&&",
"&&&&&&&&&&&&&&&&&@@@@o .X..XXXX. o@@#@o   o@@&&&&&&&&&&&&&&&&&&&",
"&&&&&&&&&&&&&&&&&&@@@@o ....XX. o@@@@@@ooo@@&&&&&&&&&&&&&&&&&&&&",
"&&&&&&&&&&&&&&&&&&&@@##o  .... o@@&&&@@@@@&&&&&&&&&&&&&&&&&&&&&&",
"&&&&&&&&&&&&&&&&&&&&@@#@oo    o@&&&&&&&&&&&&&&&&&&&&&&&&&&&&&&&&",
"&&&&&&&&&&&&&&&&&&&&&@@@@@oooo@&&&&&&&&&&&&&&&&&&&&&&&&&&&&&&&&&",
"&&&&&&&&&&&&&&&&&&&&&&&@@@@@@&&&&&&&&&&&&&&&&&&&&&&&&&&&&&&&&&&&",
"&&&&&&&&&&&&&&&&&&&&&&&&&&&&&&&&&&&&&&&&&&&&&&&&&&&&&&&&&&&&&&&&",
"&&&&&&&&&&&&&&&&&&&&&&&&&&&&&&&&&&&&&&&&&&&&&&&&&&&&&&&&&&&&&&&&",
"&&&&&&&&&&&&&&&&&&&&&&&&&&&&&&&&&&&&&&&&&&&&&&&&&&&&&&&&&&&&&&&&",
"&&&&&&&&&&&&&&&&&&&&&&&&&&&&&&&&&&&&&&&&&&&&&&&&&&&&&&&&&&&&&&&&",
"&&&&&&&&&&&&&&&&&&&&&&&&&&&&&&&&&&&&&&&&&&&&&&&&&&&&&&&&&&&&&&&&",
"&&&&&&&&&&&&&&&&&&&&&&&&&&&&&&&&&&&&&&&&&&&&&&&&&&&&&&&&&&&&&&&&",
"&&&&&&&&&&&&&&&&&&&&&&&&&&&&&&&&&&&&&&&&&&&&&&&&&&&&&&&&&&&&&&&&",
"&&&&&&&&&&&&&&&&&&&&&&&&&&&&&&&&&&&&&&&&&&&&&&&&&&&&&&&&&&&&&&&&",
"&&&&&&&&&&&&&&&&&&&&&&&&&&&&&&&&&&&&&&&&&&&&&&&&&&&&&&&&&&&&&&&&",
"&&&&&&&&&&&&&&&&&&&&&&&&&&&&&&&&&&&&&&&&&&&&&&&&&&&&&&&&&&&&&&&&",
"&&&&&&&&&&&&&&&&&&&&&&&&&&&&&&&&&&&&&&&&&&&&&&&&&&&&&&&&&&&&&&&&",
"&&&&&&&&&&&&&&&&&&&&&&&&&&&&&&&&&&&&&&&&&&&&&&&&&&&&&&&&&&&&&&&&",
"&&&&&&&&&&&&&&&&&&&&&&&&&&&&&&&&&&&&&&&&&&&&&&&&&&&&&&&&&&&&&&&&",
"&&&&&&&&&&&&&&&&&&&&&&&&&&&&&&&&&&&&&&&&&&&&&&&&&&&&&&&&&&&&&&&&",
"&&&&&&&&&&&&&&&&&&&&&&&&&&&&&&&&&&&&&&&&&&&&&&&&&&&&&&&&&&&&&&&&"
};
