/* XPM */
static char *Violet_crystal1[] = {
/* columns rows colors chars-per-pixel */
"64 64 17 1 ",
"  c #1E1D33",
". c #3B2C2C",
"X c #4B3936",
"o c #56433E",
"O c #292545",
"+ c #372E5B",
"@ c #4A376C",
"# c #4A3B72",
"$ c #6E5195",
"% c #75569C",
"& c #9267B2",
"* c #9663B9",
"= c #B267C9",
"- c #AF72C9",
"; c #CC95D6",
": c #E6B0E6",
"> c None",
/* pixels */
">>>>>>>>>>>>>>>>>>>>>>>>>>>>>>>>>>>>>>>>>>>>>>>>>>>>>>>>>>>>>>>>",
">>>>>>>>>>>>>>>>>>>>>>>>>>>>>>>>>>>>>>>>>>>>>>>>>>>>>>>>>>>>>>>>",
">>>>>>>>>>>>>>>>>>>>>>>>>>>>>>>>>>>>>>>>>>>>>>>>>>>>>>>>>>>>>>>>",
">>>>>>>>>>>>>>>>>>>>>>>>>>>>>>>>>>>>>>>>>>>>>>>>>>>>>>>>>>>>>>>>",
">>>>>>>>>>>>>>>>>>>>>>>>>>>>>>>>>>>>>>>>>>>>>>>>>>>>>>>>>>>>>>>>",
">>>>>>>>>>>>>>>>>>>>>>>>>>>>>>>>>>>>>>>>>>>>>>>>>>>>>>>>>>>>>>>>",
">>>>>>>>>>>>>>>>>>>>>>>>>>>>>>>>>>>>>>>>>>>>>>>>>>>>>>>>>>>>>>>>",
">>>>>>>>>>>>>>>>>>>>>>>>>>>>>>>>>>>>>>>>>>>>>>>>>>>>>>>>>>>>>>>>",
">>>>>>>>>>>>>>>>>>>>>>>>>>>>>>>>>>>>>>>>>>>>>>>>>>>>>>>>>>>>>>>>",
">>>>>>>>>>>>>>>>>>>>>>>>>>>>>>>>>>>>>>>>>>>>>>>>>>>>>>>>>>>>>>>>",
">>>>>>>>>>>>>>>>>>>>>   >>>>>>>>>>>>>>>>>>>>>>>>>>>>>>>>>>>>>>>>",
">>>>>>>>>>>>>>>>>>>>> :;  >>>>>>>>>>>>>>>>>>>>>>>>>>>>>>>>>>>>>>",
">>>>>>>>>>>>>>>>>>>> ::;;;  >>>>>>>>>>>>>>>>>>>>>>>>>>>>>>>>>>>>",
">>>>>>>>>>>>>>>>>>>> :;;-;;;  >>>>>>>>>>>>>>>>>>>>>>>>>>>>>>>>>>",
">>>>>>>>>>>>>>>>>>> $;;------;   >>>>>>>>>>>>>>>>>>>>>>>>>>>>>>>",
">>>>>>>>>>>>>>>>>>> $$;-:------&-  >>>>>>>>>>>>>>>>>>>>>>>>>>>>>",
">>>>>>>>>>>>>>>>>> $$$-------&&&&&-  >>>>>>>>>      >>>>>>>>>>>>",
">>>>>>>>>>>>>>>>>> *$$----&&&&&&&&&&- >>>>    ;;---& >>>>>>>>>>>",
">>>>>>>>>>>>>>>>> $$$$$--&&&&=&&;&&&& >>> --;;---&&$ >>>>>>>>>>>",
">>>>>>>>>>>>>>>>> $###$--&&&;&&;;;&&&& > ##--&&&&&&$ >>>>>>>>>>>",
">>>>>>>>>>>>>>>>> #%####--&&&&&&;&&=&&  #%#&&&;&&&$$ >>>>>>>>>>>",
">>>>>>>>>>>>>>>> +######---&&&&&&&&&&& ####&&=&&&&$$ >>>>>>>>>>>",
">>>>>>>>>>>>>>>> +######-$$-&&&*=&*&&&$#####&&&=&$$$$ >>>>>>>>>>",
">>>>>>>>>>>>>>> ++##*###$$$$$&&&&*;&&&$#*###&;&&&$$$$ >>>>>>>>>>",
">>>>>>>>>>>>>>> +######$$$$$$$&&&&&&&$$#####&&&&$$$=$ >>>>>>>>>>",
">>>>>>>>>>>>>> ++##%###$$$$$$=$&&&&&&$$####$&&&&$$$$$ >>>>>>>>>>",
">>>>>>>>>>>>>> ++*#####$$$$$$$$$&&&&$$$#%##$+++&$$*$$ >>>>>>>>>>",
">>>>>>>>>>>>>> ++#####$$*$$$$$$#$$$$$$$$##$+++++&$$$* >>>>>>>>>>",
">>>>>>>>>>>>>>> +#####$$$$$$$$$#$$$$$*$$#++++++++$$$$ >>>>>>>>>>",
">>>>>>>>>>>>>>> ++%###$$=$*$$*$$#$$$$$$$#++++@++++$$ >>>>>>>>>>>",
">>>>>>>>>>>>>>> ++####$===$$$$$$##$$$$%&#++++++%++OO >>>>>>>>>>>",
">>>>>>>>>>>>>>>> +$##%$$=$$$$$$$####&&&&##+++++++OO >>>>>>>>>>>>",
">>>>>>>>>>>>>>>> +$$##$$$$$=$$$+######&&##++@+++OO >>>>>>>>>>>>>",
">>>>>>>>>>>>>>>  ++$##+$$$$$$$&##########%#++++OO >>>>>>>>>>>>>>",
">>>>>>>>>>>>>  $$#++$##+$&&$$&+###*#########+OOO >>>>>>>>>>>>>>>",
">>>>>>>>>>>> &&$###+++#+++&&&&+###########&---; XX>>>>>>>>>>>>>>",
">>>>>>>>>>>>> OO####++++++++&++#%########&&&&--- XX>>>>>>>>>>>>>",
">>>>>>>>>>>>> OOOOOO+++++++@++#####%##*#+&-&=&$$ XXX>>>>>>>>>>>>",
">>>>>>>>>>>>>> OOOOOO++%++++++##########+&&&$$$$ XXX>>>>>>>>>>>>",
">>>>>>>>>>>>>>> OO@OOO++++++++####%#####++$$$=$$ .XX>>>>>>>>>>>>",
">>>>>>>>>>>>>>> OOOOOO+++++++++########+++$$$$$$ .X>>>>>>>>>>>>>",
">>>>>>>>>>>>>>XX    OOO++@+++++#######+++++$$$$$ .X>>>>>>>>>>>>>",
">>>>>>>>>>>>>XXX.... OO+++++%++#*###%#+++++$$=$$ X>>>>>>>>>>>>>>",
">>>>>>>>>>>>XXXXXXX.. OO++++++++$#*###+++++##$$ .X>>>>>>>>>>>>>>",
">>>>>>>>>>>>XXoooXX.. OO+%++++++$#####+@+++##O$ X>>>>>>>>>>>>>>>",
">>>>>>>>>>>>XoooooXX.. OOO+++@++%$%###+++@#+OO .X>>>>>>>>>>>>>>>",
">>>>>>>>>>>XXooooooXX. OOOO++++++$$###+++++OO .XX>>>>>>>>>>>>>>>",
">>>>>>>>>>XXXXooooXXXX.  OOOO++++%$##*#++OOO .XXX>>>>>>>>>>>>>>>",
">>>>>>>>>>>XXXXXXXXXoXX..  OOO+++%%####OOOO .XXX>>>>>>>>>>>>>>>>",
">>>>>>>>>>>>>XXXXXXoooXXo..  OO+++%%#++    .XXX>>>>>>>>>>>>>>>>>",
">>>>>>>>>>>>>>>XXXooooXoooX..  OO+%#++ ....XXX>>>>>>>>>>>>>>>>>>",
">>>>>>>>>>>>>>>>XXXooXXXoXXXX..  OO+  .XoXXXX>>>>>>>>>>>>>>>>>>>",
">>>>>>>>>>>>>>>>>XXXXXXXXXXooXX..   ..XoooX>>>>>>>>>>>>>>>>>>>>>",
">>>>>>>>>>>>>>>>>>>XXXXXXXooooXXX...XXXXoX>>>>>>>>>>>>>>>>>>>>>>",
">>>>>>>>>>>>>>>>>>>>>XXXXXoooooXXXXXXXXX>>>>>>>>>>>>>>>>>>>>>>>>",
">>>>>>>>>>>>>>>>>>>>>>>>>XXoooXXXXXXXX>>>>>>>>>>>>>>>>>>>>>>>>>>",
">>>>>>>>>>>>>>>>>>>>>>>>>>>>>>>>>>>>>>>>>>>>>>>>>>>>>>>>>>>>>>>>",
">>>>>>>>>>>>>>>>>>>>>>>>>>>>>>>>>>>>>>>>>>>>>>>>>>>>>>>>>>>>>>>>",
">>>>>>>>>>>>>>>>>>>>>>>>>>>>>>>>>>>>>>>>>>>>>>>>>>>>>>>>>>>>>>>>",
">>>>>>>>>>>>>>>>>>>>>>>>>>>>>>>>>>>>>>>>>>>>>>>>>>>>>>>>>>>>>>>>",
">>>>>>>>>>>>>>>>>>>>>>>>>>>>>>>>>>>>>>>>>>>>>>>>>>>>>>>>>>>>>>>>",
">>>>>>>>>>>>>>>>>>>>>>>>>>>>>>>>>>>>>>>>>>>>>>>>>>>>>>>>>>>>>>>>",
">>>>>>>>>>>>>>>>>>>>>>>>>>>>>>>>>>>>>>>>>>>>>>>>>>>>>>>>>>>>>>>>",
">>>>>>>>>>>>>>>>>>>>>>>>>>>>>>>>>>>>>>>>>>>>>>>>>>>>>>>>>>>>>>>>"
};
