/* XPM */
static char *Violet_crystal2[] = {
/* columns rows colors chars-per-pixel */
"64 64 17 1 ",
"  c #1E1D33",
". c #3B2C2C",
"X c #4B3936",
"o c #56433E",
"O c #292545",
"+ c #372E5B",
"@ c #4A376C",
"# c #4A3B72",
"$ c #6E5195",
"% c #75569C",
"& c #9267B2",
"* c #9663B9",
"= c #B267C9",
"- c #AF72C9",
"; c #CC95D6",
": c #E6B0E6",
"> c None",
/* pixels */
">>>>>>>>>>>>>>>>>>>>>>>>>>>>>>>>>>>>>>>>>>>>>>>>>>>>>>>>>>>>>>>>",
">>>>>>>>>>>>>>>>>>>>>>>>>>>>>>>>>>>>>>>>>>>>>>>>>>>>>>>>>>>>>>>>",
">>>>>>>>>>>>>>>>>>>>>>>>>>>>>>>>>>>>>>>>>>>>>>>>>>>>>>>>>>>>>>>>",
">>>>>>>>>>>>>>>>>>>>>>>>>>>>>>>>>>>>>>>>>>>>>>>>>>>>>>>>>>>>>>>>",
">>>>>>>>>>>>>>>>>>>>>>>>>>>>>>>>>>>>>>>>>>>>>>>>>>>>>>>>>>>>>>>>",
">>>>>>>>>>>>>>>>>>>>>>>>>>>>>>>>>>>>>>>>>>>>>>>>>>>>>>>>>>>>>>>>",
">>>>>>>>>>>>>>>>>>>>>>>>>>>>>>>>>>>>>>>>>>>>>>>>>>>>>>>>>>>>>>>>",
">>>>>>>>>>>>>>>>>>>>>>>>>>>>>>>>>>>>>>>>>>>>>>>>>>>>>>>>>>>>>>>>",
">>>>>>>>>>>>>>>>>>>>>>>>>>>>>>>>>>>>>>>>>>>>>>>>>>>>>>>>>>>>>>>>",
">>>>>>>>>>>>>>>>>>>>>>>>>>>>>>>>>>>>>>>>>>>>>>>>>>>>>>>>>>>>>>>>",
">>>>>>>>>>>>>>>>>>>>>>>>>>>>>>>>>>>>>>>>>>>>>>>>>>>>>>>>>>>>>>>>",
">>>>>>>>>>>>>>>>>>>>>>>>>>>>>>>>>>>>>>>>>>>>>>>>>>>>>>>>>>>>>>>>",
">>>>>>>>>>>>>>>>>>>>>>>>>>>>>>>>>>> >>>>>>>>>>>>>>>>>>>>>>>>>>>>",
">>>>>>>>>>>>>>>>>>>>>>>>>>>>>>>>>  : >>>>>>>>>>>>>>>>>>>>>>>>>>>",
">>>>>>>>>>>>>>>>>>>>>>>>>>>>>>>  --:; >>>>>>>>>>>>>>>>>>>>>>>>>>",
">>>>>>>>>>>>>>>>>>>>>>>>>>>>>> -$$:;;- >>>>>>>>>>>>>>>>>>>>>>>>>",
">>>>>>>>>>>>>>>>>>>>>>>>>>>>  $$$$;;--- >>>>>>>>>>>>>>>>>>>>>>>>",
">>>>>>>>>>>>>>>>>>>>>>>>>>> $$###$;--:- >>>>>>>>>>>>>>>>>>>>>>>>",
">>>>>>>>>>>>>>>>>>>>>>>>>  ######------- >>>>>>>>>>>>>>>>>>>>>>>",
">>>>>>>>>>>>>>>>>>>>>>>> +#######-&&&--; >>>>>>>>>>>>>>>>>>>>>>>",
">>>>>>>>>>>>>>>>>>>>>>> +###*###-&&&&&--- >>>>>>>>>>>>>>>>>>>>>>",
">>>>>>>>>>>>>       >> ++######-&&&&&&&-- >>>>>>>>>>>>>>>>>>>>>>",
">>>>>>>>>>>>> &&$$##  ++#*#####-&&;&&=&&-- >>>>>>>>>>>>>>>>>>>>>",
">>>>>>>>>>>>> +$$####+++##@###--&&&&&&&&&& >>>>>>>>>>>>>>>>>>>>>",
">>>>>>>>>>>>> ++#####++####%#-$$-&&=&&&;&&& >>>>>>>>>>>>>>>>>>>>",
">>>>>>>>>>>>> +++O###+$%@###$$$=$&&&&&;;;&& >>>>>>>>>>>>>>>>>>>>",
">>>>>>>>>>>>> ++++OO++$####$$$$$$&&&&&*;&=& >>>>>>>>>>>>>>>>>>>>",
">>>>>>>>>>>>> +@+@+OO$$###$$$$$*$$&&&&&&&&& >>>>>>>>>>>>>>>>>>>>",
">>>>>>>>>>>>> +++++OO$$*#$$$=$$$$$&&&=&&&&$$      >>>>>>>>>>>>>>",
">>>>>>>>>>>>>> OOOOOO+###$$===$$$$&&&&&&&$$$$&--;; >>>>>>>>>>>>>",
">>>>>>>>>>>>>> OOOOOO++###$$=$$$$$$&&&&&$$$$&&&&-- >>>>>>>>>>>>>",
">>>>>>>>>>>>>>> O@OOO+++++$$$$$$=$#$&&$$$*$$&&&&&$ >>>>>>>>>>>>>",
">>>>>>>>>>>>>>>> OOOO+++++&&$*$$$$#$$$$$$$$&&&&&$$ >>>>>>>>>>>>>",
">>>>>>>>>>>>>>>>> OOO++++++&&$$$&###$$$$$$$&&&$$$$ >>>>>>>>>>>>>",
">>>>>>>>>>>>>>>XX OOO+%+++++&&&&+###$$$*$$&$$$$$* >>>>>>>>>>>>>>",
">>>>>>>>>>>>>XXX.. OO++++++++&++####&$$$$+$$$$$$$ >>>>>>>>>>>>>>",
">>>>>>>>>>>>>XXoX.. O++++@+++++#####&$$++++++$$$ >>>>>>>>>>>>>>>",
">>>>>>>>>>>>>>oooX.. O+++++++++##*###++++++++++$ >>>>>>>>>>>>>>>",
">>>>>>>>>>>>>>XoXXX. O+@++++++######+++++++OOO  >>>>>>>>>>>>>>>>",
">>>>>>>>>>>>>>>XooX. OO++++%++####%##++++OOO  X>>>>>>>>>>>>>>>>>",
">>>>>>>>>>>>>>Xoooo. OO+++++++#%#####*#+OO  ..XX>>>>>>>>>>>>>>>>",
">>>>>>>>>>>>>XoooooX. O++%++++##########+ ..XoXXX>>>>>>>>>>>>>>>",
">>>>>>>>>>>>>XoooooX. OO++++++%#######+++ .XoooX>>>>>>>>>>>>>>>>",
">>>>>>>>>>>>>XXoooXX. OOOO++++%##*###++  .XXXoX>>>>>>>>>>>>>>>>>",
">>>>>>>>>>>>>>XXXXXXX.  OOO++%%$####++ ..XXX>>>>>>>>>>>>>>>>>>>>",
">>>>>>>>>>>>>>XXXoXXXX..  OO+%%$##++  .XXXX>>>>>>>>>>>>>>>>>>>>>",
">>>>>>>>>>>>>>>XoooXXXoX..  OO%#++  ..XXXX>>>>>>>>>>>>>>>>>>>>>>",
">>>>>>>>>>>>>>>>XoXXXoooXX..  ++  ..XoXXX>>>>>>>>>>>>>>>>>>>>>>>",
">>>>>>>>>>>>>>>>>>XXXooooXXX..  ..XXooo>>>>>>>>>>>>>>>>>>>>>>>>>",
">>>>>>>>>>>>>>>>>>>>XXoooXXXXX..XXXXX>>>>>>>>>>>>>>>>>>>>>>>>>>>",
">>>>>>>>>>>>>>>>>>>>>>XXXXXXXXXXXX>>>>>>>>>>>>>>>>>>>>>>>>>>>>>>",
">>>>>>>>>>>>>>>>>>>>>>>>>>>>>>>>>>>>>>>>>>>>>>>>>>>>>>>>>>>>>>>>",
">>>>>>>>>>>>>>>>>>>>>>>>>>>>>>>>>>>>>>>>>>>>>>>>>>>>>>>>>>>>>>>>",
">>>>>>>>>>>>>>>>>>>>>>>>>>>>>>>>>>>>>>>>>>>>>>>>>>>>>>>>>>>>>>>>",
">>>>>>>>>>>>>>>>>>>>>>>>>>>>>>>>>>>>>>>>>>>>>>>>>>>>>>>>>>>>>>>>",
">>>>>>>>>>>>>>>>>>>>>>>>>>>>>>>>>>>>>>>>>>>>>>>>>>>>>>>>>>>>>>>>",
">>>>>>>>>>>>>>>>>>>>>>>>>>>>>>>>>>>>>>>>>>>>>>>>>>>>>>>>>>>>>>>>",
">>>>>>>>>>>>>>>>>>>>>>>>>>>>>>>>>>>>>>>>>>>>>>>>>>>>>>>>>>>>>>>>",
">>>>>>>>>>>>>>>>>>>>>>>>>>>>>>>>>>>>>>>>>>>>>>>>>>>>>>>>>>>>>>>>",
">>>>>>>>>>>>>>>>>>>>>>>>>>>>>>>>>>>>>>>>>>>>>>>>>>>>>>>>>>>>>>>>",
">>>>>>>>>>>>>>>>>>>>>>>>>>>>>>>>>>>>>>>>>>>>>>>>>>>>>>>>>>>>>>>>",
">>>>>>>>>>>>>>>>>>>>>>>>>>>>>>>>>>>>>>>>>>>>>>>>>>>>>>>>>>>>>>>>",
">>>>>>>>>>>>>>>>>>>>>>>>>>>>>>>>>>>>>>>>>>>>>>>>>>>>>>>>>>>>>>>>",
">>>>>>>>>>>>>>>>>>>>>>>>>>>>>>>>>>>>>>>>>>>>>>>>>>>>>>>>>>>>>>>>"
};
