/* XPM */
static char *White_crystal1[] = {
/* columns rows colors chars-per-pixel */
"64 64 11 1 ",
"  c #3B2C2C",
". c #4B3936",
"X c #56433E",
"o c #373B46",
"O c #606C7E",
"+ c #778C9D",
"@ c #94B3C3",
"# c #B3DBE6",
"$ c #CEF8F9",
"% c #EAFFFF",
"& c None",
/* pixels */
"&&&&&&&&&&&&&&&&&&&&&&&&&&&&&&&&&&&&&&&&&&&&&&&&&&&&&&&&&&&&&&&&",
"&&&&&&&&&&&&&&&&&&&&&&&&&&&&&&&&&&&&&&&&&&&&&&&&&&&&&&&&&&&&&&&&",
"&&&&&&&&&&&&&&&&&&&&&&&&&&&&&&&&&&&&&&&&&&&&&&&&&&&&&&&&&&&&&&&&",
"&&&&&&&&&&&&&&&&&&&&&&&&&&&&&&&&&&&&&&&&&&&&&&&&&&&&&&&&&&&&&&&&",
"&&&&&&&&&&&&&&&&&&&&&&&&&&&&&&&&&&&&&&&&&&&&&&&&&&&&&&&&&&&&&&&&",
"&&&&&&&&&&&&&&&&&&&&&&&&&&&&&&&&&&&&&&&&&&&&&&&&&&&&&&&&&&&&&&&&",
"&&&&&&&&&&&&&&&&&&&&&&&&&&&&&&&&&&&&&&&&&&&&&&&&&&&&&&&&&&&&&&&&",
"&&&&&&&&&&&&&&&&&&&&&&&&&&&&&&&&&&&&&&&&&&&&&&&&o&&&&&&&&&&&&&&&",
"&&&&&&&&&&&&&&&&&&&&&&&&&&&&&&&&&&&&&&&&&&&&&&ooo&&&&&&&&&&&&&&&",
"&&&&&&&&&&&&&&&&&&&&&&&&&&&&&&&&&&&&&&&&&&&&oo@#o&&&&&&&&&&&&&&&",
"&&&&&&&&&&&&&&&&&&&&&&&&&&&o&&&&&&&&&&&&&&oo@@#$o&&&&&&&&&&&&&&&",
"&&&&&&&&&&&&&&&&&&&&&&&&&&&oo&&&&&&&&&&&oo@@@##$o&&&&&&&&&&&&&&&",
"&&&&&&&&&&&&&&&&&&&&&&&&&&o#$o&&&&&&&&&o@@@@##$$%o&&&&&&&&&&&&&&",
"&&&&&&&&&&&&&&&&&&&&&&&&&&o@#%o&&&&&&&&o@@@###$$%o&&&&&&&&&&&&&&",
"&&&&&&&&&&&&&&&&&&&&&&&&&o+@#$%o&&&&&&o+@@####$$%o&&&&&&&&&&&&&&",
"&&&&&&&&&&&&&&&&&&&&&&&&&o+@##$%o&&&&&o++#####$$%o&&&&&&&&&&&&&&",
"&&&&&&&&&&&&&&&&&&&&&&&&&o+@@##$o&&&&&oO+#####$$$o&&&&&&&&&&&&&&",
"&&&&&&&&&&&&&&&&&&&&&&&&&o+@@##$o&&&&&oO++###$$$%o&&&&&&&&&&&&&&",
"&&&&&&&&&&&&&&&&&&&&&&&&&&o+@@##o&&&&oOO+++##$$$$o&&&&&&&&&&&&&&",
"&&&&&&&&&&&&&&&&&&&&&&&&&&o++@@#o&&&&oO++@++##$$$o&&&&&&&&&&&&&&",
"&&&&&&&&&&&&&&&&&&&&&&o&&&oO++@##o&&&oO++@@@@##$o&&&&&&&&&&&&&&&",
"&&&&&oooooooo&&&&&&&&&ooo&oO++@@#o&&&o+++@@@@@#$o&&&&&&&&&&&&&&&",
"&&&&&o@@###$%ooo&&&&&&o#$ooOO++@@o&&oO++@@@@@##o&&&&&&&&&&&&&&&&",
"&&&&&&o@@@###$%$o&&&&&o@##$oO++@@o&XoO++@@@@@#o&&&&&&&&&&&&&&&&&",
"&&&&&&o@@@@@##$##o&&&.o+@@##+O+@@o&.o++@@@@@#o&&&&&&&&&&&&&&&&&&",
"&&&&&&o+@@@@@@@+@#o&&Xo+@@@@@O+@@o..o++@@@@@+o&&&&&&&&&&&&&&&&&&",
"&&&&&&&o+@@@@++@@@#oo.oO+@@@@+O+@o.oO+@@@@@+o&&&&&&&&&&&&&&&&&&&",
"&&&&&&&o+@@++++@@@@@@o.oO++@@@O+@o o++@@@@+o&&&..X.&&&&&&&&&&&&&",
"&&&&&&&o+OOO+++++@@@@@o.oO++@@+O@@oO+@@@@+o&&...XXX..&&&&&&&&&&&",
"&&&&&&&&ooOOOO+++++@@@@o oO++@@+@@o++@@@++o  ..XXXX...&&&&&&&&&&",
"&&&&&&....ooOOOO++++@@@@o oO+@@++@@++ooooo  ...XXXX..&&&&&&&&&&&",
"&&&&X...    ooOOOOO+++@@@oooO+@@+@++o$%%o  .....XX..&&&&&&&&&&&&",
"&&.XXX....    ooOOOOO+++@@@oO++@+@+@####o  .X....ooooo&&&&&&&&&&",
"&...X...XXX..   oooOOOO+++++OO+@@+O@###@o .Xooooo$%$%%oo&&&&&&&&",
"&&.....XXXXX...    ooOOOOO+++O+++O@@OOO@+ooo@###$$$$$$$$oo&&&&&&",
"&&&....XXXXX....     oOOOOOOOOO+OO@OOO+++@@@@@@###########o&&&&&",
"&&&&....XXX...  ooooo%$$$#####OOOO+O+++@@@+++++++@@######o&&&&&&",
"&&&&&&....... oo@##$$$######OOOOO+O+++++++++++++++@@@@@@o &&&&&&",
"&&&&&&&&..... o@@@#######+OOO+#OO##OOOOOO++++++++++@@@@o  .&&&&&",
"&&&&&&&&&&&. o@@@@@+++OOOO$$##++O+##+OOOOOOOOOOO++++@+o  ...&&&&",
"&&&&&&&&&&.. o@@@@+OOOOO%$$##++OO++##+OOOOOOOOOOOOOO+o  .XX..&&&",
"&&&&&&&&&.. o++++++++%%$$###++OOoO++#$+oooooooooooooo  .XXX.&&&&",
"&&&&&&&&&... ooooo#$$$$$###++OOooO++#$$o              ..XX.&&&&&",
"&&&&&&&&.....   o########++++Oo oOO++#$%o  ....X.........&&&&&&&",
"&&&&&&&&&&..... o##@@@@@++++OOo  oOO+##$%o....XXX......&&&&&&&&&",
"&&&&&&&&&&&&... o#@@@@@@@++OOo   oOO++##$%o....X.....&&&&&&&&&&&",
"&&&&&&&&&&&&&&. o@@@@@@@@+OOOo . oOOO++#$$%o.&&&&&&&&&&&&&&&&&&&",
"&&&&&&&&&&&&&&. o@@@@@@@@+OOo  .. oOO++##$$$o&&&&&&&&&&&&&&&&&&&",
"&&&&&&&&&&&&&&. o+@@@@@@++Oo  .X. oOOO++###$$o&&&&&&&&&&&&&&&&&&",
"&&&&&&&&&&&&&&. o+@@@@+++OOo .XXX  oOO++@@@##o&&&&&&&&&&&&&&&&&&",
"&&&&&&&&&&&&&X. o+@@++++OOo ...X.. oOOO+@@@@#o&&&&&&&&&&&&&&&&&&",
"&&&&&&&&&&&&&XX o+++++oooo ...&&...oOOO@@@@@#o&&&&&&&&&&&&&&&&&&",
"&&&&&&&&&&&&&X. oooooo    ...&&&... o++@@@@@#o&&&&&&&&&&&&&&&&&&",
"&&&&&&&&&&&&&X..        ....&&&&&.. o+++++@@@o&&&&&&&&&&&&&&&&&&",
"&&&&&&&&&&&&&....X.....X...&&&&&&... oooo++++o&&&&&&&&&&&&&&&&&&",
"&&&&&&&&&&&&&...XXX.....&&&&&&&&&&...    ooooo&&&&&&&&&&&&&&&&&&",
"&&&&&&&&&&&&&....X..&&&&&&&&&&&&&&.......XX..&&&&&&&&&&&&&&&&&&&",
"&&&&&&&&&&&&&...&&&&&&&&&&&&&&&&&&&.....XXXX.&&&&&&&&&&&&&&&&&&&",
"&&&&&&&&&&&&&&&&&&&&&&&&&&&&&&&&&&&&&&....X.&&&&&&&&&&&&&&&&&&&&",
"&&&&&&&&&&&&&&&&&&&&&&&&&&&&&&&&&&&&&&&&&...&&&&&&&&&&&&&&&&&&&&",
"&&&&&&&&&&&&&&&&&&&&&&&&&&&&&&&&&&&&&&&&&&&&&&&&&&&&&&&&&&&&&&&&",
"&&&&&&&&&&&&&&&&&&&&&&&&&&&&&&&&&&&&&&&&&&&&&&&&&&&&&&&&&&&&&&&&",
"&&&&&&&&&&&&&&&&&&&&&&&&&&&&&&&&&&&&&&&&&&&&&&&&&&&&&&&&&&&&&&&&",
"&&&&&&&&&&&&&&&&&&&&&&&&&&&&&&&&&&&&&&&&&&&&&&&&&&&&&&&&&&&&&&&&"
};
