/* XPM */
static char *Yellow_crystal1[] = {
/* columns rows colors chars-per-pixel */
"64 64 17 1 ",
"  c #2D2526",
". c #332A2A",
"X c #5D3129",
"o c #403231",
"O c #453635",
"+ c #4F3D39",
"@ c #6F4134",
"# c #574541",
"$ c #63504A",
"% c #8B573E",
"& c #A47347",
"* c #BB8C4E",
"= c #D3A651",
"- c #E0C355",
"; c #ECDB52",
": c #F8F49A",
"> c None",
/* pixels */
">>>>>>>>>>>>>>>>>>>>>>>>>>>>>>>>>>>>>>>>>>>>>>>>>>>>>>>>>>>>>>>>",
">>>>>>>>>>>>>>>>>>>>>>>XX>>>>>>>>>>>>>>>>>>>>>>>>>>>>>>>>>>>>>>>",
">>>>>>>>>>>>>>>>>>>>>>>X:X>>>>>>>>>>>>>>>>>>>>>>>>>>>>>>>>>>>>>>",
">>>>>>>>>>>>>>>>>>>>>>>X:X>>>>>>>>>>>>>>>>>>>>>>>>>>>>>>>>>>>>>>",
">>>>>>>>>>>>>>>>>>>>>>>X;:X>>>>>>>>>>>>>>>>>>>>>>>>>>>>>>>>>>>>>",
">>>>>>>>>>>>>>>>>>>>>>X*;::X>>>>>>>>>>>>>>>>>>>>>>>>>>>>>>>>>>>>",
">>>>>>>>>>>>>>>>>>>>>>X**;::X>>>>>>>>>>>>>>>>>>>>>>>>>>>>>>>>>>>",
">>>>>>>>>>>>>>>>>>>>>>X**;::X>>>>>>>>>>>>>>>>>>>>>>>>>>>>>>>>>>>",
">>>>>>>>>>>>>>>>>>>>>>X**;;::X>>>>>>>>>>>>>>>>>>>>>>>>>>>>>>>>>>",
">>>>>>>>>>>>>>>>>>>>>>X**-;;::X>>>>>>>>>>>>>>>>>>>>>X>>>>>>>>>>>",
">>>>>>>>>>>>>>>>>>>>>X***--;;::X>>>>>>>>>>>>>>>>>>>XX>>>>>>>>>>>",
">>>>>>>>>>>>>>>>>>>>>X**-;--;;:X>>>>>>>>>>>>>>>>>>>XX>>>>>>>>>>>",
">>>>>>>>>>>>>>>>>>>>>X**;----;;:X>>>>>>>>>>>>>>>>>X*X>>>>>>>>>>>",
">>>>>>>>>>>>>>>>>>>>>X**-===--;;;X>>>>>>>>>>>>>>>X;*X>>>>>>>>>>>",
">>>>>>>>>>>>>>>>>>>>X**-=====-;;:;X>>>>>>>>>>>>>X;;*X>>>>>>>>>>>",
">>>>>>>>>>>>>>>>>>>>X**-==-==--;;;X>>>>>>>>>>>>X:;**X>>>>>>>>>>>",
">>>>>>>>>>>>>>>>>>>>X**=======--;;;X>>>>>>>>>>X:;;**X>>>>>>>>>>>",
">>>>>>>>>>>>>>>>>>>>X**=======---;;;X>>>>>>>>X::;-**X>>>>>>>>>>>",
">>>>>>>>>>>>>>>>>>>X**-=======-;-;;;X>>>>>>>X::;--**X>>>>>>>>>>>",
">>>>>>>>>>>>>>>>>>>X**==-====--;--;==X>>>>>>X:;--;**X>>>>>>>>>>>",
">>>>>>>>>>>>>>>>>>>X**======--;--*===X>>>>>X:;;=--***X>>>>>>>>>>",
">>>>>>>>>>>>>>>>>>>X**====--;;-&&*===X>>>>X;;;===-***X>>>>>>>>>>",
">>>>>>>>>>>>>>>>>>X***=----&&&&&&*===X>>>X;;;====-***X>>>>>>>>>>",
">>>>>>>>>>>>>>>>>>X%%%&&&&&&&&*&&*===X>>X==;===-=-***X>>>>>>>>>>",
">>>>>>>>>>>>>>>>>>X%%%%&&&&&&&*&&*===X>>X==&====--***X>>>>>>>>>>",
">>>>>>>>>>>>>>>>>>>X&%%&&*&&&**&&*&==X>>X==&&&----***X>>>>>>>>>>",
">>>>>>>>XXX>>>>>>>>X%%%%&&&&*=&&**&==X>>X==*&&&&&-%*X>>>>>>>>>>>",
">>>>>>>>X;:XXXXX>>>>X%%%&&&**&&&**&==X>>X==*&&*&&%%X>>>>>>>>>>>>",
">>>>>>>>X*;;;::;X>>>X@%%%&&&&&&***&==X>>X==*&&&&&%%X>>>>>>>>>>>>",
">>>>>>>>>X**;;;;;X>>>X@%%*&&&&&*=*&==X>X==**&&&&%%X>>>>>>>>>>>>>",
">>>>>>>>>X=*=--;;=X>>X@%%%*&&&**=%&==X>X===*&&&&%%X>>>>>>>>>>>>>",
">>>>>>>>>X**===-==X>>>X@%%&****=%%;==X>X==*=&&&%%X>>>>>>>>>>>>>>",
">>>>>>>>>>X**===&==X#$X@@%%**==*%*;:=X>X=&**&&%%%X>>>>>>>>>>>>>>",
">>>>>>>>>>X**==&&&==X##X@%%&***%%*;;:X>X=&&**&%%XXXXXXXX>>>>>>>>",
">>>>>>>>>>>X*&&&*&&==X#X@@%%&**%**-;;X#X=&&&&%%%;::;;;X>>>>>>>>>",
">>>>>>>>>>>X@@&&&&&&=X##X@@%&&%%**=-;;X=*&&&&%%==;;=**X>>>>>>>>>",
">>>>>>>>>##OX@@&;;;:::XXX@@%%&@%*====;X*&&*&%%==&==**X>>>>>>>>>>",
">>>>>>>>###OOX@@**;;;;:::X@@%%@%*===&==&&&&%%==&&&***X>>>>>>>>>>",
">>>>>>##$$##OOX@***=-;;;;=@@%%%@%%&&&==&&&%%==&&&&&*X>>>>>>>>>>>",
">>>>>##$$$$#OO o***==---*==@@&%@@%&*&==&&%%==&&*&&%%X>>>>>>>>>>>",
">>>>##$$$$$##O o***===-**===@%%%@%%&&&=&%%==&&&&%%%X>>>>>>>>>>>>",
">>>###$$$$$#O oo***==-*&**===@%%@@%&&&==%=&&&&&%%%X$$>>>>>>>>>>>",
">>>###$$$$##O .oo**==&&*&&*==@@%%@%%&&==%&&&&%%%XX#$$$>>>>>>>>>>",
">>>####$$###OX..o%%&&&&&&&&*==@..o@%*&&=&&&%%%%XXXXX$##>>>>>>>>>",
">>>#######XXX==;oo@%%%&&&&&**==.ooo%%&&=&%%%==;;===*X##>>>>>>>>>",
">>>######OOX**=====@@%%%&***&&==oo+@%%%&%%&&&===***X###>>>>>>>>>",
">>>>####$#OOX**=&&*===@%%%&&&&&=%o++@%%o%&&*&&==**X###>>>>>>>>>>",
">>>>>##$$$#OOX*%&*&&&&&@@%%%&&%%%oo+++ooo%%%%%%%*X###>>>>>>>>>>>",
">>>>>>##$###OOX@%%%%&&%oo@@%%%%&======oo++%%@@@@XO###>>>>>>>>>>>",
">>>>>>>######OOXX@@%%%%o++oo@@%%o*==&&==o+++oooo O##>>>>>>>>>>>>",
">>>>>>>>>###$#OOOXXX@@oo+++++oooo&*&&&&&&o++++oo O#>>>>>>>>>>>>>",
">>>>>>>>>##$$$##OOOOX.ooo+++++++oo@%%%&*&&o++oo O#>>>>>>>>>>>>>>",
">>>>>>>>>##$$$$###OO ..ooo+++++++ooo@%%%%o  oo OO#>>>>>>>>>>>>>>",
">>>>>>>>>>#$$$$####OO ..oooo++++++ooooooo OO  OO##>>>>>>>>>>>>>>",
">>>>>>>>>>>#$$#####$OO ..oo o++++oo.     OOOOOO##>>>>>>>>>>>>>>>",
">>>>>>>>>>>>######$$$OO    O ooooo. OOOOO#######>>>>>>>>>>>>>>>>",
">>>>>>>>>>>>>>>####$###OOOO#O  ..  OO#######>>>>>>>>>>>>>>>>>>>>",
">>>>>>>>>>>>>>>>>>###########OO  OO####$>>>>>>>>>>>>>>>>>>>>>>>>",
">>>>>>>>>>>>>>>>>>>>>######$###OO#####>>>>>>>>>>>>>>>>>>>>>>>>>>",
">>>>>>>>>>>>>>>>>>>>>>>>>##########>>>>>>>>>>>>>>>>>>>>>>>>>>>>>",
">>>>>>>>>>>>>>>>>>>>>>>>>>>>>>>>>>>>>>>>>>>>>>>>>>>>>>>>>>>>>>>>",
">>>>>>>>>>>>>>>>>>>>>>>>>>>>>>>>>>>>>>>>>>>>>>>>>>>>>>>>>>>>>>>>",
">>>>>>>>>>>>>>>>>>>>>>>>>>>>>>>>>>>>>>>>>>>>>>>>>>>>>>>>>>>>>>>>",
">>>>>>>>>>>>>>>>>>>>>>>>>>>>>>>>>>>>>>>>>>>>>>>>>>>>>>>>>>>>>>>>"
};
