/* XPM */
static char *Circle_explosion4[] = {
/* columns rows colors chars-per-pixel */
"64 64 180 2 ",
"   c #66290E",
".  c #662710",
"X  c #6E2B16",
"o  c #8B4A1D",
"O  c #934F1E",
"+  c #91521E",
"@  c #9B5B1E",
"#  c #9F631D",
"$  c #954B22",
"%  c #934E20",
"&  c #975C26",
"*  c #9E5824",
"=  c #9E5B25",
"-  c #A45D21",
";  c #A15B26",
":  c #9D6022",
">  c #9F6E2D",
",  c #A76423",
"<  c #A16426",
"1  c #A86522",
"2  c #AF6F23",
"3  c #A1602A",
"4  c #A56C28",
"5  c #A56C2B",
"6  c #A76D2D",
"7  c #AB6E28",
"8  c #AC6C28",
"9  c #AE6D2C",
"0  c #AC702A",
"q  c #AD702B",
"w  c #AE712E",
"e  c #AC792E",
"r  c #B77726",
"t  c #B67822",
"y  c #B17A25",
"u  c #BC7825",
"i  c #BD7C28",
"p  c #B97F2E",
"a  c #AD7E3B",
"s  c #B37D3E",
"d  c #C37F2E",
"f  c #C37F2F",
"g  c #AE833F",
"h  c #B48637",
"j  c #B98234",
"k  c #BB8436",
"l  c #B7823A",
"z  c #BA853A",
"x  c #BC8A3D",
"c  c #C38729",
"v  c #C18831",
"b  c #C58A33",
"n  c #C98B35",
"m  c #C08B3B",
"M  c #C79537",
"N  c #CD9436",
"B  c #CB953F",
"V  c #CE993F",
"C  c #D29430",
"Z  c #D29734",
"A  c #D29F36",
"S  c #DA9F35",
"D  c #D49F3A",
"F  c #D19E3D",
"G  c #CFA13B",
"H  c #D7A237",
"J  c #DAA036",
"K  c #DDA539",
"L  c #D7A93A",
"P  c #EEC03E",
"I  c #B79148",
"U  c #C39948",
"Y  c #D29A43",
"T  c #CD9E55",
"R  c #C9A248",
"E  c #D7A642",
"W  c #D6A645",
"Q  c #DAA341",
"!  c #DBA640",
"~  c #D9A347",
"^  c #D7AA48",
"/  c #DAAF4C",
"(  c #DBB248",
")  c #DDB14B",
"_  c #DEB04C",
"`  c #E0AD41",
"'  c #E1AE40",
"]  c #E2B241",
"[  c #E2B043",
"{  c #E7B843",
"}  c #E9BA45",
"|  c #E4B44F",
" . c #E6BA4F",
".. c #EABD4B",
"X. c #EABE4E",
"o. c #E8BC54",
"O. c #E7BC58",
"+. c #CDB268",
"@. c #D5B36A",
"#. c #E0BA65",
"$. c #E3BB65",
"%. c #EDC24B",
"&. c #EBC04F",
"*. c #EDC34E",
"=. c #F0C74C",
"-. c #F1C84A",
";. c #F4CD4B",
":. c #EFC750",
">. c #EEC552",
",. c #EFCA56",
"<. c #E5C65C",
"1. c #EAC659",
"2. c #EAC65B",
"3. c #F0C854",
"4. c #F1CB56",
"5. c #F1CB57",
"6. c #F1CD5C",
"7. c #EECA60",
"8. c #EBCA6A",
"9. c #EDCF6B",
"0. c #F2CF62",
"q. c #F1CF65",
"w. c #EED066",
"e. c #F3D163",
"r. c #F6D561",
"t. c #F8D862",
"y. c #F1D16E",
"u. c #F9DE6B",
"i. c #F2D271",
"p. c #F3D371",
"a. c #F3D770",
"s. c #F7DC71",
"d. c #F9DF74",
"f. c #F2D778",
"g. c #F1D57E",
"h. c #F6D978",
"j. c #F6DE78",
"k. c #F1D87E",
"l. c #F6DD7D",
"z. c #FAE172",
"x. c #FAE279",
"c. c #F9E07B",
"v. c #FAE17A",
"b. c #FCE67B",
"n. c #FBE47D",
"m. c #FCE67C",
"M. c #FCE77D",
"N. c #FBE484",
"B. c #FDE986",
"V. c #FDEB87",
"C. c #F8E38D",
"Z. c #FCE989",
"A. c #FEED8B",
"S. c #FDED8E",
"D. c #FCEA90",
"F. c #FCEC93",
"G. c #FCEA96",
"H. c #FCEC95",
"J. c #FDEF9D",
"K. c #FFF39C",
"L. c #FFF39F",
"P. c #FFF59F",
"I. c #FCEEA5",
"U. c #FFF4A0",
"Y. c #FCF0A6",
"T. c #FEF3A6",
"R. c #FFF4A6",
"E. c #FFF6A8",
"W. c #FFF7AC",
"Q. c #FFF8AC",
"!. c #FFF7B2",
"~. c #FFF7B4",
"^. c #FFF8B7",
"/. c #FEF5BB",
"(. c #FFFACA",
"). c #FFFBCB",
"_. c #FFFDCC",
"`. c #FFFBDC",
"'. c #FFFDE0",
"]. c None",
/* pixels */
"].].].].].].].].].].].].].].].].].].].].].].].].].].].].].].].].].].].].].].].].].].].].].].].].].].].].].].].].].].].].].].].].",
"].].].].].].].].].].].].].].].].].].].].].].].].].].].].].].].].].].].].].].].].].].].].].].].].].].].].].].].].].].].].].].].].",
"].].].].].].].].].].].].].].].].].].].].].].].].].].].].].].].].].].].].].].].].].].].].].].].].].].].].].].].].].].].].].].].].",
"].].].].].].].].].].].].].].].].].].].].].].].].].].].].].].].].].].].].].].].].].].].].].].].].].].].].].].].].].].].].].].].].",
"].].].].].].].].].].].].].].].].].].].].].].].].].].].].].].].].].].].].].].].].].].].].].].].].].].].].].].].].].].].].].].].].",
"].].].].].].].].].].].].].].].].].].].].].].].].].].].].].].].].].].].].].].].].].].].].].].].].].].].].].].].].].].].].].].].].",
"].].].].].].].].].].].].].].].].].].].].].].].].].].].].].].].].].].].].].].].].].].].].].].].].].].].].].].].].].].].].].].].].",
"].].].].].].].].].].].].].].].].].].].].].].].].].].].].].].].].].].].].].].].].].].].].].].].].].].].].].].].].].].].].].].].].",
"].].].].].].].].].].].].].].].].].].].].].].].].].].].].].].].].].].].].].].].].].].].].].].].].].].].].].].].].].].].].].].].].",
"].].].].].].].].].].].].].].].].].].].].].].].].].].].].].].].].].].].].].].].].].].].].].].].].].].].].].].].].].].].].].].].].",
"].].].].].].].].].].].].].].].].].].].].].].].].].].].].].].].].].].].].].].].].].].].].].].].].].].].].].].].].].].].].].].].].",
"].].].].].].].].].].].].].].].].].].].].].].].].].].].].].].].].].].].].].].].].].].].].].].].].].].].].].].].].].].].].].].].].",
"].].].].].].].].].].].].].].].].].].].].].].].].].].].].].].].].].].].].].].].].].].].].].].].].].].].].].].].].].].].].].].].].",
"].].].].].].].].].].].].].].].].].].].].].].].].].].].].].].].].].].].].].].].].].].].].].].].].].].].].].].].].].].].].].].].].",
"].].].].].].].].].].].].].].].].].].].].].].].].].].].].].].].].].].].].].].].].].].].].].].].].].].].].].].].].].].].].].].].].",
"].].].].].].].].].].].].].].].].].].].].].].].].].].].].].].].].].].].].].].].].].].].].].].].].].].].].].].].].].].].].].].].].",
"].].].].].].].].].].].].].].].].].].].].].].].].].].].].].].].].].].].].].].].].].].].].].].].].].].].].].].].].].].].].].].].].",
"].].].].].].].].].].].].].].].].].].].].].].].].].].].].].].].].].].].].].].].].].].].].].].].].].].].].].].].].].].].].].].].].",
"].].].].].].].].].].].].].].].].].].].].].].].].].].].].].].].].].].].].].].].].].].].].].].].].].].].].].].].].].].].].].].].].",
"].].].].].].].].].].].].].].].].].].].].].].].].].].].].].].].].].].].].].].].].].].].].].].].].].].].].].].].].].].].].].].].].",
"].].].].].].].].].].].].].].].].].].].].].].].].].].].].].].].].].].].].].].].].].].].].].].].].].].].].].].].].].].].].].].].].",
"].].].].].].].].].].].].].].].].].].].].].].].].].].].].].].].].].].].].].].].].].].].].].].].].].].].].].].].].].].].].].].].].",
"].].].].].].].].].].].].].].].].].].].].].].].].].].].].].].].].].].].].].].].].].].].].].].].].].].].].].].].].].].].].].].].].",
"].].].].].].].].].].].].].].].].].].].].].].].* o ].].].].].].].].].].].].].].].].].].].].].].].].].].].].].].].].].].].].].].].",
"].].].].].].].].].].].].].].].].].].].].].].].D H a ].].].].].].].].].].].].].].].].].].].].].].].].].].].].].].].].].].].].].].",
"].].].].].].].].].].].].].].].].].].].].].].].F C f.1.v ].].].].].].].].].].].].].e ].].].].].].].].].].].].].].].].].].].].].].",
"].].].].].].].].].].].].].].].].].].].].].].].+ B n.x.o.) < ].].].].].].].].].].r L ].].].].].].].].].].].].].].].].].].].].].].",
"].].].].].].].].].].].].].].].].].].].].].].].].5 c l.Q.7.u % ].].M # ].].].6 N } G ].].].].].].].].].].].].].].].].].].].].].].",
"].].].].].].].].].].].].].].].].].].].].].].].].].> w.t.&.:.8.T ) V.A q m ) `  .j ].].].].].].].].].].].].].].].].].].].].].].].",
"].].].].].].].].].].].].].].].].].].].].].].].].].U :.q.U.E.`./.Z.5.3.i.h.;.,.k ].].].].].].].].].].].].].].].].].].].].].].].].",
"].].].].].].].].].].].].].].].].].].].].].].].].].@ y @.H.T.`.K.M.%.S.W.(.3.J 8 ].. ].].].].].].].].].].].].].].].].].].].].].].",
"].].].].].].].].].].].].].].].].].].].].].].].].].].].1 P A.K.s.6.` V.P.I.r.O.i ].].].].].].].].].].].].].].].].].].].].].].].].",
"].].].].].].].].].].].].].].].].].].].].].].].].].].].t x.!.d.J v ` -.e.! { X.- ].].].].].].].].].].].].].].].].].].].].].].].].",
"].].].].].].].].].].].].].].].].].].].].].].].].].].].q g.T./.i.K %.3.g.~ %.Y s ].].].].].].].].].].].].].].].].].].].].].].].].",
"].].].].].].].].].].].].].].].].].].].].].].].].].].].= $.Y.^.N.d.=.G._.y.Z z l ].].].].].].].].].].].].].].].].].].].].].].].].",
"].].].].].].].].].].].].].].].].].].].].].].].].].].].5 y.J.(.G.m.u.v.C.Q W ].].].].].].].].].].].].].].].].].].].].].].].].].].",
"].].].].].].].].].].].].].].].].].].].].].].].].].].].].j j.D.0.$.| f 9 , 2.a ].].].].].].].].].].].].].].].].].].].].].].].].].",
"].].].].].].].].].].].].].].].].].].].].].].].].].].].].+.m.b w 3 n $ ].].2 F I ].].].].].].].].].].].].].].].].].].].].].].].].",
"].].].].].].].].].].].].].].].].].].].].].].].].].].].].^ 9.& ].].7 % ].].].z I ].].].].].].].].].].].].].].].].].].].].].].].].",
"].].].].].].].].].].].].].].].].].].].].].].].].].].].( V : ].].].X ].].].].].].].].].].].].].].].].].].].].].].].].].].].].].].",
"].].].].].].].].].].].].].].].].].].].].].].].].].].<.] ; ].].].].  ].].].].].].].].].].].].].].].].].].].].].].].].].].].].].].",
"].].].].].].].].].].].].].].].].].].].].].].].].].].R h ].].].].].].].].].].].].].].].].].].].].].].].].].].].].].].].].].].].].",
"].].].].].].].].].].].].].].].].].].].].].].].].].].].].].].].].].].].].].].].].].].].].].].].].].].].].].].].].].].].].].].].].",
"].].].].].].].].].].].].].].].].].].].].].].].].].].].].].].].].].].].].].].].].].].].].].].].].].].].].].].].].].].].].].].].].",
"].].].].].].].].].].].].].].].].].].].].].].].].].].].].].].].].].].].].].].].].].].].].].].].].].].].].].].].].].].].].].].].].",
"].].].].].].].].].].].].].].].].].].].].].].].].].].].].].].].].].].].].].].].].].].].].].].].].].].].].].].].].].].].].].].].].",
"].].].].].].].].].].].].].].].].].].].].].].].].].].].].].].].].].].].].].].].].].].].].].].].].].].].].].].].].].].].].].].].].",
"].].].].].].].].].].].].].].].].].].].].].].].].].].].].].].].].].].].].].].].].].].].].].].].].].].].].].].].].].].].].].].].].",
"].].].].].].].].].].].].].].].].].].].].].].].].].].].].].].].].].].].].].].].].].].].].].].].].].].].].].].].].].].].].].].].].",
"].].].].].].].].].].].].].].].].].].].].].].].].].].].].].].].].].].].].].].].].].].].].].].].].].].].].].].].].].].].].].].].].",
"].].].].].].].].].].].].].].].].].].].].].].].].].].].].].].].].].].].].].].].].].].].].].].].].].].].].].].].].].].].].].].].].",
"].].].].].].].].].].].].].].].].].].].].].].].].].].].].].].].].].].].].].].].].].].].].].].].].].].].].].].].].].].].].].].].].",
"].].].].].].].].].].].].].].].].].].].].].].].].].].].].].].].].].].].].].].].].].].].].].].].].].].].].].].].].].].].].].].].].",
"].].].].].].].].].].].].].].].].].].].].].].].].].].].].].].].].].].].].].].].].].].].].].].].].].].].].].].].].].].].].].].].].",
"].].].].].].].].].].].].].].].].].].].].].].].].].].].].].].].].].].].].].].].].].].].].].].].].].].].].].].].].].].].].].].].].",
"].].].].].].].].].].].].].].].].].].].].].].].].].].].].].].].].].].].].].].].].].].].].].].].].].].].].].].].].].].].].].].].].",
"].].].].].].].].].].].].].].].].].].].].].].].].].].].].].].].].].].].].].].].].].].].].].].].].].].].].].].].].].].].].].].].].",
"].].].].].].].].].].].].].].].].].].].].].].].].].].].].].].].].].].].].].].].].].].].].].].].].].].].].].].].].].].].].].].].].",
"].].].].].].].].].].].].].].].].].].].].].].].].].].].].].].].].].].].].].].].].].].].].].].].].].].].].].].].].].].].].].].].].",
"].].].].].].].].].].].].].].].].].].].].].].].].].].].].].].].].].].].].].].].].].].].].].].].].].].].].].].].].].].].].].].].].",
"].].].].].].].].].].].].].].].].].].].].].].].].].].].].].].].].].].].].].].].].].].].].].].].].].].].].].].].].].].].].].].].].",
"].].].].].].].].].].].].].].].].].].].].].].].].].].].].].].].].].].].].].].].].].].].].].].].].].].].].].].].].].].].].].].].].",
"].].].].].].].].].].].].].].].].].].].].].].].].].].].].].].].].].].].].].].].].].].].].].].].].].].].].].].].].].].].].].].].].",
"].].].].].].].].].].].].].].].].].].].].].].].].].].].].].].].].].].].].].].].].].].].].].].].].].].].].].].].].].].].].].].].]."
};
