/* XPM */
static char *Rock7_2[] = {
/* columns rows colors chars-per-pixel */
"64 64 7 1 ",
"  c #2C1B21",
". c #3B282C",
"X c #4D3337",
"o c #634244",
"O c #845D58",
"+ c #A3776B",
"@ c None",
/* pixels */
"@@@@@@@@@@@@@@@@@@@@@@@@@@@@@@@@@@@@@@@@@@@@@@@@@@@@@@@@@@@@@@@@",
"@@@@@@@@@@@@@@@@@@@@@@@@@@@@@@@@@@@@@@@@@@@@@@@@@@@@@@@@@@@@@@@@",
"@@@@@@@@@@@@@@@@@@@@@@@@@@@@@@@@@@@@@@@@@@@@@@@@@@@@@@@@@@@@@@@@",
"@@@@@@@@@@@@@@@@@@@@@@@@@@@@@@@@@@@@@@@@@@@@@@@@@@@@@@@@@@@@@@@@",
"@@@@@@@@@@@@@@@@@@@@@@@@@@@@@@@@@@@@@@@@@@@@@@@@@@@@@@@@@@@@@@@@",
"@@@@@@@@@@@@@@@@@@@@@@@@@@@@@@@@@@@@@@@@@@@@@@@@@@@@@@@@@@@@@@@@",
"@@@@@@@@@@@@@@@@@@@@@@@@@@@@@@@@@@@@@@@@@@@@@@@@@@@@@@@@@@@@@@@@",
"@@@@@@@@@@@@@@@@@@@@@@@@@@@@@@@@@@@@@@@@@@@@@@@@@@@@@@@@@@@@@@@@",
"@@@@@@@@@@@@@@@@@@@@@@@     @@@@@@@@@@@@@@@@@@@@@@@@@@@@@@@@@@@@",
"@@@@@@@@@@@@@@@@@@@@@  oOOOO  @@@@@@@@@@@@@@@@@@@@@@@@@@@@@@@@@@",
"@@@@@@@@@@@@@@@@@@@@ oOOOOOOOO @@@@@@@@@@@@@@@@@@@@@@@@@@@@@@@@@",
"@@@@@@@@@@@@@@@@@@@ oOOO++++OOO @@@@@@@@@@@@@@@@@@@@@@@@@@@@@@@@",
"@@@@@@@@@@@@@@@@@@ oOOO++++++OOO @@@@@@@@@@@@@@@@@@@@@@@@@@@@@@@",
"@@@@@@@@@@@@@@@@@ oOOOO++++++OOOO @@@@@@@@@@@@@@@@@@@@@@@@@@@@@@",
"@@@@@@@@@@@@@@@@ oOO+O+++++++O+OOo @@@@@@@@@@@@@@@@@@@@@@@@@@@@@",
"@@@@@@@@@@@@@@@ XoO++O+++++++OO+Oo @@@     @@@@@@@@@@@@@@@@@@@@@",
"@@@@@@@@@@@@@@@ XoO++OO+++O+OOO+Ooo @ oOOOO @@@@@@@@@@@@@@@@@@@@",
"@@@@@@@@@@@@@@ oXoO+OOOO+++OOOOOOoo  oOO++OO @@@@@@@@@@@@@@@@@@@",
"@@@@@@@@@@@@@@ oXXO+OOOOO++++OOOOoX XoO++++OO @@@@@@@@@@@@@@@@@@",
"@@@@@@@@@@@@@@ oOXooOO+OOOOOOO+OooXoXOO+++OOO @@@@@@@@@@@@@@@@@@",
"@@@@@@@@@@@@@ XoOXXoOOO++OOOO++OoXXoXoOOO+O+Oo @@@@@@@@@@@@@@@@@",
"@@@@@@@@@@@@@ XXooXXoOOO++++++OooXooXoO++OOOoX @@@@@@@@@@@@@@@@@",
"@@@@@@@@@@@@@ .XoOoXXoOOOOOOOOooXooX.XoOOXXXXX @@@@@@@@@@@@@@@@@",
"@@@@@@@@@@@@@ .XooOoooooOOOOOoooOooX.XXXXoooo  @@@@@@@@@@@@@@@@@",
"@@@@@@@@@@@@@ .XXooOOOooooOooooOooXX..XoO++OOo @@@@@@@@@@@@@@@@@",
"@@@@@@@@@@@@@ ..XXooOOOOOOOOOOOooXX.XooO+++++Oo @@@@@@@@@@@@@@@@",
"@@@@@@@@@@@@@ ..XXXoooooOOOOOooXXX.XooO+++++++Oo @@@@@@@@@@@@@@@",
"@@@@@@@@@@@@@@ ..XXXXXXXooooXXXXX..ooOO+++++++Oo @@@@@@@@@@@@@@@",
"@@@@@@@@@@@@@@ ...XXoOOoXoooooX...XoO+OO++++O+OOo @@@@@@@@@@@@@@",
"@@@@@@@@@@@@@@@ . ooO++OOXXXXXXX..ooO+OOO++OO+OOo @@@@@@@@@@@@@@",
"@@@@@@@@@@@@@@@@ ooO++++OOX.XXOoX.XoO++OOOOO+OO+O @@@@@@@@@@@@@@",
"@@@@@@@@@@@@@@@ XoOOO++++OoX.O+OoXXXoO++OO++OOO+Oo @@@@@@@@@@@@@",
"@@@@@@@@@@@@@@@ XOO+OOO++OoXXoOoXXoooOO++OOOOO++Oo @@@@@@@@@@@@@",
"@@@@@@@@@@@@@@ .o+OO++++OoOoXoooX.oOoooOOOOOO++Ooo @@@@@@@@@@@@@",
"@@@@@@@@@@@@@@ Xo+OOOO+OoO+OXXoX..XoOOooOOOO++OOoX @@@@@@@@@@@@@",
"@@@@@@@@@@@@@ .Xo++oOOOOO+OXX.XX.X.XoOOOO+++OOOoX. @@@@@@@@@@@@@",
"@@@@@@@@@@@@@ .XXO++oooo+Oo.XXX..XX.XooOOOOOOooX.. @@@@@@@@@@@@@",
"@@@@@@@@@@@@@ .XXoO++OoOOo.XoOooX.oXXXXoooooooX.X. @@@@@@@@@@@@@",
"@@@@@@@@@@@@@ .XoXoOOOOoo.XoO++Oo.XoXXXXXooXXXXXX @@@@@@@@@@@@@@",
"@@@@@@@@@@@@@@ .XoXXoooo.XoO++++Oo.XoooooooooXXX. @@@@@@@@@@@@@@",
"@@@@@@@@@@@@@@@ XXooooXX.XooO++O+OXXXXXooooXXX.. @@@@@@@@@@@@@@@",
"@@@@@@@@@@@@@@@@ XXXXXX..XoOoOOO+Oo. ..XXXXX... @@@@@@@@@@@@@@@@",
"@@@@@@@@@@@@@@@@@  .....X.XoO+++Ooo @  ......  @@@@@@@@@@@@@@@@@",
"@@@@@@@@@@@@@@@@@@@     .XoXoOOoooX @@@      @@@@@@@@@@@@@@@@@@@",
"@@@@@@@@@@@@@@@@@@@@@@@@ .XoXXoooXX @@@@@@@@@@@@@@@@@@@@@@@@@@@@",
"@@@@@@@@@@@@@@@@@@@@@@@@ ..XooooXX. @@@@@@@@@@@@@@@@@@@@@@@@@@@@",
"@@@@@@@@@@@@@@@@@@@@@@@@@ ..XXXX.. @@@@@@@@@@@@@@@@@@@@@@@@@@@@@",
"@@@@@@@@@@@@@@@@@@@@@@@@@@  ....  @@@@@@@@@@@@@@@@@@@@@@@@@@@@@@",
"@@@@@@@@@@@@@@@@@@@@@@@@@@@@    @@@@@@@@@@@@@@@@@@@@@@@@@@@@@@@@",
"@@@@@@@@@@@@@@@@@@@@@@@@@@@@@@@@@@@@@@@@@@@@@@@@@@@@@@@@@@@@@@@@",
"@@@@@@@@@@@@@@@@@@@@@@@@@@@@@@@@@@@@@@@@@@@@@@@@@@@@@@@@@@@@@@@@",
"@@@@@@@@@@@@@@@@@@@@@@@@@@@@@@@@@@@@@@@@@@@@@@@@@@@@@@@@@@@@@@@@",
"@@@@@@@@@@@@@@@@@@@@@@@@@@@@@@@@@@@@@@@@@@@@@@@@@@@@@@@@@@@@@@@@",
"@@@@@@@@@@@@@@@@@@@@@@@@@@@@@@@@@@@@@@@@@@@@@@@@@@@@@@@@@@@@@@@@",
"@@@@@@@@@@@@@@@@@@@@@@@@@@@@@@@@@@@@@@@@@@@@@@@@@@@@@@@@@@@@@@@@",
"@@@@@@@@@@@@@@@@@@@@@@@@@@@@@@@@@@@@@@@@@@@@@@@@@@@@@@@@@@@@@@@@",
"@@@@@@@@@@@@@@@@@@@@@@@@@@@@@@@@@@@@@@@@@@@@@@@@@@@@@@@@@@@@@@@@",
"@@@@@@@@@@@@@@@@@@@@@@@@@@@@@@@@@@@@@@@@@@@@@@@@@@@@@@@@@@@@@@@@",
"@@@@@@@@@@@@@@@@@@@@@@@@@@@@@@@@@@@@@@@@@@@@@@@@@@@@@@@@@@@@@@@@",
"@@@@@@@@@@@@@@@@@@@@@@@@@@@@@@@@@@@@@@@@@@@@@@@@@@@@@@@@@@@@@@@@",
"@@@@@@@@@@@@@@@@@@@@@@@@@@@@@@@@@@@@@@@@@@@@@@@@@@@@@@@@@@@@@@@@",
"@@@@@@@@@@@@@@@@@@@@@@@@@@@@@@@@@@@@@@@@@@@@@@@@@@@@@@@@@@@@@@@@",
"@@@@@@@@@@@@@@@@@@@@@@@@@@@@@@@@@@@@@@@@@@@@@@@@@@@@@@@@@@@@@@@@",
"@@@@@@@@@@@@@@@@@@@@@@@@@@@@@@@@@@@@@@@@@@@@@@@@@@@@@@@@@@@@@@@@"
};
