/* XPM */
static char *Explosion_gas_circle5[] = {
/* columns rows colors chars-per-pixel */
"64 64 252 2 ",
"   c #065040",
".  c #0B5744",
"X  c #0D5A43",
"o  c #0F5A45",
"O  c #0B5F48",
"+  c #0E5F4A",
"@  c #116149",
"#  c #146348",
"$  c #14654B",
"%  c #16654C",
"&  c #18654B",
"*  c #15684E",
"=  c #186B4F",
"-  c #1D6B4F",
";  c #0D6651",
":  c #106750",
">  c #146B51",
",  c #116D51",
"<  c #116E50",
"1  c #156D52",
"2  c #176F54",
"3  c #196C51",
"4  c #177357",
"5  c #1F7152",
"6  c #197155",
"7  c #1F7554",
"8  c #1F7756",
"9  c #1F7757",
"0  c #157A5C",
"q  c #1B7858",
"w  c #1A795B",
"e  c #1E7858",
"r  c #1F7959",
"t  c #1F7B58",
"y  c #1F7A5A",
"u  c #1C7D5F",
"i  c #207052",
"p  c #227052",
"a  c #257453",
"s  c #277B57",
"d  c #287C56",
"f  c #217E5A",
"g  c #247E59",
"h  c #207E5D",
"j  c #22815E",
"k  c #28815E",
"l  c #2C835F",
"z  c #2B865D",
"x  c #2A855F",
"c  c #2F855F",
"v  c #1E8764",
"b  c #228362",
"n  c #218664",
"m  c #238764",
"M  c #288561",
"N  c #238862",
"B  c #278B63",
"V  c #298961",
"C  c #2D8A62",
"Z  c #298864",
"A  c #2E8E64",
"S  c #2E8E65",
"D  c #258E6B",
"F  c #218E6C",
"G  c #368C66",
"H  c #398E64",
"J  c #358F6A",
"K  c #24936E",
"L  c #26946F",
"P  c #28926B",
"I  c #2E9068",
"U  c #2F9169",
"Y  c #2E936A",
"T  c #28946B",
"R  c #28936E",
"E  c #28956F",
"W  c #2F946C",
"Q  c #2E986C",
"!  c #2B9C6F",
"~  c #319267",
"^  c #3A9467",
"/  c #3D9767",
"(  c #339268",
")  c #33976A",
"_  c #32976B",
"`  c #31956C",
"'  c #35976F",
"]  c #3D9269",
"[  c #33996D",
"{  c #35996E",
"}  c #389A6E",
"|  c #3F9D6D",
" . c #2D9B71",
".. c #2E9B73",
"X. c #2B9C75",
"o. c #2D9E74",
"O. c #319B72",
"+. c #339D70",
"@. c #329C73",
"#. c #359D71",
"$. c #349E71",
"%. c #319F74",
"&. c #329F74",
"*. c #3A9F71",
"=. c #32A073",
"-. c #30A075",
";. c #33A176",
":. c #31A376",
">. c #31A377",
",. c #3AA173",
"<. c #38A776",
"1. c #3BA776",
"2. c #3FA475",
"3. c #3CA777",
"4. c #3AA876",
"5. c #34A779",
"6. c #37A778",
"7. c #38A878",
"8. c #39A979",
"9. c #3AA978",
"0. c #3BA978",
"q. c #39AB7A",
"w. c #3EAA78",
"e. c #3EAA7A",
"r. c #3BAE79",
"t. c #3FAC7A",
"y. c #3AA97E",
"u. c #3BAD7C",
"i. c #3AAE7C",
"p. c #3DAF7D",
"a. c #3BB27D",
"s. c #3DB17E",
"d. c #3FB17E",
"f. c #419B6B",
"g. c #469E6B",
"h. c #449B6C",
"j. c #42A570",
"k. c #42A574",
"l. c #47A676",
"z. c #48A570",
"x. c #42AA75",
"c. c #45A974",
"v. c #46AC77",
"b. c #4DAB76",
"n. c #43AF7A",
"m. c #42AF7B",
"M. c #48AE7D",
"N. c #43B17D",
"B. c #42B27C",
"V. c #4DB27B",
"C. c #4AB47A",
"Z. c #49B17C",
"A. c #48B27F",
"S. c #4AB67C",
"D. c #4EB47F",
"F. c #4EB97E",
"G. c #3BB383",
"H. c #3DB080",
"J. c #3DB481",
"K. c #44B481",
"L. c #48B580",
"P. c #48B782",
"I. c #4EB682",
"U. c #43BB84",
"Y. c #47BF87",
"T. c #4DBA80",
"R. c #4EB882",
"E. c #4FB983",
"W. c #4BBC81",
"Q. c #49BC83",
"!. c #4CBC82",
"~. c #49BB84",
"^. c #4BBF86",
"/. c #4FBD86",
"(. c #4CBE86",
"). c #4FBF87",
"_. c #47BE88",
"`. c #51B880",
"'. c #56B981",
"]. c #57B982",
"[. c #50BB85",
"{. c #59BD85",
"}. c #64BD84",
"|. c #4FC186",
" X c #4DC38A",
".X c #4DC28B",
"XX c #55C287",
"oX c #5AC086",
"OX c #58C787",
"+X c #5AC886",
"@X c #53C488",
"#X c #59C288",
"$X c #5DC588",
"%X c #5FC588",
"&X c #5EC68D",
"*X c #57C889",
"=X c #57CB8E",
"-X c #5AC989",
";X c #58C98B",
":X c #5DC98A",
">X c #5FC98B",
",X c #5FCE8B",
"<X c #59CB8D",
"1X c #5ACB8C",
"2X c #5CCB8D",
"3X c #59CE8C",
"4X c #58CC8F",
"5X c #5ACC8E",
"6X c #5AD28C",
"7X c #65C486",
"8X c #61CA8B",
"9X c #69C889",
"0X c #60D18B",
"qX c #63D18E",
"wX c #62D18F",
"eX c #62D48E",
"rX c #62D68F",
"tX c #61CD90",
"yX c #63CC90",
"uX c #69CE91",
"iX c #6DD090",
"pX c #69D691",
"aX c #6DD793",
"sX c #6ED793",
"dX c #69D095",
"fX c #6AD394",
"gX c #67D891",
"hX c #6ED993",
"jX c #6DD994",
"kX c #6DDA94",
"lX c #6DDC95",
"zX c #6DDC96",
"xX c #71D394",
"cX c #73D595",
"vX c #73D993",
"bX c #74D893",
"nX c #74DE97",
"mX c #7ADB97",
"MX c #7EDD97",
"NX c #73DB99",
"BX c #71DD98",
"VX c #70DF99",
"CX c #73DE98",
"ZX c #75DF99",
"AX c #7CDE99",
"SX c #85E49F",
"DX c #87EA9C",
"FX c #99EFA3",
"GX c #9EF4A4",
"HX c #A5F1AB",
"JX c #A8F5A9",
"KX c None",
/* pixels */
"KXKXKXKXKXKXKXKXKXKXKXKXKXKXKXKXKXKXKXKXKXKXKXKXKXKXKXKXKXKXKXKXKXKXKXKXKXKXKXKXKXKXKXKXKXKXKXKXKXKXKXKXKXKXKXKXKXKXKXKXKXKXKXKX",
"KXKXKXKXKXKXKXKXKXKXKXKXKXKXKXKXKXKXKXKXKXKXKXKXKXKXKXKXKXKXKXKXKXKXKXKXKXKXKXKXKXKXKXKXKXKXKXKXKXKXKXKXKXKXKXKXKXKXKXKXKXKXKXKX",
"KXKXKXKXKXKXKXKXKXKXKXKXKXKXKXKXKXKXKXKXKXKXKXKXKXKXKXKXKXKXKXKXKXKXKXKXKXKXKXKXKXKXKXKXKXKXKXKXKXKXKXKXKXKXKXKXKXKXKXKXKXKXKXKX",
"KXKXKXKXKXKXKXKXKXKXKXKXKXKXKXKXKXKXKXKXKXKXKXKXKXKXKXKXKXKXKXKXKXKXKXKXKXKXKXKXKXKXKXKXKXKXKXKXKXKXKXKXKXKXKXKXKXKXKXKXKXKXKXKX",
"KXKXKXKXKXKXKXKXKXKXKXKXKXKXKXKXKXKXKXKXKXKXKXKXKXKXKXKXKXKXKXKXKXKXKXKXKXKXKXKXKXKXKXKXKXKXKXKXKXKXKXKXKXKXKXKXKXKXKXKXKXKXKXKX",
"KXKXKXKXKXKXKXKXKXKXKXKXKXKXKXKXKXKXKXKXKXKXKXKXKXKXKXKXKXKXKXKXKXKXKXKXKXKXKXKXKXKXKXKXKXKXKXKXKXKXKXKXKXKXKXKXKXKXKXKXKXKXKXKX",
"KXKXKXKXKXKXKXKXKXKXKXKXKXKXKXKXKXKXKXKXKXKXKXKXKXKXKXKXKXKXKXKXKXKXKXKXKXKXKXKXKXKXKXKXKXKXKXKXKXKXKXKXKXKXKXKXKXKXKXKXKXKXKXKX",
"KXKXKXKXKXKXKXKXKXKXKXKXKXKXKXKXKXKXKXKXKXKXKXKXKXKXKXKXKXKXKXKXKXKXKXKXKXKXKXKXKXKXKXKXKXKXKXKXKXKXKXKXKXKXKXKXKXKXKXKXKXKXKXKX",
"KXKXKXKXKXKXKXKXKXKXKXKXKXKXKXKXKXKXKXKXKXKXKXKXKXKXKXKXKXKXKXKXKXKXKXKXKXKXKXKXKXKXKXKXKXKXKXKXKXKXKXKXKXKXKXKXKXKXKXKXKXKXKXKX",
"KXKXKXKXKXKXKXKXKXKXKXKXKXKXKXKXKXKXKXKXKXKXKXKXKXKXKXKXKXKXKXKXKXKXKXKXKXKXKXKXKXKXKXKXKXKXKXKXKXKXKXKXKXKXKXKXKXKXKXKXKXKXKXKX",
"KXKXKXKXKXKXKXKXKXKXKXKXKXKXKXKXKXKXKXKXKXKXKXKXKXKXKXKXKXKXKXKXKXKXKXKXKXKXKXKXKXKXKXKXKXKXKXKXKXKXKXKXKXKXKXKXKXKXKXKXKXKXKXKX",
"KXKXKXKXKXKXKXKXKXKXKXKXKXKXKXKXKXKXKXKXKXKXKXKXKXKXKXKXKXKXKXKXKXKXKXKXKXKXKXKXKXKXKXKXKXKXKXKXKXKXKXKXKXKXKXKXKXKXKXKXKXKXKXKX",
"KXKXKXKXKXKXKXKXKXKXKXKXKXKXKXKXKXKXKXKXKXKXKXKXKXKXKXKXKXKXKXKXKXKXKXKXKXKXKXKXKXKXKXKXKXKXKXKXKXKXKXKXKXKXKXKXKXKXKXKXKXKXKXKX",
"KXKXKXKXKXKXKXKXKXKXKXKXKXKXKXKXKXKXKXKXKXKXKXKXKXKXKXKXKXKXKXKXKXKXKXKXKXKXKXKXKXKXKXKXKXKXKXKXKXKXKXKXKXKXKXKXKXKXKXKXKXKXKXKX",
"KXKXKXKXKXKXKXKXKXKXKXKXKXKXKXKXKXKXKXKXKXKXKXKXKXKXKXKXKXKXKXKXKXKXKXKXKXKXKXKXKXKXKXKXKXKXKXKXKXKXKXKXKXKXKXKXKXKXKXKXKXKXKXKX",
"KXKXKXKXKXKXKXKXKXKXKXKXKXKXKXKXKXKXKXKXKXKXKXKXKXKXKXKXKXKXKXKXKXKXKXKXKXKXKXKXKXKXKXKXKXKXKXKXKXKXKXKXKXKXKXKXKXKXKXKXKXKXKXKX",
"KXKXKXKXKXKXKXKXKXKXKXKXKXKXKXKXKXKXKXKXKXKXKXKXKXKXKXKXKXKXKXKXKXKXKXKXKXKXKXKXKXKXKXKXKXKXKXKXKXKXKXKXKXKXKXKXKXKXKXKXKXKXKXKX",
"KXKXKXKXKXKXKXKXKXKXKXKXKXKXKXKXKXKXKXKXKXKXKXKXKXKXKXKXKXKXKXKXKXKXKXKXKXKXKXKXKXKXKXKXKXKXKXKXKXKXKXKXKXKXKXKXKXKXKXKXKXKXKXKX",
"KXKXKXKXKXKXKXKXKXKXKXKXKXKXKXKXKXKXKXKXKXKXKXKXKXKXKXKXKXKXKXKXKXKXKXKXKXKXKXKXKXKXKXKXKXKXKXKXKXKXKXKXKXKXKXKXKXKXKXKXKXKXKXKX",
"KXKXKXKXKXKXKXKXKXKXKXKXKXKXKXKXKXKXKXKXKXKXKXKXKXKXKXKXKXKXKXKXKXKXKXKXKXKXKXKXKXKXKXKXKXKXKXKXKXKXKXKXKXKXKXKXKXKXKXKXKXKXKXKX",
"KXKXKXKXKXKXKXKXKXKXKXKXKXKXKXKXKXKXKXKXKXKXKXKXKXKXKXKXKXKXKXKXKXKXKXKXKXKXKXKXKXKXKXKXKXKXKXKXKXKXKXKXKXKXKXKXKXKXKXKXKXKXKXKX",
"KXKXKXKXKXKXKXKXKXKXKXKXKXKXKXKXKXKXKXKXKXKXKXKXKXKXKXKXKXKXKXKXKXKXKXKXKXKXKXKXKXKXKXKXKXKXKXKXKXKXKXKXKXKXKXKXKXKXKXKXKXKXKXKX",
"KXKXKXKXKXKXKXKXKXKXKXKXKXKXKXKXKXKXKXKXKXKXKXKXKXKXKXKXKXKXKXKXKX| @.` [.$X_ KXKXKXKXKXKXKXKXKXKXKXKXKXKXKXKXKXKXKXKXKXKXKXKXKX",
"KXKXKXKXKXKXKXKXKXKXKXKXKXKXKXKXKXKXKXKXKXKXKXKXKXKXKXKXKXKXKXKXKXx.R 6.fXVX+XKXKXKXKXKXKXKXKXKXKXKXKXKXKXKXKXKXKXKXKXKXKXKXKXKX",
"KXKXKXKXKXKXKXKXKXKXKXKXKXKXKXKXKXKXKXKXKXKXKXKXKX2.D.G g.s KXKXKXKXj ! &XZX6X( KXKXKXKXKXKXKXKXKXKXKXKXKXKXKXKXKXKXKXKXKXKXKXKX",
"KXKXKXKXKXKXKXKXKXKXKXKXKXKXKXKXKXKXKXKXKXKXKXKX7XXXK.#X{ KXKXKXKXKXH # 0 n.0.2X9XKXKXKXKXKXKXKXKXKXKXKXKXKXKXKXKXKXKXKXKXKXKXKX",
"KXKXKXKXKXKXKXKXKXKXKXKXKXKXKXKXKXKXKXKXKXKXKXKXn.^.W.c.KXKXKXKXKXKXi - @ r !.%.[ KXKXKXKXKXKXKXKXKXKXKXKXKXKXKXKXKXKXKXKXKXKXKX",
"KXKXKXKXKXKXKXKXKXKXKXKXKXKXKXKXKXKXKXKXKXKXKXh.xX%.Y X KXKX^ c KXKXKX3 KXKXx u [.KXKXKXKXKXKXKXKXKXKXKXKXKXKXKXKXKXKXKXKXKXKXKX",
"KXKXKXKXKXKXKXKXKXKXKXKXKXKXKXKXKXKXKXKXKXKXKXZ.' KXKX% KXQ AXuXF.,.< KXKXKXKX= 2.M KXKXKXKXKXKXKXKXKXKXKXKXKXKXKXKXKXKXKXKXKXKX",
"KXKXKXKXKXKXKXKXKXKXKXKXKXKXKXKXKXKXKXKXKXKXKXr KXKXKX> =.wX.XH.4X_.4.KXKXKXKXKXKXKXKXKXKXKXKXKXKXKXKXKXKXKXKXKXKXKXKXKXKXKXKXKX",
"KXKXKXKXKXKXKXKXKXKXKXKXKXKXKXKXKXKXKXKXKXKXKXKXKXKX7 oXG.NXfXF 4XhX5.I.f.KXKXKXKXKXKXKXKXKXKXKXKXKXKXKXKXKXKXKXKXKXKXKXKXKXKXKX",
"KXKXKXKXKXKXKXKXKXKXKXKXKXKXKXKXKXKXKXKXKXKXKXKXKXKXe.;XL M.L.>.U.>.y.VXHXb.KXKXKXKXKXKXKXKXKXKXKXKXKXKXKXKXKXKXKXKXKXKXKXKXKXKX",
"KXKXKXKXKXKXKXKXKXKXKXKXKXKXKXKXKXKXKXKXKXKXKXKXKX$.zXCX6XP A.pXeXO.I.jXDXc.KXKXKXKXKXKXKXKXKXKXKXKXKXKXKXKXKXKXKXKXKXKXKXKXKXKX",
"KXKXKXKXKXKXKXKXKXKXKXKXKXKXKXKXKXKXKXKXKXKX*.KXKXb J..Xs.K bXnXbXm.p.X.a.q KXKXKXKXKXKXKXKXKXKXKXKXKXKXKXKXKXKXKXKXKXKXKXKXKXKX",
"KXKXKXKXKXKXKXKXKXKXKXKXKXKXKXKXKXKXKXKXKXr j KXKXk wX>Xp.@X>.D  .p.4X(.tX] KXKXKXKXKXKXKXKXKXKXKXKXKXKXKXKXKXKXKXKXKXKXKXKXKXKX",
"KXKXKXKXKXKXKXKXKXKXKXKXKXKXKXKXKXKXKXKXKXN k.KXKXKXF.3XhXGX6.` L.yXFXr.2.a KXKXKX( KXKXKXKXKXKXKXKXKXKXKXKXKXKXKXKXKXKXKXKXKXKX",
"KXKXKXKXKXKXKXKXKXKXKXKXKXKXKXKXKXKXKXKXKX>.@.i KXKXB n 0.4Xo.[.zX5XOXP : KXKXKXC {.KXKXKXKXKXKXKXKXKXKXKXKXKXKXKXKXKXKXKXKXKXKX",
"KXKXKXKXKXKXKXKXKXKXKXKXKXKXKXKXKXKXKXKXKXS.eXV 6 *   KX; L.bXE pXJX].< KXd KX}.,XSXl.KXKXKXKXKXKXKXKXKXKXKXKXKXKXKXKXKXKXKXKXKX",
"KXKXKXKXKXKXKXKXKXKXKXKXKXKXKXKXKXKXKXKXr W.q.4._ KXKXKXKXY C.4 0.*XA KXKX5 v .XN. .9 KXKXKXKXKXKXKXKXKXKXKXKXKXKXKXKXKXKXKXKXKX",
"KXKXKXKXKXKXKXKXKXKXKXKXKXKXKXKXKXKXKXKX~ 8X=.;Xa KXKXKXKXKXKXKXKXKXKXKX+ k.;X|.hXMXz.KXKXKXKXKXKXKXKXKXKXKXKXKXKXKXKXKXKXKXKXKX",
"KXKXKXKXKXKXKXKXKXKXKXKXKXKXKXKXKXKXKXKXx ].w.4.n / KXKXKXKXKXKXKXKXKXKX2 ~.(.i.aX%XM KXKXKXKXKXKXKXKXKXKXKXKXKXKXKXKXKXKXKXKXKX",
"KXKXKXKXKXKXKXKXKXKXKXKXKXKXKXKXKXKXKXKXKXKXo . } iXg KXKXKXKXKXKXKXKXV N.V.r mX`.O KXKXKXKXKXKXKXKXKXKXKXKXKXKXKXKXKXKXKXKXKXKX",
"KXKXKXKXKXKXKXKXKXKXKXKXKXKXKXKXKXKXKXKXKXKXKXKXKXf KXKXKXKXKXKXKXKXKX$ 1 & KX( G KXKXKXKXKXKXKXKXKXKXKXKXKXKXKXKXKXKXKXKXKXKXKX",
"KXKXKXKXKXKXKXKXKXKXKXKXKXKXKXKXKXKXKXKXKXKXKXKXKXKXKXKXKXKXKXKXKXKXKXKXKXKXKXKXKXKXKXKXKXKXKXKXKXKXKXKXKXKXKXKXKXKXKXKXKXKXKXKX",
"KXKXKXKXKXKXKXKXKXKXKXKXKXKXKXKXKXKXKXKXKXKXKXKXKXKXKXKXKXKXKXKXKXKXKXKXKXKXKXKXKXKXKXKXKXKXKXKXKXKXKXKXKXKXKXKXKXKXKXKXKXKXKXKX",
"KXKXKXKXKXKXKXKXKXKXKXKXKXKXKXKXKXKXKXKXKXKXKXKXKXKXKXKXKXKXKXKXKXKXKXKXKXKXKXKXKXKXKXKXKXKXKXKXKXKXKXKXKXKXKXKXKXKXKXKXKXKXKXKX",
"KXKXKXKXKXKXKXKXKXKXKXKXKXKXKXKXKXKXKXKXKXKXKXKXKXKXKXKXKXKXKXKXKXKXKXKXKXKXKXKXKXKXKXKXKXKXKXKXKXKXKXKXKXKXKXKXKXKXKXKXKXKXKXKX",
"KXKXKXKXKXKXKXKXKXKXKXKXKXKXKXKXKXKXKXKXKXKXKXKXKXKXKXKXKXKXKXKXKXKXKXKXKXKXKXKXKXKXKXKXKXKXKXKXKXKXKXKXKXKXKXKXKXKXKXKXKXKXKXKX",
"KXKXKXKXKXKXKXKXKXKXKXKXKXKXKXKXKXKXKXKXKXKXKXKXKXKXKXKXKXKXKXKXKXKXKXKXKXKXKXKXKXKXKXKXKXKXKXKXKXKXKXKXKXKXKXKXKXKXKXKXKXKXKXKX",
"KXKXKXKXKXKXKXKXKXKXKXKXKXKXKXKXKXKXKXKXKXKXKXKXKXKXKXKXKXKXKXKXKXKXKXKXKXKXKXKXKXKXKXKXKXKXKXKXKXKXKXKXKXKXKXKXKXKXKXKXKXKXKXKX",
"KXKXKXKXKXKXKXKXKXKXKXKXKXKXKXKXKXKXKXKXKXKXKXKXKXKXKXKXKXKXKXKXKXKXKXKXKXKXKXKXKXKXKXKXKXKXKXKXKXKXKXKXKXKXKXKXKXKXKXKXKXKXKXKX",
"KXKXKXKXKXKXKXKXKXKXKXKXKXKXKXKXKXKXKXKXKXKXKXKXKXKXKXKXKXKXKXKXKXKXKXKXKXKXKXKXKXKXKXKXKXKXKXKXKXKXKXKXKXKXKXKXKXKXKXKXKXKXKXKX",
"KXKXKXKXKXKXKXKXKXKXKXKXKXKXKXKXKXKXKXKXKXKXKXKXKXKXKXKXKXKXKXKXKXKXKXKXKXKXKXKXKXKXKXKXKXKXKXKXKXKXKXKXKXKXKXKXKXKXKXKXKXKXKXKX",
"KXKXKXKXKXKXKXKXKXKXKXKXKXKXKXKXKXKXKXKXKXKXKXKXKXKXKXKXKXKXKXKXKXKXKXKXKXKXKXKXKXKXKXKXKXKXKXKXKXKXKXKXKXKXKXKXKXKXKXKXKXKXKXKX",
"KXKXKXKXKXKXKXKXKXKXKXKXKXKXKXKXKXKXKXKXKXKXKXKXKXKXKXKXKXKXKXKXKXKXKXKXKXKXKXKXKXKXKXKXKXKXKXKXKXKXKXKXKXKXKXKXKXKXKXKXKXKXKXKX",
"KXKXKXKXKXKXKXKXKXKXKXKXKXKXKXKXKXKXKXKXKXKXKXKXKXKXKXKXKXKXKXKXKXKXKXKXKXKXKXKXKXKXKXKXKXKXKXKXKXKXKXKXKXKXKXKXKXKXKXKXKXKXKXKX",
"KXKXKXKXKXKXKXKXKXKXKXKXKXKXKXKXKXKXKXKXKXKXKXKXKXKXKXKXKXKXKXKXKXKXKXKXKXKXKXKXKXKXKXKXKXKXKXKXKXKXKXKXKXKXKXKXKXKXKXKXKXKXKXKX",
"KXKXKXKXKXKXKXKXKXKXKXKXKXKXKXKXKXKXKXKXKXKXKXKXKXKXKXKXKXKXKXKXKXKXKXKXKXKXKXKXKXKXKXKXKXKXKXKXKXKXKXKXKXKXKXKXKXKXKXKXKXKXKXKX",
"KXKXKXKXKXKXKXKXKXKXKXKXKXKXKXKXKXKXKXKXKXKXKXKXKXKXKXKXKXKXKXKXKXKXKXKXKXKXKXKXKXKXKXKXKXKXKXKXKXKXKXKXKXKXKXKXKXKXKXKXKXKXKXKX",
"KXKXKXKXKXKXKXKXKXKXKXKXKXKXKXKXKXKXKXKXKXKXKXKXKXKXKXKXKXKXKXKXKXKXKXKXKXKXKXKXKXKXKXKXKXKXKXKXKXKXKXKXKXKXKXKXKXKXKXKXKXKXKXKX",
"KXKXKXKXKXKXKXKXKXKXKXKXKXKXKXKXKXKXKXKXKXKXKXKXKXKXKXKXKXKXKXKXKXKXKXKXKXKXKXKXKXKXKXKXKXKXKXKXKXKXKXKXKXKXKXKXKXKXKXKXKXKXKXKX",
"KXKXKXKXKXKXKXKXKXKXKXKXKXKXKXKXKXKXKXKXKXKXKXKXKXKXKXKXKXKXKXKXKXKXKXKXKXKXKXKXKXKXKXKXKXKXKXKXKXKXKXKXKXKXKXKXKXKXKXKXKXKXKXKX",
"KXKXKXKXKXKXKXKXKXKXKXKXKXKXKXKXKXKXKXKXKXKXKXKXKXKXKXKXKXKXKXKXKXKXKXKXKXKXKXKXKXKXKXKXKXKXKXKXKXKXKXKXKXKXKXKXKXKXKXKXKXKXKXKX",
"KXKXKXKXKXKXKXKXKXKXKXKXKXKXKXKXKXKXKXKXKXKXKXKXKXKXKXKXKXKXKXKXKXKXKXKXKXKXKXKXKXKXKXKXKXKXKXKXKXKXKXKXKXKXKXKXKXKXKXKXKXKXKXKX"
};
