/* XPM */
static char *Rokc3_snow_shadow_dark1[] = {
/* columns rows colors chars-per-pixel */
"64 64 16 1 ",
"  c #343537",
". c #3A3432",
"X c #3E474D",
"o c #554C47",
"O c #736259",
"+ c #9C846D",
"@ c #79858D",
"# c #88949A",
"$ c #BDA781",
"% c #99A8AF",
"& c #B3C3C7",
"* c #AAC5DC",
"= c #BDD1D6",
"- c #D6E7E8",
"; c #F2FFFF",
": c None",
/* pixels */
"::::::::::::::::::::::::::::::::::::::::::::::::::::::::::::::::",
"::::::::::::::::::::::::::::::::::::::::::::::::::::::::::::::::",
":::::::::::::::::::::::::::::::::::XXX::::::::::::::::::::::::::",
":::::::::::::::::::::::::::::::::XX---X:::::::::::::::::::::::::",
"::::::::::::::::::::::::::::::::X------X::::::::::::::::::::::::",
":::::::::::::::::::::::::::::::X--;;;;--X:::::::::::::::::::::::",
"::::::::::::::::::::::::::::::X--;;;;;;;-XX:::::::::::::::::::::",
":::::::::::::::::::::::::::::X--;;;;;;;;;-&X::::::::::::::::::::",
"::::::::::::::::::::::::::::X--;;;;;;;;;;;-&X:::::::::::::::::::",
":::::::::::::::::::::::::::X#--;;;;;;;;;;;--&X::::::::::::::::::",
"::::::::::::::::::::::::::X#&-;;;;;;;;;;;;;-&#X:::::::::::::::::",
"::::::::::::::::::::X::::X##--;;;;;;;;;;;;;--&X:::::::::::::::::",
"::::::::::::::::::XX-X::X##&--;;;;;;;;;;;;;--&#X::::::::::::::::",
":::::::::::::::::X----X:X##&--;;;;;;;;;;;;;--&#X::::::::::::::::",
"::::::::::::::::X&-;;--XO##&---;;;;;;;;;;;---&##X:::::::::::::::",
":::::::::::::::X&-;;;--+O##&&--;;;;;;;;;;;---&##X:::::::::::::::",
"::::::::::::::X#&--;--++OO#&&---;;;;;;;;;---&&##OX::::::::::::::",
":::::::::::::X#&-----+++OOO#&----;;;;;;;----&&#OOX::::::::::::::",
"::::::::::::X#&-$---++--OOO#&&----;;;;;-----&&#OOX::::::::::::::",
"::::::::::::X#&O+$$++-;;-OO##&-------------&&&#OOOX:::::::::::::",
":::::::::::: OOO++++-;;;;-O+#&&-----------&&&&#OOOX:::::::::::::",
":::::::::::.oOOO+++-;;;;;;-++#&&---------&&&&###OOXXX:::::::::::",
":::::::::::.oO+OO#--;;;;;;--+++&&&-----&&&&&&+#OOO---X::::::::::",
"::::::::::.oO+++#&-;;;;;;;;-+++&&&&&&&&&&&$+++OOO-;;;-X:::::::::",
"::::::::::.oOO+O#&-;;;;;;;;--+++&&&&&&&&&&++++OO-;;;;;X:::::::::",
"::::::::::.ooOOO#&-;;;;;;;;--++++&&&&&&&&+++++OO-;;;;;-X::::::::",
"::::::::::.ooOOO#&-;;;;;;;;--+++*+&&&&++++*++OO-;;;;;;;- :::::::",
"::::::::%%.ooOOO+&--;;;;;;--&&+&&&+++++++&&&+O#-;;;;;;;-O.::::::",
"::::::=%%@.ooOOO++&--;;;;---&&O$&$$+++++$$&$+O#--;;;;;--O.::::::",
":::::%%%%@@.ooOO++&&--;;---&&+O$$$$++++++$$$OO#---;;;--&Oo.:::::",
"::::%%%%%%@@.oOO+&&&&------&&+O+$$++&+++++$OOO#&------&+Oo.:::::",
":::==%%%%%%@.--OO&&&-&&---&&++OO+++++++----OOO+&&----&++OO.:::::",
"::%=%%%=%%%.&&-&O+&---&&&&&+++oOO++++&-;;;--OO++&&--&&++OO.:::::",
"::%%%%%%%%%.&&&&O+&&-&&&$+++++oOOOO+&-;;;;;--OO+&&&&&++*OO.:::::",
":%%%%%%%%%@.O&&$O++&&&&$+++*+OoOOOO&-;;;;;;;-OO+$&&&++&&&Oo.::::",
":=%%%%%%%@.oO+$+OO++++$$++&&&OooOO#-;;;;;;;;;-O+$$++++$&$Oo.::::",
":%%%=%%%%@.oO+++OOO+++++++$&+OooO##-;;;;;;;;;-OO+$++++$$+Oo.%:::",
":%%===%%@@.oOO+OO+OO+---+++$OOOo##&-;;;;;;;;;-OO+++++++$+Oo.%%::",
":%%%=%%%@@.ooOOO+++O--;--+++OOOo##--;;;;;;;;;-&OO++&++O+Ooo.%%%:",
":%%%%%%%@@.ooOOOO+O--;;;-++OOOOo##---;;;;;;;--&&O++++OOOOoo.%=%:",
":%%%%%%%%@.oooOOOO&-;;;;;-OOOOooO#&---;;;;;---&&oO++OOOOoo.@===:",
"::%%%=%%%%@.ooOOOO&-;;;;;-#oOOooOO&----;;;----&&ooOOOOOooo.@%=%:",
"::%%%%%%%%%@.ooOO#&--;;;-&#oOooOOO&&---------&&OoooOOOOoo.@@%%%:",
"::%%%%%%%%%%@..oo#&&-----&#oooo+OO&&&-------&&&OOoooooo..@@%%%::",
":::%=%%%%%%%%@@.o#&&&---&&#ooo+++O&&&&-----&&&+OOoo....@@@=%%:::",
"::::%%%%%%=%%%.oo+&&&&&&&&OOooO+OO+&&&&&&&&&&$+OOoo.@@@@@%%%::::",
":::::%%%%===%@.oo+$$&&&&++OOooOOO++$&&&&&&$$$$--OOoo.@@%%%%:::::",
"::::::%%%%=%%@.ooO+$+++&++OOooOOO++$$&&&&++$$&&-&Ooo.%%%%%::::::",
"::::::::%%%%@@.oOO+$++&&&OOOooOOO+++$$++++++$&&&&Ooo.%=%%:::::::",
"::::::::%%%%@@@.OOO+++$&+OOoooOOO+++$+++++&++$&&+Ooo.%%%%:::::::",
"::::::::%=%%%@@.oOOO+++$OOO.oooOOO+++++*+++++$$$+Ooo.%%%%:::::::",
":::::::::%%%%%@@.oOOO++OOO..oooOOO++++&&&+++++$++ooo.%%%%:::::::",
"::::::::::%%%%%@@.OOOOOOO.@.ooooOO+O+$$&$$++++++Ooo.%%%%%:::::::",
":::::::::::%%=%%@@.......@@@.oooOOOO+$$$$$+++++OOo.%%=%%::::::::",
"::::::::::::%%%%%%@@@@@@@%%@@.oooOO+++$$$++++OOOoo.%===%::::::::",
":::::::::::::::%%%%%%%%%%%%%@@.oooOO+++$++O++OOOo.%%%=%:::::::::",
"::::::::::::::::::::::::%%%=%@@.oooOO+++++O+OOOo.%%%%%::::::::::",
":::::::::::::::::::::::::%%%%%@@..ooOOO++OOOOOo.%%%%%:::::::::::",
"::::::::::::::::::::::::::%%%%%@@@..oOOOOOOOO..%%%=%::::::::::::",
"::::::::::::::::::::::::::::%%=%@@@@.........@%%%%%:::::::::::::",
"::::::::::::::::::::::::::::::%%%%%@@@@@@@@@@%%%%:::::::::::::::",
"::::::::::::::::::::::::::::::::%%%%%%%%%=%%%%%:::::::::::::::::",
"::::::::::::::::::::::::::::::::::::::::::::::::::::::::::::::::",
"::::::::::::::::::::::::::::::::::::::::::::::::::::::::::::::::"
};
