/* XPM */
static char *Explosion_gas_circle9[] = {
/* columns rows colors chars-per-pixel */
"64 64 146 2 ",
"   c #055341",
".  c #095A46",
"X  c #0B5E48",
"o  c #0C6148",
"O  c #10654C",
"+  c #1A654A",
"@  c #13684E",
"#  c #1A6B4F",
"$  c #136B50",
"%  c #1C6E50",
"&  c #167256",
"*  c #1B7354",
"=  c #1E7957",
"-  c #1C7C5C",
";  c #266F4F",
":  c #227655",
">  c #257B57",
",  c #247D5B",
"<  c #2B7D59",
"1  c #327B57",
"2  c #24815C",
"3  c #2B835F",
"4  c #30855E",
"5  c #35895E",
"6  c #1F8463",
"7  c #268662",
"8  c #2F8762",
"9  c #258A64",
"0  c #2D8C64",
"q  c #208E6C",
"w  c #2D8E69",
"e  c #338B62",
"r  c #3D8D62",
"t  c #2B9065",
"y  c #269169",
"u  c #2B946B",
"i  c #2F996D",
"p  c #359364",
"a  c #3A9466",
"s  c #34946A",
"d  c #3B936C",
"f  c #359B6E",
"g  c #3C9B6D",
"h  c #369E71",
"j  c #3C9E71",
"k  c #35A275",
"l  c #3BA374",
"z  c #3FA874",
"x  c #3EA778",
"c  c #37A878",
"v  c #3CAB79",
"b  c #3EB27B",
"n  c #40885D",
"m  c #409367",
"M  c #419669",
"N  c #439D6C",
"B  c #4B996C",
"V  c #529F6E",
"C  c #449B70",
"Z  c #45A16F",
"A  c #43A372",
"S  c #4AA573",
"D  c #45AC76",
"F  c #4AAB75",
"G  c #43AB7A",
"H  c #4BAE7B",
"J  c #52A572",
"K  c #52AC76",
"L  c #5CAD76",
"P  c #56AE7A",
"I  c #44B27E",
"U  c #4CB27D",
"Y  c #4DBA7E",
"T  c #54B27C",
"R  c #5EB27C",
"E  c #54BA7E",
"W  c #5AB87E",
"Q  c #66AF78",
"!  c #6DAE7A",
"~  c #64B27A",
"^  c #6DB77F",
"/  c #61BA7F",
"(  c #45B481",
")  c #4DB681",
"_  c #4BBC86",
"`  c #47BC89",
"'  c #52B783",
"]  c #58B580",
"[  c #54BC83",
"{  c #5CBC83",
"}  c #64BC81",
"|  c #6BBD83",
" . c #75B482",
".. c #77BA83",
"X. c #7CBB87",
"o. c #4FC487",
"O. c #53C187",
"+. c #5BC386",
"@. c #53C389",
"#. c #5BC489",
"$. c #5DCA8B",
"%. c #5CCC91",
"&. c #63C586",
"*. c #6CC286",
"=. c #64C689",
"-. c #6EC388",
";. c #62CC8C",
":. c #6BCE8E",
">. c #73C286",
",. c #75CD8F",
"<. c #7ECB8C",
"1. c #6CD28F",
"2. c #63CF92",
"3. c #6BCF92",
"4. c #66D193",
"5. c #6BD393",
"6. c #75D291",
"7. c #7AD394",
"8. c #73DA94",
"9. c #79D798",
"0. c #7CDF9A",
"q. c #7AE298",
"w. c #80C68A",
"e. c #89C08C",
"r. c #8BCB8F",
"t. c #90CE93",
"y. c #8AD793",
"u. c #82DC98",
"i. c #9FD69B",
"p. c #90DD9B",
"a. c #84E39C",
"s. c #92E59F",
"d. c #8FE7A1",
"f. c #8DECA1",
"g. c #92E3A1",
"h. c #9FE7A4",
"j. c #94EBA2",
"k. c #9BE9A4",
"l. c #99F5A3",
"z. c #A4E2A2",
"x. c #A6EFAC",
"c. c #AEF4AF",
"v. c #AFF8AF",
"b. c #B3F1AC",
"n. c #B2F8B2",
"m. c None",
/* pixels */
"m.m.m.m.m.m.m.m.m.m.m.m.m.m.m.m.m.m.m.m.m.m.m.m.m.m.m.m.m.m.m.m.m.m.m.m.m.m.m.m.m.m.m.m.m.m.m.m.m.m.m.m.m.m.m.m.m.m.m.m.m.m.m.m.",
"m.m.m.m.m.m.m.m.m.m.m.m.m.m.m.m.m.m.m.m.m.m.m.m.m.m.m.m.m.m.m.m.m.m.m.m.m.m.m.m.m.m.m.m.m.m.m.m.m.m.m.m.m.m.m.m.m.m.m.m.m.m.m.m.",
"m.m.m.m.m.m.m.m.m.m.m.m.m.m.m.m.m.m.m.m.m.m.m.m.m.m.m.m.m.m.m.m.m.m.m.m.m.m.m.m.m.m.m.m.m.m.m.m.m.m.m.m.m.m.m.m.m.m.m.m.m.m.m.m.",
"m.m.m.m.m.m.m.m.m.m.m.m.m.m.m.m.m.m.m.m.m.m.m.m.m.m.m.m.m.m.m.m.m.m.m.m.m.m.m.m.m.m.m.m.m.m.m.m.m.m.m.m.m.m.m.m.m.m.m.m.m.m.m.m.",
"m.m.m.m.m.m.m.m.m.m.m.m.m.m.m.m.m.m.m.m.m.m.m.m.m.m.m.m.m.m.m.m.m.m.m.m.m.m.m.m.m.m.m.m.m.m.m.m.m.m.m.m.m.m.m.m.m.m.m.m.m.m.m.m.",
"m.m.m.m.m.m.m.m.m.m.m.m.m.m.m.m.m.m.m.m.m.m.m.m.m.m.m.m.m.m.m.m.m.m.m.m.m.m.m.m.m.m.m.m.m.m.m.m.m.m.m.m.m.m.m.m.m.m.m.m.m.m.m.m.",
"m.m.m.m.m.m.m.m.m.m.m.m.m.m.m.m.m.m.m.m.m.m.m.m.m.m.m.m.m.m.m.m.m.m.m.m.m.m.m.m.m.m.m.m.m.m.m.m.m.m.m.m.m.m.m.m.m.m.m.m.m.m.m.m.",
"m.m.m.m.m.m.m.m.m.m.m.m.m.m.m.m.m.m.m.m.m.m.m.m.m.m.m.m.m.m.m.m.m.m.m.m.m.m.m.m.m.m.m.m.m.m.m.m.m.m.m.m.m.m.m.m.m.m.m.m.m.m.m.m.",
"m.m.m.m.m.m.m.m.m.m.m.m.m.m.m.m.m.m.m.m.m.m.m.m.m.m.m.m.m.m.m.m.m.m.m.m.m.m.m.m.m.m.m.m.m.m.m.m.m.m.m.m.m.m.m.m.m.m.m.m.m.m.m.m.",
"m.m.m.m.m.m.m.m.m.m.m.m.m.m.m.m.m.m.m.m.m.m.m.m.m.m.m.m.m.m.m.m.m.m.m.m.m.m.m.m.m.m.m.m.m.m.m.m.m.m.m.m.m.m.m.m.m.m.m.m.m.m.m.m.",
"m.m.m.m.m.m.m.m.m.m.m.m.m.m.m.m.m.m.m.m.m.m.m.m.m.m.m.m.m.m.m.m.m.m.m.m.m.m.m.m.m.m.m.m.m.m.m.m.m.m.m.m.m.m.m.m.m.m.m.m.m.m.m.m.",
"m.m.m.m.m.m.m.m.m.m.m.m.m.m.m.m.m.m.m.m.m.m.m.m.m.m.m.m.m.m.m.m.m.m.m.m.m.m.m.m.m.m.m.m.m.m.m.m.m.m.m.m.m.m.m.m.m.m.m.m.m.m.m.m.",
"m.m.m.m.m.m.m.m.m.m.m.m.m.m.m.m.m.m.m.m.m.m.m.m.m.m.m.m.m.m.m.m.m.m.m.m.m.m.m.m.m.m.m.m.m.m.m.m.m.m.m.m.m.m.m.m.m.m.m.m.m.m.m.m.",
"m.m.m.m.m.m.m.m.m.m.m.m.m.m.m.m.m.m.m.m.m.m.m.m.m.m.m.m.m.m.m.m.m.m.m.m.m.m.m.m.m.m.m.m.m.m.m.m.m.m.m.m.m.m.m.m.m.m.m.m.m.m.m.m.",
"m.m.m.m.m.m.m.m.m.m.m.m.m.m.m.m.m.m.m.m.m.m.m.m.m.m.m.m.m.m.m.m.m.m.m.m.m.m.m.m.m.m.m.m.m.m.m.m.m.m.m.m.m.m.m.m.m.m.m.m.m.m.m.m.",
"m.m.m.m.m.m.m.m.m.m.m.m.m.m.m.m.m.m.m.m.-.R S / V m.m.m.d m.m.m.m.m.m.m.m.T m r.>.0 ] J m.m.m.m.m.m.m.m.m.m.m.m.m.m.m.m.m.m.m.m.",
"m.m.m.m.m.m.m.m.m.m.m.m.m.m.m.m.m.m.m.*.I k I ;.m.m.N W U E m.m.m.m.m.m.| @.i 9.a.%.c.{ l m.m.m.m.m.m.m.m.m.m.m.m.m.m.m.m.m.m.m.",
"m.m.m.m.m.m.m.m.m.m.m.m.m.m.m.m.m.m.p 5.k @.;.+.m.m.e k m.0 m.m.m.m.m.m.* @ m.* y @.;.= m.m.m.m.m.m.m.m.m.m.m.m.m.m.m.m.m.m.m.m.",
"m.m.m.m.m.m.m.m.m.m.m.m.m.m.m.m.m.m.r #.f i :.s m.m.m.m.m.m.m.m.m.m.m.m.m.m.m.m.e &., m.m.m.m.m.m.m.m.m.m.m.m.m.m.m.m.m.m.m.m.m.",
"m.m.m.m.m.m.m.m.m.m.m.m.m.m.m.m.i.E +.f m.m.= m.m.m.m.m.m.m.m.m.m.m.m.m.m.m.m.m.m.> m.m.m.=.8 m.m.m.m.m.m.m.m.m.m.m.m.m.m.m.m.m.",
"m.m.m.m.m.m.m.m.m.m.m.m.m.m.m.>.f.b y m.m.m.m.m.m.m.m.m.! t.R 7 | m.m.m.m.m.m.m.m.m.m.| R 8.9 m.m.m.m.m.m.m.m.m.m.m.m.m.m.m.m.m.",
"m.m.m.m.m.m.m.m.m.m.m.m.m.m.m.9 k - . m.A +.m.m.m.m.m.a g.n.1.k 4.,.K m.m.m.m.m.m.m.* l ;.2., m.m.m.m.m.m.m.m.m.m.m.m.m.m.m.m.m.",
"m.m.m.m.m.m.m.m.m.m.m.m.m.m.m.; +.s m.m.g A m.m.m.m.m.2 c h , G ;._ u ~ m.m.m.m.m.m.m.m.=.` ' 8 m.m.m.m.m.m.m.m.m.m.m.m.m.m.m.m.",
"m.m.m.m.m.m.m.m.m.m.m.m.m.m.m.A k * m.m.m.m.m.m.m.s u.S   m.m.m.* d & l 7 m.m.m.m.m.m.m.% G 5.r m.m.m.m.m.m.m.m.m.m.m.m.m.m.m.m.",
"m.m.m.m.m.m.m.m.m.m.m.m.m.m.m.m.m.m.m.m.m.m.m.m.7 i u : m.m.m.m.m.m.m.m.m.m.m.| e m.m.m.m.% l m.m.m.m.m.m.m.m.m.m.m.m.m.m.m.m.m.",
"m.m.m.m.m.m.m.m.m.m.m.m.m.m.m.m.m.m.m.m.m.m.m.m.m.m.m.m.m.m.m.m.m.m.m.3 M m.m.U 6.} m.m.m.m.m.m.m.m.m.m.m.m.m.m.m.m.m.m.m.m.m.m.",
"m.m.m.m.m.m.m.m.m.m.m.m.m.m.m.m.m.m.m.m.m.Q J m.m.m.m.m.m.m.m.m.m.m.m.D A a m.$ ( ) % m.m.m.m.m.m.m.m.m.m.m.m.m.m.m.m.m.m.m.m.m.",
"m.m.m.m.m.m.m.m.m.m.m.m.m.m.m.m.m.m.m.m.m.c i m.m.m.m.m.m.m.m.m.m.m.m.m.m.m.m.S [ j <.m.m.m.m.m.m.m.m.m.m.m.m.m.m.m.m.m.m.m.m.m.",
"m.m.m.m.m.m.m.m.m.m.m.m.m.m.m.3 m.m.m.m.+.O.*.m.m.m.m.m.m.m.m.m.m.m.m.m.m.m.m.Z 0._ 6., m.m.m.m.m.m.m.m.m.m.m.m.m.m.m.m.m.m.m.m.",
"m.m.m.m.m.m.m.m.m.m.m.m.m.m.m.D m.m.m.m.1.l.8.m.m.m.m.m.m.m.m.m.m.m.m.m.m.m.m.r g.f & m.m.m.m.m.m.s m.m.m.m.m.m.m.m.m.m.m.m.m.m.",
"m.m.m.m.m.m.m.m.m.m.m.m.m.m.g v m.m.m.M D +.u m.m.m.m.m.m.m.m.m.m.m.m.m.m.m.m.m.:.g m.m.m.m.m.m.J H m.m.m.m.m.m.m.m.m.m.m.m.m.m.",
"m.m.m.m.m.m.m.m.m.m.m.m.m.m.: m.m.m.m.=.8 m.m.m.m.m.g m.m.m.m.m.m.m.m.m.m.m.m.m.e =.C R g m.m.m.m.m.m.m.m.m.m.m.m.m.m.m.m.m.m.m.",
"m.m.m.m.m.m.m.m.m.m.m.m.m.m.m.m.m.m.m.- m.m.m.f m.R G m.m.m.m.m.m.m.m.m.m.m.m.m.m.=.4.4.+.m.m.m.m.m.m.m.m.m.m.m.m.m.m.m.m.m.m.m.",
"m.m.m.m.m.m.m.m.m.m.m.m.m.m.m.m.m.m.m.m.m.m.m.m.m., m.m.m.m.m.m.m.m.m.m.m.N m.m.m.,.k.4.T m.m.m.m.m.m.m.m.m.m.m.m.m.m.m.m.m.m.m.",
"m.m.m.m.m.m.m.m.m.m.m.m.m.m.m.m.m.m.m.S T m.J m.m.m.m.m.m.m.m.m.m.m.m.m.m.#.g m.m.F +.v g m.m.m.m.m.m.m.m.m.m.m.m.m.m.m.m.m.m.m.",
"m.m.m.m.m.m.m.m.m.m.m.m.m.m.m.7 m.m.m.-.9.y g.} m.m.m.m.m.m.m.m.m.m.m.m.m.0 p m.m.m.Z T m.m.m.m.J m.m.m.m.m.m.m.m.m.m.m.m.m.m.m.",
"m.m.m.m.m.m.m.m.m.m.m.m.m.m.m.m.m.m.m.% 0 u I s m.m.m.h j m.m.m.m.m.m.m.m.m.m.m.m.m.m.m.m.m.m.L &.m.m.m.m.m.m.m.m.m.m.m.m.m.m.m.",
"m.m.m.m.m.m.m.m.m.m.m.m.m.m.m.m.m.m.m.m.2 u u J m.m.[ x.] m.m.m.m.m.m.m.m.m.m.m.m.m.m.m.m.m.m.y.a.= m.m.m.m.m.m.m.m.m.m.m.m.m.m.",
"m.m.m.m.m.m.m.m.m.m.m.m.m.m.m.m.m.m.m.m.m.m.w G m.m.f 4.s m.m.m.m.m.m.m.m.m.m.F S m.m.m.m.m.B Y o.d m.m.m.m.m.m.m.m.m.m.m.m.m.m.",
"m.m.m.m.m.m.m.m.m.m.m.m.m.m.m.m.m.m.m.m.m.m.m.X * m.m.g m.m.m.m.m.m.m.m.m.P d.Y m.m.m.m.m.{ 8.;.[ u.m.m.m.m.m.m.m.m.m.m.m.m.m.m.",
"m.m.m.m.m.m.m.m.m.m.m.m.m.5 ;.6.p.m.= { m.m.m.m.m.m.m.1 m.X.z.K m.m.m.2 &.O.b - m.m.m.m.| G 0 I v h n m.m.m.m.m.m.m.m.m.m.m.m.m.",
"m.m.m.m.m.m.m.m.m.m.m.m.m.V @.y $.m.m.:.} m.m.m.m.m.m.{ } [ f.o.h.k.t k v.g.* m.m.m.m.m.S e m.-.7.+.b.} m.m.m.m.m.m.m.m.m.m.m.m.",
"m.m.m.m.m.m.m.m.m.m.m.m.m.*.U H %.t l 4.H m.m.m.m.m.m.* c 4.l 6 ;.;.( 4.8.1.* m.m.m.m.m.m.m.m.H [ 0 +.f m.m.m.m.m.m.m.m.m.m.m.m.",
"m.m.m.m.m.m.m.m.m.m.m.m.m.m.m.f _ 5.5.d * S m.m.m.m.m.m.% ) * m.h l 8 @.u.0 m.m.m.m.m.m.m.m.m.m.m.m.s m.m.m.m.m.m.m.m.m.m.m.m.m.",
"m.m.m.m.m.m.m.m.m.m.m.m.m.m.m.m.v q.0.S m.m.m.m.m.m.m.m.m.X m.m.# : m.$ j m.m.m.m.m.K ^ m.m.C m.m.m.= m.m.m.m.m.m.m.m.m.m.m.m.m.",
"m.m.m.m.m.m.m.m.m.m.m.m.m.m.m.m.& - = $ m.m.m.m.m.m.m.m.m.m.m.m.m.m.m.m.m.m.m.m.m. ._ [ m.m.m.m.m.m.m.m.m.m.m.m.m.m.m.m.m.m.m.m.",
"m.m.m.m.m.m.m.m.m.m.m.m.m.m.m.m.m.m.m.m.m.m.m.m.m.e...m.m.m.m.m.m.m.m.m.m.m.m.m.T a.;.w.m.m.m.m.m.m.m.m.m.m.m.m.m.m.m.m.m.m.m.m.",
"m.m.m.m.m.m.m.m.m.m.m.m.m.m.m.m.m.m.m.m.m.m.m.Y 9 7.' M w.m.m.m.m.m.m.m.m.> l + T c U [ : m.m.m.m.m.m.m.m.m.m.m.m.m.m.m.m.m.m.m.",
"m.m.m.m.m.m.m.m.m.m.m.m.m.m.m.m.m.m.m.m.m.m.m.=.y G ) 8.2.a m.m.m.m.m.m.m.= O m.U G k.3., m.m.m.m.m.m.m.m.m.m.m.m.m.m.m.m.m.m.m.",
"m.m.m.m.m.m.m.m.m.m.m.m.m.m.m.m.m.m.m.m.m.m.m.A 7 % F ) 9 p < m.m.m.m.m.m.m.m.m.m.m.d , m.m.m.m.m.m.m.m.m.m.m.m.m.m.m.m.m.m.m.m.",
"m.m.m.m.m.m.m.m.m.m.m.m.m.m.m.m.m.m.m.m.m.m.m.m.m.m.m.m.m.m.m.m.m.m.m.m.m.m.m.m.m.m.m.m.m.m.m.m.m.m.m.m.m.m.m.m.m.m.m.m.m.m.m.m.",
"m.m.m.m.m.m.m.m.m.m.m.m.m.m.m.m.m.m.m.m.m.m.m.m.m.m.m.m.m.m.m.m.m.m.m.m.m.m.m.m.m.m.m.m.m.m.m.m.m.m.m.m.m.m.m.m.m.m.m.m.m.m.m.m.",
"m.m.m.m.m.m.m.m.m.m.m.m.m.m.m.m.m.m.m.m.m.m.m.m.m.m.m.m.m.m.m.m.m.m.m.m.m.m.m.m.m.m.m.m.m.m.m.m.m.m.m.m.m.m.m.m.m.m.m.m.m.m.m.m.",
"m.m.m.m.m.m.m.m.m.m.m.m.m.m.m.m.m.m.m.m.m.m.m.m.m.m.m.m.m.m.m.m.m.m.m.m.m.m.m.m.m.m.m.m.m.m.m.m.m.m.m.m.m.m.m.m.m.m.m.m.m.m.m.m.",
"m.m.m.m.m.m.m.m.m.m.m.m.m.m.m.m.m.m.m.m.m.m.m.m.m.m.m.m.m.m.m.m.m.m.m.m.m.m.m.m.m.m.m.m.m.m.m.m.m.m.m.m.m.m.m.m.m.m.m.m.m.m.m.m.",
"m.m.m.m.m.m.m.m.m.m.m.m.m.m.m.m.m.m.m.m.m.m.m.m.m.m.m.m.m.m.m.m.m.m.m.m.m.m.m.m.m.m.m.m.m.m.m.m.m.m.m.m.m.m.m.m.m.m.m.m.m.m.m.m.",
"m.m.m.m.m.m.m.m.m.m.m.m.m.m.m.m.m.m.m.m.m.m.m.m.m.m.m.m.m.m.m.m.m.m.m.m.m.m.m.m.m.m.m.m.m.m.m.m.m.m.m.m.m.m.m.m.m.m.m.m.m.m.m.m.",
"m.m.m.m.m.m.m.m.m.m.m.m.m.m.m.m.m.m.m.m.m.m.m.m.m.m.m.m.m.m.m.m.m.m.m.m.m.m.m.m.m.m.m.m.m.m.m.m.m.m.m.m.m.m.m.m.m.m.m.m.m.m.m.m.",
"m.m.m.m.m.m.m.m.m.m.m.m.m.m.m.m.m.m.m.m.m.m.m.m.m.m.m.m.m.m.m.m.m.m.m.m.m.m.m.m.m.m.m.m.m.m.m.m.m.m.m.m.m.m.m.m.m.m.m.m.m.m.m.m.",
"m.m.m.m.m.m.m.m.m.m.m.m.m.m.m.m.m.m.m.m.m.m.m.m.m.m.m.m.m.m.m.m.m.m.m.m.m.m.m.m.m.m.m.m.m.m.m.m.m.m.m.m.m.m.m.m.m.m.m.m.m.m.m.m.",
"m.m.m.m.m.m.m.m.m.m.m.m.m.m.m.m.m.m.m.m.m.m.m.m.m.m.m.m.m.m.m.m.m.m.m.m.m.m.m.m.m.m.m.m.m.m.m.m.m.m.m.m.m.m.m.m.m.m.m.m.m.m.m.m.",
"m.m.m.m.m.m.m.m.m.m.m.m.m.m.m.m.m.m.m.m.m.m.m.m.m.m.m.m.m.m.m.m.m.m.m.m.m.m.m.m.m.m.m.m.m.m.m.m.m.m.m.m.m.m.m.m.m.m.m.m.m.m.m.m.",
"m.m.m.m.m.m.m.m.m.m.m.m.m.m.m.m.m.m.m.m.m.m.m.m.m.m.m.m.m.m.m.m.m.m.m.m.m.m.m.m.m.m.m.m.m.m.m.m.m.m.m.m.m.m.m.m.m.m.m.m.m.m.m.m.",
"m.m.m.m.m.m.m.m.m.m.m.m.m.m.m.m.m.m.m.m.m.m.m.m.m.m.m.m.m.m.m.m.m.m.m.m.m.m.m.m.m.m.m.m.m.m.m.m.m.m.m.m.m.m.m.m.m.m.m.m.m.m.m.m."
};
