/* XPM */
static char *Explosion_gas_circle10[] = {
/* columns rows colors chars-per-pixel */
"64 64 113 2 ",
"   c #08543F",
".  c #105F45",
"X  c #0F654E",
"o  c #146447",
"O  c #156449",
"+  c #146B4E",
"@  c #1A6B4D",
"#  c #166C51",
"$  c #1B6E50",
"%  c #1A7455",
"&  c #1E7E5A",
"*  c #236F4E",
"=  c #217555",
"-  c #2E7551",
";  c #227956",
":  c #247D5B",
">  c #2B7E59",
",  c #337E5D",
"<  c #25835D",
"1  c #2B825D",
"2  c #278A5F",
"3  c #28885F",
"4  c #31855E",
"5  c #3B855E",
"6  c #34885E",
"7  c #3C8A5F",
"8  c #2C8761",
"9  c #258B65",
"0  c #2B8B63",
"q  c #318662",
"w  c #348C63",
"e  c #3A8D62",
"r  c #3A8E68",
"t  c #2E9066",
"y  c #269169",
"u  c #2C936B",
"i  c #2F986E",
"p  c #349267",
"a  c #3B9164",
"s  c #33966A",
"d  c #3D946B",
"f  c #349B6D",
"g  c #3C9A6C",
"h  c #379D71",
"j  c #3D9E70",
"k  c #3DA374",
"l  c #458E64",
"z  c #439764",
"x  c #41956D",
"c  c #489669",
"v  c #439B6C",
"b  c #4E9C6E",
"n  c #569F6A",
"m  c #589F6E",
"M  c #459D70",
"N  c #4C9D70",
"B  c #5F9E70",
"V  c #44A472",
"C  c #4AA371",
"Z  c #43A975",
"A  c #49AA76",
"S  c #46AB78",
"D  c #4DAD7B",
"F  c #51A474",
"G  c #5BA672",
"H  c #55AA77",
"J  c #55AC7C",
"K  c #5DA978",
"L  c #47B17C",
"P  c #4DB37B",
"I  c #52B37C",
"U  c #5CB47D",
"Y  c #53BA7C",
"T  c #5FBA7D",
"R  c #66AA77",
"E  c #69AD77",
"W  c #62B07B",
"Q  c #6AB57F",
"!  c #6FBC7E",
"~  c #55BB82",
"^  c #5BBC83",
"/  c #6DB780",
"(  c #63BE84",
")  c #6CB986",
"_  c #52C185",
"`  c #5BC284",
"'  c #5FCB8A",
"]  c #64C386",
"[  c #6AC487",
"{  c #6FC887",
"}  c #63C68A",
"|  c #6AC28A",
" . c #63CA8B",
".. c #6ACC8D",
"X. c #72C686",
"o. c #70C988",
"O. c #7BCB8C",
"+. c #6ED08F",
"@. c #74D18E",
"#. c #78D28D",
"$. c #6FCD92",
"%. c #77CF94",
"&. c #78CE91",
"*. c #75D393",
"=. c #79D494",
"-. c #7BDE97",
";. c #83D397",
":. c #82DC98",
">. c #8CE29D",
",. c #8DE99F",
"<. c #93E8A0",
"1. c #A8EDA9",
"2. c None",
/* pixels */
"2.2.2.2.2.2.2.2.2.2.2.2.2.2.2.2.2.2.2.2.2.2.2.2.2.2.2.2.2.2.2.2.2.2.2.2.2.2.2.2.2.2.2.2.2.2.2.2.2.2.2.2.2.2.2.2.2.2.2.2.2.2.2.2.",
"2.2.2.2.2.2.2.2.2.2.2.2.2.2.2.2.2.2.2.2.2.2.2.2.2.2.2.2.2.2.2.2.2.2.2.2.2.2.2.2.2.2.2.2.2.2.2.2.2.2.2.2.2.2.2.2.2.2.2.2.2.2.2.2.",
"2.2.2.2.2.2.2.2.2.2.2.2.2.2.2.2.2.2.2.2.2.2.2.2.2.2.2.2.2.2.2.2.2.2.2.2.2.2.2.2.2.2.2.2.2.2.2.2.2.2.2.2.2.2.2.2.2.2.2.2.2.2.2.2.",
"2.2.2.2.2.2.2.2.2.2.2.2.2.2.2.2.2.2.2.2.2.2.2.2.2.2.2.2.2.2.2.2.2.2.2.2.2.2.2.2.2.2.2.2.2.2.2.2.2.2.2.2.2.2.2.2.2.2.2.2.2.2.2.2.",
"2.2.2.2.2.2.2.2.2.2.2.2.2.2.2.2.2.2.2.2.2.2.2.2.2.2.2.2.2.2.2.2.2.2.2.2.2.2.2.2.2.2.2.2.2.2.2.2.2.2.2.2.2.2.2.2.2.2.2.2.2.2.2.2.",
"2.2.2.2.2.2.2.2.2.2.2.2.2.2.2.2.2.2.2.2.2.2.2.2.2.2.2.2.2.2.2.2.2.2.2.2.2.2.2.2.2.2.2.2.2.2.2.2.2.2.2.2.2.2.2.2.2.2.2.2.2.2.2.2.",
"2.2.2.2.2.2.2.2.2.2.2.2.2.2.2.2.2.2.2.2.2.2.2.2.2.2.2.2.2.2.2.2.2.2.2.2.2.2.2.2.2.2.2.2.2.2.2.2.2.2.2.2.2.2.2.2.2.2.2.2.2.2.2.2.",
"2.2.2.2.2.2.2.2.2.2.2.2.2.2.2.2.2.2.2.2.2.2.2.2.2.2.2.2.2.2.2.2.2.2.2.2.2.2.2.2.2.2.2.2.2.2.2.2.2.2.2.2.2.2.2.2.2.2.2.2.2.2.2.2.",
"2.2.2.2.2.2.2.2.2.2.2.2.2.2.2.2.2.2.2.2.2.2.2.2.2.2.2.2.2.2.2.2.2.2.2.2.2.2.2.2.2.2.2.2.2.2.2.2.2.2.2.2.2.2.2.2.2.2.2.2.2.2.2.2.",
"2.2.2.2.2.2.2.2.2.2.2.2.2.2.2.2.2.2.2.2.2.2.2.2.2.2.2.2.2.2.2.2.2.2.2.2.2.2.2.2.2.2.2.2.2.2.2.2.2.2.2.2.2.2.2.2.2.2.2.2.2.2.2.2.",
"2.2.2.2.2.2.2.2.2.2.2.2.2.2.2.2.2.2.2.b 2.2.2.2.2.2.2.2.2.2.2.2.2.2.2.2.2.2.2.2.2.2.2.o.H 2.2.2.2.2.2.2.2.2.2.2.2.2.2.2.2.2.2.2.",
"2.2.2.2.2.2.2.2.2.2.2.2.2.2.2.2.2.2.F %.e 2.2.2.2.2.2.a a 2.2.2.2.2.2.2.2.2.2.2.c b V f s 2.2.2.2.2.2.2.2.2.2.2.2.2.2.2.2.2.2.2.",
"2.2.2.2.2.2.2.2.2.2.2.2.2.2.2.2.2.6 = y *.U 2.2.2.a A ^ p 2.2.2.2.2.2.2.2.2.2.2.< 4 2.2.2.2.2.2.2.2.2.2.2.2.2.2.2.2.2.2.2.2.2.2.",
"2.2.2.2.2.2.2.2.2.2.2.2.2.2.2.2.2.2.2.2.3 0 g 2.2.: 2.2.2.2.2.2.2.2.2.2.2.2.2.2.2.2.2.2.2.2.2.2.2.2.2.2.2.2.2.2.2.2.2.2.2.2.2.2.",
"2.2.2.2.2.2.2.2.2.2.2.2.2.2.2.2.W R 2.2.2.2.2.2.2.2.2.2.2.2.2.2.2.2.2.2.2.2.2.2.2.2.2.2.2.w 7 2.2.2.2.2.2.2.2.2.2.2.2.2.2.2.2.2.",
"2.2.2.2.2.2.2.2.2.2.2.2.G 2.2.2.M D 2.2.2.2.2.2.2.2.2.2.2.2.2.2.2.2.2.2.2.2.2.2.2.2.2.2.2.2.2.2.2.2.2.2.2.2.2.2.2.2.2.2.2.2.2.2.",
"2.2.2.2.2.2.2.2.2.2.2.Q <.s 2.2.2.2.2.2.2.2.2.2.2.2.2.2.B 2.2.2.2.2.2.2.2.2.2.2.2.2.2.2.2.2.2.2.2.2.2.2.2.2.2.2.2.2.2.2.2.2.2.2.",
"2.2.2.2.2.2.2.2.2.2.2.s _ : 2.2.2.2.2.2.2.2.2.2.2.2.: Y *.K 2.2.2.2.2.2.2.2.2.2.2.2.2.2.2.2.2.2.2.2.2.2.2.2.2.2.2.2.2.2.2.2.2.2.",
"2.2.2.2.2.2.2.2.2.2.2.2...g 2.2.2.2.2.2.2.2.2.2.2.2.: ^ D g 2.2.% =.! 2.2.2.2.2.2.2.2.2.2.2.2.2.U 2.2.2.2.2.2.2.2.2.2.2.2.2.2.2.",
"2.2.2.2.2.2.2.2.2.2.2.2.k 2.2.2.2.2.2.2.2.2.2.2.2.2.o 2.2.2.2.2.2.x } U 2.2.2.2.2.2.2.2.2.2.2.2...g 2.2.2.2.2.2.2.2.2.2.2.2.2.2.",
"2.2.2.2.2.2.2.2.2.2.2.2.8 2.2.2.2.2.2.2.2.2.2.a ] h 2.2.2.= q 2.2.J ; f 3 O 2.2.2.2.2.2.2.2.2.: ..A 2.2.2.2.2.2.2.2.2.2.2.2.2.2.",
"2.2.2.2.2.2.2.2.2.2.2.2.2.2.2.2.2.2.2.2.2.2.2.8 V 2.2.2.2.2.2.2.2.2.2.2.2.2.2.2.2.2.2.2.2.2.2.2.0 I 2.2.2.2.2.2.2.2.2.2.2.2.2.2.",
"2.2.2.2.2.2.2.2.2.2.2.2.2.2.2.2.2.2.2.2.2.2.2.2.2.2.2.2.2.2.2.2.2.2.2.2.q 2.2.2.2.> e 2.2.2.2.2.2.8 2.2.2.2.2.2.2.2.2.2.2.2.2.2.",
"2.2.2.2.2.2.2.2.2.2.2.2.2.2.2.2.2.2.2.2.= 2.2.2.2.2.2.2.2.2.2.2.2.2.2.2.2.2.2.2.2.2.A [ 2.2.2.2.2.2.2.2.2.2.2.2.2.2.2.2.2.2.2.2.",
"2.2.2.2.2.2.2.2.2.2.2.2.2.2.2.2.2.2.2.2.2.2.2.2.2.2.2.2.2.2.2.2.2.2.2.2.2.2.2.2.2.2.@.] 2.2.2.2.2.2.2.2.2.2.2.2.2.2.2.2.2.2.2.2.",
"2.2.2.2.2.2.2.2.2.2.2.2.2.2.2.2.R X.] 2.2.2.2.2.2.2.2.2.2.2.2.2.2.2.2.2.2.2.2.2.2.2.[ } o.2.2.2.2.2.2.2.2.2.2.2.2.2.2.2.2.2.2.2.",
"2.2.2.2.2.2.2.2.2.2.2.* 2.2.2.2.^  .P 2.2.2.2.2.2.2.2.2.2.2.2.2.2.2.2.2.2.2.2.2.2.2.2.2.j 2.2.2.2.2.2.2.2.2.2.2.2.2.2.2.2.2.2.2.",
"2.2.2.2.2.2.2.2.2.2.2.w 2.2.2.2.H -.' 3 2.2.2.2.2.2.2.2.2.2.2.2.2.2.2.2.2.2.2.2.2.2.2.2.2.2.2.2.2.2.2.2.5 2.2.2.2.2.2.2.2.2.2.2.",
"2.2.2.2.2.2.2.2.2.2.2.2.2.2.2.2.a _ & 2.2.2.2.2.2.2.2.2.2.2.2.2.2.2.2.2.2.2.2.2.2.2.w 2.2.2.2.2.2.2.2.2.N 2.2.2.2.2.2.2.2.2.2.2.",
"2.2.2.2.2.2.2.2.2.2.2.2.2.2.2.2.q Z 2.2.2.2.2.2.2.2.2.2.2.2.2.2.2.2.2.2.2.2.2.2.2.2.2.2.2.2.A R 2.2.2.2.8 v 2.2.2.2.2.2.2.2.2.2.",
"2.2.2.2.2.2.2.2.2.2.V r 2.2.2.2.4 # 2.2.2.2.2.2.2.2.2.2.2.2.2.2.2.2.2.2.2.2.2.2.2.2.2.2.2.2.V ,.v 2.2.2.2.2.2.2.2.2.2.2.2.2.2.2.",
"2.2.2.2.2.2.2.2.2.2.s 2.2.2.2.2.3 2.2.2.2.2.2.2.2.2.2.2.2.2.2.2.2.2.2.2.2.2.2.2.2.2.2.2.2.2.2.f 2.2.2.2.2.2.2.2.2.2.2.2.2.2.2.2.",
"2.2.2.2.2.2.2.2.2.2.2.2.2.2.2.2.2.2.2.2.w 2.2.2.2.2.2.2.2.2.2.2.2.2.2.2.2.2.2.2.2.2.2.2.2.r 2.  2.2.2.2.2.2.2.2.2.2.2.2.2.2.2.2.",
"2.2.2.2.2.2.2.2.2.2.2.2.2.2.2.2.2.2.2.2.2.2.2.2.2.2.2.2.2.2.2.2.2.2.2.2.2.2.2.r ^ 2.2.2.2.f v 2.2.2.2.2.2.2.2.2.2.2.2.2.2.2.2.2.",
"2.2.2.2.2.2.2.2.2.2.2.2.2.2.2.2.2.2.2.2.2.2.2.2.2.2.2.2.2.2.2.2.2.2.2.2.2.2.2.@ s w 2.2.2.% < 2.2.2.2.2.2.2.2.2.2.2.2.2.2.2.2.2.",
"2.2.2.2.2.2.2.2.2.2.2.2.2.2.2.2.2.2.2.2.2.2.2.2.2.2.2.2.2.2.2.2.2.2.2.2.2.2.2.2.2.2.2.2.2.2.2.2.2.2.2.2.2.2.2.2.2.2.2.2.2.2.2.2.",
"2.2.2.2.2.2.2.2.2.2.2.2.2.2.2.2.1 d 2.2.; 2.2.2.2.2.2.2.2.2.2.2.2.2.2.2.2.2.2.2.2.2.2.2.2.2.2.2.2.2.2.2.2.2.2.2.2.2.2.2.2.2.2.2.",
"2.2.2.2.2.2.2.2.2.2.2.2.2.2.2.2.p ;.v 2.2.2.2.2.2.2.2.2.2.2.2.2.2.2.2.2.2.2.2.2.2.2.2.2.2.2.2.2.2.2.2.2.2.2.2.2.2.2.2.2.2.2.2.2.",
"2.2.2.2.2.2.2.2.2.2.2.2.2.2.2.2.2.k u O.G 2.2.2.2.2.2.2.2.2.2.2.2.2.2.2.2.2.2.2.2.2.2.2.2.2.2.2.2.2.2.2.V B 2.2.2.2.2.2.2.2.2.2.",
"2.2.2.2.2.2.2.2.2.2.2.2.2.2.2.2.2.2.2.h 8 2.2.2.C > 2.2.2.2.2.2.2.2.2.2.2.2.2.2.2.2.2.2.2.2.2.2.2.2.2.2.< ` 2.2.2.2.2.2.2.2.2.2.",
"2.2.2.2.2.2.2.2.2.2.- 2.2.2.2.2.2.2.2.# 2.2.2.2.2.2.j v 2.2.2.2.2.2.2.2.2.2.2.2.2.2.a 2.2.2.2.2.2.2.2.2.2.S 2.2.2.2.2.2.2.2.2.2.",
"2.2.2.2.2.2.2.2.2.2.C 2.2.2.2.2.2.2.2.2.2.2.2.2.2.2.$ 2.2.2.2.2.2.2.2.2.2.2.2.2.2.` p 2.2.2.2.2.2.2.2.2.( 1.e o 2.2.2.2.2.2.2.2.",
"2.2.2.2.2.2.2.2.2.a +.J 2.2.2.2.2.2.2.2.2.2.2.2.2.2.2.2.2.2.2.2.2.2.2.2.2.2.; A T Y 2.2.2.2.2.2.2.A 1 2.V ,.| w 2.2.2.2.2.2.2.2.",
"2.2.2.2.2.2.2.2.2.2.L ^ 2.2.2.2.2.2.2.2.2.2.2.2.2.2.2.2.2.w 2.2.2.2.2.2.2.2.O :  .M 2.2.2.2.2.2.2.. 2.2.2.:.>.j 2.2.2.2.2.2.2.2.",
"2.2.2.2.2.2.2.2.2.2. .t 2.2.2.2.2.2.2.2.2.2.2.2.2.2.2.2./ ) 2.2.2.G 2.H 2.2.2.2.+ 2.2.2.2.2.2.2.2.2.2.2.2.` } 2.2.2.2.2.2.2.2.2.",
"2.2.2.2.2.2.2.2.2.2.I : 2.2.2.2.2.H 2.2.2.2.2.2.2.2.V ( [ d 2.2.2.k *.k 2.2.2.2.2.2.2.2.2.2.2.2.2.2.2.2.2.% t 2.2.2.2.2.2.2.2.2.",
"2.2.2.2.2.2.2.2.2.2.2.2.1 0 2.2.C ~ d 2.2.2.2.2.2.2.2.Y ..2.2.2.> 2.j 5 2.2.2.2.2.2.2.2.2.2.2.2.2.2.2.2.2.2.2.2.2.2.2.2.2.2.2.2.",
"2.2.2.2.2.2.2.2.2.2.2.2.d %.0 l S 2.2.2.2.2.2.2.2.2.2.# : p 2.2.% 2.2.2.2.2.2.2.2.2.2.2.2.2.2.2.2.2.2.2.2.2.2.2.2.2.2.2.2.2.2.2.",
"2.2.2.2.2.2.2.2.2.2.2.2.p ~ h >.Z 2.2.2.2.2.2.n 2.2.2.2.2.2.2.2.2.2.2.2.2.2.2.2.2.2.2.2., 2.2.2.2.2.2.2.2.2.2.2.2.2.2.2.2.2.2.2.",
"2.2.2.2.2.2.2.2.2.2.2.2.2.2.2.h : 2.2.2.2.2.J +.] 2.2.2.2.2.2.2.2.2.2.2.2.2.2.2.2.2.v >.n 2.6 2.2.2.2.2.2.2.2.2.2.2.2.2.2.2.2.2.",
"2.2.2.2.2.2.2.2.2.2.2.2.2.2.2.2.2.2.2.2.2.2.2.: u a 2.2.2.2.2.2.2.2.2.2.2.2.2.2.2.2.% f ` *.9 2.2.2.2.2.2.2.2.2.2.2.2.2.2.2.2.2.",
"2.2.2.2.2.2.2.2.2.2.2.2.2.2.2.2.2.2.2.2.0 ^ 2.2.2.e O.a 2.2.2.2.2.2.2.2.2.2.2.@ 2.2.2.2.t S 2.2.2.2.2.2.2.2.2.2.2.2.2.2.2.2.2.2.",
"2.2.2.2.2.2.2.2.2.2.2.2.2.2.2.2.2.2.2.2.2.^ ;.O.#.>.=.9 d 2.2.2.2.2.2.2.2.2.2.2.2.2.2.E #.-.0 2.2.2.2.2.2.2.2.2.2.2.2.2.2.2.2.2.",
"2.2.2.2.2.2.2.2.2.2.2.2.2.2.2.2.2.2.2.2.2.: w } ] ^ f 2.2.2.2.2.2.2.2.2.2.2.2.2.2.2.2.P k s X 2.2.2.2.2.2.2.2.2.2.2.2.2.2.2.2.2.",
"2.2.2.2.2.2.2.2.2.2.2.2.2.2.2.2.2.2.2.2.2.2.2.2.2.2.2.2.2.2.2.2.2.2.2.2.2.2.2.2.2.2.z g 2.2.2.2.2.2.2.2.2.2.2.2.2.2.2.2.2.2.2.2.",
"2.2.2.2.2.2.2.2.2.2.2.2.2.2.2.2.2.2.2.2.2.2.2.2.2.2.2.2.2.2.2.2.2.2.2.2.2.2.2.2.2.2.2.2.2.2.2.2.2.2.2.2.2.2.2.2.2.2.2.2.2.2.2.2.",
"2.2.2.2.2.2.2.2.2.2.2.2.2.2.2.2.2.2.2.2.2.2.2.2.2.2.2.2.2.2.2.2.2.2.2.2.2.2.2.2.2.2.2.2.2.2.2.2.2.2.2.2.2.2.2.2.2.2.2.2.2.2.2.2.",
"2.2.2.2.2.2.2.2.2.2.2.2.2.2.2.2.2.2.2.2.2.2.2.2.2.2.2.2.2.2.2.2.2.2.2.2.2.2.2.2.2.2.2.2.2.2.2.2.2.2.2.2.2.2.2.2.2.2.2.2.2.2.2.2.",
"2.2.2.2.2.2.2.2.2.2.2.2.2.2.2.2.2.2.2.2.2.2.2.2.2.2.2.2.2.2.2.2.2.2.2.2.2.2.2.2.2.2.2.2.2.2.2.2.2.2.2.2.2.2.2.2.2.2.2.2.2.2.2.2.",
"2.2.2.2.2.2.2.2.2.2.2.2.2.2.2.2.2.2.2.2.2.2.2.2.2.2.2.2.2.2.2.2.2.2.2.2.2.2.2.2.2.2.2.2.2.2.2.2.2.2.2.2.2.2.2.2.2.2.2.2.2.2.2.2.",
"2.2.2.2.2.2.2.2.2.2.2.2.2.2.2.2.2.2.2.2.2.2.2.2.2.2.2.2.2.2.2.2.2.2.2.2.2.2.2.2.2.2.2.2.2.2.2.2.2.2.2.2.2.2.2.2.2.2.2.2.2.2.2.2.",
"2.2.2.2.2.2.2.2.2.2.2.2.2.2.2.2.2.2.2.2.2.2.2.2.2.2.2.2.2.2.2.2.2.2.2.2.2.2.2.2.2.2.2.2.2.2.2.2.2.2.2.2.2.2.2.2.2.2.2.2.2.2.2.2.",
"2.2.2.2.2.2.2.2.2.2.2.2.2.2.2.2.2.2.2.2.2.2.2.2.2.2.2.2.2.2.2.2.2.2.2.2.2.2.2.2.2.2.2.2.2.2.2.2.2.2.2.2.2.2.2.2.2.2.2.2.2.2.2.2.",
"2.2.2.2.2.2.2.2.2.2.2.2.2.2.2.2.2.2.2.2.2.2.2.2.2.2.2.2.2.2.2.2.2.2.2.2.2.2.2.2.2.2.2.2.2.2.2.2.2.2.2.2.2.2.2.2.2.2.2.2.2.2.2.2."
};
