/* XPM */
static char *Explosion_two_colors6[] = {
/* columns rows colors chars-per-pixel */
"64 64 173 2 ",
"   c #722C0E",
".  c #78370F",
"X  c #783711",
"o  c #7D4A2A",
"O  c #736A5C",
"+  c #864214",
"@  c #884717",
"#  c #8B4A19",
"$  c #8C4B17",
"%  c #8E521A",
"&  c #8D5516",
"*  c #97541E",
"=  c #8D4D20",
"-  c #995E25",
";  c #975D29",
":  c #945525",
">  c #9C6122",
",  c #9E682A",
"<  c #A96D20",
"1  c #A0672C",
"2  c #A36A2C",
"3  c #A36923",
"4  c #AB7227",
"5  c #B07E2D",
"6  c #A66C31",
"7  c #AB7536",
"8  c #A7763C",
"9  c #AC7B30",
"0  c #AE7D46",
"q  c #76867C",
"w  c #B68330",
"e  c #B7843C",
"r  c #BD8D3E",
"t  c #BF9232",
"y  c #BE9755",
"u  c #C48E41",
"i  c #C19342",
"p  c #C49A47",
"a  c #C89B40",
"s  c #C0964F",
"d  c #C39C4D",
"f  c #CD9E4D",
"g  c #CFA94E",
"h  c #C7A15B",
"j  c #CCA75C",
"k  c #CEA152",
"l  c #D8AF57",
"z  c #D4AC5B",
"x  c #DFBB5E",
"c  c #DCB65B",
"v  c #CFAA62",
"b  c #CEAA6A",
"n  c #D5B067",
"m  c #DBBC6A",
"M  c #DBB364",
"N  c #D5B673",
"B  c #E0BE64",
"V  c #E2BD69",
"C  c #ECCD70",
"Z  c #193C88",
"A  c #133382",
"S  c #1A3691",
"D  c #2F4E8F",
"F  c #2D4488",
"G  c #344889",
"H  c #234C96",
"J  c #29549C",
"K  c #2F599F",
"L  c #3C5D9C",
"P  c #2957A1",
"I  c #345FA3",
"U  c #2E62A7",
"Y  c #3664A4",
"T  c #366DA3",
"R  c #386BA4",
"E  c #376DAF",
"W  c #3A6CAD",
"Q  c #3863A3",
"!  c #3F72AA",
"~  c #2E69B1",
"^  c #386AB3",
"/  c #306DB3",
"(  c #3E76BC",
")  c #415792",
"_  c #42609C",
"`  c #4467A4",
"'  c #4476AC",
"]  c #4B73AE",
"[  c #417CA8",
"{  c #4C79A4",
"}  c #5475AB",
"|  c #527FAC",
" . c #427CB2",
".. c #467FBB",
"X. c #738A85",
"o. c #789999",
"O. c #4884AF",
"+. c #4C88AD",
"@. c #4180B4",
"#. c #4580BE",
"$. c #4A82BB",
"%. c #4D88B4",
"&. c #5E8AB3",
"*. c #5483BA",
"=. c #568DB8",
"-. c #4F98BA",
";. c #4E94BE",
":. c #5996B7",
">. c #5394BB",
",. c #5892BE",
"<. c #529EBF",
"1. c #5898B8",
"2. c #619DB7",
"3. c #639DBF",
"4. c #55A0BF",
"5. c #5CA4BE",
"6. c #61A2AF",
"7. c #6CA3B6",
"8. c #69B0BA",
"9. c #4E8AC3",
"0. c #4387CE",
"q. c #4A86C3",
"w. c #538BC3",
"e. c #5A8FC3",
"r. c #518DC8",
"t. c #549EC3",
"y. c #5D91C5",
"u. c #4B91D0",
"i. c #5297D1",
"p. c #6C98C6",
"a. c #6A9CCC",
"s. c #7298C6",
"d. c #609ED4",
"f. c #57A5C5",
"g. c #5BABC6",
"h. c #5BA7C6",
"j. c #5FB3CB",
"k. c #62A3C7",
"l. c #62ACCA",
"z. c #64B6CC",
"x. c #69B7CB",
"c. c #78B5C1",
"v. c #72BECB",
"b. c #6CA3D3",
"n. c #65A6DB",
"m. c #69A7D9",
"M. c #72ABD7",
"N. c #74A5D1",
"B. c #74BAE9",
"V. c #7DB8E2",
"C. c #79C1CA",
"Z. c #67C2D4",
"A. c #6EC9D7",
"S. c #6CCCDB",
"D. c #68C3D5",
"F. c #77CFD7",
"G. c #71CEDA",
"H. c #6FD0DE",
"J. c #7DD2D7",
"K. c #75D0D9",
"L. c #7AD1D8",
"P. c #7DC0EC",
"I. c #F5DF91",
"U. c #80B1D8",
"Y. c #82C8CB",
"T. c #88D1CF",
"R. c #85D5D6",
"E. c #81D6D8",
"W. c #8AD9D6",
"Q. c #93D9D1",
"!. c #81C5F0",
"~. c #95D1F3",
"^. c None",
/* pixels */
"^.^.^.^.^.^.^.^.^.^.^.^.^.^.^.^.^.^.^.^.^.^.^.^.^.^.^.^.^.^.^.^.^.^.^.^.^.^.^.^.^.^.^.^.^.^.^.^.^.^.^.^.^.^.^.^.^.^.^.^.^.^.^.^.",
"^.^.^.^.^.^.^.^.^.^.^.^.^.^.^.^.^.^.^.^.^.^.^.^.^.^.^.^.^.^.^.^.^.^.^.^.^.^.^.^.^.^.^.^.^.^.^.^.^.^.^.^.^.^.^.^.^.^.^.^.^.^.^.^.",
"^.^.^.^.^.^.^.^.^.^.^.^.^.^.^.^.^.^.^.^.^.^.^.^.^.^.^.^.^.^.^.^.^.^.^.^.^.^.^.^.^.^.^.^.^.^.^.^.^.^.^.^.^.^.^.^.^.^.^.^.^.^.^.^.",
"^.^.^.^.^.^.^.^.^.^.^.^.^.^.^.^.^.^.^.^.^.^.^.^.^.^.^.^.^.^.^.^.^.^.^.^.^.^.^.^.^.^.^.^.^.^.^.^.^.^.^.^.^.^.^.^.^.^.^.^.^.^.^.^.",
"^.^.^.^.^.^.^.^.^.^.^.^.^.^.^.^.^.^.^.^.^.^.^.^.^.^.^.^.^.^.^.^.^.^.^.^.^.^.^.^.^.^.^.^.^.^.^.^.^.^.^.^.^.^.^.^.^.^.^.^.^.^.^.^.",
"^.^.^.^.^.^.^.^.^.^.^.^.^.^.^.^.^.^.^.^.^.^.^.^.^.^.^.^.^.^.^.^.^.^.^.^.^.^.^.^.^.^.^.^.^.^.^.^.^.^.^.^.^.^.^.^.^.^.^.^.^.^.^.^.",
"^.^.^.^.^.^.^.^.^.^.^.^.^.^.^.^.^.^.^.^.^.^.^.^.^.^.^.^.^.^.^.^.^.^.^.^.^.^.^.^.^.^.^.^.^.^.^.^.^.^.^.^.^.^.^.^.^.^.^.^.^.^.^.^.",
"^.^.^.^.^.^.^.^.^.^.^.^.^.^.^.^.^.^.^.^.^.^.^.^.^.^.^.^.^.^.^.^.^.^.^.^.^.^.^.^.^.^.^.^.^.^.^.^.^.^.^.^.^.^.^.^.^.^.^.^.^.^.^.^.",
"^.^.^.^.^.^.^.^.^.^.^.^.^.^.^.^.^.^.^.^.^.^.^.^.^.^.^.^.^.^.^.^.^.^.^.^.^.^.^.^.^.^.^.^.^.^.^.^.^.^.^.^.^.^.^.^.^.^.^.^.^.^.^.^.",
"^.^.^.^.^.^.^.^.^.^.^.^.^.^.^.^.^.^.^.^.^.^.^.^.^.^.^.^.^.^.^.^.^.^.^.^.^.^.^.^.^.^.^.^.^.^.^.^.^.^.^.^.^.^.^.^.^.^.^.^.^.^.^.^.",
"^.^.^.^.^.^.^.^.^.^.^.^.^.^.^.^.^.^.^.^.^.^.^.^.^.^.^.^.^.^.^.^.^.^.^.^.^.^.^.^.^.^.^.^.^.^.^.^.^.^.^.^.^.^.^.^.^.^.^.^.^.^.^.^.",
"^.^.^.^.^.^.^.^.^.^.^.^.^.^.^.^.^.^.^.^.^.^.^.^.^.^.^.^.^.^.^.^.^.^.^.^.^.^.^.^.^.^.^.^.^.^.^.^.^.^.^.^.^.^.^.^.^.^.^.^.^.^.^.^.",
"^.^.^.^.^.^.^.^.^.^.^.^.^.^.^.^.^.^.^.^.^.^.^.^.^.^.^.^.^.^.^.^.^.^.^.^.^.^.^.^.^.^.^.^.^.^.^.^.^.^.^.^.^.^.^.^.^.^.^.^.^.^.^.^.",
"^.^.^.^.^.^.^.^.^.^.^.^.^.^.^.^.^.^.^.^.^.^.^.^.^.^.^.^.^.^.^.^.^.^.^.^.^.^.^.^.^.^.^.^.^.^.^.^.^.^.^.^.^.^.^.^.^.^.^.^.^.^.^.^.",
"^.^.^.^.^.^.^.^.^.^.^.^.^.^.^.^.^.^.^.^.^.^.^.^.^.^.^.^.^.^.^.^.^.^.^.^.^.^.^.^.^.^.^.^.^.^.^.^.^.^.^.^.^.^.^.^.^.^.^.^.^.^.^.^.",
"^.^.^.^.^.^.^.^.^.^.^.^.^.^.^.^.^.^.^.^.^.^.^.^.^.^.^.^.^.^.^.^.^.^.^.^.^.^.^.^.^.^.^.^.^.^.^.^.^.^.^.^.^.^.^.^.^.^.^.^.^.^.^.^.",
"^.^.^.^.^.^.^.^.^.^.^.^.^.^.^.^.^.^.^.^.^.^.^.^.^.^.^.^.^.^.^.^.^.^.^.^.^.^.^.^.^.^.^.^.^.^.^.^.^.^.^.^.^.^.^.^.^.^.^.^.^.^.^.^.",
"^.^.^.^.^.^.^.^.^.^.^.^.^.^.^.^.^.^.^.^.^.^.^.^.^.^.^.^.^.^.^.^.^.^.^.^.^.^.^.^.^.^.^.^.^.^.^.^.^.^.^.^.^.^.^.^.^.^.^.^.^.^.^.^.",
"^.^.^.^.^.^.^.^.^.^.^.^.^.^.^.^.^.^.^.^.^.^.^.^.^.^.^.^.^.^.^.^.^.^.^.^.^.^.^.^.^.^.^.^.^.^.^.^.^.^.^.^.^.^.^.^.^.^.^.^.^.^.^.^.",
"^.^.^.^.^.^.^.^.^.^.^.^.^.^.^.^.^.^.^.^.^.^.^.^.^.^.^.^.^.^.^.^.^.^.^.^.^.^.^.^.^.^.^.^.^.^.^.^.^.^.^.^.^.^.^.^.^.^.^.^.^.^.^.^.",
"^.^.^.^.^.^.^.^.^.^.^.^.^.^.^.^.^.^.^.^.^.^.^.^.^.^.^.^.^.^.^.^.^.^.^.^.^.^.^.^.^.^.^.^.^.^.^.^.^.^.^.^.^.^.^.^.^.^.^.^.^.^.^.^.",
"^.^.^.^.^.^.^.^.^.^.^.^.^.^.^.^.^.^.^.^.^.^.^.^.^.^.^.^.^.^.^.^.^.^.^.^.^.^.^.^.^.^.^.^.^.^.^.^.^.^.^.^.^.^.^.^.^.^.^.^.^.^.^.^.",
"^.^.^.^.^.^.^.^.^.^.^.^.^.^.^.^.^.^.^.^.^.^.^.^.^.^.^.^.^.^.^.^.^.^.^.^.^.^.^.^.^.^.^.^.^.^.^.^.^.^.^.^.^.^.^.^.^.^.^.^.^.^.^.^.",
"^.^.^.^.^.^.^.^.^.^.^.^.^.^.^.^.^.^.^.^.^.^.^.^.^.^.^.^.^.^.^.^.^.^.^.^.^.^.^.^.^.^.^.^.^.^.^.^.^.^.^.^.^.^.^.^.^.^.^.^.^.^.^.^.",
"^.^.^.^.^.^.^.^.^.^.^.^.^.^.^.^.^.^.^.^.^.^.^.^.^.^.^.^.^.^.^.^.^.^.^.^.^.^.^.^.^.^.^.^.^.^.^.^.^.^.^.^.^.^.^.^.^.^.^.^.^.^.^.^.",
"^.^.^.^.^.^.^.^.^.^.^.^.^.^.^.^.^.^.^.^.^.^.^.^.^.^.^.^.^.^.^.^.^.^.^.^.^.^.^.^.^.^.w.^.^.^.^.^.^.^.^.^.^.^.^.^.^.^.^.^.^.^.^.^.",
"^.^.^.^.^.^.^.^.^.^.^.^.^.^.Y ^.^.^.^.^.^.^.^.^.^.^.^.^.^.^.Q.Q.^.^.^.^.^.^.^.^.^.w.^.^.^.^.^.^.^.^.^.^.^.^.^.^.^.^.^.^.^.^.^.^.",
"^.^.^.^.^.^.^.^.^.^.^.^.^.^.^.p.^.^.^.^.^.^.^.^.^.^.^.Q.R.J.L.K.J.R.Q.^.^.^.^.^.$.~ ^.^.^.^.^.^.^.^.^.^.^.^.^.^.^.^.^.^.^.^.^.^.",
"^.^.^.^.^.^.^.^.^.^.^.^.^.^.^.^.r.^.^.^.^.^.a.^.^.Q.J.S.S.S.S.S.S.S.S.E.c.,.^.s.$.^.^.^.^.] A ^.^.^.^.^.^.^.^.^.^.^.^.^.^.^.^.^.",
"^.^.^.^.^.^.^.^.^.^.^.^.^.^.^.^.^.^.^.^.^.^.^.' Y.K.S.S.S.S.S.S.S.S.S.D.,.>.7.e.^.^.^.^.I ^.^.^.^.^.^.^.^.^.^.^.^.^.^.^.^.^.^.^.",
"^.^.^.^.^.^.^.^.^.^.^.^.^.^.^.^.^.^.^.^.^.^.^.{ O.S.j.D.S.A.S.S.A.S.S.j.*.z.:.I ^.^.^.^.^.^.^.^.^.^.^.^.^.^.^.^.^.^.^.^.^.^.^.^.",
"^.^.^.^.^.^.^.^.^.^.^.^.^.^.^.^.^.^.^.^.^.^.^.v.[ A.%.k.S.L.L.J.K.S.S.<.T f.T 7.^.^.^.^.^.^.^.^.^.^.^.^.^.^.^.^.^.^.^.^.^.^.^.^.",
"^.^.^.^.^.^.^.^.^.^.^.^.^.^.^.# e , d ^.^.^.C.S.z.<.f.M.3.^.^.^.&.^.J.j.-.R f.W.^.^.^.^.d g 3 ^.^.^.^.^.^.^.^.^.^.^.^.^.^.^.^.^.",
"^.^.^.^.^.^.^.^.^.^.^.^.^.^.& ^.v c z j ^.| %.A.j. .2. .H ^.^.^.] ^.^.R.Z.z.S.x.' ^.^.m I.f ^.^.^.^.^.^.^.^.^.^.^.^.^.^.^.^.^.^.",
"^.^.^.^.^.^.^.^.^.^.^.^.^.^.^.^.^.e * : = o.=.f.S.1.^.^.^.^.^.^.K ^.^.^.J.A.l.b.$.^.r V u ^.^.^.^.^.^.^.^.^.^.^.^.^.^.^.^.^.^.^.",
"^.^.^.^.^.^.^.^.^.^.^.^.w h y ^.^., X ^.^.q ;...t.^.^ ^.^.^.^.^.^.^.^.^.^.;.9.y.o.; * + ^.^.^.^.^.^.^.^.^.^.^.^.^.^.^.^.^.^.^.^.",
"^.^.^.^.^.^.^.^.^.^.^.^.^.0 b N i 6 @ ^.^.T.D.f. .J ^.P ^.^.^.^.^.^.^.^.^.@.g.6.O ^.^.^.8 ^.^.^.^.^.^.^.^.^.^.^.^.^.^.^.^.^.^.^.",
"^.^.^.^.^.^.^.^.^.^.^.^.^.^.^.^.2   ^.^.^.^.S.G.^.H ^.^.^.^.^.^.^.^.^.^.^.v.H.8.X.^.. 7 ^.^.^.^.^.^.^.^.^.^.^.^.^.^.^.^.^.^.^.^.",
"^.^.^.^.^.^.^.^.^.^.^.^.^.^.^.^.^.^.^.^.^.^.G.S.^.^.S ^.H I ^.^.^.Z ^.^.^.^.S.K.^.^.^.^.^.1 C k ^.^.^.^.^.^.^.^.^.^.^.^.^.^.^.^.",
"^.^.^.^.^.^.^.^.^.^.^.^.^.^.^.g 4 ^.^.^.^.^.J.S.^.^.^.^.~ ~ ^.^...Q ^.^.^.^.S.L.^.^.^.& a k 7 ^.^.^.^.^.^.^.^.^.^.^.^.^.^.^.^.^.",
"^.^.^.^.^.^.^.^.^.^.^.^.^.^.M C t ^.@ ^.^.^.^.S.J.^.^.U.i.^.^.^.u.W L ^.^.E.S.^.^.^.^.> i l j < ^.^.^.^.^.^.^.^.^.^.^.^.^.^.^.^.",
"^.^.^.^.^.^.^.^.^.^.^.^.^.^.o - ^.^.^.^.^.^.^.+.>.&.*.m...^.^.^.^ I } ^.{ h.G.^.^.^.^.^.^.6 s - ^.^.^.^.^.^.^.^.^.^.^.^.^.^.^.^.",
"^.^.^.^.^.^.^.^.^.} ^.^.^.^.^.^.w $ .   ^.^.^.Y M.~.n.^.^.^.*.^.N.!.P.V.q.T ^.^.^.^.^.9 ^.^.^.^.^.^.^.^.^.^.^.^.^.^.^.^.^.^.^.^.",
"^.^.^.^.^.^.^.^.^.` ^.^.^.^.^.m c < @ ^.^.^.^.J n.B.0.r.i.~ M.n.d.B.( >.@.^.^.^.^.^.^.p n ^.^.^.^.^.F ^.^.^.^.^.^.^.^.^.^.^.^.^.",
"^.^.^.^.^.^.^.^.^.^.^.^.^.^.4 d ^.^.^.^.^.^.^.^.E ^.^.' $.^.^.^.^.^.G ^.^.^.^.^.^.^.^.^.^.> ^.^.^.^.^.^.^.^.^.^.^.^.^.^.^.^.^.^.",
"^.^.^.^.^.^.^.^.^.^.^.^.^.^.^.^.^.^.^.^.^.^.^.^.^.^.^.^.^.^.^.^.^.^.^.^.^.^.^.^.^.^.^.^.^.^.^.^.^.^.^.^.^.^.^.^.^.^.^.^.^.^.^.^.",
"^.^.^.^.^.^.^.^.^.^.^.^.^.^.^.^.^.^.^.) _ G ^.^.^.^.^.^.^.^.^.^.^.^.^.^.^.^.^.^.^.^.^.^.^.^.^.^.^.^.^.^.^.^.^.^.^.^.^.^.^.^.^.^.",
"^.^.^.^.^.^.^.^.^.^.^.^.^.^.^.^.^.^.^.^.^.^.^.^.^.^.^.^.^.^.^.^.^.^.^.^.^.^.^.^.^.^.^.^.^.^.^.^.^.^.^.^.^.^.^.^.^.^.^.^.^.^.^.^.",
"^.^.^.^.^.^.^.^.^.^.^.^.^.^.^.^.^.^.^.^.^.^.^.^.^.^.^.^.^.^.^.^.^.^.^.^.^.^.^.^.^.^.^.^.^.^.^.^.^.^.^.^.^.^.^.^.^.^.^.^.^.^.^.^.",
"^.^.^.^.^.^.^.^.^.^.^.^.^.^.^.^.^.^.^.^.^.^.^.^.^.^.^.^.^.^.^.^.^.^.^.^.^.^.^.^.^.^.^.^.^.^.^.^.^.^.^.^.^.^.^.^.^.^.^.^.^.^.^.^.",
"^.^.^.^.^.^.^.^.^.^.^.^.^.^.^.^.^.^.^.^.^.^.^.^.^.^.^.^.^.^.^.^.^.^.^.^.^.^.^.^.^.^.^.^.^.^.^.^.^.^.^.^.^.^.^.^.^.^.^.^.^.^.^.^.",
"^.^.^.^.^.^.^.^.^.^.^.^.^.^.^.^.^.^.^.^.^.^.^.^.^.^.^.^.^.^.^.^.^.^.^.^.^.^.^.^.^.^.^.^.^.^.^.^.^.^.^.^.^.^.^.^.^.^.^.^.^.^.^.^.",
"^.^.^.^.^.^.^.^.^.^.^.^.^.^.^.^.^.^.^.^.^.^.^.^.^.^.^.^.^.^.^.^.^.^.^.^.^.^.^.^.^.^.^.^.^.^.^.^.^.^.^.^.^.^.^.^.^.^.^.^.^.^.^.^.",
"^.^.^.^.^.^.^.^.^.^.^.^.^.^.^.^.^.^.^.^.^.^.^.^.^.^.^.^.^.^.^.^.^.^.^.^.^.^.^.^.^.^.^.^.^.^.^.^.^.^.^.^.^.^.^.^.^.^.^.^.^.^.^.^.",
"^.^.^.^.^.^.^.^.^.^.^.^.^.^.^.^.^.^.^.^.^.^.^.^.^.^.^.^.^.^.^.^.^.^.^.^.^.^.^.^.^.^.^.^.^.^.^.^.^.^.^.^.^.^.^.^.^.^.^.^.^.^.^.^.",
"^.^.^.^.^.^.^.^.^.^.^.^.^.^.^.^.^.^.^.^.^.^.^.^.^.^.^.^.^.^.^.^.^.^.^.^.^.^.^.^.^.^.^.^.^.^.^.^.^.^.^.^.^.^.^.^.^.^.^.^.^.^.^.^.",
"^.^.^.^.^.^.^.^.^.^.^.^.^.^.^.^.^.^.^.^.^.^.^.^.^.^.^.^.^.^.^.^.^.^.^.^.^.^.^.^.^.^.^.^.^.^.^.^.^.^.^.^.^.^.^.^.^.^.^.^.^.^.^.^.",
"^.^.^.^.^.^.^.^.^.^.^.^.^.^.^.^.^.^.^.^.^.^.^.^.^.^.^.^.^.^.^.^.^.^.^.^.^.^.^.^.^.^.^.^.^.^.^.^.^.^.^.^.^.^.^.^.^.^.^.^.^.^.^.^.",
"^.^.^.^.^.^.^.^.^.^.^.^.^.^.^.^.^.^.^.^.^.^.^.^.^.^.^.^.^.^.^.^.^.^.^.^.^.^.^.^.^.^.^.^.^.^.^.^.^.^.^.^.^.^.^.^.^.^.^.^.^.^.^.^.",
"^.^.^.^.^.^.^.^.^.^.^.^.^.^.^.^.^.^.^.^.^.^.^.^.^.^.^.^.^.^.^.^.^.^.^.^.^.^.^.^.^.^.^.^.^.^.^.^.^.^.^.^.^.^.^.^.^.^.^.^.^.^.^.^.",
"^.^.^.^.^.^.^.^.^.^.^.^.^.^.^.^.^.^.^.^.^.^.^.^.^.^.^.^.^.^.^.^.^.^.^.^.^.^.^.^.^.^.^.^.^.^.^.^.^.^.^.^.^.^.^.^.^.^.^.^.^.^.^.^.",
"^.^.^.^.^.^.^.^.^.^.^.^.^.^.^.^.^.^.^.^.^.^.^.^.^.^.^.^.^.^.^.^.^.^.^.^.^.^.^.^.^.^.^.^.^.^.^.^.^.^.^.^.^.^.^.^.^.^.^.^.^.^.^.^.",
"^.^.^.^.^.^.^.^.^.^.^.^.^.^.^.^.^.^.^.^.^.^.^.^.^.^.^.^.^.^.^.^.^.^.^.^.^.^.^.^.^.^.^.^.^.^.^.^.^.^.^.^.^.^.^.^.^.^.^.^.^.^.^.^.",
"^.^.^.^.^.^.^.^.^.^.^.^.^.^.^.^.^.^.^.^.^.^.^.^.^.^.^.^.^.^.^.^.^.^.^.^.^.^.^.^.^.^.^.^.^.^.^.^.^.^.^.^.^.^.^.^.^.^.^.^.^.^.^.^."
};
