/* XPM */
static char *Nuclear_explosion4[] = {
/* columns rows colors chars-per-pixel */
"64 64 212 2 ",
"   c #6C2B1D",
".  c #78351D",
"X  c #7B3A21",
"o  c #853B26",
"O  c #945A1E",
"+  c #86471F",
"@  c #9A671F",
"#  c #A56F1F",
"$  c #8A462A",
"%  c #894525",
"&  c #944C24",
"*  c #934A29",
"=  c #895127",
"-  c #9C5B2B",
";  c #995528",
":  c #834F31",
">  c #995B32",
",  c #A15C26",
"<  c #AA5D25",
"1  c #A65D2A",
"2  c #A65A28",
"3  c #9D6424",
"4  c #976729",
"5  c #9E663A",
"6  c #9E753C",
"7  c #A6622A",
"8  c #AB632C",
"9  c #A56D2E",
"0  c #AD682E",
"q  c #A66722",
"w  c #B36C26",
"e  c #B36C2A",
"r  c #B46A28",
"t  c #A7752B",
"y  c #BC7924",
"u  c #B3732D",
"i  c #BA712C",
"p  c #BD7C2D",
"a  c #B47526",
"s  c #A46934",
"d  c #AD7634",
"f  c #A77A38",
"g  c #BC7B32",
"h  c #B47634",
"j  c #C07E34",
"k  c #8F634C",
"l  c #996B4B",
"z  c #9D7443",
"x  c #AC7F45",
"c  c #A57B43",
"v  c #A67A5B",
"b  c #946E60",
"n  c #9D7D67",
"m  c #BF812F",
"M  c #BA893B",
"N  c #B88637",
"B  c #C9801D",
"V  c #C98423",
"C  c #C4832D",
"Z  c #CD8C2B",
"A  c #CE8923",
"S  c #CE9326",
"D  c #D2952C",
"F  c #D79725",
"G  c #C28331",
"H  c #C38A33",
"J  c #CC8D32",
"K  c #C78C39",
"L  c #C2933C",
"P  c #CA973A",
"I  c #D39633",
"U  c #D49B39",
"Y  c #DCA12B",
"T  c #DBA334",
"R  c #DCA53B",
"E  c #E2AA2D",
"W  c #E1AC39",
"Q  c #E1AA33",
"!  c #E4B23A",
"~  c #EEC03A",
"^  c #AF834B",
"/  c #A88046",
"(  c #BD8E45",
")  c #B58847",
"_  c #BC954A",
"`  c #B69048",
"'  c #A7835A",
"]  c #B8945D",
"[  c #BB9E63",
"{  c #AC9374",
"}  c #B49E7D",
"|  c #B09471",
" . c #A4886A",
".. c #BEA062",
"X. c #BAA074",
"o. c #C69443",
"O. c #C39349",
"+. c #CA9944",
"@. c #C49A56",
"#. c #C18844",
"$. c #C7A24D",
"%. c #CCA84C",
"&. c #DDAB45",
"*. c #D6A647",
"=. c #DCB048",
"-. c #C7A254",
";. c #CBA152",
":. c #C9A557",
">. c #D2AB56",
",. c #D2AD5A",
"<. c #D9B35B",
"1. c #D7B159",
"2. c #E3B343",
"3. c #E3B44B",
"4. c #E7BA4D",
"5. c #E9BD4D",
"6. c #E8B943",
"7. c #E1B553",
"8. c #E5BB52",
"9. c #E5BD5B",
"0. c #E6BB57",
"q. c #CBAB66",
"w. c #CBAD6C",
"e. c #C1A46E",
"r. c #D5B46C",
"t. c #DBB766",
"y. c #C7AE7C",
"u. c #CCB57C",
"i. c #DDBD78",
"p. c #E0B261",
"a. c #ECC351",
"s. c #EBC45B",
"d. c #EDCA5B",
"f. c #EFC856",
"g. c #F5D15B",
"h. c #EFC952",
"j. c #DBC170",
"k. c #E6C164",
"l. c #EAC463",
"z. c #EDC965",
"x. c #EFCB69",
"c. c #F2CD67",
"v. c #F2CE6B",
"b. c #EFD368",
"n. c #F4D364",
"m. c #F3D36B",
"M. c #FBD66D",
"N. c #FED96E",
"B. c #E9C775",
"V. c #FDDC73",
"C. c #F2D57C",
"Z. c #F9DD7C",
"A. c #F4D575",
"S. c #F9E279",
"D. c #FAE073",
"F. c #B79F8D",
"G. c #B7A48E",
"H. c #C7AF8A",
"J. c #C1AB83",
"K. c #CAB68E",
"L. c #CBB58B",
"P. c #D7BF8E",
"I. c #C4B391",
"U. c #CFBA93",
"Y. c #C9B496",
"T. c #D3BD96",
"R. c #D7C19C",
"E. c #DCC385",
"W. c #E2C98F",
"Q. c #EBD188",
"!. c #F5DB83",
"~. c #F5DB85",
"^. c #F3DE9E",
"/. c #F4DC91",
"(. c #FAE589",
"). c #F9E284",
"_. c #F4E193",
"`. c #F9E694",
"'. c #FEED92",
"]. c #FBEC9D",
"[. c #FEF09D",
"{. c #DACAA1",
"}. c #CEC0BB",
"|. c #D7CAB8",
" X c #E0CDA6",
".X c #E7D7AA",
"XX c #E6D7B4",
"oX c #FFECA4",
"OX c #FBE8A8",
"+X c #FEF2A2",
"@X c #EFE1B6",
"#X c #F6E9B6",
"$X c #FFF9B5",
"%X c #FEF4BA",
"&X c #E9DFC7",
"*X c #F3EACB",
"=X c #FFF3C4",
"-X c #FDF3C9",
";X c #FFF9CC",
":X c #E5E0DD",
">X c #FFF9D3",
",X c #FFF9DA",
"<X c #FEF6D6",
"1X c #F4ECD6",
"2X c #F1EDEA",
"3X c #FFFBE4",
"4X c #FFFBED",
"5X c #FFFDF1",
"6X c #FFFFFD",
"7X c #F6F3F3",
"8X c #ECE7E5",
"9X c None",
/* pixels */
"9X9X9X9X9X9X9X9X9X9X9X9X9X9X9X9X9X9X9X9X9X9X9X9X9X9X9X9X9X9X9X9X9X9X9X9X9X9X9X9X9X9X9X9X9X9X9X9X9X9X9X9X9X9X9X9X9X9X9X9X9X9X9X9X",
"9X9X9X9X9X9X9X9X9X9X9X9X9X9X9X9X9X9X9X9X9X9X9X9X9X9X9X9X9X9X9X9X9X9X9X9X9X9X9X9X9X9X9X9X9X9X9X9X9X9X9X9X9X9X9X9X9X9X9X9X9X9X9X9X",
"9X9X9X9X9X9X9X9X9X9X9X9X9X9X9X9X9X9X9X9X9X9X9X9X9X9X9X9X9X9X9X9X9X9X9X9X9X9X9X9X9X9X9X9X9X9X9X9X9X9X9X9X9X9X9X9X9X9X9X9X9X9X9X9X",
"9X9X9X9X9X9X9X9X9X9X9X9X9X9X9X9X9X9X9X9X9X9X9X9X9X9X9X9X9X9X9X9X9X9X9X9X9X9X9X9X9X9X9X9X9X9X9X9X9X9X9X9X9X9X9X9X9X9X9X9X9X9X9X9X",
"9X9X9X9X9X9X9X9X9X9X9X9X9X9X9X9X9X9X9X9X9X9X9X9X9X9X9X9X9X9X9X9X9X9X9X9X9X9X9X9X9X9X9X9X9X9X9X9X9X9X9X9X9X9X9X9X9X9X9X9X9X9X9X9X",
"9X9X9X9X9X9X9X9X9X9X9X9X9X9X9X9X9X9X9X9X9X9X9X9X9X9X9X9X9X9X9X9X9X9X9X9X9X9X9X9X9X9X9X9X9X9X9X9X9X9X9X9X9X9X9X9X9X9X9X9X9X9X9X9X",
"9X9X9X9X9X9X9X9X9X9X9X9X9X9X9X9X9X9X9X9X9X9X9X9X9X9X9X9X9X9X9X9X9X9X9X9X9X9X9X9X9X9X9X9X9X9X9X9X9X9X9X9X9X9X9X9X9X9X9X9X9X9X9X9X",
"9X9X9X9X9X9X9X9X9X9X9X9X9X9X9X9X9X9X9X9X9X9X9X9X9X9X9X9X9X9X9X9X9X9X9X9X9X9X9X9X9X9X9X9X9X9X9X9X9X9X9X9X9X9X9X9X9X9X9X9X9X9X9X9X",
"9X9X9X9X9X9X9X9X9X9X9X9X9X9X9X9X9X9X9X9X9X9X9X9X9X9X9X9X9X9X9X9X9X9X9X9X9X9X9X9X9X9X9X9X9X9X9X9X9X9X9X9X9X9X9X9X9X9X9X9X9X9X9X9X",
"9X9X9X9X9X9X9X9X9X9X9X9X9X9X9X9X9X9X9X9X9X9X9X9X9X9X9X9X9X9X9X9X9X9X9X9X9X9X9X9X9X9X9X9X9X9X9X9X9X9X9X9X9X9X9X9X9X9X9X9X9X9X9X9X",
"9X9X9X9X9X9X9X9X9X9X9X9X9X9X9X9X9X9X9X9X9X9X9X9X9X9X9X9X9X9X9X9X9X9X9X9X9X9X9X9X9X9X9X9X9X9X9X9X9X9X9X9X9X9X9X9X9X9X9X9X9X9X9X9X",
"9X9X9X9X9X9X9X9X9X9X9X9X9X9X9X9X9X9X9X9X9X9X9X9X9X9X9X9X9X9X9X9X9X9X9X9X9X9X9X9X9X9X9X9X9X9X9X9X9X9X9X9X9X9X9X9X9X9X9X9X9X9X9X9X",
"9X9X9X9X9X9X9X9X9X9X9X9X9X9X9X9X9X9X9X9X9X9X9X9X9X9X9X9X9X9X9X9X9X9X9X9X9X9X9X9X9X9X9X9X9X9X9X9X9X9X9X9X9X9X9X9X9X9X9X9X9X9X9X9X",
"9X9X9X9X9X9X9X9X9X9X9X9X9X9X9X9X9X9X9X9X9X9X9X9X9X9X9X9X9X9X9X9X9X9X9X9X9X9X9X9X9X9X9X9X9X9X9X9X9X9X9X9X9X9X9X9X9X9X9X9X9X9X9X9X",
"9X9X9X9X9X9X9X9X9X9X9X9X9X9X9X9X9X9X9X9X9X9X9X9X9X9X9X9X9X9X9X9X9X9X9X9X9X9X9X9X9X9X9X9X9X9X9X9X9X9X9X9X9X9X9X9X9X9X9X9X9X9X9X9X",
"9X9X9X9X9X9X9X9X9X9X9X9X9X9X9X9X9X9X9X9X9X9X9X9X9X9X9X9X9X9X9X9X9X9X9X9X9X9X9X9X9X9X9X9X9X9X9X9X9X9X9X9X9X9X9X9X9X9X9X9X9X9X9X9X",
"9X9X9X9X9X9X9X9X9X9X9X9X9X9X9X9X9X9X9X9X9X9X9X9X9X9X9X9X9X9X9X9X9X9X9X9X9X9X9X9X9X9X9X9X9X9X9X9X9X9X9X9X9X9X9X9X9X9X9X9X9X9X9X9X",
"9X9X9X9X9X9X9X9X9X9X9X9X9X9X9X9X9X9X9X9X9X9X9X9X9X9X9X9X9X9X9X9X9X9X9X9X9X9X9X9X9X9X9X9X9X9X9X9X9X9X9X9X9X9X9X9X9X9X9X9X9X9X9X9X",
"9X9X9X9X9X9X9X9X9X9X9X9X9X9X9X9X9X9X9X9X9X9X9X9X9X9X9X9X9X9X9X9X9X9X9X9X9X9X9X9X9X9X9X9X9X9X9X9X9X9X9X9X9X9X9X9X9X9X9X9X9X9X9X9X",
"9X9X9X9X9X9X9X9X9X9X9X9X9X9X9X9X9X9X9X9X9X9X9X9X9X9X9X9X9X9X9X9X9X9X9X9X9X9X9X9X9X9X9X9X9X9X9X9X9X9X9X9X9X9X9X9X9X9X9X9X9X9X9X9X",
"9X9X9X9X9X9X9X9X9X9X9X9X9X9X9X9X9X9X9X9X9X9X9X9X9X9X9X9X9X9X9X9X9X9X9X9X9X9X9X9X9X9X9X9X9X9X9X9X9X9X9X9X9X9X9X9X9X9X9X9X9X9X9X9X",
"9X9X9X9X9X9X9X9X9X9X9X9X9X9X9X9X9X9X9X9X9X9X9X9X9X9X9X9X9X9X9X9X9X9X9X9X9X9X9X9X9X9X9X9X9X9X9X9X9X9X9X9X9X9X9X9X9X9X9X9X9X9X9X9X",
"9X9X9X9X9X9X9X9X9X9X9X9X9X9X9X9X9X9X9X9X9X9X9X9X9X9X9X9X9X9X9X9X9X9X9X9X9X9X9X9X9X9X9X9X9X9X9X9X9X9X9X9X9X9X9X9X9X9X9X9X9X9X9X9X",
"9X9X9X9X9X9X9X9X9X9X9X9X9X9X9X9X9X9X9X9X9X9X9X9X9X9X9X9X9X9X# L 3 9X9X9X9X9X9X9X9X9X9X9X9X9X9X9X9X9X9X9X9X9X9X9X9X9X9X9X9X9X9X9X",
"9X9X9X9X9X9X9X9X9X9X9X9X9X9X9X9X9X9X9X9X9X9X9X9X9X9X9X3XXX+.~.[.R * v *X,X9X9X9X9X9X9X9X9X9X9X9X9X9X9X9X9X9X9X9X9X9X9X9X9X9X9X9X",
"9X9X9X9X9X9X9X9X9X9X9X9X9X9X9X9X9X9X9X9X9X9X9X9X5X,X-X Xl P !.3.E *.h v XXXX1X6X9X9X9X9X9X9X9X9X9X9X9X9X9X9X9X9X9X9X9X9X9X9X9X9X",
"9X9X9X9X9X9X9X9X9X9X9X9X9X9X9X9X9X9X9X9X9X9X9X,X-XE.:.c g R E y C.$Xd.o.^ M @.1X6X6X9X9X9X9X9X9X9X9X9X9X9X9X9X9X9X9X9X9X9X9X9X9X",
"9X9X9X9X9X9X9X9X9X9X9X9X9X9X9X9X9X9X9X9X9X,X@XI.XX_ =.Z 8.`.(.F p./.! W i D o.XX&X8X6X9X9X9X9X9X9X9X9X9X9X9X9X9X9X9X9X9X9X9X9X9X",
"9X9X9X9X9X9X9X9X9X9X9X9X9X9X9X9X9X9X9X9X3X{.{ U.-Xq.a w V *.a.5.Z.n.E R K 1 t.oXL. .G.:X9X9X9X9X9X9X9X9X9X9X9X9X9X9X9X9X9X9X9X9X",
"9X9X9X9X9X9X9X9X9X9X9X9X9X9X9X9X9X9X9X5XU.}  X.X| X.; P !.n.!.;X%X).Q W w s @.,.Z..XY. .}.9X9X9X9X9X9X9X9X9X9X9X9X9X9X9X9X9X9X9X",
"9X9X9X9X9X9X9X9X9X9X9X9X9X9X9X9X9X9XY.XX{ .XK.z _ 1.; g c.oXm.m.a.7.2.2.r d %.6 z r.oX.X|.7Xl H _ 9X9X9X9X9X9X9X9X9X9X9X9X9X9X9X",
"9X9X9X9X9X9X9X9X9X9X9X9X9X9X9X9X9XL / R.@XI.X.l.N.M.) 7 5.6.0.g.`.x.E w * ;.V.M.,.] q.OX>X2Xb : 9 4 9X9X9X9X9X9X9X9X9X9X9X9X9X9X",
"9X9X9X9X9X9X9X9X9X9X9X9X9X9X9X9Xx ) ' T.F.J.v.N.M.M.M.M =.Q a.8.).g.e $ _ N.N.M.N.c.[ @.#X|.k n 9X9X9X9X9X9X9X9X9X9X9X9X9X9X9X9X",
"9X9X9X9X9X9X9X9X9X9X9X9X9X9X9X9X7X{.' : l q.N.M.M.<.-.;.2 *.z.5.F w _ l.m.N.M.N.N.N.c.6 r.U.F.2X9X9X9X9X9X9X9X9X9X9X9X9X9X9X9X9X",
"9X9X9X9X9X9X9X9X9X9X9X9X9X9X9X9X3X-XU.' ~.N.N.N.t...t.<.> - K `.z.t x.N.M.N.M.M.N.N.N.>./ oX;X5X9X9X9X9X9X9X9X9X9X9X9X9X9X9X9X9X",
"9X9X9X9X9X9X9X9X9X9X9X9X9X9X9X9X-X%X} W.V.M.N.n...w.p.L.` 3 7.8.3.; o.m.N.N.N.c.>.n.N.N.` t.%X;X4X9X9X9X9X9X9X9X9X9X9X9X9X9X9X9X",
"9X9X9X9X9X9X9X9X9X9X9X9X9X9X9X>X=X#XH.r.m.V.N.>.N 9.y._.g &.!.Z.s.g y M c.9.$.$.4 @.d.c.k.1.oX=X=X9X9X9X9X9X9X9X9X9X9X9X9X9X9X9X",
"9X9X9X9X9X9X9X9X9X9X9X9X9X9X9X>X#Xv > 8 h M +./ / I.@.d C (.l.#X^.a.I H ) H d.a.q s >.$.h +.Z.E.u.9X9X9X9X9X9X9X9X9X9X9X9X9X9X9X",
"9X9X9X9X9X9X9X9X9X9X9X9X9X9X9X{.H.* e Z R 4.S f W.[.=.C 5.m.9.v.Q.k.Z C.@.y n.h.r 0 V.2.- 9 >.M b.t t N 9X9X9X9X9X9X9X9X9X9X9X9X",
"9X9X9X9X9X9X9X9X9X9X9X9X9X9X*.j.l 2 8 A n.(.S U m.Y a z.;X/.9.#X>XQ.V W 3.1 < K ( 1 g i 7 d h C J m o.q 9X9X9X9X9X9X9X9X9X9X9X9X",
"9X9X9X9X9X9X9X9X9X9X9X9X9XO a.W 7.3.<.o.C C H 0.4.p ] B.x.d.5.B.B.~.).Y &.2 y ).%XR * * 8 g e I < &.0., + 9X9X9X9X9X9X9X9X9X9X9X",
"9X9X9X9X9X9X9X9X9X9X9X9X= H =.6.3.I f.S.C j 3.[.].~ S.$Xm.W 5.A.'.+X!.(.'.i.g 8.s.p o * & 1 ;.I i 8 D ; $ 9X9X9X9X9X9X9X9X9X9X9X",
"9X9X9X9X9X9X9X9X9X9X9X9X@ I ; ; & $ r C d.D.G U 5.V J ! g h T Z a.(.5.(.'.`.s 8 <.+.8 0.9 p g.a.< . O 9X9X9X9X9X9X9X9X9X9X9X9X9X",
"9X9X9X9X9X9X9X9X9X9X9X9X9X9X9X9X9X9X  % L o.& t.'.I p I 2 2 8 < j p 8.*.K h * , *.m ; h 9X. # 4 9X9X9X9X9X9X9X9X9X9X9X9X9X9X9X9X",
"9X9X9X9X9X9X9X9X9X9X9X9X9X9X9X9X9X9X9X9X9X9X9X5 #.; + 3 X $ o . . 9X9X9X    9X9X9X9X9X9X9X9X9X9X9X9X9X9X9X9X9X9X9X9X9X9X9X9X9X9X",
"9X9X9X9X9X9X9X9X9X9X9X9X9X9X9X9X9X9X9X9X9X9X9X9X9X9X9X9X9X9X9X9X9X9X9X9X9X9X9X9X9X9X9X9X9X9X9X9X9X9X9X9X9X9X9X9X9X9X9X9X9X9X9X9X",
"9X9X9X9X9X9X9X9X9X9X9X9X9X9X9X9X9X9X9X9X9X9X9X9X9X9X9X9X9X9X9X9X9X9X9X9X9X9X9X9X9X9X9X9X9X9X9X9X9X9X9X9X9X9X9X9X9X9X9X9X9X9X9X9X",
"9X9X9X9X9X9X9X9X9X9X9X9X9X9X9X9X9X9X9X9X9X9X9X9X9X9X9X9X9X9X9X9X9X9X9X9X9X9X9X9X9X9X9X9X9X9X9X9X9X9X9X9X9X9X9X9X9X9X9X9X9X9X9X9X",
"9X9X9X9X9X9X9X9X9X9X9X9X9X9X9X9X9X9X9X9X9X9X9X9X9X9X9X9X9X9X9X9X9X9X9X9X9X9X9X9X9X9X9X9X9X9X9X9X9X9X9X9X9X9X9X9X9X9X9X9X9X9X9X9X",
"9X9X9X9X9X9X9X9X9X9X9X9X9X9X9X9X9X9X9X9X9X9X9X9X9X9X9X9X9X9X9X9X9X9X9X9X9X9X9X9X9X9X9X9X9X9X9X9X9X9X9X9X9X9X9X9X9X9X9X9X9X9X9X9X",
"9X9X9X9X9X9X9X9X9X9X9X9X9X9X9X9X9X9X9X9X9X9X9X9X9X9X9X9X9X9X9X9X9X9X9X9X9X9X9X9X9X9X9X9X9X9X9X9X9X9X9X9X9X9X9X9X9X9X9X9X9X9X9X9X",
"9X9X9X9X9X9X9X9X9X9X9X9X9X9X9X9X9X9X9X9X9X9X9X9X9X9X9X9X9X9X9X9X9X9X9X9X9X9X9X9X9X9X9X9X9X9X9X9X9X9X9X9X9X9X9X9X9X9X9X9X9X9X9X9X",
"9X9X9X9X9X9X9X9X9X9X9X9X9X9X9X9X9X9X9X9X9X9X9X9X9X9X9X9X9X9X9X9X9X9X9X9X9X9X9X9X9X9X9X9X9X9X9X9X9X9X9X9X9X9X9X9X9X9X9X9X9X9X9X9X",
"9X9X9X9X9X9X9X9X9X9X9X9X9X9X9X9X9X9X9X9X9X9X9X9X9X9X9X9X9X9X9X9X9X9X9X9X9X9X9X9X9X9X9X9X9X9X9X9X9X9X9X9X9X9X9X9X9X9X9X9X9X9X9X9X",
"9X9X9X9X9X9X9X9X9X9X9X9X9X9X9X9X9X9X9X9X9X9X9X9X9X9X9X9X9X9X9X9X9X9X9X9X9X9X9X9X9X9X9X9X9X9X9X9X9X9X9X9X9X9X9X9X9X9X9X9X9X9X9X9X",
"9X9X9X9X9X9X9X9X9X9X9X9X9X9X9X9X9X9X9X9X9X9X9X9X9X9X9X9X9X9X9X9X9X9X9X9X9X9X9X9X9X9X9X9X9X9X9X9X9X9X9X9X9X9X9X9X9X9X9X9X9X9X9X9X",
"9X9X9X9X9X9X9X9X9X9X9X9X9X9X9X9X9X9X9X9X9X9X9X9X9X9X9X9X9X9X9X9X9X9X9X9X9X9X9X9X9X9X9X9X9X9X9X9X9X9X9X9X9X9X9X9X9X9X9X9X9X9X9X9X",
"9X9X9X9X9X9X9X9X9X9X9X9X9X9X9X9X9X9X9X9X9X9X9X9X9X9X9X9X9X9X9X9X9X9X9X9X9X9X9X9X9X9X9X9X9X9X9X9X9X9X9X9X9X9X9X9X9X9X9X9X9X9X9X9X",
"9X9X9X9X9X9X9X9X9X9X9X9X9X9X9X9X9X9X9X9X9X9X9X9X9X9X9X9X9X9X9X9X9X9X9X9X9X9X9X9X9X9X9X9X9X9X9X9X9X9X9X9X9X9X9X9X9X9X9X9X9X9X9X9X",
"9X9X9X9X9X9X9X9X9X9X9X9X9X9X9X9X9X9X9X9X9X9X9X9X9X9X9X9X9X9X9X9X9X9X9X9X9X9X9X9X9X9X9X9X9X9X9X9X9X9X9X9X9X9X9X9X9X9X9X9X9X9X9X9X",
"9X9X9X9X9X9X9X9X9X9X9X9X9X9X9X9X9X9X9X9X9X9X9X9X9X9X9X9X9X9X9X9X9X9X9X9X9X9X9X9X9X9X9X9X9X9X9X9X9X9X9X9X9X9X9X9X9X9X9X9X9X9X9X9X",
"9X9X9X9X9X9X9X9X9X9X9X9X9X9X9X9X9X9X9X9X9X9X9X9X9X9X9X9X9X9X9X9X9X9X9X9X9X9X9X9X9X9X9X9X9X9X9X9X9X9X9X9X9X9X9X9X9X9X9X9X9X9X9X9X",
"9X9X9X9X9X9X9X9X9X9X9X9X9X9X9X9X9X9X9X9X9X9X9X9X9X9X9X9X9X9X9X9X9X9X9X9X9X9X9X9X9X9X9X9X9X9X9X9X9X9X9X9X9X9X9X9X9X9X9X9X9X9X9X9X",
"9X9X9X9X9X9X9X9X9X9X9X9X9X9X9X9X9X9X9X9X9X9X9X9X9X9X9X9X9X9X9X9X9X9X9X9X9X9X9X9X9X9X9X9X9X9X9X9X9X9X9X9X9X9X9X9X9X9X9X9X9X9X9X9X"
};
