/* XPM */
static char *Nuclear_explosion5[] = {
/* columns rows colors chars-per-pixel */
"64 64 222 2 ",
"   c #2A0202",
".  c #4D0D0A",
"X  c #5B1A13",
"o  c #5C1611",
"O  c #4E140F",
"+  c #641E14",
"@  c #681A13",
"#  c #632416",
"$  c #6C2419",
"%  c #6B2D1B",
"&  c #6B2518",
"*  c #75251A",
"=  c #752B1C",
"-  c #7B2B1C",
";  c #742715",
":  c #72321C",
">  c #7D331E",
",  c #693019",
"<  c #7C3821",
"1  c #72382C",
"2  c #7A4328",
"3  c #794D2B",
"4  c #7B5643",
"5  c #82331E",
"6  c #8B3C1E",
"7  c #873A1C",
"8  c #833623",
"9  c #843B23",
"0  c #8B3D23",
"q  c #86451D",
"w  c #934A1D",
"e  c #994D1D",
"r  c #90441C",
"t  c #9C5D1E",
"y  c #985418",
"u  c #9F6B18",
"i  c #A7621E",
"p  c #834322",
"a  c #8C4224",
"s  c #874826",
"d  c #924424",
"f  c #954B23",
"g  c #9A4D25",
"h  c #934629",
"j  c #9B4E2A",
"k  c #974A2B",
"l  c #8A562A",
"z  c #9D5225",
"x  c #925229",
"c  c #9D5129",
"v  c #935D2D",
"b  c #975927",
"n  c #824731",
"m  c #8B5931",
"M  c #915A33",
"N  c #915C3C",
"B  c #A15425",
"V  c #A45B25",
"C  c #A25529",
"Z  c #A95D29",
"A  c #A35B29",
"S  c #99662B",
"D  c #8D6839",
"F  c #916633",
"G  c #946A36",
"H  c #9C6C36",
"J  c #9B6B3A",
"K  c #906E39",
"L  c #9A7537",
"P  c #99752F",
"I  c #A36425",
"U  c #AC6325",
"Y  c #AC6925",
"T  c #AD622B",
"R  c #A6692B",
"E  c #B36C25",
"W  c #B56C2B",
"Q  c #B66C28",
"!  c #B47325",
"~  c #BB7425",
"^  c #B67228",
"/  c #BB732A",
"(  c #B97A27",
")  c #AA7C3B",
"_  c #A37538",
"`  c #AE7437",
"'  c #C17B23",
"]  c #C27D2A",
"[  c #C0772C",
"{  c #855941",
"}  c #856645",
"|  c #966846",
" . c #8A6C58",
".. c #897558",
"X. c #97785A",
"o. c #957150",
"O. c #A47D41",
"+. c #A67D47",
"@. c #A17C5A",
"#. c #967B62",
"$. c #967C6E",
"%. c #B78436",
"&. c #B68933",
"*. c #D3931D",
"=. c #C7871F",
"-. c #CB8525",
";. c #CD8A25",
":. c #C4812A",
">. c #CC8B2C",
",. c #C68726",
"<. c #D18F28",
"1. c #D29224",
"2. c #DA9C25",
"3. c #D3952B",
"4. c #D79A2E",
"5. c #D99D28",
"6. c #C88931",
"7. c #C99035",
"8. c #D79C36",
"9. c #CE972C",
"0. c #DEA42B",
"q. c #DFA220",
"w. c #DCA439",
"e. c #E5AA26",
"r. c #E8B129",
"t. c #E1AB3A",
"y. c #E1AB34",
"u. c #E5B137",
"i. c #E5B33D",
"p. c #EAB736",
"a. c #F1C338",
"s. c #99825C",
"d. c #AA8647",
"f. c #B28B46",
"g. c #B48E48",
"h. c #B18747",
"j. c #B8944A",
"k. c #A68859",
"l. c #B4985A",
"z. c #AA905B",
"x. c #9A8367",
"c. c #A68666",
"v. c #B59868",
"b. c #AB9473",
"n. c #B29674",
"m. c #BBA47B",
"M. c #BCA66E",
"N. c #C5994A",
"B. c #D39D47",
"V. c #C59E51",
"C. c #DDAD44",
"Z. c #CAA351",
"A. c #C8A453",
"S. c #D2AB55",
"D. c #D2AD59",
"F. c #D9B55C",
"G. c #E9BD4B",
"H. c #E3B54A",
"J. c #E3BB56",
"K. c #E0AE46",
"L. c #C5AD7E",
"P. c #E2BE62",
"I. c #EEC34B",
"U. c #ECC454",
"Y. c #EDC65A",
"T. c #F1CC55",
"R. c #F0CC5A",
"E. c #F6D358",
"W. c #F4CB48",
"Q. c #E7C363",
"!. c #E9C564",
"~. c #EFCB66",
"^. c #EECE6C",
"/. c #F1CE6B",
"(. c #F0CC67",
"). c #F3D16B",
"_. c #FCD76D",
"`. c #FCD96D",
"'. c #F6D766",
"]. c #F7D972",
"[. c #E7C97A",
"{. c #FBE275",
"}. c #AA9A95",
"|. c #BBA785",
" X c #AEA4A4",
".X c #C2AB87",
"XX c #C8B58D",
"oX c #C4B297",
"OX c #D0BB94",
"+X c #CCBFB1",
"@X c #D4C29A",
"#X c #DCCA9B",
"$X c #D6C393",
"%X c #DDC381",
"&X c #EED895",
"*X c #FCE987",
"=X c #FBE99A",
"-X c #FFF498",
";X c #DBCCA3",
":X c #D7C8A0",
">X c #DFD1A7",
",X c #E5D7AC",
"<X c #E8D9AB",
"1X c #EADCB1",
"2X c #EDE1B4",
"3X c #F6E9BB",
"4X c #F9EDBE",
"5X c #F1E4B7",
"6X c #FEF2A1",
"7X c #D5CBC3",
"8X c #FAEEC0",
"9X c #FEF2C3",
"0X c #FEF4CC",
"qX c #FFF8CF",
"wX c #FEF6D5",
"eX c #FFF8D7",
"rX c #EDE4C6",
"tX c #FFFAE4",
"yX c #FFFCEF",
"uX c #FFFFFC",
"iX c #FFFCF0",
"pX c None",
/* pixels */
"pXpXpXpXpXpXpXpXpXpXpXpXpXpXpXpXpXpXpXpXpXpXpXpXpXpXpXpXpXpXpXpXpXpXpXpXpXpXpXpXpXpXpXpXpXpXpXpXpXpXpXpXpXpXpXpXpXpXpXpXpXpXpXpX",
"pXpXpXpXpXpXpXpXpXpXpXpXpXpXpXpXpXpXpXpXpXpXpXpXpXpXpXpXpXpXpXpXpXpXpXpXpXpXpXpXpXpXpXpXpXpXpXpXpXpXpXpXpXpXpXpXpXpXpXpXpXpXpXpX",
"pXpXpXpXpXpXpXpXpXpXpXpXpXpXpXpXpXpXpXpXpXpXpXpXpXpXpXpXpXpXpXpXpXpXpXpXpXpXpXpXpXpXpXpXpXpXpXpXpXpXpXpXpXpXpXpXpXpXpXpXpXpXpXpX",
"pXpXpXpXpXpXpXpXpXpXpXpXpXpXpXpXpXpXpXpXpXpXpXpXpXpXpXpXpXpXpXpXpXpXpXpXpXpXpXpXpXpXpXpXpXpXpXpXpXpXpXpXpXpXpXpXpXpXpXpXpXpXpXpX",
"pXpXpXpXpXpXpXpXpXpXpXpXpXpXpXpXpXpXpXpXpXpXpXpXpXpXpXpXpXpXpXpXpXpXpXpXpXpXpXpXpXpXpXpXpXpXpXpXpXpXpXpXpXpXpXpXpXpXpXpXpXpXpXpX",
"pXpXpXpXpXpXpXpXpXpXpXpXpXpXpXpXpXpXpXpXpXpXpXpXpXpXpXpXpXpXpXpXpXpXpXpXpXpXpXpXpXpXpXpXpXpXpXpXpXpXpXpXpXpXpXpXpXpXpXpXpXpXpXpX",
"pXpXpXpXpXpXpXpXpXpXpXpXpXpXpXpXpXpXpXpXpXpXpXpXpXpXpXpXpXpXpXpXpXpXpXpXpXpXpXpXpXpXpXpXpXpXpXpXpXpXpXpXpXpXpXpXpXpXpXpXpXpXpXpX",
"pXpXpXpXpXpXpXpXpXpXpXpXpXpXpXpXpXpXpXpXpXpXpXpXpXpXpXpXpXpXpXpXpXpXpXpXpXpXpXpXpXpXpXpXpXpXpXpXpXpXpXpXpXpXpXpXpXpXpXpXpXpXpXpX",
"pXpXpXpXpXpXpXpXpXpXpXpXpXpXpXpXpXpXpXpXpXpXpXpXpXpXpXpXpXpXpXpXpXpXpXpXpXpXpXpXpXpXpXpXpXpXpXpXpXpXpXpXpXpXpXpXpXpXpXpXpXpXpXpX",
"pXpXpXpXpXpXpXpXpXpXpXpXpXpXpXpXpXpXpXpXpXpXpXpXpXpXpXpXpXpXpXpXpXpXpXpXpXpXpXpXpXpXpXpXpXpXpXpXpXpXpXpXpXpXpXpXpXpXpXpXpXpXpXpX",
"pXpXpXpXpXpXpXpXpXpXpXpXpXpXpXpXpXpXpXpXpXpXpXpXpXpXpXpXpXpXpXpXpXpXpXpXpXpXpXpXpXpXpXpXpXpXpXpXpXpXpXpXpXpXpXpXpXpXpXpXpXpXpXpX",
"pXpXpXpXpXpXpXpXpXpXpXpXpXpXpXpXpXpXpXpXpXpXpXpXpXpXpXpXpXpXpXpXpXpXpXpXpXpXpXpXpXpXpXpXpXpXpXpXpXpXpXpXpXpXpXpXpXpXpXpXpXpXpXpX",
"pXpXpXpXpXpXpXpXpXpXpXpXpXpXpXpXpXpXpXpXpXpXpXpXpXpXpXpXpXpXpXpXpXpXpXpXpXpXpXpXpXpXpXpXpXpXpXpXpXpXpXpXpXpXpXpXpXpXpXpXpXpXpXpX",
"pXpXpXpXpXpXpXpXpXpXpXpXpXpXpXpXpXpXpXpXpXpXpXpXpXpXpXpXpXpXpXpXpXpXpXpXpXpXpXpXpXpXpXpXpXpXpXpXpXpXpXpXpXpXpXpXpXpXpXpXpXpXpXpX",
"pXpXpXpXpXpXpXpXpXpXpXpXpXpXpXpXpXpXpXpXpXpXpXpXpXpXpXpXpXpXpXpXpXpXpXpXpXpXpXpXpXpXpXpXpXpXpXpXpXpXpXpXpXpXpXpXpXpXpXpXpXpXpXpX",
"pXpXpXpXpXpXpXpXpXpXpXpXpXpXpXpXpXpXpXpXpXpXpXpXpXpXpXpXpXpXpXpXpXpXpXpXpXpXpXpXpXpXpXpXpXpXpXpXpXpXpXpXpXpXpXpXpXpXpXpXpXpXpXpX",
"pXpXpXpXpXpXpXpXpXpXpXpXpXpXpXpXpXpXpXpXpXpXpXpXpXpXpXpXpXpXpXpXpXpXpXpXpXpXpXpXpXpXpXpXpXpXpXpXpXpXpXpXpXpXpXpXpXpXpXpXpXpXpXpX",
"pXpXpXpXpXpXpXpXpXpXpXpXpXpXpXpXpXpXpXpXpXpXpXpXpXpXpXpXpXpXpXpXq p : pXpXpXpXpXpXpXpXpXpXpXpXpXpXpXpXpXpXpXpXpXpXpXpXpXpXpXpXpX",
"pXpXpXpXpXpXpXpXpXpXpXpXpXpXpXpXpXpXpXpXpXpXpXpXpXpXpXpXpXi S I 4.3.' # pXpXpXpXpXpXpXpXpXpXpXpXpXpXpXpXpXpXpXpXpXpXpXpXpXpXpXpX",
"pXpXpXpXpXpXpXpXpXpXpXpXpXpXpXpXpXpXpXpXpXpXpXpXpXpXpXpXpXI ~ U.-Xw.( = pXpXpXpXpXpXpXpXpXpXpXpXpXpXpXpXpXpXpXpXpXpXpXpXpXpXpXpX",
"pXpXpXpXpXpXpXpXpXpXpXpXpXpXpXpXpXpXpXpXpXpXpXpXpXpXpXoX%.Y ~ U.].2.V = $.pXpXpXpXpXpXpXpXpXpXpXpXpXpXpXpXpXpXpXpXpXpXpXpXpXpXpX",
"pXpXpXpXpXpXpXpXpXpXpXpXpXpXpXpXpXpXpXpXpXpXpXpXtXeXpXX.,._.~.].I.e.>.f m 1XwXwXpXpXpXpXpXpXpXpXpXpXpXpXpXpXpXpXpXpXpXpXpXpXpXpX",
"pXpXpXpXpXpXpXpXpXpXpXpXpXpXpXpXpXpXpXpXpXpXeX0X9XpX@X| ( ).*X-XU.'.R.y.3.o.9X9X9XwXpXpXpXpXpXpXpXpXpXpXpXpXpXpXpXpXpXpXpXpXpXpX",
"pXpXpXpXpXpXpXpXpXpXpXpXpXpXpXpXpXpXpXpX0X9X9X9X9X3XN :.t.4.G.*X6XR.E.a./ 2 ,XpX4X9X0XtXpXpXpXpXpXpXpXpXpXpXpXpXpXpXpXpXpXpXpXpX",
"pXpXpXpXpXpXpXpXpXpXpXpXpXpXpXpXpXpXtX0XpX5X4XpXpX@Xn T -.(.*XI.).w.'.p.-.f X.8XpX9X9XpXeXpXpXpXpXpXpXpXpXpXpXpXpXpXpXpXpXpXpXpX",
"pXpXpXpXpXpXpXpXpXpXpXpXpXpXpXpXpXtX9X4XM.x.5X;X.XJ ] 3.*.J.{.R.).R.0.;.2.Z = X..X3X4X;X4XeXpXpXpXpXpXpXpXpXpXpXpXpXpXpXpXpXpXpX",
"pXpXpXpXpXpXpXpXpXpXpXpXpXpXpXpXyXpX1Xl.d.;Xv.R 9 z ~ u.u.U.*XJ.^.W.*.0.4.V B *.! |.pXx.X.1XtXuXpXpXpXpXpXpXpXpXpXpXpXpXpXpXpXpX",
"pXpXpXpXpXpXpXpXpXpXpXpXpXpXpXiXpX<X| k.2XpX| E B y.( B B.=X{.E.*Xp.;.6.^ *.( ;.( M.pX3Xk.d.2XuXpXpXpXpXpXpXpXpXpXpXpXpXpXpXpXpX",
"pXpXpXpXpXpXpXpXpXpXpXpXpXpXiX0X4X..4 >XpXpX@.Y I b S p B.].4.e.w.W a n l ! R | | #XpX9X4Xl.j.rXuXpXpXpXpXpXpXpXpXpXpXpXpXpXpXpX",
"pXpXpXpXpXpXpXpXpXpXpXpXpXpXpXpX#X..XXpX4X=X/.g.h.V.).j.x Z %.( Y 5 2 Q.!.g.F.].[.#X#X9XpX4XM.l.7X X .pXpXpXpXpXpXpXpXpXpXpXpXpX",
"pXpXpXpXpXpXpXpXpXpXpXpX:Xc.c.>Xc.v.pX,Xd.D L F H f.pXpXh.b I.`.:.2 P.pX`.pXpX!.m m D :X2XpX4Xv.z.}.}.{ pXpXpXpXpXpXpXpXpXpXpXpX",
"pXpXpXpXpXpXpXpXpXpXpX1 3 2 #.$.} 3X$XK d.f.K G L S.pXpXV.s >.p.-.H pX`.`.`.).g.A.j.P.&Xx.m.rX2X+.b.7X{ pXpXpXpXpXpXpXpXpXpXpXpX",
"pXpXpXpXpXpXpXpXpXpXpXoXc.{ |...b.b.G P &.S.A.F.pXpX`.`.pXh.9 -.U l `.`._._.pXj.F F.N.%.O.K _ L.H 2 3 }.pXpXpXpXpXpXpXpXpXpXpXpX",
"pXpXpXpXpXpXpXpXpXpXpXqXpX1XXX#.@X2 l v &.s , s F D.pX_.pXF.< -.i d.pX`.`._.`.~.S l t l l S S z.OXo.oXpXpXpXpXpXpXpXpXpXpXpXpXpX",
"pXpXpXpXpXpXpXpXpXpXpX9X9XpX,X,X|.K ~.Q._ 3 _ j.O.S.pX`.pXP.s B I !.`.`._._._.A.D F %.D.V.[.m.o.2X;X|.pXuXpXpXpXpXpXpXpXpXpXpXpX",
"pXpXpXpXpXpXpXpXpXpXpX8XpXpXpXpX4 A.'.D.f.&.pXpXpXpX`._.`.pXM - x V.pX`._._.`.`.].d.&.pXpXpXpXx.b.3X|.3XtXpXpXpXpXpXpXpXpXpXpXpX",
"pXpXpXpXpXpXpXpXpXpX .| v.,XXX@.3 ) M I b H f.j.&.D._.`.pXf.9 C h j.pX`.pX/.~.pXpXF.P N.` J J c.3 { c.<XpXpXpXpXpXpXpXpXpXpXpXpX",
"pXpXpXpXpXpXpXpXpX1 - j j n A ~ b $ < C z 0 > > ! b _ Q.pXv Y ).%.H pXQ.J M I _ Z./.3 2 c B 0 5 a T V M .X.XpXpXpXpXpXpXpXpXpXpX",
"pXpXpXpXpXpXpXX a / C j Q U f g 0 * 0 k 6 - d f 8 0 A x _ S C.`.6.< d.x i [ W W T s 0 5 0 T d 6 8.K.<.~ I ,.Y pXpXpXpXpXpXpXpXpX",
"pXpXpXpXpXpXpX- 1.1.h T e.<.T a g 0 8 6 0 f B d * - 0 8 a B.i.E.K.b ; d E h h j 6 @ * 8 < - * f ' Y g B V 1.q.t pXpXpXpXpXpXpXpX",
"pXpXpXpXpXpX& 9 W / T Z Q T c f d 5 * d E E 2.i B ' 6 g E 2.G.'.i.a.( 5 5 = Q 8.[ 5 ; Q ~ i ~ g 0 V -.W k U V p pXpXpXpXpXpXpXpX",
"pXpXpXpXpX# h h j T ] >.0 T Z 6.3.! Y 6 j r <.2.2.a.;.0.p.2.K.t.U.t.3.7.e Z ] C.V - j C E y.r.>.d e Z h w r = B y pXpXpXpXpXpXpX",
"pXpXpXpXpXpX& 9 9 j B z z y.3.>.2.T.B.U 4.k 5 f ;.7.~ u.q.4.U.i.Q ] U.I.r.p.z e y 6 B 8 T W ] p.2.U $ * ~ ~ < p q pXpXpXpXpXpXpX",
"pXpXpXpXpXpXpXpX= C 7 + j Z g :.*.R 0 B u./ 0 B B Z g T C T ] ~ $ V Y.J.^ ^ a Z -.~ ] ; = * > z b w pXpX# & pXpXpXpXpXpXpXpXpXpX",
"pXpXpXpXpXpXpXpXpXX pXpX# + + : pXX > = z f = k j 0 % # o $ = O pX+ 7 f 5 - $ > 0 Z e . pXpXpXO pXpXpXpXpXpXpXpXpXpXpXpXpXpXpXpX",
"pXpXpXpXpXpXpXpXpXpXpXpXpXpXpXpXpXpXpXpXpXpX. + # O pXpXpXpX  pXpXpXX : % # pXpXpXpXpXpXpXpXpXpXpXpXpXpXpXpXpXpXpXpXpXpXpXpXpXpX",
"pXpXpXpXpXpXpXpXpXpXpXpXpXpXpXpXpXpXpXpXpXpXpXpXpXpXpXpXpXpXpXpXpXpXpXpXpXpXpXpXpXpXpXpXpXpXpXpXpXpXpXpXpXpXpXpXpXpXpXpXpXpXpXpX",
"pXpXpXpXpXpXpXpXpXpXpXpXpXpXpXpXpXpXpXpXpXpXpXpXpXpXpXpXpXpXpXpXpXpXpXpXpXpXpXpXpXpXpXpXpXpXpXpXpXpXpXpXpXpXpXpXpXpXpXpXpXpXpXpX",
"pXpXpXpXpXpXpXpXpXpXpXpXpXpXpXpXpXpXpXpXpXpXpXpXpXpXpXpXpXpXpXpXpXpXpXpXpXpXpXpXpXpXpXpXpXpXpXpXpXpXpXpXpXpXpXpXpXpXpXpXpXpXpXpX",
"pXpXpXpXpXpXpXpXpXpXpXpXpXpXpXpXpXpXpXpXpXpXpXpXpXpXpXpXpXpXpXpXpXpXpXpXpXpXpXpXpXpXpXpXpXpXpXpXpXpXpXpXpXpXpXpXpXpXpXpXpXpXpXpX",
"pXpXpXpXpXpXpXpXpXpXpXpXpXpXpXpXpXpXpXpXpXpXpXpXpXpXpXpXpXpXpXpXpXpXpXpXpXpXpXpXpXpXpXpXpXpXpXpXpXpXpXpXpXpXpXpXpXpXpXpXpXpXpXpX",
"pXpXpXpXpXpXpXpXpXpXpXpXpXpXpXpXpXpXpXpXpXpXpXpXpXpXpXpXpXpXpXpXpXpXpXpXpXpXpXpXpXpXpXpXpXpXpXpXpXpXpXpXpXpXpXpXpXpXpXpXpXpXpXpX",
"pXpXpXpXpXpXpXpXpXpXpXpXpXpXpXpXpXpXpXpXpXpXpXpXpXpXpXpXpXpXpXpXpXpXpXpXpXpXpXpXpXpXpXpXpXpXpXpXpXpXpXpXpXpXpXpXpXpXpXpXpXpXpXpX",
"pXpXpXpXpXpXpXpXpXpXpXpXpXpXpXpXpXpXpXpXpXpXpXpXpXpXpXpXpXpXpXpXpXpXpXpXpXpXpXpXpXpXpXpXpXpXpXpXpXpXpXpXpXpXpXpXpXpXpXpXpXpXpXpX",
"pXpXpXpXpXpXpXpXpXpXpXpXpXpXpXpXpXpXpXpXpXpXpXpXpXpXpXpXpXpXpXpXpXpXpXpXpXpXpXpXpXpXpXpXpXpXpXpXpXpXpXpXpXpXpXpXpXpXpXpXpXpXpXpX",
"pXpXpXpXpXpXpXpXpXpXpXpXpXpXpXpXpXpXpXpXpXpXpXpXpXpXpXpXpXpXpXpXpXpXpXpXpXpXpXpXpXpXpXpXpXpXpXpXpXpXpXpXpXpXpXpXpXpXpXpXpXpXpXpX",
"pXpXpXpXpXpXpXpXpXpXpXpXpXpXpXpXpXpXpXpXpXpXpXpXpXpXpXpXpXpXpXpXpXpXpXpXpXpXpXpXpXpXpXpXpXpXpXpXpXpXpXpXpXpXpXpXpXpXpXpXpXpXpXpX",
"pXpXpXpXpXpXpXpXpXpXpXpXpXpXpXpXpXpXpXpXpXpXpXpXpXpXpXpXpXpXpXpXpXpXpXpXpXpXpXpXpXpXpXpXpXpXpXpXpXpXpXpXpXpXpXpXpXpXpXpXpXpXpXpX",
"pXpXpXpXpXpXpXpXpXpXpXpXpXpXpXpXpXpXpXpXpXpXpXpXpXpXpXpXpXpXpXpXpXpXpXpXpXpXpXpXpXpXpXpXpXpXpXpXpXpXpXpXpXpXpXpXpXpXpXpXpXpXpXpX",
"pXpXpXpXpXpXpXpXpXpXpXpXpXpXpXpXpXpXpXpXpXpXpXpXpXpXpXpXpXpXpXpXpXpXpXpXpXpXpXpXpXpXpXpXpXpXpXpXpXpXpXpXpXpXpXpXpXpXpXpXpXpXpXpX",
"pXpXpXpXpXpXpXpXpXpXpXpXpXpXpXpXpXpXpXpXpXpXpXpXpXpXpXpXpXpXpXpXpXpXpXpXpXpXpXpXpXpXpXpXpXpXpXpXpXpXpXpXpXpXpXpXpXpXpXpXpXpXpXpX",
"pXpXpXpXpXpXpXpXpXpXpXpXpXpXpXpXpXpXpXpXpXpXpXpXpXpXpXpXpXpXpXpXpXpXpXpXpXpXpXpXpXpXpXpXpXpXpXpXpXpXpXpXpXpXpXpXpXpXpXpXpXpXpXpX",
"pXpXpXpXpXpXpXpXpXpXpXpXpXpXpXpXpXpXpXpXpXpXpXpXpXpXpXpXpXpXpXpXpXpXpXpXpXpXpXpXpXpXpXpXpXpXpXpXpXpXpXpXpXpXpXpXpXpXpXpXpXpXpXpX",
"pXpXpXpXpXpXpXpXpXpXpXpXpXpXpXpXpXpXpXpXpXpXpXpXpXpXpXpXpXpXpXpXpXpXpXpXpXpXpXpXpXpXpXpXpXpXpXpXpXpXpXpXpXpXpXpXpXpXpXpXpXpXpXpX"
};
