/* XPM */
static char *Nuclear_explosion6[] = {
/* columns rows colors chars-per-pixel */
"64 64 189 2 ",
"   c #3E0A09",
".  c #430C09",
"X  c #4D0E0B",
"o  c #500F0C",
"O  c #5B0F0C",
"+  c #4D130E",
"@  c #53130E",
"#  c #5C130E",
"$  c #4E1712",
"%  c #5D1610",
"&  c #541A11",
"*  c #5B1B12",
"=  c #62140F",
"-  c #641B13",
";  c #6A1E15",
":  c #611611",
">  c #701E15",
",  c #542716",
"<  c #5A2415",
"1  c #562F19",
"2  c #5F2C19",
"3  c #53251C",
"4  c #4F381D",
"5  c #52341C",
"6  c #5C3A1E",
"7  c #5C371D",
"8  c #66210E",
"9  c #622216",
"0  c #6C2317",
"q  c #67271A",
"w  c #6D2419",
"e  c #642C1A",
"r  c #6C2A1B",
"t  c #632915",
"y  c #722516",
"u  c #73251A",
"i  c #742B1C",
"p  c #792D1D",
"a  c #792F13",
"s  c #64331C",
"d  c #6B341E",
"f  c #693A1D",
"g  c #72311E",
"h  c #7C331C",
"j  c #7C3C1B",
"k  c #563623",
"l  c #5A3A21",
"z  c #5F3F31",
"x  c #7E2F21",
"c  c #752E20",
"v  c #663B21",
"b  c #693A28",
"n  c #723221",
"m  c #7D3421",
"M  c #753C23",
"N  c #7A3A21",
"B  c #5E401E",
"V  c #6F401F",
"C  c #75421C",
"Z  c #5B432E",
"A  c #634223",
"S  c #6D4123",
"D  c #634028",
"F  c #6E4A2D",
"G  c #754323",
"H  c #7C4224",
"J  c #754A26",
"K  c #7B4B25",
"L  c #774B29",
"P  c #7E4C28",
"I  c #7C452C",
"U  c #765723",
"Y  c #7C522B",
"T  c #775229",
"R  c #774D35",
"E  c #7A5534",
"W  c #82351F",
"Q  c #853B1C",
"!  c #823522",
"~  c #853B23",
"^  c #893E25",
"/  c #8A3E28",
"(  c #8A451C",
")  c #955017",
"_  c #96531D",
"`  c #A05D1E",
"'  c #A7651C",
"]  c #AA691B",
"[  c #834422",
"{  c #8B4224",
"}  c #834C24",
"|  c #8D4A23",
" . c #8E4329",
".. c #924626",
"X. c #944B24",
"o. c #9A4E26",
"O. c #914429",
"+. c #944A29",
"@. c #9A4E2A",
"#. c #8D5425",
"$. c #8D522B",
"%. c #8D5929",
"&. c #895C24",
"*. c #935424",
"=. c #9C5426",
"-. c #9D522A",
";. c #975828",
":. c #955826",
">. c #855B37",
",. c #915D30",
"<. c #A05727",
"1. c #A25B24",
"2. c #A1552D",
"3. c #A45A2A",
"4. c #A95D2A",
"5. c #A65930",
"6. c #8E622D",
"7. c #936C2B",
"8. c #8F6237",
"9. c #87673F",
"0. c #8D633C",
"q. c #976130",
"w. c #926B31",
"e. c #987930",
"r. c #947136",
"t. c #AB6325",
"y. c #A36C21",
"u. c #AD6924",
"i. c #AC632A",
"p. c #AB6B28",
"a. c #B56E26",
"s. c #B46A2B",
"d. c #B96F2A",
"f. c #B26528",
"g. c #AD7124",
"h. c #B77226",
"j. c #BB7524",
"k. c #BE7925",
"l. c #BB732A",
"z. c #BE7B2D",
"x. c #AC6030",
"c. c #B06F34",
"v. c #A17C35",
"b. c #B77D34",
"n. c #C27E23",
"m. c #C0772C",
"M. c #C37B2B",
"N. c #896246",
"B. c #987045",
"V. c #A28535",
"C. c #CF8D1F",
"Z. c #C1811F",
"A. c #EDB41B",
"S. c #C98623",
"D. c #CC8A24",
"F. c #CA862B",
"G. c #CC8A2E",
"H. c #C3812A",
"J. c #D18E25",
"K. c #D59325",
"L. c #DA9A24",
"P. c #D2942C",
"I. c #D89D2C",
"U. c #C18738",
"Y. c #CE8E32",
"T. c #D89F34",
"R. c #DEA225",
"E. c #DCA731",
"W. c #E0A428",
"Q. c #ECB92F",
"!. c #F0BE2E",
"~. c #E0A737",
"^. c #E1AB3A",
"/. c #EAB631",
"(. c #E6B338",
"). c #F1C031",
"_. c #CC9540",
"`. c #D5A754",
"'. c #DEB050",
"]. c #E4B44A",
"[. c #E9BD48",
"{. c #F2C949",
"}. c #EEC757",
"|. c #F7D65C",
" X c #F7D355",
".X c #E9C764",
"XX c #FBDE64",
"oX c #FFEF82",
"OX c None",
/* pixels */
"OXOXOXOXOXOXOXOXOXOXOXOXOXOXOXOXOXOXOXOXOXOXOXOXOXOXOXOXOXOXOXOXOXOXOXOXOXOXOXOXOXOXOXOXOXOXOXOXOXOXOXOXOXOXOXOXOXOXOXOXOXOXOXOX",
"OXOXOXOXOXOXOXOXOXOXOXOXOXOXOXOXOXOXOXOXOXOXOXOXOXOXOXOXOXOXOXOXOXOXOXOXOXOXOXOXOXOXOXOXOXOXOXOXOXOXOXOXOXOXOXOXOXOXOXOXOXOXOXOX",
"OXOXOXOXOXOXOXOXOXOXOXOXOXOXOXOXOXOXOXOXOXOXOXOXOXOXOXOXOXOXOXOXOXOXOXOXOXOXOXOXOXOXOXOXOXOXOXOXOXOXOXOXOXOXOXOXOXOXOXOXOXOXOXOX",
"OXOXOXOXOXOXOXOXOXOXOXOXOXOXOXOXOXOXOXOXOXOXOXOXOXOXOXOXOXOXOXOXOXOXOXOXOXOXOXOXOXOXOXOXOXOXOXOXOXOXOXOXOXOXOXOXOXOXOXOXOXOXOXOX",
"OXOXOXOXOXOXOXOXOXOXOXOXOXOXOXOXOXOXOXOXOXOXOXOXOXOXOXOXOXOXOXOXOXOXOXOXOXOXOXOXOXOXOXOXOXOXOXOXOXOXOXOXOXOXOXOXOXOXOXOXOXOXOXOX",
"OXOXOXOXOXOXOXOXOXOXOXOXOXOXOXOXOXOXOXOXOXOXOXOXOXOXOXOXOXOXOXOXOXOXOXOXOXOXOXOXOXOXOXOXOXOXOXOXOXOXOXOXOXOXOXOXOXOXOXOXOXOXOXOX",
"OXOXOXOXOXOXOXOXOXOXOXOXOXOXOXOXOXOXOXOXOXOXOXOXOXOXOXOXOXOXOXOXOXOXOXOXOXOXOXOXOXOXOXOXOXOXOXOXOXOXOXOXOXOXOXOXOXOXOXOXOXOXOXOX",
"OXOXOXOXOXOXOXOXOXOXOXOXOXOXOXOXOXOXOXOXOXOXOXOXOXOXOXOXOXOXOXOXOXOXOXOXOXOXOXOXOXOXOXOXOXOXOXOXOXOXOXOXOXOXOXOXOXOXOXOXOXOXOXOX",
"OXOXOXOXOXOXOXOXOXOXOXOXOXOXOXOXOXOXOXOXOXOXOXOXOXOXOXOXOXOXOXOXOXOXOXOXOXOXOXOXOXOXOXOXOXOXOXOXOXOXOXOXOXOXOXOXOXOXOXOXOXOXOXOX",
"OXOXOXOXOXOXOXOXOXOXOXOXOXOXOXOXOXOXOXOXOXOXOXOXOXOXOXOXOXOXOXOXOXOXOXOXOXOXOXOXOXOXOXOXOXOXOXOXOXOXOXOXOXOXOXOXOXOXOXOXOXOXOXOX",
"OXOXOXOXOXOXOXOXOXOXOXOXOXOXOXOXOXOXOXOXOXOXOXOXOXOXOXOXOXOXOXOXOXOXOXOXOXOXOXOXOXOXOXOXOXOXOXOXOXOXOXOXOXOXOXOXOXOXOXOXOXOXOXOX",
"OXOXOXOXOXOXOXOXOXOXOXOXOXOXOXOXOXOXOXOXOXOXOXOXOXOXOXOXOXOXOXOXOXOXOXOXOXOXOXOXOXOXOXOXOXOXOXOXOXOXOXOXOXOXOXOXOXOXOXOXOXOXOXOX",
"OXOXOXOXOXOXOXOXOXOXOXOXOXOXOXOXOXOXOXOXOXOXOXOXOXOXOXOXOXOXOXOXOXOXOXOXOXOXOXOXOXOXOXOXOXOXOXOXOXOXOXOXOXOXOXOXOXOXOXOXOXOXOXOX",
"OXOXOXOXOXOXOXOXOXOXOXOXOXOXOXOXOXOXOXOXOXOXOXOXOXOXOXOXOXOXOXOXOXOXOXOXOXOXOXOXOXOXOXOXOXOXOXOXOXOXOXOXOXOXOXOXOXOXOXOXOXOXOXOX",
"OXOXOXOXOXOXOXOXOXOXOXOXOXOXOXOXOXOXOXOXOXOXOXOXOXOXOXOXOXOXOXOXOXOXOXOXOXOXOXOXOXOXOXOXOXOXOXOXOXOXOXOXOXOXOXOXOXOXOXOXOXOXOXOX",
"OXOXOXOXOXOXOXOXOXOXOXOXOXOXOXOXOXOXOXOXOXOXOXOXOXOXOXOXOXOXOXOXOXOXOXOXOXOXOXOXOXOXOXOXOXOXOXOXOXOXOXOXOXOXOXOXOXOXOXOXOXOXOXOX",
"OXOXOXOXOXOXOXOXOXOXOXOXOXOXOXOXOXOXOXOXOXOXOXOXOXOXOXOXOXOXOX0.,.OXOXOXOXOXOXOXOXOXOXOXOXOXOXOXOXOXOXOXOXOXOXOXOXOXOXOXOXOXOXOX",
"OXOXOXOXOXOXOXOXOXOXOXOXOXOXOXOXOXOXOXOXOXOXOXOXOXOXOXOXOXOXR -.s.3.;.B.OXOXOXOXOXOXOXOXOXOXOXOXOXOXOXOXOXOXOXOXOXOXOXOXOXOXOXOX",
"OXOXOXOXOXOXOXOXOXOXOXOXOXOXOXOXOXOXOXOXOXOXOXOXOXOXOXOXOXOX^ -.d.2.4.$.OXOXOXOXOXOXOXOXOXOXOXOXOXOXOXOXOXOXOXOXOXOXOXOXOXOXOXOX",
"OXOXOXOXOXOXOXOXOXOXOXOXOXOXOXOXOXOXOXOXOXOXOXOXOXOXOXOXOXd ..a./.J.a.m $.$.OXOXOXOXOXOXOXOXOXOXOXOXOXOXOXOXOXOXOXOXOXOXOXOXOXOX",
"OXOXOXOXOXOXOXOXOXOXOXOXOXOXOXOXOXOXOXOXOXOXZ OXOXOXOXOX#.( l./.Q.] p X.4...$.OXOXOXOXOXOXOXOXOXOXOXOXOXOXOXOXOXOXOXOXOXOXOXOXOX",
"OXOXOXOXOXOXOXOXOXOXOXOXOXOXOXOXOXOXOXOXE k OXOXOX%.%.;.n.J.M.|.].o...G.m.3.{ ,.OXOXOXOXOXOXOXOXOXOXOXOXOXOXOXOXOXOXOXOXOXOXOXOX",
"OXOXOXOXOXOXOXOXOXOXOXOXOXOXOXOXOXOXOXr.Y OXOXOX} +.3.i.1.a.f.~.^.f.S.Q.P.o.+.} OXOXOXOXT OXOXOXOXOXOXOXOXOXOXOXOXOXOXOXOXOXOXOX",
"OXOXOXOXOXOXOXOXOXOXOXOXOXOXOXOXOXOXv.v.OXL *.%.| 3.M.'..X[.P.s.i.M.J.j.4./ 2.=.#.%.8.0.N.w.OXOXOXOXOXOXOXOXOXOXOXOXOXOXOXOXOXOX",
"OXOXOXOXOXOXOXOXOXOXOXOXOXOXOXOXOX&.7.OXOXr ^ -.s.i.T.|.|. X).a.3.Q.{.[.F.s.f.X.=.2.-.3.>.OXV.OXOXOXOXOXOXOXOXOXOXOXOXOXOXOXOXOX",
"OXOXOXOXOXOXOXOXOXOXOXOXOXOXOXOXOXA OXOXOX* - ! @.l.a.n.n.L.R.=.W _ T.XX~.d.3.2.-...h 0 G OXOXe.OXOXOXOXOXOXOXOXOXOXOXOXOXOXOXOX",
"OXOXOXOXOXOXOXOXOXOXOXOXOXOXOXOX4 OXOXOXOXOXe * ! 2.j.K.f.G.|.H.W ; =.Y.i.x O.@.p { M OXOXOXOXr.E OXOXOXOXOXOXOXOXOXOXOXOXOXOXOX",
"OXOXOXOXOXOXOXOXOXOXOXOXOXOXOXOXOXOXOXOXOXOXOX* 0 x ..1.~ ..b.c.`.b.y @.! p 3.^ & s OXOXOXOXOXOXF OXOXOXOXOXOXOXOXOXOXOXOXOXOXOX",
"OXOXOXOXOXOXOXOXOXOXOXOXOXOXOXOXY C K OXOXOXOXOX* * 9 r < 0 p _.oX].W ; ; ~ [ w v OXOXOXOXOXOXOXD OXOXOXOXOXOXOXOXOXOXOXOXOXOXOX",
"OXOXOXOXOXOXOXOXOXOXOXOXw.OXOXOXG K J D OXOXOXOXOXOXOXOXOXr Q X.V.3.w i i 2 6 s OXOXOXOXOXOXOXOXL k OXOXOX>.OXOXOXOXOXOXOXOXOXOX",
"OXOXOXOXOXOXOXOXOXOXOX#.} 6 OXOXOXOXOXOXOXOXOXOXOXOXOXOXOXOXe 9 ^ t.g < d OXB OXOXOXOXOXOXOXOXOXOXOXOXOXOXM $.OXOXOXOXOXOXOXOXOX",
"OXOXOXOXOXOXOXOXOXOXOXOX4 OXOXOXOXOXOXOXOXOXOXOXOXOXOXOXOXOXOXe Q ..-.%.OXOXOXOXOXOXOXOXOXOXOXOXOXOXOXOXOX3 N.OXOXOXOXOXOXOXOXOX",
"OXOXOXOXOXOXOXOXOXOXOXOXOXOXOXOXOX, } y.7.OXOXOXOXOXOXOXOXT T v = ; m H OXv OXOXOXOX} y.h.V 5 OXOXOXOXOXOXOXOXOXOXOXOXOXOXOXOXOX",
"OXOXOXOXOXOXOXOXOXOXOXOXOXOXOXOXOXOXd [ :.OXOXOXOXOXOXOXOXOXOX2 W ~ OXOXOXOXOXOXl , [ [ h 7 OXOXOXOXOXOXOXOXOXOXOXOXOXOXOXOXOXOX",
"OXOXOXOXOXOXOXOXOXOXOXOXOXOXOXOXOXOXOXOXOXOXOXOXOXl N s OXOX* i X.6.OXOXOXOXOXOXOXOXOXOXOXOXOXOXOXOXOXOXOXOXOXOXOXOXOXOXOXOXOXOX",
"OXOXOXOXOXOXOXOXOXOXOXOXOXOXM d OXOXOXOXOXOXOXOXOXOXOXOXOXOXr i._ Y OXOXOXOXOXOXOXOXOXOXOXOXU OXOXOXOXOXOXOXOXOXOXOXOXOXOXOXOXOX",
"OXOXOXOXOXOXk OXOXb b L N M -.4.m < t r J R L OXOXOXOXOXOXOXg =.1.P OXOXOXOXOXOXOXS Y S C Y OXU OXOXOXOXOXOXOXOXOXOXOXOXOXOXOXOX",
"OXOXOXOXOXOXz R N i = ~ ( W ~ h ! 9 ; h +.~ u < L OXOXOXOXOXM p.W.g.M n v s e d q m { n ( #.P OX5 [ y.p.} $.I 3.q.OXL C OXOXOXOX",
"OXOXOXOXOX$ i 4.4.y y ! ^ -.h 2.y 8 ; -.^ = O ; m q M 0 # M ;.~.P.E.D.=.i | m ; ; ~ h u -.q.j M N ^ l.4.m @.! X.$.OXOXf OXOXOXOX",
"OXOXOXOXOXr 5.o.W W ` =.{ h p -.; # ! ! - h { i ; u p ; W X.M.m.D./.k.Q h ~ h ..y i ^ ! a Q h -.{ ' j.Q x 2.X.( m b OXOXOXOXOXOX",
"OXOXOXOX& ~ 4.2.~ ..h.t.-.{ - ; O # y ; ; p W ^ ^ h w h.L.h.V.M.R.(.R.]  .X.Q u ; / |  .p = : =.s.s.i.x { s.*.l.-.c $ OXOXOXOXOX",
"OXOXOXOX| m.2.! y { -. .x.i.l./ - ' a.n { ^ w u  .i. .D.A.R.}.Y.K.C.t.Q { =.<.) a u p p ! ^ ( s.F. .m 4.i.M.k.-.! ; o OXOXOXOXOX",
"OXOXOXOXj u.m # # ! ! p O.i.m.~ > a.s.{ M.s.! ; @.~ h -.l.F.L.s.1.X.i W ..Q t.I.n.1.S.Q % ; p ~ { 0 { m.f.m -.{ : o OXOXOXOXOXOX",
"OXOXOXOXOXOXOXOXOX* e % - 9 q @ O q y # _ o.; - -.-.w - ~ [ s.o.; ..1.~ O.|  .3.s.l.m.N OX. X X o o 0 ! i OXOX. OXOXOXOXOXOXOXOX",
"OXOXOXOXOXOXOXOXOXOXOXOXOXOXOXOXOXOXOXOXOX@ . % { 2.& OXg ~ 0 @ X Q #.- u { -.! -.^ h + OXOXOXOXOXOXOX  OXOXOXOXOXOXOXOXOXOXOXOX",
"OXOXOXOXOXOXOXOXOXOXOXOXOXOXOXOXOXOXOXOXOXOXOX. q r OXOX$ * . . OXOXOXOX. < | t * OXOXOXOXOXOXOXOXOXOXOXOXOXOXOXOXOXOXOXOXOXOXOX",
"OXOXOXOXOXOXOXOXOXOXOXOXOXOXOXOXOXOXOXOXOXOXOXOXOXOXOXOXOXOXOXOXOXOXOXOXOXOXOXOXOXOXOXOXOXOXOXOXOXOXOXOXOXOXOXOXOXOXOXOXOXOXOXOX",
"OXOXOXOXOXOXOXOXOXOXOXOXOXOXOXOXOXOXOXOXOXOXOXOXOXOXOXOXOXOXOXOXOXOXOXOXOXOXOXOXOXOXOXOXOXOXOXOXOXOXOXOXOXOXOXOXOXOXOXOXOXOXOXOX",
"OXOXOXOXOXOXOXOXOXOXOXOXOXOXOXOXOXOXOXOXOXOXOXOXOXOXOXOXOXOXOXOXOXOXOXOXOXOXOXOXOXOXOXOXOXOXOXOXOXOXOXOXOXOXOXOXOXOXOXOXOXOXOXOX",
"OXOXOXOXOXOXOXOXOXOXOXOXOXOXOXOXOXOXOXOXOXOXOXOXOXOXOXOXOXOXOXOXOXOXOXOXOXOXOXOXOXOXOXOXOXOXOXOXOXOXOXOXOXOXOXOXOXOXOXOXOXOXOXOX",
"OXOXOXOXOXOXOXOXOXOXOXOXOXOXOXOXOXOXOXOXOXOXOXOXOXOXOXOXOXOXOXOXOXOXOXOXOXOXOXOXOXOXOXOXOXOXOXOXOXOXOXOXOXOXOXOXOXOXOXOXOXOXOXOX",
"OXOXOXOXOXOXOXOXOXOXOXOXOXOXOXOXOXOXOXOXOXOXOXOXOXOXOXOXOXOXOXOXOXOXOXOXOXOXOXOXOXOXOXOXOXOXOXOXOXOXOXOXOXOXOXOXOXOXOXOXOXOXOXOX",
"OXOXOXOXOXOXOXOXOXOXOXOXOXOXOXOXOXOXOXOXOXOXOXOXOXOXOXOXOXOXOXOXOXOXOXOXOXOXOXOXOXOXOXOXOXOXOXOXOXOXOXOXOXOXOXOXOXOXOXOXOXOXOXOX",
"OXOXOXOXOXOXOXOXOXOXOXOXOXOXOXOXOXOXOXOXOXOXOXOXOXOXOXOXOXOXOXOXOXOXOXOXOXOXOXOXOXOXOXOXOXOXOXOXOXOXOXOXOXOXOXOXOXOXOXOXOXOXOXOX",
"OXOXOXOXOXOXOXOXOXOXOXOXOXOXOXOXOXOXOXOXOXOXOXOXOXOXOXOXOXOXOXOXOXOXOXOXOXOXOXOXOXOXOXOXOXOXOXOXOXOXOXOXOXOXOXOXOXOXOXOXOXOXOXOX",
"OXOXOXOXOXOXOXOXOXOXOXOXOXOXOXOXOXOXOXOXOXOXOXOXOXOXOXOXOXOXOXOXOXOXOXOXOXOXOXOXOXOXOXOXOXOXOXOXOXOXOXOXOXOXOXOXOXOXOXOXOXOXOXOX",
"OXOXOXOXOXOXOXOXOXOXOXOXOXOXOXOXOXOXOXOXOXOXOXOXOXOXOXOXOXOXOXOXOXOXOXOXOXOXOXOXOXOXOXOXOXOXOXOXOXOXOXOXOXOXOXOXOXOXOXOXOXOXOXOX",
"OXOXOXOXOXOXOXOXOXOXOXOXOXOXOXOXOXOXOXOXOXOXOXOXOXOXOXOXOXOXOXOXOXOXOXOXOXOXOXOXOXOXOXOXOXOXOXOXOXOXOXOXOXOXOXOXOXOXOXOXOXOXOXOX",
"OXOXOXOXOXOXOXOXOXOXOXOXOXOXOXOXOXOXOXOXOXOXOXOXOXOXOXOXOXOXOXOXOXOXOXOXOXOXOXOXOXOXOXOXOXOXOXOXOXOXOXOXOXOXOXOXOXOXOXOXOXOXOXOX",
"OXOXOXOXOXOXOXOXOXOXOXOXOXOXOXOXOXOXOXOXOXOXOXOXOXOXOXOXOXOXOXOXOXOXOXOXOXOXOXOXOXOXOXOXOXOXOXOXOXOXOXOXOXOXOXOXOXOXOXOXOXOXOXOX",
"OXOXOXOXOXOXOXOXOXOXOXOXOXOXOXOXOXOXOXOXOXOXOXOXOXOXOXOXOXOXOXOXOXOXOXOXOXOXOXOXOXOXOXOXOXOXOXOXOXOXOXOXOXOXOXOXOXOXOXOXOXOXOXOX",
"OXOXOXOXOXOXOXOXOXOXOXOXOXOXOXOXOXOXOXOXOXOXOXOXOXOXOXOXOXOXOXOXOXOXOXOXOXOXOXOXOXOXOXOXOXOXOXOXOXOXOXOXOXOXOXOXOXOXOXOXOXOXOXOX",
"OXOXOXOXOXOXOXOXOXOXOXOXOXOXOXOXOXOXOXOXOXOXOXOXOXOXOXOXOXOXOXOXOXOXOXOXOXOXOXOXOXOXOXOXOXOXOXOXOXOXOXOXOXOXOXOXOXOXOXOXOXOXOXOX",
"OXOXOXOXOXOXOXOXOXOXOXOXOXOXOXOXOXOXOXOXOXOXOXOXOXOXOXOXOXOXOXOXOXOXOXOXOXOXOXOXOXOXOXOXOXOXOXOXOXOXOXOXOXOXOXOXOXOXOXOXOXOXOXOX"
};
