/* XPM */
static char *Nuclear_explosion7[] = {
/* columns rows colors chars-per-pixel */
"64 64 158 2 ",
"   c #1A0302",
".  c #270000",
"X  c #2C0101",
"o  c #2D0D09",
"O  c #340201",
"+  c #3C0302",
"@  c #330803",
"#  c #3E0A07",
"$  c #300E0B",
"%  c #3C0F0A",
"&  c #2B130D",
"*  c #33170C",
"=  c #3D140C",
"-  c #37180D",
";  c #3B1712",
":  c #440504",
">  c #4A0605",
",  c #430906",
"<  c #4B0A07",
"1  c #450D09",
"2  c #4B0D09",
"3  c #530D0A",
"4  c #5A0F0B",
"5  c #4F1007",
"6  c #42120C",
"7  c #4B120D",
"8  c #421A0E",
"9  c #4D180F",
"0  c #53120D",
"q  c #59120E",
"w  c #5D1D0D",
"e  c #451610",
"r  c #4E1510",
"t  c #461A14",
"y  c #4D1C12",
"u  c #471F19",
"i  c #551610",
"p  c #5B1710",
"a  c #551A12",
"s  c #5C1B13",
"d  c #60140E",
"f  c #621A0F",
"g  c #621610",
"h  c #631B13",
"j  c #6B1D15",
"k  c #412917",
"l  c #492916",
"z  c #4E241B",
"x  c #4E2B1C",
"c  c #522215",
"v  c #5B2415",
"b  c #51271E",
"n  c #5F2218",
"m  c #552C19",
"M  c #5C2A1A",
"N  c #533218",
"B  c #5B301E",
"V  c #632314",
"C  c #692117",
"Z  c #6A2C16",
"A  c #632419",
"S  c #6C2419",
"D  c #642B1A",
"F  c #6C2A1B",
"G  c #702417",
"H  c #72261B",
"J  c #732B1C",
"K  c #792C1D",
"L  c #6D3015",
"P  c #66341D",
"I  c #6C331F",
"U  c #613A1B",
"Y  c #74321B",
"T  c #7B331D",
"R  c #76381D",
"E  c #7E3A1D",
"W  c #4D2F23",
"Q  c #5D2D22",
"!  c #742E20",
"~  c #7A2E20",
"^  c #663426",
"/  c #6A3522",
"(  c #6B3A22",
")  c #6B3929",
"_  c #763422",
"`  c #7C3422",
"'  c #743A23",
"]  c #7A3A22",
"[  c #71451E",
"{  c #744321",
"}  c #7A4225",
"|  c #7C4921",
" . c #833C1D",
".. c #823523",
"X. c #843B24",
"o. c #8A3D23",
"O. c #833E2A",
"+. c #8B3D29",
"@. c #87451D",
"#. c #8C411D",
"$. c #9D5E1E",
"%. c #A4671F",
"&. c #A76B1F",
"*. c #854424",
"=. c #8D4425",
"-. c #8C4A22",
";. c #834528",
":. c #8C422A",
">. c #8D4828",
",. c #914526",
"<. c #944B26",
"1. c #92462A",
"2. c #964C29",
"3. c #9A4E2C",
"4. c #8E5521",
"5. c #945125",
"6. c #9B5324",
"7. c #9C5B24",
"8. c #9D532B",
"9. c #A05C25",
"0. c #A1552D",
"q. c #A45A2C",
"w. c #AA5E2D",
"e. c #A46226",
"r. c #A86526",
"t. c #A66A22",
"y. c #AC6B22",
"u. c #A76129",
"i. c #AC632C",
"p. c #AF6B29",
"a. c #B46C24",
"s. c #B1662C",
"d. c #B46B2D",
"f. c #B96F2E",
"g. c #B37125",
"h. c #B87525",
"j. c #BD7927",
"k. c #B57028",
"l. c #BC742B",
"z. c #B26630",
"x. c #B66A30",
"c. c #BB6F31",
"v. c #C0772D",
"b. c #C47C2D",
"n. c #C17530",
"m. c #BD811E",
"M. c #C5891F",
"N. c #C58424",
"B. c #CB8727",
"V. c #CB842B",
"C. c #CE8829",
"Z. c #D28F27",
"A. c #D18D29",
"S. c #D59226",
"D. c #D89626",
"F. c #DC9D23",
"G. c #E1A222",
"H. c None",
/* pixels */
"H.H.H.H.H.H.H.H.H.H.H.H.H.H.H.H.H.H.H.H.H.H.H.H.H.H.H.H.H.H.H.H.H.H.H.H.H.H.H.H.H.H.H.H.H.H.H.H.H.H.H.H.H.H.H.H.H.H.H.H.H.H.H.H.",
"H.H.H.H.H.H.H.H.H.H.H.H.H.H.H.H.H.H.H.H.H.H.H.H.H.H.H.H.H.H.H.H.H.H.H.H.H.H.H.H.H.H.H.H.H.H.H.H.H.H.H.H.H.H.H.H.H.H.H.H.H.H.H.H.",
"H.H.H.H.H.H.H.H.H.H.H.H.H.H.H.H.H.H.H.H.H.H.H.H.H.H.H.H.H.H.H.H.H.H.H.H.H.H.H.H.H.H.H.H.H.H.H.H.H.H.H.H.H.H.H.H.H.H.H.H.H.H.H.H.",
"H.H.H.H.H.H.H.H.H.H.H.H.H.H.H.H.H.H.H.H.H.H.H.H.H.H.H.H.H.H.H.H.H.H.H.H.H.H.H.H.H.H.H.H.H.H.H.H.H.H.H.H.H.H.H.H.H.H.H.H.H.H.H.H.",
"H.H.H.H.H.H.H.H.H.H.H.H.H.H.H.H.H.H.H.H.H.H.H.H.H.H.H.H.H.H.H.H.H.H.H.H.H.H.H.H.H.H.H.H.H.H.H.H.H.H.H.H.H.H.H.H.H.H.H.H.H.H.H.H.",
"H.H.H.H.H.H.H.H.H.H.H.H.H.H.H.H.H.H.H.H.H.H.H.H.H.H.H.H.H.H.H.H.H.H.H.H.H.H.H.H.H.H.H.H.H.H.H.H.H.H.H.H.H.H.H.H.H.H.H.H.H.H.H.H.",
"H.H.H.H.H.H.H.H.H.H.H.H.H.H.H.H.H.H.H.H.H.H.H.H.H.H.H.H.H.H.H.H.H.H.H.H.H.H.H.H.H.H.H.H.H.H.H.H.H.H.H.H.H.H.H.H.H.H.H.H.H.H.H.H.",
"H.H.H.H.H.H.H.H.H.H.H.H.H.H.H.H.H.H.H.H.H.H.H.H.H.H.H.H.H.H.H.H.H.H.H.H.H.H.H.H.H.H.H.H.H.H.H.H.H.H.H.H.H.H.H.H.H.H.H.H.H.H.H.H.",
"H.H.H.H.H.H.H.H.H.H.H.H.H.H.H.H.H.H.H.H.H.H.H.H.H.H.H.H.H.H.H.H.H.H.H.H.H.H.H.H.H.H.H.H.H.H.H.H.H.H.H.H.H.H.H.H.H.H.H.H.H.H.H.H.",
"H.H.H.H.H.H.H.H.H.H.H.H.H.H.H.H.H.H.H.H.H.H.H.H.H.H.H.H.H.H.H.H.H.H.H.H.H.H.H.H.H.H.H.H.H.H.H.H.H.H.H.H.H.H.H.H.H.H.H.H.H.H.H.H.",
"H.H.H.H.H.H.H.H.H.H.H.H.H.H.H.H.H.H.H.H.H.H.H.H.H.H.H.H.H.H.H.H.H.H.H.H.H.H.H.H.H.H.H.H.H.H.H.H.H.H.H.H.H.H.H.H.H.H.H.H.H.H.H.H.",
"H.H.H.H.H.H.H.H.H.H.H.H.H.H.H.H.H.H.H.H.H.H.H.H.H.H.H.H.H.H.H.H.H.H.H.H.H.H.H.H.H.H.H.H.H.H.H.H.H.H.H.H.H.H.H.H.H.H.H.H.H.H.H.H.",
"H.H.H.H.H.H.H.H.H.H.H.H.H.H.H.H.H.H.H.H.H.H.H.H.H.H.H.H.H.H.H.H.H.H.H.H.H.H.H.H.H.H.H.H.H.H.H.H.H.H.H.H.H.H.H.H.H.H.H.H.H.H.H.H.",
"H.H.H.H.H.H.H.H.H.H.H.H.H.H.H.H.H.H.H.H.H.H.H.H.H.H.H.H.H.H.H.H.H.H.H.H.H.H.H.H.H.H.H.H.H.H.H.H.H.H.H.H.H.H.H.H.H.H.H.H.H.H.H.H.",
"H.H.H.H.H.H.H.H.H.H.H.H.H.H.H.H.H.H.H.H.H.H.H.H.H.H.H.H.H.H.H.H.H.H.H.H.H.H.H.H.H.H.H.H.H.H.H.H.H.H.H.H.H.H.H.H.H.H.H.H.H.H.H.H.",
"H.H.H.H.H.H.H.H.H.H.H.H.H.H.H.H.H.H.H.H.H.H.H.H.H.H.H.H.H.H.H.y n y r ^ H.H.H.H.H.H.H.H.H.H.H.H.H.H.H.H.H.H.H.H.H.H.H.H.H.H.H.H.",
"H.H.H.H.H.H.H.H.H.H.H.H.H.H.H.H.H.H.H.H.H.H.H.H.H.H.H.H.H.H.1 j S g h F H.H.H.H.H.H.H.H.H.H.H.H.H.H.H.H.H.H.H.H.H.H.H.H.H.H.H.H.",
"H.H.H.H.H.H.H.H.H.H.H.H.H.H.H.H.H.H.H.H.H.H.H.H.H.H.H.H.H.e 2 J 1.1.o.H a e u H.H.H.H.H.H.H.H.H.H.H.H.H.H.H.H.H.H.H.H.H.H.H.H.H.",
"H.H.H.H.H.H.H.H.H.H.H.H.H.H.H.H.H.H.H.H.H.H.H.H.H.6 r e e H g ,.w.2.f.d.E : 4 z H.H.H.H.H.H.H.H.H.H.H.H.H.H.H.H.H.H.H.H.H.H.H.H.",
"H.H.H.H.H.H.H.H.H.H.H.H.H.H.H.H.H.H.H.H.H.H.H.H.: d j S ~ q.J 0 h ! q.A.s.j h H.H.H.) H.H.H.H.H.H.H.H.H.H.H.H.H.H.H.H.H.H.H.H.H.",
"H.H.H.H.H.H.H.H.H.H.H.H.H.H.H.H.H.H.H.H.H.H.H.@ 3 ~ +.:.p.A.d.F p q.] ;.*.H C 1 a F j H.H.H.H.H.H.H.H.H.H.H.H.H.H.H.H.H.H.H.H.H.",
"H.H.H.H.H.H.H.H.H.H.H.H.H.H.H.H.H.H.H.H.H.H.= + j =.0.g.C.V.x.+.q _ H.H.9 h < 5 p 4 : u H.H.H.H.H.H.H.H.H.H.H.H.H.H.H.H.H.H.H.H.",
"H.H.H.H.H.H.H.H.H.H.H.H.H.H.H.H.H.H.H.H.1 p F q h 2.&.&.l.q.:.J 0 = H.H.9 0 Z N.0.T -.' H.H.W H.H.H.H.H.H.H.H.H.H.H.H.H.H.H.H.H.",
"H.H.H.H.H.H.H.H.H.H.H.H.H.H.H.H.H.H.H.D ` ` F Y 8.u.p.h.V.2.C J J y H.H.q.k.r.b.w.w.z.+.s S ~ 1 H.H.H.H.H.H.H.H.H.H.H.H.H.H.H.H.",
"H.H.H.H.H.H.H.H.H.H.H.H.H.H.H.H.H.H.D i.w.:.` 0.V.D.S.S.F.5.X.6.<.R B } c.G.l.3.X.S D s q 3 0 + H.H.H.H.H.H.H.H.H.H.H.H.H.H.H.H.",
"H.H.H.H.H.H.H.H.H.H.H.H.H.H.H.H.H.H.S ,.0.z.+.8.b.S.A.q.=...j.D.F.r.8.i.v.D.9.S h 7 H.H.O O + H.H.H.H.H.H.H.H.H.H.H.H.H.H.H.H.H.",
"H.H.H.H.H.H.H.H.H.H.H.H.H.H.H.H.H.H.H.7 =.q.S C <.<.=.s 7 ..i.s.B.f.Z.V.v.s.V 0 6 H.H.H.H.H.H.H.H.H.H.H.H.H.H.H.H.H.H.H.H.H.H.H.",
"H.H.H.H.H.H.H.H.H.H.H.H.H.H.H.H.H.H.H.H.i p 2 ! j p S H.H.7 i h =.0.v.d.8.F 1 J r H.H.H.H.H.H.H.H.H.H.H.H.H.H.H.H.H.H.H.H.H.H.H.",
"H.H.H.H.H.H.H.H.H.H.H.H.H.H.H.H.H.H.U N H.H.H.V a % c H.H.H.H.2 5 0 ....q 1 H.8 H.H.H.H.H.m - H.H.H.H.H.H.H.H.H.H.H.H.H.H.H.H.H.",
"H.H.H.H.H.H.H.H.H.H.H.H.H.H.H.H.H.H.H.H.H.H.H.H.H.H.H.H.H.H.c H < 0 0 # H.H.H.H.H.H.H.H.H.H.H.H.H.H.H.H.H.H.W H.H.H.H.H.H.H.H.H.",
"H.H.H.H.H.H.H.H.H.M ( k H.H.H.H.H.H.H.H.H.H.H.H.H.H.H.H.H.H.% 1 + F M H.H.H.H.H.H.H.H.H.H.H.H.H.H.H.H.H.H.H.z A Q H.H.H.H.H.H.H.",
"H.H.H.H.H.H.H.H.H.Q / H.H.H.H.H.H.H.H.H.H.H.H.H.H.H.H.H.H.H.H.H.7 1 H.H.H.H.H.H.H.H.H.H.H.H.H.H.H.H.H.H.H.H.o e H.H.H.H.H.H.H.H.",
"H.H.H.H.H.H.H.H.H.H.H.H.H.H.H.H.H.H.H.H.H.H.H.H.H.H.H.H.H.H.H.H.F y H.H.H.H.H.H.H.H.H.H.H.H.H.H.H.H.H.H.H.H.H.H.H.H.H.H.H.H.H.H.",
"H.H.H.H.H.H.H.H.H.H.H.H.H.H.H.M P x H.H.H.H.H.H.H.H.H.H.H.H.H.H.s H.H.H.H.H.H.H.H.H.| { H.H.H.H.H.H.H.H.H.H.H.H.H.H.H.H.H.H.H.H.",
"H.H.H.H.H.H.H.H.H.H.H.H.H.H.H.H.H.H.H.H.H.H.H.H.H.H.8 N x H.H.H.' H.H.H.H.H.H.H.H.H.{ D H.H.H.H.H.H.H.H.H.H.H.H.H.H.H.H.H.H.H.H.",
"H.H.H.H.H.H.H.H.H.H.H.H.H.H.H.H.H.H.H.H.H.H.H.H.H.H.H.H.H.H.H.H.y H.H.H.H.H.H.H.* H.H.H.H.H.H.H.H.H.H.H.H.H.H.W H.H.H.H.H.H.H.H.",
"H.H.H.H.H.H.) >.;.H.} *.c H.{ H.H.H.7 D H.H.H.H.H.H.H.H.H.H.H.H.a H.H.H.H.H.H.H.H.H.H.H.H.H.H.H.H.H.A s A ' ] ~ i H.H.H.H.H.H.H.",
"H.H.H.H.H.H.0 C j # h h + h =.5.a 0 3 J A y D H.H.H.P u.[ H.H.( =.P H.H.( l H.H.H.H.H./ _ F I H.H.I q.w.0.l.q...3 @ ; H.H.H.H.H.",
"H.H.H.H.H.x Z <.F 3 + + + > j J 1 + s ~ i i +.] m ' s *.p.4.7.*.1.5.t.e.e.6 a I H./ M j q : 5 V a R V.p.8.A.D.,.g 4 + H.H.H.H.H.",
"H.H.H.H.C O.p.r.O._ Z < + 0 J a.a.V 0 S s + h s h +.j Z l.B.m.7.z.p.&.k. .2 > C h j 0 F ! 4 , 4 h 9.h.X._ q.S.b.8.H 2 H.H.H.H.H.",
"H.H.H.O 3 ..` F K K 1.s + i 6.G.C.<.J 6.X.p Z -.h 3 0 ] u.7.-.z.c.q.:.i.T : 1 J V : , J h V 9.X.o.b.l.=.S C &.b.3.h K A H.H.H.H.",
"H.H.H.X + + 0 s @ : j 2 O X X.b.d.S S T s 3 ..o...s Z u.F.V.3.X.X.j 0 K J 3 3 X.X.V $.@.E >.3.H S o.~ S =.T f T g : 7 1 . H.H.H.",
"H.H.H.H.H.H.H.  H.X + X H.  a O.I o # 0 + + : : h >.>.q.j.i.S < < 5 f f w  .J s j ,.f.8.8.T h ..2.H 3 T ,.h + > O X H.H.H.H.H.H.",
"H.H.H.H.& H.H.H.H.H.H.H.H.H.H.H.H.H.H.O O O O + g 0.z.J J ` R v H.R i.o. .N.<.F 0 H ..V r 1 S ` X.S + O X O O O H.H.H.H.H.H.H.H.",
"H.H.H.H.H.H.H.H.H.% e H.z H.H.H.H.H.H.H.H.H.H.O h +...< , J 0.' H.M ] a Z t.6.S 2 < 7 # H.H.X 1 2 # X H.H.H.H.H.H.H.H.H.H.H.H.H.",
"H.H.H.H.H.H.H.H.H.H.= t H.H.H.H.H.H.H.H.H.H.H.X + q 3 X H.H.c H.H.H.H.H.H.7 J C h F H.H.H.H.H.H.H.H.H.H.H.H.H.H.H.H.H.H.H.H.H.H.",
"H.H.H.H.H.H.H.H.H.H.H.H.H.H.H.H.H.H.H.H.H.H.H.o H.H.H.H.H.H.H.H.H.H.H.H.H., h 1 X H.H.H.H.H.H.H.H.H.H.H.H.H.H.H.H.H.H.H.H.H.H.H.",
"H.H.H.H.H.H.H.H.H.H.H.H.H.H.H.H.H.H.H.H.H.H.H.H.H.H.H.H.H.H.H.H.H.H.H.H.H.H.H.H.H.H.H.H.H.H.H.H.H.H.H.H.H.H.H.H.H.H.H.H.H.H.H.H.",
"H.H.H.H.H.H.H.H.H.H.H.H.H.H.H.H.H.H.H.H.H.H.H.H.H.H.H.H.H.H.H.H.H.H.H.H.H.H.H.H.H.H.H.H.H.H.H.H.H.H.H.H.H.H.H.H.H.H.H.H.H.H.H.H.",
"H.H.H.H.H.H.H.H.H.H.H.H.H.H.H.H.H.H.H.H.H.H.H.H.H.H.H.H.H.H.H.H.H.H.H.H.H.H.H.H.H.H.H.H.H.H.H.H.H.H.H.H.H.H.H.H.H.H.H.H.H.H.H.H.",
"H.H.H.H.H.H.H.H.H.H.H.H.H.H.H.H.H.H.H.H.H.H.H.H.H.H.H.H.H.H.H.H.H.H.H.H.H.H.H.H.H.H.H.H.H.H.H.H.H.H.H.H.H.H.H.H.H.H.H.H.H.H.H.H.",
"H.H.H.H.H.H.H.H.H.H.H.H.H.H.H.H.H.H.H.H.H.H.H.H.H.H.H.H.H.H.H.H.H.H.H.H.H.H.H.H.H.H.H.H.H.H.H.H.H.H.H.H.H.H.H.H.H.H.H.H.H.H.H.H.",
"H.H.H.H.H.H.H.H.H.H.H.H.H.H.H.H.H.H.H.H.H.H.H.H.H.H.H.H.H.H.H.H.H.H.H.H.H.H.H.H.H.H.H.H.H.H.H.H.H.H.H.H.H.H.H.H.H.H.H.H.H.H.H.H.",
"H.H.H.H.H.H.H.H.H.H.H.H.H.H.H.H.H.H.H.H.H.H.H.H.H.H.H.H.H.H.H.H.H.H.H.H.H.H.H.H.H.H.H.H.H.H.H.H.H.H.H.H.H.H.H.H.H.H.H.H.H.H.H.H.",
"H.H.H.H.H.H.H.H.H.H.H.H.H.H.H.H.H.H.H.H.H.H.H.H.H.H.H.H.H.H.H.H.H.H.H.H.H.H.H.H.H.H.H.H.H.H.H.H.H.H.H.H.H.H.H.H.H.H.H.H.H.H.H.H.",
"H.H.H.H.H.H.H.H.H.H.H.H.H.H.H.H.H.H.H.H.H.H.H.H.H.H.H.H.H.H.H.H.H.H.H.H.H.H.H.H.H.H.H.H.H.H.H.H.H.H.H.H.H.H.H.H.H.H.H.H.H.H.H.H.",
"H.H.H.H.H.H.H.H.H.H.H.H.H.H.H.H.H.H.H.H.H.H.H.H.H.H.H.H.H.H.H.H.H.H.H.H.H.H.H.H.H.H.H.H.H.H.H.H.H.H.H.H.H.H.H.H.H.H.H.H.H.H.H.H.",
"H.H.H.H.H.H.H.H.H.H.H.H.H.H.H.H.H.H.H.H.H.H.H.H.H.H.H.H.H.H.H.H.H.H.H.H.H.H.H.H.H.H.H.H.H.H.H.H.H.H.H.H.H.H.H.H.H.H.H.H.H.H.H.H.",
"H.H.H.H.H.H.H.H.H.H.H.H.H.H.H.H.H.H.H.H.H.H.H.H.H.H.H.H.H.H.H.H.H.H.H.H.H.H.H.H.H.H.H.H.H.H.H.H.H.H.H.H.H.H.H.H.H.H.H.H.H.H.H.H.",
"H.H.H.H.H.H.H.H.H.H.H.H.H.H.H.H.H.H.H.H.H.H.H.H.H.H.H.H.H.H.H.H.H.H.H.H.H.H.H.H.H.H.H.H.H.H.H.H.H.H.H.H.H.H.H.H.H.H.H.H.H.H.H.H.",
"H.H.H.H.H.H.H.H.H.H.H.H.H.H.H.H.H.H.H.H.H.H.H.H.H.H.H.H.H.H.H.H.H.H.H.H.H.H.H.H.H.H.H.H.H.H.H.H.H.H.H.H.H.H.H.H.H.H.H.H.H.H.H.H.",
"H.H.H.H.H.H.H.H.H.H.H.H.H.H.H.H.H.H.H.H.H.H.H.H.H.H.H.H.H.H.H.H.H.H.H.H.H.H.H.H.H.H.H.H.H.H.H.H.H.H.H.H.H.H.H.H.H.H.H.H.H.H.H.H.",
"H.H.H.H.H.H.H.H.H.H.H.H.H.H.H.H.H.H.H.H.H.H.H.H.H.H.H.H.H.H.H.H.H.H.H.H.H.H.H.H.H.H.H.H.H.H.H.H.H.H.H.H.H.H.H.H.H.H.H.H.H.H.H.H.",
"H.H.H.H.H.H.H.H.H.H.H.H.H.H.H.H.H.H.H.H.H.H.H.H.H.H.H.H.H.H.H.H.H.H.H.H.H.H.H.H.H.H.H.H.H.H.H.H.H.H.H.H.H.H.H.H.H.H.H.H.H.H.H.H."
};
