/* XPM */
static char *Nuclear_explosion8[] = {
/* columns rows colors chars-per-pixel */
"64 64 91 1 ",
"  c #140202",
". c #1B0203",
"X c #1F0807",
"o c #250404",
"O c #290706",
"+ c #250907",
"@ c #2C0807",
"# c #250B09",
"$ c #2C0C0A",
"% c #320606",
"& c #330C0B",
"* c #3A0D0B",
"= c #2D100E",
"- c #35120E",
"; c #39100D",
": c #2B1712",
"> c #2F1813",
", c #351511",
"< c #3B1511",
"1 c #341A14",
"2 c #3C1B15",
"3 c #3E211A",
"4 c #400F0D",
"5 c #43110F",
"6 c #431511",
"7 c #4A1713",
"8 c #441B15",
"9 c #4B1B16",
"0 c #441F19",
"q c #4E1E18",
"w c #541E18",
"e c #44221A",
"r c #4C231B",
"t c #4D2A1F",
"y c #53231B",
"u c #5B251E",
"i c #562A1E",
"p c #592A1E",
"a c #51301F",
"s c #4E2A20",
"d c #542C22",
"f c #5B2B21",
"g c #553322",
"h c #5D3625",
"j c #5C3925",
"k c #5E3428",
"l c #612C22",
"z c #643225",
"x c #693226",
"c c #643927",
"v c #6C3926",
"b c #613629",
"n c #6B3629",
"m c #653A29",
"M c #6D3B2B",
"N c #723D2C",
"B c #753F31",
"V c #644126",
"C c #674229",
"Z c #6C432B",
"A c #73422D",
"S c #79442F",
"D c #754D2D",
"F c #7C492E",
"G c #754231",
"H c #7A4531",
"J c #774930",
"K c #7C4A32",
"L c #7F5233",
"P c #81562F",
"I c #814C34",
"U c #855235",
"Y c #885536",
"T c #845A31",
"R c #895C35",
"E c #895438",
"W c #8E5839",
"Q c #915F37",
"! c #925D39",
"~ c #8D6432",
"^ c #936135",
"/ c #966B34",
"( c #96613B",
") c #9C6B3A",
"_ c #9F7238",
"` c #A16F3C",
"' c #A4733C",
"] c #A8763E",
"[ c #AD7C3F",
"{ c #B17E40",
"} c None",
/* pixels */
"}}}}}}}}}}}}}}}}}}}}}}}}}}}}}}}}}}}}}}}}}}}}}}}}}}}}}}}}}}}}}}}}",
"}}}}}}}}}}}}}}}}}}}}}}}}}}}}}}}}}}}}}}}}}}}}}}}}}}}}}}}}}}}}}}}}",
"}}}}}}}}}}}}}}}}}}}}}}}}}}}}}}}}}}}}}}}}}}}}}}}}}}}}}}}}}}}}}}}}",
"}}}}}}}}}}}}}}}}}}}}}}}}}}}}}}}}}}}}}}}}}}}}}}}}}}}}}}}}}}}}}}}}",
"}}}}}}}}}}}}}}}}}}}}}}}}}}}}}}}}}}}}}}}}}}}}}}}}}}}}}}}}}}}}}}}}",
"}}}}}}}}}}}}}}}}}}}}}}}}}}}}}}}}}}}}}}}}}}}}}}}}}}}}}}}}}}}}}}}}",
"}}}}}}}}}}}}}}}}}}}}}}}}}}}}}}}}}}}}}}}}}}}}}}}}}}}}}}}}}}}}}}}}",
"}}}}}}}}}}}}}}}}}}}}}}}}}}}}}}}}}}}}}}}}}}}}}}}}}}}}}}}}}}}}}}}}",
"}}}}}}}}}}}}}}}}}}}}}}}}}}}}}}}}}}}}}}}}}}}}}}}}}}}}}}}}}}}}}}}}",
"}}}}}}}}}}}}}}}}}}}}}}}}}}}}}}}}}}}}}}}}}}}}}}}}}}}}}}}}}}}}}}}}",
"}}}}}}}}}}}}}}}}}}}}}}}}}}}}}}}}}}}}}}}}}}}}}}}}}}}}}}}}}}}}}}}}",
"}}}}}}}}}}}}}}}}}}}}}}}}}}}}}}}}}}}}}}}}}}}}}}}}}}}}}}}}}}}}}}}}",
"}}}}}}}}}}}}}}}}}}}}}}}}}}}}}}}}}}}}}}}}}}}}}}}}}}}}}}}}}}}}}}}}",
"}}}}}}}}}}}}}}}}}}}}}}}}}}}}}}}}}}}}}}}}}}}}}}}}}}}}}}}}}}}}}}}}",
"}}}}}}}}}}}}}}}}}}}}}}}}}}}}}}}}}}}}}}}}}}}}}}}}}}}}}}}}}}}}}}}}",
"}}}}}}}}}}}}}}}}}}}}}}}}}}}}}}}8UT}}}}}}}}}}}}}}}}}}}}}}}}}}}}}}",
"}}}}}}}}}}}}}}}}}}}}}}}}}}gDgZipEEs}}}}}}}}}}}}}}}}}}}}}}}}}}}}}",
"}}}}}}}}}}}}}}}}}}}}}}}}}@f!E'^xE)TD~}}}}}}}}}}}}}}}}}}}}}}}}}}}",
"}}}}}}}}}}}}}}}}}}}}}}}}}}@9z]'nAYA''f<;}}}}}}}}}}}}}}}}}}}}}}}}",
"}}}}}}}}}}}}}}}d3jjmZe}}}}}}&fAKfrnEf@}}}}}}}}}}}}}}}}}}}}}}}}}}",
"}}}}}}}}}}}}}}8}}MNlNF/'g}}}}fz8}}8f@}}}jZgg}}}VV}}}}}}}}}}}}}}}",
"}}}}}}}}}}}}}}}}};yN!)'Td}}}8y@}}}}}}}}}J{)Ktgc^[Z}}}}}}}}}}}}}}",
"}}}}}}}}}}}}}}}}}}/!G}}e9ff9u9}}}}}}}}}cxNpyZn8tABs}}}}}}}}}}}}}",
"}}}}}}}}}}}}}}}}}K[!k}}}<u**zq&}}}}}698Al* }}$}}}ilm}}}}}}}}}}}}",
"}}}}}}}}}}}}}edCAKIEb}}dKNO 8r&yd}O6F!x6%.}}}}}}}@&}}}}}}}}}}}}}",
"}}}}}}}}}}}}},zWUu7yfkBlGd}}}-*lIz9n'{I6}}}}2=}} .}}}}}}}}}}}}}}",
"}}}}}}}}}}}}}}<i6%.@&iIz,,}}}}2W{x;fK(f<}}}i,}}}}}}}}}}}}}}}}}}}",
"}}}}}}}}}}}}}}}}}}}}}}pi}}}}}}m'R}}rye}},}},}}}}}}}}}}}}}}}}}}}}",
"}}}}}}}}}}}}}}}}}}}}}};}}}}}}}qf}}}+#}}}}$}}t}}}}}}}}}}}}}}}}}}}",
"}}}}}}}}}}}}}}}}1}}}}},2}}}}}}ic}}} }}}}}}}22}}}}}}}X1}}}}}}}}}}",
"}}}}}}}}}}}}}}}}}}}}}}}}}}}}}}}frt}}}}}}}}}}}}}}}}}}}}<}}}}}}}}}",
"}}}}}}}}}<}}}}}}}}}}}}}}}}}}}}}8Sj}}}}}}}}}}}}}}}}}}}}}}}}}}}}}}",
"}}}}}}}}}}}}}}}}}}}}}}}}}}}}}}}}y}}}}}}}}}}}}}}}}}}}}}}}}}}}}}}}",
"}}}}}}}}}}}}}e}}}}}}}}}}}}}}}}}}*}}}}}}}}}}}}}}}}}}}}}}}}}}}}}}}",
"}}}}}}}}}}}}}-,}}}}}}}}}}}}}}}}} }}}}}}}}}}2,}}}}}}}}}}}}}}}}}}}",
"}}}}}}}}}}}}}}}}}}}}}}}}}$}}}}}}}}}}}}}g}}}}}}}}}}}}}}}}}}}}}}}}",
"}}}}}}}}}}}}}}}}}}}}}}}}}}=}}}}}}}}}}}}0}}}}}}}}}}}}}}}}}}}}}}}}",
"}}}}}}}rr}}}}}}}rAi}}}}}}}}}}}}}r}}}}}}}}}}}}}}}}}}}}}}}}}}}}}}}",
"}}}}}}r-}1}}}}}}&}08X}}}k}}}}}}jf}}}}}}}}}}}}}}}}}}mZ}Zj}}}}}}}}",
"}}}}}}+}}gbs}}}}}}d2}}}JEMCKAsgIzr}}}}}}}}}}1}}}}}}kMhWb}}}}}}}}",
"}}}}}}}}r)WGbm~Z}}0}}}}izyfzpNE)i6<}}eg}}}}$}}}}}}}Nfu!Hst}}}}}}",
"}}}}}}*fp)]KnI{Im}}}>}}O&o} 4uH]QKb$2Av,}}}}}}dsLEH!IfGBf8}}}}}}",
"}}}}}o*wulIl6uSNl,}1}}}}}}} %O-pnIi@&y6}}}}}RIxlMlN!Nflw%}}}}}}}",
"}}}}}}oOO@&*pu5*%o}}}}}Z2}}}}}}}wN*}}aA}}grdIEv6qrI(l4+o}}}}}}}}",
"}}}}}}}}}}}o&;o}}}}}}$zf}}}j}se}h(ze2cEiA!y}8I{g}}0r*}}}}}}}}}}}",
"}}}}}}}}}}}}}}}}}}}}}}*;}}zKi82}exlN8=8-}i<}&lJ}}}}}}}}}}}}}}}}}",
"}}}}}}}}}}}}}}}}}}}}}}}}}}}}}}}}}}O8&}}}}}}}}}}}}}}}}}}}}}}}}}}}",
"}}}}}}}}}}}}}}}}}}}}}}}}}}}}}}}}}}}}}}}}}}}}}}}}}}}}}}}}}}}}}}}}",
"}}}}}}}}}}}}}}}}}}}}}}}}}}}}}}}}}}}}}}}}}}}}}}}}}}}}}}}}}}}}}}}}",
"}}}}}}}}}}}}}}}}}}}}}}}}}}}}}}}}}}}}}}}}}}}}}}}}}}}}}}}}}}}}}}}}",
"}}}}}}}}}}}}}}}}}}}}}}}}}}}}}}}}}}}}}}}}}}}}}}}}}}}}}}}}}}}}}}}}",
"}}}}}}}}}}}}}}}}}}}}}}}}}}}}}}}}}}}}}}}}}}}}}}}}}}}}}}}}}}}}}}}}",
"}}}}}}}}}}}}}}}}}}}}}}}}}}}}}}}}}}}}}}}}}}}}}}}}}}}}}}}}}}}}}}}}",
"}}}}}}}}}}}}}}}}}}}}}}}}}}}}}}}}}}}}}}}}}}}}}}}}}}}}}}}}}}}}}}}}",
"}}}}}}}}}}}}}}}}}}}}}}}}}}}}}}}}}}}}}}}}}}}}}}}}}}}}}}}}}}}}}}}}",
"}}}}}}}}}}}}}}}}}}}}}}}}}}}}}}}}}}}}}}}}}}}}}}}}}}}}}}}}}}}}}}}}",
"}}}}}}}}}}}}}}}}}}}}}}}}}}}}}}}}}}}}}}}}}}}}}}}}}}}}}}}}}}}}}}}}",
"}}}}}}}}}}}}}}}}}}}}}}}}}}}}}}}}}}}}}}}}}}}}}}}}}}}}}}}}}}}}}}}}",
"}}}}}}}}}}}}}}}}}}}}}}}}}}}}}}}}}}}}}}}}}}}}}}}}}}}}}}}}}}}}}}}}",
"}}}}}}}}}}}}}}}}}}}}}}}}}}}}}}}}}}}}}}}}}}}}}}}}}}}}}}}}}}}}}}}}",
"}}}}}}}}}}}}}}}}}}}}}}}}}}}}}}}}}}}}}}}}}}}}}}}}}}}}}}}}}}}}}}}}",
"}}}}}}}}}}}}}}}}}}}}}}}}}}}}}}}}}}}}}}}}}}}}}}}}}}}}}}}}}}}}}}}}",
"}}}}}}}}}}}}}}}}}}}}}}}}}}}}}}}}}}}}}}}}}}}}}}}}}}}}}}}}}}}}}}}}",
"}}}}}}}}}}}}}}}}}}}}}}}}}}}}}}}}}}}}}}}}}}}}}}}}}}}}}}}}}}}}}}}}"
};
