/* XPM */
static char *sprite[] = {
/* columns rows colors chars-per-pixel */
"64 64 63 1 ",
"  c #010000",
". c #0B0102",
"X c #0D0E0E",
"o c #120305",
"O c #1A0407",
"+ c #1B0408",
"@ c #0F1010",
"# c #101010",
"$ c #1E1113",
"% c #1A1B1B",
"& c #25060B",
"* c #2C070D",
"= c #31070D",
"- c #33080F",
"; c #360810",
": c #3C0911",
"> c #262727",
", c #2B2C2C",
"< c #430A14",
"1 c #4C0C16",
"2 c #590714",
"3 c #500C17",
"4 c #590815",
"5 c #530D18",
"6 c #5C0E1B",
"7 c #40181F",
"8 c #5F101D",
"9 c #620F1D",
"0 c #63101E",
"q c #69101F",
"w c #6D1120",
"e c #731222",
"r c #7C1425",
"t c #482027",
"y c #572E35",
"u c #5D343B",
"i c #434443",
"p c #4C4C4C",
"a c #55474A",
"s c #515151",
"d c #666767",
"f c #77696C",
"g c #757575",
"h c #821426",
"j c #861528",
"k c #8B162A",
"l c #8F182B",
"z c #91172B",
"x c #95182D",
"c c #9A1A2F",
"v c #9E1A30",
"b c #A11B31",
"n c #A91C33",
"m c #A1A2A2",
"M c #B2A5A7",
"N c #B3B4B4",
"B c #B9B9B9",
"V c #C4B6B8",
"C c #C3C4C4",
"Z c #CDCDCD",
"A c #D4C7C9",
"S c #DFDFDF",
"D c None",
/* pixels */
"DDDDDDDDDDDDDDDDDDDDDDDDDDDDDDDDDDDDDDDDDDDDDDDDDDDDDDDDDDDDDDDD",
"DDDDDDDDDDDDDDDDDDDDDDDDDDDDDDDDDDDDDDDDDDDDDDDDDDDDDDDDDDDDDDDD",
"DDDDDDDDDDDDDDDDDDDDDDDDDDDDDDDDDDDDDDDDDDDDDDDDDDDDDDDDDDDDDDDD",
"DDDDDDDDDDDDDDDDDDDDDDDDDDDDDDDDDDDDDDDDDDDDDDDDDDDDDDDDDDDDDDDD",
"DDDDDDDDDDDDDDDDDDDDDDDDDDDDDDDDDDDDDDDDDDDDDDDDDDDDDDDDDDDDDDDD",
"DDDDDDDDDDDDDDDDDDDDDDDDDDDDDDDDDDDDDDDDDDDDDDDDDDDDDDDDDDDDDDDD",
"DDDDDDDDDDDDDDDDDDDDDDDDDDDDDDDDDDDDDDDDDDDDDDDDDDDDDDDDDDDDDDDD",
"DDDDDDDDDDDDDDDDDDDDDDDDDDDDDDDDDDDDDDDDDDDDDDDDDDDDDDDDDDDDDDDD",
"DDDDDDDDDDDDDDDDDDDDD;::;;;;;;;;:::DDDDDDDDDDDDDDDDDDDDDDDDDDDDD",
"DDDDDDDDDDDDDDDDDDDDD358008w0w0wq08<DDDDDDDDDDDDDDDDDDDDDDDDDDDD",
"DDDDDDDDDDDDDDDDDDD-<8rlcxxxxxxxxxr1;DDDDDDDDDDDDDDDDDDDDDDDDDDD",
"DDDDDDDDDDDDDDDDDDD18rzcnnbkrrrrrerw0<DDDDDDDDDDDDDDDDDDDDDDDDDD",
"DDDDDDDDDDDDDDDDDD<8rlcbbbl8<:<<:<5jr3;DDDDDDDDDDDDDDDDDDDDDDDDD",
"DDDDDDDDDDDDDDDDD18rxbbnbj0;++++++=wrw0<DDDDDDDDDDDDDDDDDDDDDDDD",
"DDDDDDDDDDDDDDDD:8rxbbbbl8-o  .   o;8rr7;DDDDDDDDDDDDDDDDDDDDDDD",
"DDDDDDDDDDDDDDDD;8hxbbcj0;o.      .o-wew0<DDDDDDDDDDDDDDDDDDDDDD",
"DDDDDDDDDDDDDDD:<6hxbbxq-o          o-0lr<-DDDDDDDDDDDDDDDDDDDDD",
"DDDDDDDDDDDDDD:36ehxbnx8=o          .&0xr1-DDDDDDDDDDDDDDDDDDDDD",
"DDDDDDDDDDDDDD:6rhjzvnx0=o X#.    .@$-0lr1-DDDDDDDDDDDDDDDDDDDDD",
"DDDDDDDDDDDDDD:8rjjjlvx0=.%dg>    >gft6xr<-DDDDDDDDDDDDDDDDDDDDD",
"DDDDDDDDDDDDDD:6rrrrjxx0=.>BZp    pZVu4zr1;DDDDDDDDDDDDDDDDDDDDD",
"DDDDDDDDDDDDDD:6rw6whcxq*.,CSs    sSAu4xr1;DDDDDDDDDDDDDDDDDDDDD",
"DDDDDDDDDDDDDD:0r6<9hcx0=.>mBi    iBMy4lr<;DDDDDDDDDDDDDDDDDDDDD",
"DDDDDDDDDDDDDD:6r6:6hcx0=.#ip%    %ps:8hw<;DDDDDDDDDDDDDDDDDDDDD",
"DDDDDDDDDDDDDD:6w5<9hxzw<+.         o=5rq<;DDDDDDDDDDDDDDDDDDDDD",
"DDDDDDDDDDDDDDD13<:9hkkje<O         .*5rq<;DDDDDDDDDDDDDDDDDDDDD",
"DDDDDDDDDDDDDDDD:;<6ehjclq:O       .+:5q0<DDDDDDDDDDDDDDDDDDDDDD",
"DDDDDDDDDDDDDDDDDDD15qhjjr9:O.    .O:0q51DDDDDDDDDDDDDDDDDDDDDDD",
"DDDDDDDDDDDDDDDDDDDD<6eeehr6:O....O:8q0<DDDDDDDDDDDDDDDDDDDDDDDD",
"DDDDDDDDDDDDDDDDDDDDD<115err6:&&&&:9051DDDDDDDDDDDDDDDDDDDDDDDDD",
"DDDDDDDDDDDDDDDDDDDDD<<<1qhkr933130re5<DDDDDDDDDDDDDDDDDDDDDDDDD",
"DDDDDDDDDDDDDDDDDDDD<6weerjzckjkjklcle6<DDDDDDDDDDDDDDDDDDDDDDDD",
"DDDDDDDDDDDDDDDDDDD<3wjlljlvbbbbnbbbvle5<DDDDDDDDDDDDDDDDDDDDDDD",
"DDDDDDDDDDDDDDDDDD:6ekvvvxvbbbbbbbbbbcle6<DDDDDDDDDDDDDDDDDDDDDD",
"DDDDDDDDDDDDDDDDD;<0jcbbbbbbbbbbbbbbbbcj0<;DDDDDDDDDDDDDDDDDDDDD",
"DDDDDDDDDDDDDDDDD;:8hxbbbvbbbbbbbbvbbbcjq<;DDDDDDDDDDDDDDDDDDDDD",
"DDDDDDDDDDDDDDDDD;:qkcvbbbbbbbvbvbbbbbckw<:DDDDDDDDDDDDDDDDDDDDD",
"DDDDDDDDDDDDDDDDD;:wvvvbbbbvbbbbbbbbbbnce<;DDDDDDDDDDDDDDDDDDDDD",
"DDDDDDDDDDDDDDDDD<6rbnbbvbbbbbbbbbbbbbbbr<=DDDDDDDDDDDDDDDDDDDDD",
"DDDDDDDDDDDDDDDD:6exvbbbbbbbbbvbbbvbbvnbr<-DDDDDDDDDDDDDDDDDDDDD",
"DDDDDDDDDDDDDDD;<8hxbbbbbbbbbbvxxcbbbbbbj81DDDDDDDDDDDDDDDDDDDDD",
"DDDDDDDDDDDDDDDD:6hxbbbbbbbvbbvklcbbbbbbzr8<DDDDDDDDDDDDDDDDDDDD",
"DDDDDDDDDDDDDDDD:6hxbbbbbbbbbbvjjcnvbbbbcj9<;DDDDDDDDDDDDDDDDDDD",
"DDDDDDDDDDDDDDDD<6hxbbbvvbbbbbcjjcbbbbbbxj9:;DDDDDDDDDDDDDDDDDDD",
"DDDDDDDDDDDDDDDD:6hxbbbbbvbbvvjwwjcbbbcxkh9<-DDDDDDDDDDDDDDDDDDD",
"DDDDDDDDDDDDDDD:<6hxvbbvvvbbvke11ekcbbcjhh9<;DDDDDDDDDDDDDDDDDDD",
"DDDDDDDDDDDDDDD16whjxcbxxvvckje11ejzcbxjhr9<;DDDDDDDDDDDDDDDDDDD",
"DDDDDDDDDDDDDD:6rhhhjxvlkxvlhrw<<erhkcxjhh9<-DDDDDDDDDDDDDDDDDDD",
"DDDDDDDDDDDDDD:6hjhhhjzzzzzjrw3**3qrjkkjjh9<;DDDDDDDDDDDDDDDDDDD",
"DDDDDDDDDDDDDD:6rhrrhhkzckhhw1*..=3ejhhrrr9<;DDDDDDDDDDDDDDDDDDD",
"DDDDDDDDDDDDDD:8re6whhjkkkrq3*o .*3ehhe6qr9<;DDDDDDDDDDDDDDDDDDD",
"DDDDDDDDDDDDDD:6e6<9hrrrhhe5=o  .*1whhw16e9<;DDDDDDDDDDDDDDDDDDD",
"DDDDDDDDDDDDDDD55<<9rw6ehke3=.   o*1wre9661DDDDDDDDDDDDDDDDDDDDD",
"DDDDDDDDDDDDDDDD:;:9e5<0rrw3=o    o*3err9<;DDDDDDDDDDDDDDDDDDDDD",
"DDDDDDDDDDDDDDDDD::<31D3463<;ODD  .=<3653DDDDDDDDDDDDDDDDDDDDDDD",
"DDDDDDDDDDDDDDDDDD:::DD=;=;;:DDDD .*=::::DDDDDDDDDDDDDDDDDDDDDDD",
"DDDDDDDDDDDDDDDDDDDDDDDoooo&DDDDDD.oODDDDDDDDDDDDDDDDDDDDDDDDDDD",
"DDDDDDDDDDDDDDDDDDDDDDD    DDDDDDDD  DDDDDDDDDDDDDDDDDDDDDDDDDDD",
"DDDDDDDDDDDDDDDDDDDDDDDDD  DDDDDDDD  DDDDDDDDDDDDDDDDDDDDDDDDDDD",
"DDDDDDDDDDDDDDDDDDDDDDDDD  DDDDDDDD  DDDDDDDDDDDDDDDDDDDDDDDDDDD",
"DDDDDDDDDDDDDDDDDDDDDDDDD  DDDDDDDD  DDDDDDDDDDDDDDDDDDDDDDDDDDD",
"DDDDDDDDDDDDDDDDDDDDDDDDD  DDDDDDDD  DDDDDDDDDDDDDDDDDDDDDDDDDDD",
"DDDDDDDDDDDDDDDDDDDDDDDDDDDDDDDDDDDDDDDDDDDDDDDDDDDDDDDDDDDDDDDD",
"DDDDDDDDDDDDDDDDDDDDDDDDDDDDDDDDDDDDDDDDDDDDDDDDDDDDDDDDDDDDDDDD"
};
