/* XPM */
static char *Rock2_1[] = {
/* columns rows colors chars-per-pixel */
"64 64 9 1 ",
"  c #3E2425",
". c #482A2A",
"X c #573330",
"o c #6C4036",
"O c #82503F",
"+ c #98654C",
"@ c #AB7757",
"# c #C48E5E",
"$ c None",
/* pixels */
"$$$$$$$$$$$$$$$$$$$$$$$$$$$$$$$$$$$$$$$$$$$$$$$$$$$$$$$$$$$$$$$$",
"$$$$$$$$$$$$$$$$$$$$$$$$$$$$$$$$$$$$$$$$$$$$$$$$$$$$$$$$$$$$$$$$",
"$$$$$$$$$$$$$$$$$$$$$$$$$$$$$$$$$$$$$$  $$$$$$$$$$$$$$$$$$$$$$$$",
"$$$$$$$$$$$$$$$$$$$$$$$$$$$$$$$$$$$$  ##  $$$$$$$$$$$$$$$$$$$$$$",
"$$$$$$$$$$$$$$$$$$$$$$$$$$$$$$$$$$$ @##### $$$$$$$$$$$$$$$$$$$$$",
"$$$$$$$$$$$$$$$$$$$$ $$$$$$$$$$$$$ @@@##### $$$$$$$$$$$$$$$$$$$$",
"$$$$$$$$$$$$$$$$$$$ #  $$$$$$$$$$ @@@@@@####  $$$$$$$$$$$$$$$$$$",
"$$$$$$$$$$$$$$$$$$ #### $$$$$$$$ oO@@@@@@###@@  $$$$$$$$$$$$$$$$",
"$$$$$$$$$$$$$$$$$ @@#### $$$$$$$ oOO@@@@@@#@@### $$$$$$$$$$$$$$$",
"$$$$$$$$$$$$$$$$ o@@@@###       ooOOO@@@@@@O##### $$$$$$$$$$$$$$",
"$$$$$$$$$$$$$$$$ o#@@@@@oOOOO####ooOOO@@@@O@@@@@## $$$$$$$$$$$$$",
"$$$$$$$$$$$$$$$$ oo@@@@oOOOO#######OOOOO@OO@@@@@@# $$$$$$$$$$$$$",
"$$$$$$$$$$$$$$$$ oo#@@XOOOO#@@@@#####OOOOoO@@@@@@@# $$$$$$$$$$$$",
"$$$$$$$$$$$$$$$$ oo#@XXOOO@@@@@@@@####oOooOO@@@@@@# $$$$$$$$$$$$",
"$$$$$$$$$$$    $ Xoo#XooO@@@@@@@@@@@##OooOOOO@@@@@@ $$$$$$$$$$$$",
"$$$$$$$$$$ O@##  XXoXXooo#@@@@@@@@@@@#O#oOOOOO@@@@O $$$$$$$$$$$$",
"$$$$$$$$$ OO@@###XXoXoooo#@@@@@@@@@@@#O@ooOOOOOO@O $$$$$$$$$$$$$",
"$$$$$$$$$ OOO@@###@XXoooo##@@@@@@@@@#OO@#ooOOOOOoo $$$$$$$$$$$$$",
"$$$$$$$$ oOOOO@@@@@XoooooO#@@@@@@@@@#OO@##ooOOOoo $$$$$$$$$$$$$$",
"$$$$$$$$ oOOOOO@@@XXoooooO##@@@@@@@@#O@@@#XooOoooo   $$$$$$$$$$$",
"$$$$$$$$ ooOOOOOO@XXoooooOO#@@@@@@@@O@@@@##ooooXo@###   $$$$$$$$",
"$$$$$$$$ oo+OOOOOOXoooooOOOO#@@@@@@O@@@@@@#XoXXo@@@#####  $$$$$$",
"$$$$$$$$ .oo+OOOOOXoooooOOOOO@@@@@@@@@@@@@#XXXX@@@@@###### $$$$$",
"$$$$$$$$ .oo+OOOOXXoooo+OOOOOO#@@@@@@@@@@@@#XX@@@@@@@###### $$$$",
"$$$$$$$$ .ooo++OOXXooooOOOOOOOO@@@@@@@@@@@@#Xo@@@@@@@@@###o $$$$",
"$$$$$$$$ .oooo++OXXooo+OOOOOOOOO#@@@@@@@@@@@oo@@@@@@@@@@#oo $$$$",
"$$$$$$$$ ..oooo++XXoooOOOOOOOOOOO@#@@@@@@@@@OOO@@@@@@@@#ooX $$$$",
"$$$$$$$$ ...oooo+XXooOOOOOOOOOOOOOO#@@@@@@@OOO#OO@@@@@@oooX $$$$",
"$$$$$$$$ ....ooooXXXoOXXXooOOOOOOOOO#@@@@OOOOO##OOO@@OoooX $$$$$",
"$$$$$$$$$ ....oo.XXXXXXooo###OOOOOOOO##oOOOOOOO#oOOOOoooXX $$$$$",
"$$$$$$$$$ .......XXXXoooo#####OOOOOOoooOOOOOOOO##oOooooXX $$$$$$",
"$$$$$$$$$$ .....XXXoooooo@@@###OOOOoooOOOOOOOOO@#oooooXXX $$$$$$",
"$$$$$$$$$$$ ....XXoooooOO@@@@###ooooooOOOOOOOOo@##oooXXX $$$$$$$",
"$$$$$$$$$$$ ....Xoooo+OOOO@@@@###XoooOOOOOOOOOoo@#XoXXXX $$$$$$$",
"$$$$$$$$$$$ ...Xooo+OOOOOO#@@@@###XooOOOOOOOOooo@#XXXX. $$$$$$$$",
"$$$$$$$$$$$$ ..ooOOOOOOOOOO@@@@@##XXoOOOOOOO+oooo@XXX.. $$$$$$$$",
"$$$$$$$$$$$$$ .oOOOOOOOOOOO#@@@@@##XXOOOOOO+ooooo@XX..      $$$$",
"$$$$$$$$$$$$$ .XOOOOOOOOOOOO#@@@@@#XXOOOOO+oooooo@...  @@@@@ $$$",
"$$$$$$$$$$$$$$ X+OOOoOOOOOOO#@@@@@@@XXOO++oooooooO...@@@@@@O $$$",
"$$$$$$$$$$$$$$ ..OooOOOOOOOOO#@@@@@@XXO++ooooooooO..OOO@@OO $$$$",
"$$$$$$$$$$$$$$$ .ooOOOOOOOOOO#@@@@@XoXXXooooooooO..OOOOOOoo $$$$",
"$$$$$$$$$$$$$$$ .oOOOOOOOOOOOO#@@@XXooXXXoooooooO..+OOOOoo $$$$$",
"$$$$$$$$$$$$$$$ ..+OOOOOOOOOOOX@@XXooooXXXXooooXo.XX++OXXX $$$$$",
"$$$$$$$$$$$$$$$ ...+OOOOOOOOOXXXXXXooooXXXXXooXXo.XXXXXXX $$$$$$",
"$$$$$$$$$$$$$$$$ ...++OOOOO+XXX.XXooooooXXXXXXXo.XXXXX.. $$$$$$$",
"$$$$$$$$$$$$$$$$ ....+++O+..XXX.XXoooooo.XXXXXXo.XXX... $$$$$$$$",
"$$$$$$$$$$$$$$$$ ......++..XXXo.XooooooO..XXXXX.XX...  $$$$$$$$$",
"$$$$$$$$$$$$$$$$ .........XXXXo..oooooOX...XXXX..... $$$$$$$$$$$",
"$$$$$$$$$$$$$$$$$ .......XXXXoo...OooOXX...XXX...   $$$$$$$$$$$$",
"$$$$$$$$$$$$$$$$$ .......XXXXXo....OOOXX....X..  $$$$$$$$$$$$$$$",
"$$$$$$$$$$$$$$$$$ .......XXXXXo.....OXXX...... $$$$$$$$$$$$$$$$$",
"$$$$$$$$$$$$$$$$$$ ......XXXXXX.....XXXX..... $$$$$$$$$$$$$$$$$$",
"$$$$$$$$$$$$$$$$$$$ ......XXXXX.....XXX. ... $$$$$$$$$$$$$$$$$$$",
"$$$$$$$$$$$$$$$$$$$$ ......XXX.......XX $   $$$$$$$$$$$$$$$$$$$$",
"$$$$$$$$$$$$$$$$$$$$$  ........ ...... $$$$$$$$$$$$$$$$$$$$$$$$$",
"$$$$$$$$$$$$$$$$$$$$$$$  ..... $      $$$$$$$$$$$$$$$$$$$$$$$$$$",
"$$$$$$$$$$$$$$$$$$$$$$$$$     $$$$$$$$$$$$$$$$$$$$$$$$$$$$$$$$$$",
"$$$$$$$$$$$$$$$$$$$$$$$$$$$$$$$$$$$$$$$$$$$$$$$$$$$$$$$$$$$$$$$$",
"$$$$$$$$$$$$$$$$$$$$$$$$$$$$$$$$$$$$$$$$$$$$$$$$$$$$$$$$$$$$$$$$",
"$$$$$$$$$$$$$$$$$$$$$$$$$$$$$$$$$$$$$$$$$$$$$$$$$$$$$$$$$$$$$$$$",
"$$$$$$$$$$$$$$$$$$$$$$$$$$$$$$$$$$$$$$$$$$$$$$$$$$$$$$$$$$$$$$$$",
"$$$$$$$$$$$$$$$$$$$$$$$$$$$$$$$$$$$$$$$$$$$$$$$$$$$$$$$$$$$$$$$$",
"$$$$$$$$$$$$$$$$$$$$$$$$$$$$$$$$$$$$$$$$$$$$$$$$$$$$$$$$$$$$$$$$",
"$$$$$$$$$$$$$$$$$$$$$$$$$$$$$$$$$$$$$$$$$$$$$$$$$$$$$$$$$$$$$$$$"
};
