/* XPM */
static char *Rock6_2[] = {
/* columns rows colors chars-per-pixel */
"64 64 8 1 ",
"  c #43302E",
". c #563C38",
"X c #6A4C45",
"o c #856254",
"O c #A98467",
"+ c #C9A879",
"@ c #E2C58A",
"# c None",
/* pixels */
"################################################################",
"################################################################",
"################################################################",
"################################################################",
"################################################################",
"################################################################",
"################################################################",
"################################################################",
"########################################   #####################",
"######################### ############  OOO  ###################",
"#######################  O #########  OO++@OO  #################",
"###################### OO+O ######  OO++++++@OO  ###############",
"##################### O++++O #### OO++++++++++@OO ##############",
"#################### O@++@@@O ## O++++++++++++++@O #############",
"#################### OO@@OOOO # O@+++++++++++++++@O ############",
"####################  OOOooo    OOO@+++++++O++++++O ############",
"#################   OOOOOOOOOOOOOOOOO@@@++O++++++++O ###########",
"################ OOO@++++++++Oo@@oOOOOOO@O@@@+++++@O ###########",
"############### O@++++++++++Oo@++++++@OOOoO@@@@++@@O ###########",
"############## O@++++++++++Oo@+++++++++++@OOOO@@@@@O ###########",
"############## O++++++++++O@+++++++++++++++@OoOOOOOO ###########",
"############## O@++++++++++++++++++++++++++++OoOOOoo ###########",
"############## O@++++++++++++++++++++++++++@OOXooooo ###########",
"############## O@+++++++++++++++++++++++++@OOXXooOo ############",
"############## O@@+++++++++++++++++++++++@OOXXX.O+O ############",
"############## OO@@+++++++++++++@O+++++@OOOXXX.O+++O ###########",
"############## .OO@@++++++++++++@oO++@@OOOXXX.O+++++O ##########",
"############## .XOO@@++++++++++++@oO@@OOXXXX.O+++++++O #########",
"############## .XXOO@++++++++++++@@oOOOXXXXOO+++++++@O #########",
"############## ..XXOO@++++++++@@@@OOOOXXXXO++++++O++Oo #########",
"############## ..XXXOO@+++@@@@@OOOOXoXXXXO++++++++O@Oo #########",
"############## ..XXXXOO+@@@OOOOOXXXooXXXO@+++++++++OOo #########",
"############## ...XXXXOOOOOOOoooXXoooXX.OO@@++++++@Ooo #########",
"############### ..XXXXXOOooooooooXoooX. .OO@@@+++@OooX #########",
"################ ..XXXXXoooooOOoooooX.  .XOOO@@@@@OooX #########",
"################ ..XXXXXooOOO++@OooX. # .XXOOOO@@OoooX #########",
"################# ..XXOOOO@++++OoOX  ## ..XXXOOOOOooX ##########",
"#################  OOO@+++++++@o++OO ### .XXXXXOOoooX ##########",
"################ OO@++++++++++O++++@O ## ..XXXXXXooX ###########",
"############### O@@@+++++++++@++++@OO ### ...XXXXoX ############",
"############### OOOO@@@@++++++++@@OOX #### ......X #############",
"############## ..OOOOOO@@@@+++@@@OOX. #####       ##############",
"############## ..XXXOOOOOO@@@@+OOOX.. ##########################",
"############## ...XXXXXOOOOOOOOOOXX.. ##########################",
"############### ...XXXXXXoOOOOOOoX.. ###########################",
"################ ...XXXXXooooooooX. ############################",
"#################  ...XXXoooooooo. #############################",
"###################   ...XooooooX ##############################",
"######################   .XXXXXX ###############################",
"#########################       ################################",
"################################################################",
"################################################################",
"################################################################",
"################################################################",
"################################################################",
"################################################################",
"################################################################",
"################################################################",
"################################################################",
"################################################################",
"################################################################",
"################################################################",
"################################################################",
"################################################################"
};
