/* XPM */
static char *Rock6_1[] = {
/* columns rows colors chars-per-pixel */
"64 64 8 1 ",
"  c #43302E",
". c #563C38",
"X c #6A4C45",
"o c #856254",
"O c #A98467",
"+ c #C9A879",
"@ c #E2C58A",
"# c None",
/* pixels */
"################################################################",
"################################################################",
"################################################################",
"################################################################",
"########################################   #####################",
"#####################################   OOO  ###################",
"##################################   OOO@++OO ##################",
"################################  OOO@++++++@O #################",
"#####################  #######  OO@++++++++@oOO ################",
"#################### OO ##### OO@+++++++++@o+++O ###############",
"################### O@+O #### O@++++++++++++++++O ##############",
"################## O++++O ### OO@++++++++++++++++O #############",
"################# O@++++@O ## .OO@++++++++++++++++O ############",
"################ O@+++++@OO # ..OO@+++++++++++++++@O ###########",
"############### O@+++++++O+O  ..OO@@+++@o+++++++++++O ##########",
"############### O@++++++++++O ..XOO@@+@o++++++++++++@O #########",
"############## O@++++++++++++O ..XOO@@oO+++++++++++++@O ########",
"############## OO@++++++++++++OO.XOOOoO++++++++++++++@O ########",
"############## OOO@+++++++++++++OXXOOO@@++++++++++++@OO ########",
"########### ## .OOO@@++++++O+++++OXXOO@@++++++++++@@OOo ########",
"########## O   .XOOO@@@+++@O++++++OXXOO@@+++++@@@@OOOoo ########",
"######### O+OO .XXOOOO@@+@Oo+++++++OXXOO@@@@@@@OOOOOooo ########",
"######## O@++OO..XXoOOO@@@O++++++++@OXXOO@@OOOOOOOooooo ########",
"####### O@++OOo..XXoooOOOOO@@@@@@@OOOXXXOOOOOOOoooOoooo ########",
"####### .O@@OooOOOOOOOOOOOOOOOOOOOOOOOOOOOOOOooooO+OooX ########",
"####### ..OOooOO@+++OO+++++++@oOO@OO++++++++@OooO++OooX    #####",
"####### ..XXooO@++++++++++++@oOO+++++++++@@@OooO@+++OoXoOOO ####",
"######## .XXoOO@+++++++++++@oO++++++++++@OOOOooO++++OX.O++O ####",
"######## ..XXOO@++++++++++@oO++++++++++@OOOOXoO++++@O.O+@OO ####",
"######### .XXOO@@++++++++@o+++++++++++@OOOOXXoO@++OooXOOOOo ####",
"########## ..OO@@++++++++++++++++++++@OOOoXXXoO@++++OXXOOoo ####",
"###########  .OO@@+++++++++++++++++@@OOOooXXXoO@@+++O.XXXoX ####",
"############ .XOO@++++++++++++++++@@OOXoooXXX.O@@+++O.XXXX. ####",
"############ .XXOO@++++++++++++++@@OOXXoooXXX.OO@+++O..XX. #####",
"############ .XXXOO+++++++++++++@@OOXXXXoXXXX.XOO@+@O ... ######",
"############ .XXXXO@+++++++++@@@@OOXXXXXoXXX..XOOO+@O  . #######",
"############ ..XXXOO@+++++@@@@@@OOXXXXXXXXX...XoOO@@O # ########",
"############ ..XXXXOO@@@@@@OOOOOOXXXXXXXXX... XooOO@O ##########",
"############ ..XXXXXOO@@OOOOOOOOoXXXXXXX...O  XoooOOO ##########",
"############ ..XXXXXOOOOOOOOOooooXXXXXX..OO+O .XoooO ###########",
"############ ...XXXXXOOOOoXXoooooXXXX...O+++O .Xoooo ###########",
"############ ...XXXXoooooooXoooooXX...OO++++@O .Xooo ###########",
"############# ..XXXXoooooooXooooXX..Oo@++++++O  .Xoo ###########",
"############## ..XXXooooooooooooX.OO+Oo@++++++O   Xo ###########",
"############## ..XXXoooooooooooX.O++++O++++++@OX # X ###########",
"############### ..XXXooooooooXX.O+++++++++++@OOO ## ############",
"################ ..XXoooooXXX OO+++++++++++@@OOX ###############",
"################# ..XXooXX   O+++++++++@@+@OOOXX ###############",
"################## ....X  # O++++@@@@@@@OOOOOXXX ###############",
"###################     ## O@@@@@@@@OOOOOOOooXX. ###############",
"######################### .XOOOOOOOOOOoooooooX. ################",
"######################### .XXOOOOOooooooooooo. #################",
"######################### ..XXXooooooooooooo. ##################",
"########################## .XXXoooooooooooXX ###################",
"########################### .XXooooooooXXX  ####################",
"############################ .XXoooXXXX   ######################",
"############################# ...XX    #########################",
"##############################     #############################",
"################################################################",
"################################################################",
"################################################################",
"################################################################",
"################################################################",
"################################################################"
};
