/* XPM */
static char *Rock2_2[] = {
/* columns rows colors chars-per-pixel */
"64 64 9 1 ",
"  c #3E2425",
". c #482A2A",
"X c #573330",
"o c #6C4036",
"O c #82503F",
"+ c #98654C",
"@ c #AB7757",
"# c #C48E5E",
"$ c None",
/* pixels */
"$$$$$$$$$$$$$$$$$$$$$$$$$$$$$$$$$$$$$$$$$$$$$$$$$$$$$$$$$$$$$$$$",
"$$$$$$$$$$$$$$$$$$$$$$$$$$$$$$$$$$$$$$$$$$$$$$$$$$$$$$$$$$$$$$$$",
"$$$$$$$$$$$$$$$$$$$$$$$$$$$$$$$$$$$$$$$$$$$$$$$$$$$$$$$$$$$$$$$$",
"$$$$$$$$$$$$$$$$$$$$$$$$$$$$$$$$$$$$$$$$$$$$$$$$$$$$$$$$$$$$$$$$",
"$$$$$$$$$$$$$$$$$$$$$$$$$$$$$$$$$$$$$$$$$$$$$$$$$$$$$$$$$$$$$$$$",
"$$$$$$$$$$$$$$$$$$$$$$$$$$$$$$$$$$$$$$$$$$$$$$$$$$$$$$$$$$$$$$$$",
"$$$$$$$$$$$$$$$$$$$$$$$$$$$$$$$$$$$$$$$$$$$$$$$$$$$$$$$$$$$$$$$$",
"$$$$$$$$$$$$$$$$$$$$$$$$$$$$$$$$$$$$$$$$$$$$$$$$$$$$$$$$$$$$$$$$",
"$$$$$$$$$$$$$$$$$$$$$$$$$$$$$$$$$$$$$$$$$$$$$$$$$$$$$$$$$$$$$$$$",
"$$$$$$$$$$$$$$$$$$$$$$$$$$$$$$$$$$$$$$$$$$$$$$$$$$$$$$$$$$$$$$$$",
"$$$$$$$$$$$$$$$$$$$$$$$$$$$$$$$$$$$$ $$$$$$$$$$$$$$$$$$$$$$$$$$$",
"$$$$$$$$$$$$$$$$$$$$$$$$$$$$$$$$$$$ # $$$$$$$$$$$$$$$$$$$$$$$$$$",
"$$$$$$$$$$$$$$$$$$      $$$$$$$$$$ ### $$$$$$$$$$$$$$$$$$$$$$$$$",
"$$$$$$$$$$$$$$$$$ O####O  $$$$$$$ @@### $$$$$$$$$$$$$$$$$$$$$$$$",
"$$$$$$$$$$$$$$$$ O@@@###OO  $$$$$ @@@## $$$$$$$$$$$$$$$$$$$$$$$$",
"$$$$$$$$$$$$$$$$ O@@@@####OO $$$ o@@@@## $$$$$$$$$$$$$$$$$$$$$$$",
"$$$$$$$$$$$$$$$ O@@@@@@@##OOO $$ @@@@@##@ $$$$$$$$$$$$$$$$$$$$$$",
"$$$$$$$$$$$$$$$ O@@@@@@##O##OO  X@@@@@@#@ $$$$$$$$$$$$$$$$$$$$$$",
"$$$$$$$$$$$$$$ OO@@@@@#OO@###OO Xo@@@@@#O $$$$$$$$$$$$$$$$$$$$$$",
"$$$$$$$$$$$$$$ O@@@@@@O@@@@##OO Xo@@@@@OO        $$$$$$$$$$$$$$$",
"$$$$$$$$$$$$$ OO@@@@@@@@@@@@#OOOXoo@@@OOO########  $$$$$$$$$$$$$",
"$$$$$$$$$$$$$ OO@@@@@@@@@@@@#OOOXXo@OOO############ $$$$$$$$$$$$",
"$$$$$$$$$$$$$ OO@@@@@@@@@@@@#OOOOXoXOO##@@@@@@@@@#O $$$$$$$$$$$$",
"$$$$$$$$$$$$$ XO#@@@@@@@@@@@#OOOOOXXO#@@@@@@@@@@##O $$$$$$$$$$$$",
"$$$$$$$$$$$$$ .XO#@@@@@@@@@@@OOOOOXX@@@@@@@@@#@@#OO $$$$$$$$$$$$",
"$$$$$$$$$$$$$ .XXX#@@@@@@@@@@OOOOOXo@@@@@@@@@O#@OOO $$$$$$$$$$$$",
"$$$$$$$$$$$$$ ..XXXX##@@@@@@OOOOOOXoo@@@@@@@@O#OOOo $$$$$$$$$$$$",
"$$$$$$$$$$$$$ ..XXXXXXX#@@@@OOOOOOOoo@@@@@@@#OOOOo $$$$$$$$$$$$$",
"$$$$$$$$$$$$$$ ..XXXXooooo@@OOOOOOOooo@@#ooOOOOOOo $$$$$$$$$$$$$",
"$$$$$$$$$$$$$$ ..XXXXoooooooOOOOOOOooooooOOOOOOOoo $$$$$$$$$$$$$",
"$$$$$$$$$$$$$$ ..XXXXooooooo+OOOOOOoooOOOOOOOOOoo $$$$$$$$$$$$$$",
"$$$$$$$$$$$$$$ ...XXXXoooooooOOOOOOoooOOOOOOOOOoo $$$$$$$$$$$$$$",
"$$$$$$$$$$$$$$ ....XXXooooooo+OOOOOoo####OOOOOooX    $$$$$$$$$$$",
"$$$$$$$$$$$$$$$ ....XXooooooooOOOO########OOOooX @@@O $$$$$$$$$$",
"$$$$$$$$$$$$$   .....XXoooooooOOO#@@@@@@@##oooX@@@OOOo $$$$$$$$$",
"$$$$$$$$$$$$ X@@@#XXX.XooooooooOX@@@@@@@@@OXXX@@OOOOoo $$$$$$$$$",
"$$$$$$$$$$$$ XOOO@@@#XXoooooooo.Xo@@@@@@@#OXXOOOOOOooo $$$$$$$$$",
"$$$$$$$$$$$$ .XOOOOO@@oXooooooo.Xo#@@@@@#OOX.OOOOOooo $$$$$$$$$$",
"$$$$$$$$$$$$ .XOOOOOO@@oXooooo..Xoo#@@@#OO+..XOOXoooo $$$$$$$$$$",
"$$$$$$$$$$$$ ..XOOOOOOO@oXoooo..XoOOOOOOOO+..XXXXoooo $$$$$$$$$$",
"$$$$$$$$$$$$$ .Xo+OOOOOOOoX.....XoOOOOOOOOO..XXXooooX $$$$$$$$$$",
"$$$$$$$$$$$$$$ ....+OOOOOOoX....XoOOOOOOOO+..XXXoooX $$$$$$$$$$$",
"$$$$$$$$$$$$$$$ .....X+OooooXX..XoOOOOOOOOO..XXoooXX $$$$$$$$$$$",
"$$$$$$$$$$$$$$$$ .....XXooooXX..XoOOOOOOOOO..XXooXX $$$$$$$$$$$$",
"$$$$$$$$$$$$$$$$$ .....XXXXooX..XooOOOOOOOo...XXXX $$$$$$$$$$$$$",
"$$$$$$$$$$$$$$$$$$  ....XXXXXX..XooOOOOOOoo...XXX $$$$$$$$$$$$$$",
"$$$$$$$$$$$$$$$$$$$$ .....XXXX..XXoOOOOOOoo..... $$$$$$$$$$$$$$$",
"$$$$$$$$$$$$$$$$$$$$$ .......X..XXooOOOOoo      $$$$$$$$$$$$$$$$",
"$$$$$$$$$$$$$$$$$$$$$$  ........XXoooOooo $$$$$$$$$$$$$$$$$$$$$$",
"$$$$$$$$$$$$$$$$$$$$$$$$ ........Xoooooo $$$$$$$$$$$$$$$$$$$$$$$",
"$$$$$$$$$$$$$$$$$$$$$$$$$  ....  XXoooo $$$$$$$$$$$$$$$$$$$$$$$$",
"$$$$$$$$$$$$$$$$$$$$$$$$$$$    $$      $$$$$$$$$$$$$$$$$$$$$$$$$",
"$$$$$$$$$$$$$$$$$$$$$$$$$$$$$$$$$$$$$$$$$$$$$$$$$$$$$$$$$$$$$$$$",
"$$$$$$$$$$$$$$$$$$$$$$$$$$$$$$$$$$$$$$$$$$$$$$$$$$$$$$$$$$$$$$$$",
"$$$$$$$$$$$$$$$$$$$$$$$$$$$$$$$$$$$$$$$$$$$$$$$$$$$$$$$$$$$$$$$$",
"$$$$$$$$$$$$$$$$$$$$$$$$$$$$$$$$$$$$$$$$$$$$$$$$$$$$$$$$$$$$$$$$",
"$$$$$$$$$$$$$$$$$$$$$$$$$$$$$$$$$$$$$$$$$$$$$$$$$$$$$$$$$$$$$$$$",
"$$$$$$$$$$$$$$$$$$$$$$$$$$$$$$$$$$$$$$$$$$$$$$$$$$$$$$$$$$$$$$$$",
"$$$$$$$$$$$$$$$$$$$$$$$$$$$$$$$$$$$$$$$$$$$$$$$$$$$$$$$$$$$$$$$$",
"$$$$$$$$$$$$$$$$$$$$$$$$$$$$$$$$$$$$$$$$$$$$$$$$$$$$$$$$$$$$$$$$",
"$$$$$$$$$$$$$$$$$$$$$$$$$$$$$$$$$$$$$$$$$$$$$$$$$$$$$$$$$$$$$$$$",
"$$$$$$$$$$$$$$$$$$$$$$$$$$$$$$$$$$$$$$$$$$$$$$$$$$$$$$$$$$$$$$$$",
"$$$$$$$$$$$$$$$$$$$$$$$$$$$$$$$$$$$$$$$$$$$$$$$$$$$$$$$$$$$$$$$$",
"$$$$$$$$$$$$$$$$$$$$$$$$$$$$$$$$$$$$$$$$$$$$$$$$$$$$$$$$$$$$$$$$"
};
