/* XPM */
static char *Rokc3_snow_shadow_dark2[] = {
/* columns rows colors chars-per-pixel */
"64 64 17 1 ",
"  c #343537",
". c #393432",
"X c #3E474D",
"o c #554C47",
"O c #736259",
"+ c #77797B",
"@ c #9C846D",
"# c #79858D",
"$ c #88949A",
"% c #BDA781",
"& c #99A8AF",
"* c #B2BCC4",
"= c #B3C3C7",
"- c #BDD1D6",
"; c #D6E7E8",
": c #F2FFFF",
"> c None",
/* pixels */
">>>>>>>>>>>>>>>>>>>>>>>>>>>>>>>>>>>>>>>>>>>>>>>>>>>>>>>>>>>>>>>>",
">>>>>>>>>>>>>>>>>>>>>>>>>>>>>>>>>>>>>>>>>>>>>>>>>>>>>>>>>>>>>>>>",
">>>>>>>>>>>>>>>>>>>>>>>>>>>>>>>>>>>>>>>>>>>>>>>>>>>>>>>>>>>>>>>>",
">>>>>>>>>>>>>>>>>>>>>>>>>>>>>>>>>>>>>>>>>>>>>>>>>>>>>>>>>>>>>>>>",
">>>>>>>>>>>>>>>>>>>>>>>>>>>>>>>>>>>>>>>>>>>>>>>>>>>>>>>>>>>>>>>>",
">>>>>>>>>>>>>>>>>>>>>>>>>>>>>>>>>>>>>>>>>>>>>>>>>>>>>>>>>>>>>>>>",
">>>>>>>>>>>>>>>>>>>>>>>>>>>>>>>>>>>>>>>>>>>>>>>>>>>>>>>>>>>>>>>>",
">>>>>>>>>>>>>>>>>>>>>>>>>>>>>>>>>>>>>>>>>>>>>>>>>>>>>>>>>>>>>>>>",
">>>>>>>>>>>>>>>>>>>>>>>>>>>>>>>>>>>>>>XX>>>>>>>>>>>>>>>>>>>>>>>>",
">>>>>>>>>>>>>>>>>>>>>>>>>>>>>>>>>>>>>X;;XX>>>>>>>>>>>>>>>>>>>>>>",
">>>>>>>>>>>>>>>>>>>>>>>>>>>>>>>>>>>>X;;;;;X>>>>>>>>>>>>>>>>>>>>>",
">>>>>>>>>>>>>>>>>>>>>>>>>>>>>>>>>>>X=;;::;;X>>>>>>>>>>>>>>>>>>>>",
">>>>>>>>>>>>>>>>>>>>>>>>>>>>>>>>>>X=;;::::;;X>>>>>>>>>>>>>>>>>>>",
">>>>>>>>>>>>>>>>>>>>>>>>>>>>>>>>>X$=;;::::;;$X>>>>>>>>>>>>>>>>>>",
">>>>>>>>>>>>>>>>>>>>>>>>>>>>>>>>X$==;;;::;;==$ >>>>>>>>>>>>>>>>>",
">>>>>>>>>>>>>>>>>>>>>>>>>>>>>>>> $===;;;;;;===O.>>>>>>>>>>>>>>>>",
">>>>>>>>>>>>>>>>>>>>>>>>>>>>>>>.O@==@=;;;;===@O.>>>>>>>>>>>>>>>>",
">>>>>>>>>>>>>>>>>>>>>>>>>>XXXX.OO@@@@@=;;==%@@OO.>>>>>>>>>>>>>>>",
">>>>>>>>>>>>>>>>>XXX>>>>>X=;;=XOO@@*@@=====@@@OO.>>>>>>>>>>>>>>>",
">>>>>>>>>>>>>>>>X;;;X>>>X;;::;=OO@===@%====@@OOo.>>>>>>>>>>>>>>>",
">>>>>>>>>>>>>>>X=;:;;X>X=;::::;=OO@=@@%%==@@@OOoo.>>>>>>>>>>>>>>",
">>>>>>>>>>>>>> $=;;;;XX$;:::::;==O@@@@@%%@@@OO;;;X>>>>>>>>>>>>>>",
">>>>>>>>>>>>>.O$==;;=+$=;::::::;=O@@@@@%@@@O=;;:;;X>>>>>>>>>>>>>",
">>>>>>>>>>>>>.O@@===+$=;:::::::;==$O@@@@*@O=;;:::;;X>>>>>>>>>>>>",
">>>>>>>>>>>>.OO@@@=$$$=;:::::::;;=$$O@@===O=;;:::;;X>>>>>>>>>>>>",
">>>>>>>>>>>&.OO@@@@$$==;:::::::;;==$OO@@=OO=;;;:;;;$.>>>>>>>>>>>",
">>>>>>>>>&&.oOO@@@O$$==;;:::::;;;==$$oOOoOO@=;;;;;=$O.>>>>>>>>>>",
">>>>>>>>&&&.oOOO@OO$===;;;:::;;;===$$ooOoOO@@=;;;==@O.>>>>>>>>>>",
">>>>>>>&&&#.ooOOOOO$$===;;;;;;;;===$$ooooOO@@=====%@Oo.>>>>>>>>>",
">>>>>>&&&&#.oooOOOOO$$===;;;;;====$$$ooooO@@=@===%@@Oo.>>>>>>>>>",
">>>>>>-&&-&#.oooOO;OO@===========$$$OooooO@===@%%%=@Oo.>>>>>>>>>",
">>>>>>&&---&#.ooO=;;O@$===;======@O=OOoooO@%=%@@%@@@Oo.&>>>>>>>>",
">>>>>>&&&-&&&#.O@%=@O@%$=;;;=@==@@$$$OoooOO%%%@@@@@OOo.&&>>>>>>>",
">>>>>>>&&&&-&#.O@@%@O@%%$=;==@@@@@@$@OOooOO@%@@=@@@OOo.&&&>>>>>>",
">>>>>>>>&&&&#.OO@@@OO@%%@$==@@@@@@O@OOOooOOO@@@@@@OOoo.#&&>>>>>>",
">>>>>>>>>&&&#.OOO@@OO@@%@@@@@@;;@@OOOOOoooOOO@@O@OOOo.##-&&>>>>>",
">>>>>>>>>>&&#.oOO;OOOO@@@@@@@=;==@OOOOOooooOOOOOOOOoo.#---&>>>>>",
">>>>>>>>>&&&#.oo;:;OOO@@@@@@@====@OO=;;Oo.ooOOOOOOOo.##&-&&>>>>>",
">>>>>>>>&&&&&.o;;;;OOO@=@@@@%%$=%@O=;:;=O..oooooooo.##&&&&&>>>>>",
">>>>>>>&&&&&#.$=;%;%OO@@@@@@%%%%%@=;:::;=X#........##&&&&&>>>>>>",
">>>>>>&-&&&##.$==%%@OOO@@@@@%%%%@@=;::;;== #######&&&&-&&>>>>>>>",
">>>>>>---&##.O@=%%@@OoO@@@=@@%%%@$=;;:;;==O.#&&&&-&&&&&&>>>>>>>>",
">>>>>&&-&&#.oO@%%%@@OoOO@@@O@@%@O@==;;;===O.&&&&---&&&&>>>>>>>>>",
">>>>>&&&&&#.oO@@%@@@OoOO@@@O@@@Oo@%=====$@O.&&&&&-&&>>>>>>>>>>>>",
">>>>>-&&&##.oO@@@@@OOoOOO@OO@OOoO@@%%%$$@@Oo.&>>>>>>>>>>>>>>>>>>",
">>>>>&&&&##.oO@@@@@OOooOOOOOOOOoO@@%%%@@@@Oo.&&>>>>>>>>>>>>>>>>>",
">>>>>>&&&##.oOO@O@OOooooOOOOOOooOO@@%@@@@OOo.#&>>>>>>>>>>>>>>>>>",
">>>>>>&&-&##.OOOOOOoooooooooooooOO@@@@@@@OOo.#&&>>>>>>>>>>>>>>>>",
">>>>>>>&&&&##.OOOOOo...ooooooo.ooOO@@@O@OOOo.#&&>>>>>>>>>>>>>>>>",
">>>>>>>>&&&&&#......###........ooOOO@@OOOOoo.&&->>>>>>>>>>>>>>>>",
">>>>>>>>>>&&&&#######&&#-######.ooOOOOOOOOo.#&&&>>>>>>>>>>>>>>>>",
">>>>>>>>>>>>&&&&&&&&&&&---&&&&##.ooOOOOOoo.#&&&>>>>>>>>>>>>>>>>>",
">>>>>>>>>>>>>>>>&&&&-&&&-&&&&&&##..oooooo.#&&&>>>>>>>>>>>>>>>>>>",
">>>>>>>>>>>>>>>>>>>>>>>>>>>>>&&&&##......&&-&>>>>>>>>>>>>>>>>>>>",
">>>>>>>>>>>>>>>>>>>>>>>>>>>>>>>&&&&######&&&>>>>>>>>>>>>>>>>>>>>",
">>>>>>>>>>>>>>>>>>>>>>>>>>>>>>>>>&&&&&&&&&>>>>>>>>>>>>>>>>>>>>>>",
">>>>>>>>>>>>>>>>>>>>>>>>>>>>>>>>>>>>>>>>>>>>>>>>>>>>>>>>>>>>>>>>",
">>>>>>>>>>>>>>>>>>>>>>>>>>>>>>>>>>>>>>>>>>>>>>>>>>>>>>>>>>>>>>>>",
">>>>>>>>>>>>>>>>>>>>>>>>>>>>>>>>>>>>>>>>>>>>>>>>>>>>>>>>>>>>>>>>",
">>>>>>>>>>>>>>>>>>>>>>>>>>>>>>>>>>>>>>>>>>>>>>>>>>>>>>>>>>>>>>>>",
">>>>>>>>>>>>>>>>>>>>>>>>>>>>>>>>>>>>>>>>>>>>>>>>>>>>>>>>>>>>>>>>",
">>>>>>>>>>>>>>>>>>>>>>>>>>>>>>>>>>>>>>>>>>>>>>>>>>>>>>>>>>>>>>>>",
">>>>>>>>>>>>>>>>>>>>>>>>>>>>>>>>>>>>>>>>>>>>>>>>>>>>>>>>>>>>>>>>",
">>>>>>>>>>>>>>>>>>>>>>>>>>>>>>>>>>>>>>>>>>>>>>>>>>>>>>>>>>>>>>>>"
};
