/* XPM */
static char *Rock7_1[] = {
/* columns rows colors chars-per-pixel */
"64 64 8 1 ",
"  c #2C1B21",
". c #3B282C",
"X c #4D3337",
"o c #634244",
"O c #845D58",
"+ c #A3776B",
"@ c #C6967D",
"# c None",
/* pixels */
"################################################################",
"################################################################",
"################################################################",
"########################      ##################################",
"######################  OOOOOO  ################################",
"####################  OO+++++OOO ###############################",
"################### oOO++@@@++OOO ##############################",
"################## oOO++@@@@+++OOo #############################",
"################# ooO++@@@@@@++OOO #############################",
"################ XoOO++@@@@@+++OOOo ############################",
"############### XooOO+@@+@@+++OO+Ooo ###########################",
"############## XoOo+O+@@+++++OOO+Ooo #####      ################",
"############## oOOo+OO+@++++OOO++OOoo ### oOOOOO  ##############",
"############# XoOOo++OO+@+OOO+++OOOoo ## OO+++++Oo #############",
"############ XXoOOoo++OO+@+++++OOOOoo # OO++@@@++Oo ############",
"############ oXoOOOo+@+OO++++OOOOOooX. oO++@@@+@++Oo ###########",
"########### XoXXoOOoo+++OOOOOO+OOOoo..XoO+++@+++++Ooo ##########",
"########### XooXooOOooo+++OO++OoOooX.XoooO+++++OO++Oo ##########",
"########## .XoOoXooOOOooOOOOOooOooX..XoOoOO+++OO++OOoX #########",
"########## .XoOOooooOOOooooooOOOXXX.XooOooOOOOO@++OooXo ########",
"########## .XXoOOooXoooooooOOOXXOOoX.XoOOoo+++@++OOoXoo ########",
"########## .XXooOOooXXooOOOOOXO+++OoX.ooOOOoo+++OOoooOoo #######",
"########## ..XXooOOOoXXXoooXXO++@++Oo.XoXXXXXXOOOoooOOoo #######",
"########## ..XXXoooooooooXXXO++@@++OoX.XoOOOOOXooooOOooXo ######",
"########## .X.XXXXXXXXXXX.XoO+++++OOOoXoO+++++OXoOOOooXoo ######",
"########## ..XXXoOOOOOoX.XoOOO++OOOOOXoO+++@@++OXooooXXoX ######",
"########## ..XXoOO+++OOoX.oO+OO+++OOXoO++@@@@@++OXoXXXoXX ######",
"########### . XOO++@++OOoXoO++OOOOOXoO++@@@@@+@+OOXoooXX. ######",
"###########  XoOO+@@@+OOOXoOO+++OoXXoO++@@@@++@++OXoXXX.. ######",
"########## .XoO+O++@++O+OoXoOOooooXooO+++@@++@@++OXXX.oOO ######",
"########## .XoO+OO+++O++OoXoooOOoXXoooO+++++@@+O+OoX.oO+Oo #####",
"######### .oXoO++OO++++OOoX.ooXXXXXo+oOO++++++OO+OoX.O+@+Oo ####",
"######### Xo.XOO++OOOOOOOoX.oXO+++OX++oOO++++OO++OoXoO+@++O ####",
"######## .XoOXoOO+++OO++OoX.XO++@++OX++ooOOOOO++OoXXXoO+O+O ####",
"######## .XoOoXoOOOOO++Ooo.XoO+@@@+OoX++OooOO+@+OoXo.XooOoX ####",
"######## .XXoOooooOOOOOooX.ooO++@++OoXO+++@@+++OoXoX..oOoX. ####",
"######## ..XoOooOOOOOoooo.XXooO+++OooXoOO+++++Ooooo.X XoX. #####",
"######## ..XXoOooooooooo...XXX++OOooX.XooOOOOoooOoXoX     ######",
"######## .X.XXoOOOooXXX.XoOOOoXOOooXoX.OOoooo++OoXOoX ##########",
"######### .XXXXooooXX..XoO+++OoXoOOooX.oO+++++OooOOoX ##########",
"######### ..XXoXXXXXXoXoO+@@++OoXoooXXXXoOO++oooOOoX. ##########",
"########## ..XXooooooXoO+@@@@++Oo.XX.oOoXoooooOOOoXX. ##########",
"########### ..XXXXXXXooO++@++@+OoX..XXoOOOoooooooXXX. ##########",
"############ ...... oOooO+++O++Ooo ..XooOOOoooXXXoX. ###########",
"#############  ... oo+oooOOOO++OooX .XXoooooXXXXoX. ############",
"###############    XO+oO+OO+++OOoOo ..XXXXXoooooXX. ############",
"################## XO++oO++++OOXoOo  ...XXooooXXX  #############",
"################## XoO+ooOOOOOXoOOo #  ..XXXXXX  ###############",
"################## .XoOOooooXXoOOoo ###        #################",
"################## .XXoOOOOoooOOooX ############################",
"################### .XXXooooOOOooX #############################",
"################### ..XoooOOooooXX #############################",
"#################### ..XXoooooXXX ##############################",
"#####################  .XXXXXXXX ###############################",
"#######################         ################################",
"################################################################",
"################################################################",
"################################################################",
"################################################################",
"################################################################",
"################################################################",
"################################################################",
"################################################################",
"################################################################"
};
